<svg id="Layer_1" data-name="Layer 1" xmlns="http://www.w3.org/2000/svg" xmlns:xlink="http://www.w3.org/1999/xlink" viewBox="0 0 235.13 262.86"><defs><style>.cls-1,.cls-22,.cls-40,.cls-47,.cls-54,.cls-62,.cls-69{fill:none;}.cls-2,.cls-5{opacity:0.72;}.cls-13,.cls-14,.cls-15,.cls-18,.cls-19,.cls-2,.cls-20,.cls-22,.cls-23,.cls-29,.cls-31,.cls-32,.cls-33,.cls-5,.cls-8{isolation:isolate;}.cls-2{fill:url(#linear-gradient);}.cls-3{fill:#683d14;fill-opacity:0.51;}.cls-4{fill:url(#linear-gradient-2);}.cls-5{fill:url(#linear-gradient-3);}.cls-6{clip-path:url(#clip-path);}.cls-7{fill:url(#linear-gradient-4);}.cls-8{opacity:0.42;fill:url(#linear-gradient-5);}.cls-9{opacity:0.54;}.cls-10{fill:url(#radial-gradient);}.cls-11,.cls-29,.cls-33{opacity:0.8;}.cls-12{fill:url(#radial-gradient-2);}.cls-13,.cls-14,.cls-20,.cls-23{opacity:0.5;}.cls-13{fill:url(#radial-gradient-3);}.cls-14{fill:url(#radial-gradient-4);}.cls-15{opacity:0.25;fill:url(#radial-gradient-5);}.cls-16{fill:url(#radial-gradient-6);}.cls-17{fill:url(#radial-gradient-7);}.cls-18,.cls-56{opacity:0.2;}.cls-18{fill:url(#radial-gradient-8);}.cls-19{opacity:0.15;fill:url(#radial-gradient-9);}.cls-20{fill:url(#radial-gradient-10);}.cls-21{fill:url(#radial-gradient-11);}.cls-22{stroke:#fff;stroke-width:1.69px;opacity:0.03;}.cls-22,.cls-33{stroke-miterlimit:10;}.cls-23{fill:url(#radial-gradient-12);}.cls-24{fill:url(#radial-gradient-13);}.cls-25{fill:url(#radial-gradient-14);}.cls-26{fill:url(#radial-gradient-15);}.cls-27{fill:url(#radial-gradient-16);}.cls-28{fill:url(#radial-gradient-17);}.cls-29{fill:url(#linear-gradient-6);}.cls-30{clip-path:url(#clip-path-2);}.cls-31,.cls-32,.cls-34{opacity:0.3;}.cls-31{fill:url(#linear-gradient-7);}.cls-32{fill:url(#linear-gradient-8);}.cls-33,.cls-40{stroke-width:0.85px;}.cls-33{fill:url(#linear-gradient-9);stroke:url(#linear-gradient-10);}.cls-35{fill:url(#radial-gradient-18);}.cls-36{fill:url(#radial-gradient-19);}.cls-37{fill:url(#radial-gradient-20);}.cls-38{fill:url(#radial-gradient-21);}.cls-39{fill:url(#radial-gradient-22);}.cls-40,.cls-47,.cls-54,.cls-62,.cls-69{stroke-linecap:round;stroke-linejoin:round;}.cls-40{stroke:url(#radial-gradient-23);}.cls-41{fill:url(#radial-gradient-24);}.cls-42{fill:url(#radial-gradient-25);}.cls-43{fill:url(#radial-gradient-26);}.cls-44{fill:url(#radial-gradient-27);}.cls-45{fill:url(#radial-gradient-28);}.cls-46{fill:url(#radial-gradient-29);}.cls-47{stroke-width:0.48px;stroke:url(#radial-gradient-30);}.cls-48{fill:url(#radial-gradient-31);}.cls-49{fill:url(#radial-gradient-32);}.cls-50{fill:url(#radial-gradient-33);}.cls-51{fill:url(#radial-gradient-34);}.cls-52{fill:url(#radial-gradient-35);}.cls-53{fill:url(#radial-gradient-36);}.cls-54{stroke-width:0.25px;stroke:url(#radial-gradient-37);}.cls-55{fill:url(#radial-gradient-38);}.cls-57{fill:url(#radial-gradient-39);}.cls-58{fill:url(#radial-gradient-40);}.cls-59{fill:url(#radial-gradient-41);}.cls-60{fill:url(#radial-gradient-42);}.cls-61{fill:url(#radial-gradient-43);}.cls-62{stroke-width:0.56px;stroke:url(#radial-gradient-44);}.cls-63{fill:url(#radial-gradient-45);}.cls-64{fill:url(#radial-gradient-46);}.cls-65{fill:url(#radial-gradient-47);}.cls-66{fill:url(#radial-gradient-48);}.cls-67{fill:url(#radial-gradient-49);}.cls-68{fill:url(#radial-gradient-50);}.cls-69{stroke-width:0.3px;stroke:url(#radial-gradient-51);}.cls-70{fill:url(#radial-gradient-52);}.cls-71{fill:#fff;}.cls-72{fill:#c7c6c6;}</style><linearGradient id="linear-gradient" x1="125.46" y1="495.33" x2="125.46" y2="521.9" gradientTransform="translate(0 -500)" gradientUnits="userSpaceOnUse"><stop offset="0" stop-color="#f6fbff"/><stop offset="0.63" stop-color="#e9f1f6"/><stop offset="1" stop-color="#c5dae1"/></linearGradient><linearGradient id="linear-gradient-2" x1="143.32" y1="518.67" x2="121.03" y2="700.28" gradientTransform="translate(0 -500)" gradientUnits="userSpaceOnUse"><stop offset="0" stop-color="#c0c5c8"/><stop offset="1" stop-color="#b0c2c9"/></linearGradient><linearGradient id="linear-gradient-3" x1="77.03" y1="622.51" x2="171.41" y2="622.51" xlink:href="#linear-gradient"/><clipPath id="clip-path"><path class="cls-1" d="M218.46,217.28V13.16c0,4.93-63.58,8.92-87.38,8.92h-3.59c-4.8-.07-9.6-.25-14.39-.47q-8.52-.39-17-1-8.76-.6-17.52-1.4c-5.3-.49-10.6-1-15.88-1.73C58.82,17,55,16,51.05,16s-7.59,1.67-11.45,2.5l-1,.2a20,20,0,0,1-3.85.59c-.45,0-.91.09-1.36.12-.22,0-.86-.06-1,.14s.24.62.37.76a6.26,6.26,0,0,0,.76.6c.32.25.67.47,1,.71L38,24.1,43.53,28l.16.11V217.28a11.55,11.55,0,0,0,11.13,14.58H207.36a11.5,11.5,0,0,0,11.1-14.58Z"/></clipPath><linearGradient id="linear-gradient-4" x1="92.46" y1="620.89" x2="143.63" y2="753.06" gradientTransform="translate(0 -500)" gradientUnits="userSpaceOnUse"><stop offset="0" stop-color="#f5f5f5"/><stop offset="1" stop-color="#c3d1d6"/></linearGradient><linearGradient id="linear-gradient-5" x1="71" y1="664.6" x2="185.1" y2="664.6" gradientTransform="translate(0 -500)" gradientUnits="userSpaceOnUse"><stop offset="0" stop-color="#3eac50"/><stop offset="1" stop-color="#6db967"/></linearGradient><radialGradient id="radial-gradient" cx="-1842.79" cy="-7043.64" r="64.7" gradientTransform="matrix(0.01, 1, -0.12, 0, -619.91, 1928.91)" gradientUnits="userSpaceOnUse"><stop offset="0" stop-color="#e6f3fc"/><stop offset="1" stop-color="#bacae9" stop-opacity="0"/></radialGradient><radialGradient id="radial-gradient-2" cx="-1573.51" cy="7270.8" r="54.3" gradientTransform="matrix(0.01, -1, 0.16, 0, -1093.1, -1464.44)" xlink:href="#radial-gradient"/><radialGradient id="radial-gradient-3" cx="199.3" cy="654.37" r="3.83" gradientTransform="translate(0 -500)" xlink:href="#radial-gradient"/><radialGradient id="radial-gradient-4" cx="199.3" cy="581.19" r="3.83" gradientTransform="translate(0 -500)" xlink:href="#radial-gradient"/><radialGradient id="radial-gradient-5" cx="-1634.99" cy="86.15" r="13.58" gradientTransform="translate(1599.93 -456.34) rotate(-17.29)" gradientUnits="userSpaceOnUse"><stop offset="0.1" stop-color="#010101"/><stop offset="0.11" stop-color="#070706"/><stop offset="0.16" stop-color="#221d12"/><stop offset="0.22" stop-color="#392e16"/><stop offset="0.28" stop-color="#4a3a17"/><stop offset="0.37" stop-color="#564318"/><stop offset="0.48" stop-color="#5c4918"/><stop offset="0.8" stop-color="#5f4a17"/><stop offset="1" stop-color="#010101"/></radialGradient><radialGradient id="radial-gradient-6" cx="-1649.95" cy="133.63" r="0.45" gradientTransform="translate(1599.94 -456.34) rotate(-17.29)" gradientUnits="userSpaceOnUse"><stop offset="0" stop-color="#d5e195"/><stop offset="0.06" stop-color="#b1bb79"/><stop offset="0.14" stop-color="#868f5f"/><stop offset="0.22" stop-color="#646946"/><stop offset="0.31" stop-color="#454930"/><stop offset="0.4" stop-color="#2c2f1f"/><stop offset="0.51" stop-color="#191a13"/><stop offset="0.62" stop-color="#0b0c0a"/><stop offset="0.76" stop-color="#020404"/><stop offset="1" stop-color="#010101"/></radialGradient><radialGradient id="radial-gradient-7" cx="-1651.12" cy="137.32" r="0.45" gradientTransform="translate(1599.93 -456.34) rotate(-17.29)" xlink:href="#radial-gradient-6"/><radialGradient id="radial-gradient-8" cx="-1641.97" cy="136.7" r="3.4" gradientTransform="matrix(0.95, -0.3, 0.3, 0.95, 1589.84, -449)" gradientUnits="userSpaceOnUse"><stop offset="0.05" stop-color="#010101"/><stop offset="0.09" stop-color="#070b08"/><stop offset="0.3" stop-color="#1f341c"/><stop offset="0.48" stop-color="#265325"/><stop offset="0.64" stop-color="#30672c"/><stop offset="0.75" stop-color="#336e2e"/><stop offset="0.79" stop-color="#506f2a"/><stop offset="0.83" stop-color="#717021"/><stop offset="0.86" stop-color="#7f701b"/><stop offset="0.89" stop-color="#7a6d1c"/><stop offset="0.91" stop-color="#71641b"/><stop offset="0.94" stop-color="#5e5419"/><stop offset="0.96" stop-color="#433d18"/><stop offset="0.98" stop-color="#232114"/><stop offset="1" stop-color="#010101"/></radialGradient><radialGradient id="radial-gradient-9" cx="-1629.72" cy="97.81" r="9.05" gradientTransform="matrix(0.95, -0.3, 0.3, 0.95, 1589.83, -448.99)" gradientUnits="userSpaceOnUse"><stop offset="0" stop-color="#1d090a"/><stop offset="0.73" stop-color="#994123"/><stop offset="1" stop-color="#1d090a"/></radialGradient><radialGradient id="radial-gradient-10" cx="-1629.72" cy="97.81" r="4.53" gradientTransform="matrix(0.95, -0.3, 0.3, 0.95, 1589.83, -448.99)" gradientUnits="userSpaceOnUse"><stop offset="0.15" stop-color="#fff"/><stop offset="0.21" stop-color="#e5d3d3"/><stop offset="0.29" stop-color="#c49c9e"/><stop offset="0.36" stop-color="#ad7477"/><stop offset="0.42" stop-color="#9f5d60"/><stop offset="0.45" stop-color="#9a5457"/><stop offset="0.57" stop-color="#6b3436"/><stop offset="0.69" stop-color="#431719"/><stop offset="0.79" stop-color="#270d0e"/><stop offset="0.85" stop-color="#1d090a"/><stop offset="0.86" stop-color="#210a0a"/><stop offset="0.86" stop-color="#300f0e"/><stop offset="0.87" stop-color="#461410"/><stop offset="0.88" stop-color="#641e11"/><stop offset="0.89" stop-color="#8b2e19"/><stop offset="0.9" stop-color="#b84323"/><stop offset="0.9" stop-color="#d34f29"/><stop offset="0.9" stop-color="#c94928"/><stop offset="0.91" stop-color="#9d371d"/><stop offset="0.93" stop-color="#772615"/><stop offset="0.94" stop-color="#591a10"/><stop offset="0.95" stop-color="#3e130f"/><stop offset="0.97" stop-color="#2b0e0d"/><stop offset="0.98" stop-color="#1f090b"/><stop offset="1" stop-color="#1d090a"/></radialGradient><radialGradient id="radial-gradient-11" cx="-1629.72" cy="97.81" r="3.77" gradientTransform="matrix(0.95, -0.3, 0.3, 0.95, 1589.83, -448.99)" gradientUnits="userSpaceOnUse"><stop offset="0.15" stop-color="#fff"/><stop offset="0.28" stop-color="#c3c2c2"/><stop offset="0.43" stop-color="#878889"/><stop offset="0.56" stop-color="#585858"/><stop offset="0.69" stop-color="#323232"/><stop offset="0.81" stop-color="#161617"/><stop offset="0.92" stop-color="#050606"/><stop offset="1" stop-color="#010101"/></radialGradient><radialGradient id="radial-gradient-12" cx="-1642.62" cy="138.74" r="6.79" gradientTransform="matrix(0.95, -0.3, 0.3, 0.95, 1589.83, -448.99)" gradientUnits="userSpaceOnUse"><stop offset="0.64" stop-color="#010101"/><stop offset="0.72" stop-color="#010302"/><stop offset="0.75" stop-color="#060908"/><stop offset="0.77" stop-color="#0c140e"/><stop offset="0.78" stop-color="#132517"/><stop offset="0.8" stop-color="#1b3b1d"/><stop offset="0.8" stop-color="#1c431f"/><stop offset="0.81" stop-color="#212c19"/><stop offset="0.83" stop-color="#2c190f"/><stop offset="0.85" stop-color="#33110d"/><stop offset="0.86" stop-color="#35100f"/><stop offset="0.87" stop-color="#200a0a"/><stop offset="0.89" stop-color="#100606"/><stop offset="0.9" stop-color="#050303"/><stop offset="0.93" stop-color="#020102"/><stop offset="1" stop-color="#010101"/></radialGradient><radialGradient id="radial-gradient-13" cx="-1640.13" cy="130.84" r="1.93" gradientTransform="matrix(0.95, -0.3, 0.3, 0.95, 1589.83, -448.99)" gradientUnits="userSpaceOnUse"><stop offset="0.1" stop-color="#010101"/><stop offset="0.25" stop-color="#1a130c"/><stop offset="0.43" stop-color="#352413"/><stop offset="0.61" stop-color="#483014"/><stop offset="0.8" stop-color="#533613"/><stop offset="1" stop-color="#573812"/></radialGradient><radialGradient id="radial-gradient-14" cx="-1633.4" cy="109.5" r="1.08" gradientTransform="matrix(0.95, -0.3, 0.3, 0.95, 1589.83, -448.99)" gradientUnits="userSpaceOnUse"><stop offset="0.1" stop-color="#1a301d"/><stop offset="0.23" stop-color="#142318"/><stop offset="0.48" stop-color="#0a0f0c"/><stop offset="0.73" stop-color="#030404"/><stop offset="1" stop-color="#010101"/></radialGradient><radialGradient id="radial-gradient-15" cx="64.3" cy="3148.21" r="0.71" gradientTransform="matrix(1, 0, 0, -1, 0, 3296.69)" xlink:href="#radial-gradient-13"/><radialGradient id="radial-gradient-16" cx="-1646.65" cy="123.16" r="1" gradientTransform="translate(1599.93 -456.35) rotate(-17.29)" gradientUnits="userSpaceOnUse"><stop offset="0.1" stop-color="#010101"/><stop offset="0.29" stop-color="#151711"/><stop offset="0.52" stop-color="#262a1b"/><stop offset="0.75" stop-color="#313523"/><stop offset="1" stop-color="#333824"/></radialGradient><radialGradient id="radial-gradient-17" cx="-1986.49" cy="2352.02" r="1.86" gradientTransform="matrix(1, 0, 0, -1, 0, 3296.69)" xlink:href="#radial-gradient-14"/><linearGradient id="linear-gradient-6" x1="191.1" y1="727.63" x2="73" y2="571.11" xlink:href="#linear-gradient-5"/><clipPath id="clip-path-2"><path class="cls-1" d="M208.39,212V79h0c0,4.75-55.7,8.6-77.28,8.6S53.82,83.7,53.82,79h0V212c.08,5.91,2.77,11.84,8.94,11.84h136.7C205.61,223.86,208.46,217.81,208.39,212Z"/></clipPath><linearGradient id="linear-gradient-7" x1="287.76" y1="674.27" x2="40.73" y2="651.29" xlink:href="#linear-gradient-5"/><linearGradient id="linear-gradient-8" x1="7.55" y1="699.39" x2="242" y2="699.39" xlink:href="#linear-gradient-5"/><linearGradient id="linear-gradient-9" x1="268.36" y1="578.95" x2="85.21" y2="578.95" xlink:href="#linear-gradient-5"/><linearGradient id="linear-gradient-10" x1="53.4" y1="578.95" x2="208.82" y2="578.95" gradientTransform="translate(0 -500)" gradientUnits="userSpaceOnUse"><stop offset="0" stop-color="#72b960"/><stop offset="1" stop-color="#6db967"/></linearGradient><radialGradient id="radial-gradient-18" cx="322.88" cy="2349.99" r="14.17" gradientTransform="matrix(0.25, -0.97, 0.96, 0.25, -2235.48, -185.98)" gradientUnits="userSpaceOnUse"><stop offset="0" stop-color="#53b261" stop-opacity="0.8"/><stop offset="0.3" stop-color="#56b363" stop-opacity="0.8"/><stop offset="0.52" stop-color="#60b66b" stop-opacity="0.8"/><stop offset="0.72" stop-color="#73bc79" stop-opacity="0.8"/><stop offset="0.91" stop-color="#8dc68b" stop-opacity="0.81"/><stop offset="1" stop-color="#99cb95" stop-opacity="0.81"/></radialGradient><radialGradient id="radial-gradient-19" cx="189.6" cy="770.09" r="9.18" gradientTransform="translate(-135.96 -513.94) scale(1.24 0.77)" gradientUnits="userSpaceOnUse"><stop offset="0" stop-color="#76c097"/><stop offset="0.38" stop-color="#76c097" stop-opacity="0.99"/><stop offset="0.52" stop-color="#76c198" stop-opacity="0.96"/><stop offset="0.61" stop-color="#77c198" stop-opacity="0.91"/><stop offset="0.69" stop-color="#79c198" stop-opacity="0.84"/><stop offset="0.76" stop-color="#79c198" stop-opacity="0.75"/><stop offset="0.82" stop-color="#78c19a" stop-opacity="0.63"/><stop offset="0.87" stop-color="#7ac29b" stop-opacity="0.49"/><stop offset="0.92" stop-color="#7bc29c" stop-opacity="0.33"/><stop offset="0.97" stop-color="#7fc49e" stop-opacity="0.16"/><stop offset="1" stop-color="#80c49f" stop-opacity="0"/></radialGradient><radialGradient id="radial-gradient-20" cx="330.81" cy="2342.51" r="1.16" gradientTransform="matrix(0.25, -0.97, 0.96, 0.25, -2222.4, -183.92)" gradientUnits="userSpaceOnUse"><stop offset="0" stop-color="#c3e1d3"/><stop offset="0.38" stop-color="#c2e1d3" stop-opacity="0.99"/><stop offset="0.52" stop-color="#c0e0d1" stop-opacity="0.96"/><stop offset="0.61" stop-color="#bddfce" stop-opacity="0.91"/><stop offset="0.69" stop-color="#b7dcc9" stop-opacity="0.84"/><stop offset="0.76" stop-color="#b1d9c5" stop-opacity="0.75"/><stop offset="0.82" stop-color="#a9d6bf" stop-opacity="0.63"/><stop offset="0.87" stop-color="#9fd1b7" stop-opacity="0.49"/><stop offset="0.92" stop-color="#95cdaf" stop-opacity="0.33"/><stop offset="0.97" stop-color="#89c8a7" stop-opacity="0.16"/><stop offset="1" stop-color="#80c49f" stop-opacity="0"/></radialGradient><radialGradient id="radial-gradient-21" cx="332.72" cy="2344.11" r="0.42" gradientTransform="matrix(0.25, -0.97, 0.96, 0.25, -2222.51, -180.87)" gradientUnits="userSpaceOnUse"><stop offset="0" stop-color="#c3e1d3"/><stop offset="0.22" stop-color="#c2e1d1" stop-opacity="0.99"/><stop offset="0.36" stop-color="#bfe0d0" stop-opacity="0.95"/><stop offset="0.48" stop-color="#bbdecd" stop-opacity="0.89"/><stop offset="0.58" stop-color="#b5dbc8" stop-opacity="0.8"/><stop offset="0.68" stop-color="#acd7c2" stop-opacity="0.69"/><stop offset="0.77" stop-color="#a3d3bb" stop-opacity="0.55"/><stop offset="0.85" stop-color="#98ceb2" stop-opacity="0.38"/><stop offset="0.93" stop-color="#8bc9a9" stop-opacity="0.2"/><stop offset="1" stop-color="#80c49f" stop-opacity="0"/></radialGradient><radialGradient id="radial-gradient-22" cx="316.33" cy="2360.09" r="0.42" gradientTransform="matrix(0.25, -0.97, 0.96, 0.25, -2250.01, -184.75)" xlink:href="#radial-gradient-21"/><radialGradient id="radial-gradient-23" cx="91.79" cy="592.75" r="3.7" gradientTransform="translate(0 -500)" xlink:href="#radial-gradient-20"/><radialGradient id="radial-gradient-24" cx="108.18" cy="413.94" r="1.69" gradientTransform="translate(0 -255.45) scale(1 0.85)" gradientUnits="userSpaceOnUse"><stop offset="0" stop-color="#76c097"/><stop offset="0.09" stop-color="#76c097" stop-opacity="0.97"/><stop offset="0.23" stop-color="#77c198" stop-opacity="0.88"/><stop offset="0.4" stop-color="#79c198" stop-opacity="0.74"/><stop offset="0.59" stop-color="#7ac29b" stop-opacity="0.54"/><stop offset="0.79" stop-color="#7cc39c" stop-opacity="0.28"/><stop offset="1" stop-color="#80c49f" stop-opacity="0"/></radialGradient><radialGradient id="radial-gradient-25" cx="367.1" cy="2331.72" r="8.01" gradientTransform="matrix(0.25, -0.97, 0.96, 0.25, -2185, -156.91)" xlink:href="#radial-gradient-18"/><radialGradient id="radial-gradient-26" cx="226.3" cy="757.59" r="5.18" gradientTransform="translate(-136.95 -519.01) scale(1.24 0.77)" xlink:href="#radial-gradient-19"/><radialGradient id="radial-gradient-27" cx="371.58" cy="2327.49" r="0.66" gradientTransform="matrix(0.25, -0.97, 0.96, 0.25, -2177.61, -155.74)" xlink:href="#radial-gradient-20"/><radialGradient id="radial-gradient-28" cx="372.66" cy="2328.39" r="0.24" gradientTransform="matrix(0.25, -0.97, 0.96, 0.25, -2177.68, -154.02)" xlink:href="#radial-gradient-21"/><radialGradient id="radial-gradient-29" cx="363.4" cy="2337.42" r="0.24" gradientTransform="matrix(0.25, -0.97, 0.96, 0.25, -2193.22, -156.21)" xlink:href="#radial-gradient-21"/><radialGradient id="radial-gradient-30" cx="140.22" cy="572.21" r="2.09" gradientTransform="translate(0 -500)" xlink:href="#radial-gradient-20"/><radialGradient id="radial-gradient-31" cx="149.48" cy="392.14" r="0.95" gradientTransform="translate(0 -258.61) scale(1 0.85)" xlink:href="#radial-gradient-24"/><radialGradient id="radial-gradient-32" cx="349.24" cy="2312.74" r="4.26" gradientTransform="matrix(0.25, -0.97, 0.96, 0.25, -2180.19, -188.39)" xlink:href="#radial-gradient-18"/><radialGradient id="radial-gradient-33" cx="213.24" cy="737.55" r="2.76" gradientTransform="translate(-138.27 -520.35) scale(1.24 0.77)" xlink:href="#radial-gradient-19"/><radialGradient id="radial-gradient-34" cx="351.62" cy="2310.49" r="0.35" gradientTransform="matrix(0.25, -0.97, 0.96, 0.25, -2176.26, -187.77)" xlink:href="#radial-gradient-20"/><radialGradient id="radial-gradient-35" cx="352.2" cy="2310.97" r="0.13" gradientTransform="matrix(0.25, -0.97, 0.96, 0.25, -2176.3, -186.86)" xlink:href="#radial-gradient-21"/><radialGradient id="radial-gradient-36" cx="347.27" cy="2315.78" r="0.13" gradientTransform="matrix(0.25, -0.97, 0.96, 0.25, -2184.56, -188.02)" xlink:href="#radial-gradient-21"/><radialGradient id="radial-gradient-37" cx="124.92" cy="551.86" r="1.11" gradientTransform="translate(0 -500)" xlink:href="#radial-gradient-20"/><radialGradient id="radial-gradient-38" cx="129.85" cy="371.02" r="0.51" gradientTransform="translate(0 -261.68) scale(1 0.85)" xlink:href="#radial-gradient-24"/><radialGradient id="radial-gradient-39" cx="394.65" cy="2383.9" r="9.35" gradientTransform="matrix(0.25, -0.97, 0.96, 0.25, -2214.32, -91.16)" xlink:href="#radial-gradient-18"/><radialGradient id="radial-gradient-40" cx="245.17" cy="816.71" r="6.05" gradientTransform="translate(-132.97 -513.2) scale(1.24 0.77)" xlink:href="#radial-gradient-19"/><radialGradient id="radial-gradient-41" cx="399.88" cy="2378.96" r="0.77" gradientTransform="matrix(0.25, -0.97, 0.96, 0.25, -2205.69, -89.8)" xlink:href="#radial-gradient-20"/><radialGradient id="radial-gradient-42" cx="401.14" cy="2380.01" r="0.28" gradientTransform="matrix(0.25, -0.97, 0.96, 0.25, -2205.76, -87.79)" xlink:href="#radial-gradient-21"/><radialGradient id="radial-gradient-43" cx="390.33" cy="2390.56" r="0.28" gradientTransform="matrix(0.25, -0.97, 0.96, 0.25, -2223.91, -90.35)" xlink:href="#radial-gradient-21"/><radialGradient id="radial-gradient-44" cx="166.84" cy="624.88" r="2.44" gradientTransform="translate(0 -500)" xlink:href="#radial-gradient-20"/><radialGradient id="radial-gradient-45" cx="177.67" cy="445.08" r="1.11" gradientTransform="translate(0 -250.92) scale(1 0.85)" xlink:href="#radial-gradient-24"/><radialGradient id="radial-gradient-46" cx="377.7" cy="2404.34" r="4.97" gradientTransform="matrix(0.25, -0.97, 0.96, 0.25, -2246.5, -92.23)" xlink:href="#radial-gradient-18"/><radialGradient id="radial-gradient-47" cx="230.45" cy="840.71" r="3.22" gradientTransform="translate(-131.28 -508.72) scale(1.24 0.77)" xlink:href="#radial-gradient-19"/><radialGradient id="radial-gradient-48" cx="380.49" cy="2401.71" r="0.41" gradientTransform="matrix(0.25, -0.97, 0.96, 0.25, -2241.91, -91.51)" xlink:href="#radial-gradient-20"/><radialGradient id="radial-gradient-49" cx="381.16" cy="2402.27" r="0.15" gradientTransform="matrix(0.25, -0.97, 0.96, 0.25, -2241.95, -90.44)" xlink:href="#radial-gradient-21"/><radialGradient id="radial-gradient-50" cx="375.4" cy="2407.88" r="0.15" gradientTransform="matrix(0.25, -0.97, 0.96, 0.25, -2251.6, -91.8)" xlink:href="#radial-gradient-21"/><radialGradient id="radial-gradient-51" cx="152.89" cy="643.71" r="1.3" gradientTransform="translate(0 -500)" xlink:href="#radial-gradient-20"/><radialGradient id="radial-gradient-52" cx="158.65" cy="463.02" r="0.59" gradientTransform="translate(0 -248.32) scale(1 0.85)" xlink:href="#radial-gradient-24"/></defs><path class="cls-2" d="M218.46,13.16c0,4.93-63.58,8.92-87.38,8.92-4.58,0-9.17-.12-13.75-.28q-9.63-.35-19.26-.92-10.16-.61-20.27-1.47c-2.52-.22-5-.46-7.59-.7s-5.15-.55-7.72-.86c-1.24-.16-2.48-.36-3.71-.62s-2.48-.49-3.73-.66a21.87,21.87,0,0,0-7.13,0c-2.33.46-4.57,1.28-6.88,1.84a41.92,41.92,0,0,1-8.58,1.1,7.59,7.59,0,0,1,1.6-1.4,36.29,36.29,0,0,1,4.4-2.53c2.14-1.08,4.26-2.37,6.45-3.41A29.53,29.53,0,0,1,52.37,10c4.44-.82,8.93-1.38,13.42-1.88C71.4,7.43,77,6.93,82.65,6.48q9-.71,18-1.21,8.44-.48,16.89-.78c4.5-.15,9-.27,13.49-.27C154.86,4.25,218.46,8.24,218.46,13.16Z"/><polygon class="cls-3" points="14.4 250.22 2.81 256.65 213.87 256.65 231.81 243.52 231.76 241.03 14.4 250.22"/><path class="cls-4" d="M212.68,215.55l-.87-199.39c-12.06,5.92-64.22,5.92-80.71,5.92h-4c-1.26,0-2.52-.06-3.79-.11-1.43,0-2.85-.1-4.28-.16s-3.13-.13-4.69-.21l-5-.26-5.25-.29c-1.81-.1-3.61-.21-5.42-.33l-5.5-.35L87.69,20l-5.4-.4-5.24-.41-5-.42q-2.33-.2-4.65-.42c-1.41-.13-2.83-.27-4.24-.42l-1.93-.2c-.93-.16-1.85-.36-2.77-.6L57.9,17a25.93,25.93,0,0,0-7.35-.7l-1.24.08.22,199.21a9.82,9.82,0,0,0,6.76,12.12h0A10.62,10.62,0,0,0,59,228H203.24a9.81,9.81,0,0,0,9.81-9.81A9.62,9.62,0,0,0,212.68,215.55Z"/><path class="cls-5" d="M218.46,217.28V13.16c0,4.93-63.58,8.92-87.38,8.92h-3.59c-4.8-.07-9.6-.25-14.39-.47q-8.52-.39-17-1-8.76-.6-17.52-1.4c-5.3-.49-10.6-1-15.88-1.73C58.82,17,55,16,51.05,16s-7.59,1.67-11.45,2.5l-1,.2a20,20,0,0,1-3.85.59c-.45,0-.91.09-1.36.12-.22,0-.86-.06-1,.14s.24.62.37.76a6.26,6.26,0,0,0,.76.6c.32.25.67.47,1,.71L38,24.1,43.53,28l.16.11V217.28a11.55,11.55,0,0,0,11.13,14.58H207.36a11.5,11.5,0,0,0,11.1-14.58Z"/><g class="cls-6"><path class="cls-7" d="M213.72,220.85c0-8.62-36.85-11.59-82.32-11.59s-82.31,3.3-82.31,11.92,8,6.88,82.31,7.57C201.92,229.4,213.72,229.47,213.72,220.85Z"/><rect class="cls-8" x="17.04" y="76.93" width="225.47" height="175.35"/></g><g class="cls-9"><path class="cls-10" d="M198.26,145.29a4.24,4.24,0,0,1-4.13-3.36V76.86A4.28,4.28,0,0,1,194,76V36.81a4.23,4.23,0,1,1,8.46,0h0V75.55l0,64.64a4.23,4.23,0,0,1-3.28,5,4.14,4.14,0,0,1-.87.09Z"/></g><g class="cls-11"><path class="cls-12" d="M62.85,167.2a4.65,4.65,0,0,1-5.65-3.35h0a5.3,5.3,0,0,1-.15-1.18L57.75,55a4.66,4.66,0,0,1,9.31,0l-.71,107.73A4.64,4.64,0,0,1,62.85,167.2Z"/></g><circle class="cls-13" cx="199.19" cy="154.35" r="4.23"/><circle class="cls-14" cx="199.19" cy="81.17" r="4.23"/><circle class="cls-15" cx="64.43" cy="111.84" r="13.58"/><circle class="cls-16" cx="64.25" cy="161.62" r="0.45"/><circle class="cls-17" cx="64.24" cy="165.49" r="0.45"/><circle class="cls-18" cx="64.25" cy="163.34" r="3.4"/><line class="cls-1" x1="64.39" y1="122.57" x2="64.24" y2="165.49"/><circle class="cls-19" cx="64.39" cy="122.57" r="9.05"/><circle class="cls-20" cx="64.39" cy="122.57" r="4.53"/><circle class="cls-21" cx="64.39" cy="122.57" r="3.77"/><polyline class="cls-22" points="64.39 122.57 66.42 137.3 64.39 122.57 62.35 107.84 64.39 122.57 49.66 124.61 64.39 122.57 79.13 120.54 64.39 122.57 71.98 140.23 64.39 122.57 56.8 104.91 64.39 122.57 46.73 130.17 64.39 122.57 82.06 114.98 64.39 122.57 78.05 134.75 64.39 122.57 50.73 110.39 64.39 122.57 52.22 136.23 64.39 122.57 76.58 108.92 64.39 122.57 65.31 135.32 64.39 122.57 63.48 109.83 64.39 122.57 51.65 123.49 64.39 122.57 77.14 121.66 64.39 122.57 64.73 124.05 64.39 122.57 64.06 121.1 64.39 122.57 62.91 122.91 64.39 122.57 65.86 122.23 64.39 122.57 60.13 141.39 64.39 122.57 68.66 103.75 64.39 122.57 45.58 118.31 64.39 122.57 83.22 126.84 64.39 122.57 62.02 128.84 64.39 122.57 66.78 116.3 64.39 122.57 58.13 120.19 64.39 122.57 70.67 124.96 64.39 122.57 67.78 126.27 64.39 122.57 61.01 118.87 64.39 122.57 60.7 125.96 64.39 122.57 68.09 119.18 64.39 122.57 85.03 131.74 64.39 122.57 43.74 113.4 64.39 122.57 55.23 143.22 64.39 122.57 73.56 101.93 64.39 122.57 73.45 139.05 64.39 122.57 55.33 106.09 64.39 122.57 47.91 131.64 64.39 122.57 80.88 113.51 64.39 122.57 74.06 142.17 64.39 122.57 54.73 102.98 64.39 122.57 44.8 132.24 64.39 122.57 83.98 112.9 64.39 122.57 67.25 125.8 64.39 122.57 61.52 119.34 64.39 122.57 61.16 125.44 64.39 122.57 67.63 119.71 64.39 122.57 78.61 129.08 64.39 122.57 50.17 116.06 64.39 122.57 57.88 136.79 64.39 122.57 70.91 108.36 64.39 122.57 63.56 139.27 64.39 122.57 65.22 105.87 64.39 122.57 47.7 121.74 64.39 122.57 81.09 123.4 64.39 122.57 69.28 135.35 64.39 122.57 59.52 109.79 64.39 122.57 51.62 127.45 64.39 122.57 77.17 117.7"/><circle class="cls-23" cx="64.24" cy="165.49" r="6.79"/><circle class="cls-24" cx="64.27" cy="157.2" r="1.93"/><circle class="cls-25" cx="64.34" cy="134.83" r="1.08"/><circle class="cls-26" cx="64.3" cy="148.48" r="0.71"/><circle class="cls-27" cx="64.29" cy="150.64" r="1"/><circle class="cls-28" cx="64.27" cy="156.78" r="1.86"/><path class="cls-29" d="M208.39,212V79h0c0,4.75-55.7,8.6-77.28,8.6S53.82,83.7,53.82,79h0V212c.08,5.91,2.77,11.84,8.94,11.84h136.7C205.61,223.86,208.46,217.81,208.39,212Z"/><g class="cls-30"><path class="cls-31" d="M135.73,113.22c-18.68,1.5-37.42,2.26-56.09,3.8-20,1.63-41.8,7.14-57.54,20.19l-.45.38c-8.76,7.43-16,18-15.41,29.46.44,9,5.68,17.24,12.53,23.09s15.2,9.61,23.58,12.92c48.69,19.22,104.27,25.27,153.42,7.27,9.89-3.62,19.53-8.23,27.69-14.89S238.24,180,241,169.78c2.82-10.48,1.32-21.89-3.26-31.73-4.33-9.32-11.14-16.48-14-26.61-.52-1.88-1.11-4-2.75-5a7.39,7.39,0,0,0-3.75-.85c-21.64-1-42.52,3.5-63.88,5.94C147.46,112.19,141.61,112.74,135.73,113.22Z"/><path class="cls-32" d="M130.86,153.12c-18.41,3.47-37,6.22-55.37,9.72-19.71,3.75-40.81,11.54-55,26.18l-.4.42c-7.93,8.32-14,19.58-12.2,30.93,1.39,8.9,7.47,16.54,14.9,21.63S38.85,250,47.52,252.35c50.46,14,106.36,14.08,153.34-9,9.44-4.65,18.54-10.26,25.95-17.74s13.06-17,14.69-27.37c1.69-10.72-1-21.9-6.6-31.2-5.29-8.81-12.83-15.21-16.71-25-.72-1.82-1.52-3.82-3.27-4.69a7.4,7.4,0,0,0-3.81-.45c-21.63,1.3-41.92,8-62.9,12.68C142.46,150.85,136.66,152,130.86,153.12Z"/></g><path class="cls-33" d="M208.39,79c0,4.75-55.7,8.6-77.28,8.6S53.82,83.7,53.82,79s55.72-8.59,77.29-8.59S208.39,74.2,208.39,79Z"/><g class="cls-34"><circle class="cls-35" cx="101.47" cy="87.54" r="14.91"/><ellipse class="cls-36" cx="100.43" cy="79.3" rx="9.96" ry="6.01" transform="translate(-5.73 7.85) rotate(-4.35)"/><circle class="cls-37" cx="109.41" cy="80.05" r="1.22"/><circle class="cls-38" cx="111.31" cy="81.66" r="0.44"/><circle class="cls-39" cx="94.93" cy="97.64" r="0.44"/><path class="cls-40" d="M89.61,88.63c-.15,2.88,1.59,7,4.35,8.25"/><circle class="cls-41" cx="108.18" cy="95.65" r="1.36"/></g><g class="cls-34"><circle class="cls-42" cx="145.69" cy="69.26" r="8.43"/><ellipse class="cls-43" cx="145.11" cy="64.61" rx="5.63" ry="3.4" transform="translate(-4.48 11.19) rotate(-4.35)"/><circle class="cls-44" cx="150.17" cy="65.03" r="0.69"/><circle class="cls-45" cx="151.25" cy="65.94" r="0.25"/><circle class="cls-46" cx="141.99" cy="74.97" r="0.25"/><path class="cls-47" d="M139,69.88c-.09,1.63.89,4,2.45,4.66"/><circle class="cls-48" cx="149.48" cy="73.85" r="0.77"/></g><g class="cls-34"><circle class="cls-49" cx="127.84" cy="50.29" r="4.48"/><ellipse class="cls-50" cx="127.53" cy="47.81" rx="3" ry="1.81" transform="translate(-3.26 9.81) rotate(-4.35)"/><circle class="cls-51" cx="130.22" cy="48.04" r="0.37"/><circle class="cls-52" cx="130.79" cy="48.52" r="0.13"/><circle class="cls-53" cx="125.87" cy="53.32" r="0.13"/><path class="cls-54" d="M124.27,50.62a2.85,2.85,0,0,0,1.31,2.48"/><circle class="cls-55" cx="129.85" cy="52.73" r="0.41"/></g><g class="cls-56"><circle class="cls-57" cx="173.24" cy="121.44" r="9.84"/><ellipse class="cls-58" cx="172.57" cy="116" rx="6.58" ry="3.96" transform="translate(-8.3 13.42) rotate(-4.35)"/><circle class="cls-59" cx="178.48" cy="116.5" r="0.81"/><circle class="cls-60" cx="179.74" cy="117.56" r="0.29"/><circle class="cls-61" cx="168.92" cy="128.1" r="0.29"/><path class="cls-62" d="M165.46,122.16c-.09,1.9,1,4.64,2.87,5.44"/><circle class="cls-63" cx="177.67" cy="126.79" r="0.89"/></g><g class="cls-56"><circle class="cls-64" cx="156.3" cy="141.88" r="5.23"/><ellipse class="cls-65" cx="155.95" cy="138.98" rx="3.5" ry="2.11" transform="translate(-10.09 12.23) rotate(-4.35)"/><circle class="cls-66" cx="159.08" cy="139.25" r="0.43"/><circle class="cls-67" cx="159.75" cy="139.82" r="0.16"/><circle class="cls-68" cx="154" cy="145.43" r="0.16"/><path class="cls-69" d="M152.13,142.26a3.32,3.32,0,0,0,1.53,2.9"/><circle class="cls-70" cx="158.65" cy="144.73" r="0.48"/></g><polygon class="cls-71" points="225.15 171.06 29.59 171.06 14.4 250.22 209.97 250.22 225.15 171.06"/><polygon class="cls-72" points="225.15 171.06 231.76 241.03 229.16 243.07 214.16 243.24 213.06 247.79 209.97 250.22 225.15 171.06"/></svg>