<svg id="Layer_1" data-name="Layer 1" xmlns="http://www.w3.org/2000/svg" xmlns:xlink="http://www.w3.org/1999/xlink" viewBox="0 0 235.13 262.86"><defs><style>.cls-1,.cls-21,.cls-39,.cls-46,.cls-53,.cls-61,.cls-68{fill:none;}.cls-2,.cls-5{opacity:0.72;}.cls-13,.cls-14,.cls-17,.cls-18,.cls-19,.cls-2,.cls-21,.cls-22,.cls-28,.cls-30,.cls-31,.cls-32,.cls-5,.cls-8{isolation:isolate;}.cls-2{fill:url(#linear-gradient);}.cls-3{fill:#683d14;fill-opacity:0.51;}.cls-4{fill:url(#linear-gradient-2);}.cls-5{fill:url(#linear-gradient-3);}.cls-6{clip-path:url(#clip-path);}.cls-7{fill:url(#linear-gradient-4);}.cls-8{opacity:0.42;fill:url(#linear-gradient-5);}.cls-9{opacity:0.54;}.cls-10{fill:url(#radial-gradient);}.cls-11,.cls-28,.cls-32{opacity:0.8;}.cls-12{fill:url(#radial-gradient-2);}.cls-13,.cls-19,.cls-22{opacity:0.5;}.cls-13{fill:url(#radial-gradient-3);}.cls-14{opacity:0.25;fill:url(#radial-gradient-4);}.cls-15{fill:url(#radial-gradient-5);}.cls-16{fill:url(#radial-gradient-6);}.cls-17,.cls-55{opacity:0.2;}.cls-17{fill:url(#radial-gradient-7);}.cls-18{opacity:0.15;fill:url(#radial-gradient-8);}.cls-19{fill:url(#radial-gradient-9);}.cls-20{fill:url(#radial-gradient-10);}.cls-21{stroke:#fff;stroke-width:1.69px;opacity:0.03;}.cls-21,.cls-32{stroke-miterlimit:10;}.cls-22{fill:url(#radial-gradient-11);}.cls-23{fill:url(#radial-gradient-12);}.cls-24{fill:url(#radial-gradient-13);}.cls-25{fill:url(#radial-gradient-14);}.cls-26{fill:url(#radial-gradient-15);}.cls-27{fill:url(#radial-gradient-16);}.cls-28{fill:url(#linear-gradient-6);}.cls-29{clip-path:url(#clip-path-2);}.cls-30,.cls-31,.cls-33{opacity:0.3;}.cls-30{fill:url(#linear-gradient-7);}.cls-31{fill:url(#linear-gradient-8);}.cls-32,.cls-39{stroke-width:0.85px;}.cls-32{fill:url(#linear-gradient-9);stroke:url(#linear-gradient-10);}.cls-34{fill:url(#radial-gradient-17);}.cls-35{fill:url(#radial-gradient-18);}.cls-36{fill:url(#radial-gradient-19);}.cls-37{fill:url(#radial-gradient-20);}.cls-38{fill:url(#radial-gradient-21);}.cls-39,.cls-46,.cls-53,.cls-61,.cls-68{stroke-linecap:round;stroke-linejoin:round;}.cls-39{stroke:url(#radial-gradient-22);}.cls-40{fill:url(#radial-gradient-23);}.cls-41{fill:url(#radial-gradient-24);}.cls-42{fill:url(#radial-gradient-25);}.cls-43{fill:url(#radial-gradient-26);}.cls-44{fill:url(#radial-gradient-27);}.cls-45{fill:url(#radial-gradient-28);}.cls-46{stroke-width:0.48px;stroke:url(#radial-gradient-29);}.cls-47{fill:url(#radial-gradient-30);}.cls-48{fill:url(#radial-gradient-31);}.cls-49{fill:url(#radial-gradient-32);}.cls-50{fill:url(#radial-gradient-33);}.cls-51{fill:url(#radial-gradient-34);}.cls-52{fill:url(#radial-gradient-35);}.cls-53{stroke-width:0.25px;stroke:url(#radial-gradient-36);}.cls-54{fill:url(#radial-gradient-37);}.cls-56{fill:url(#radial-gradient-38);}.cls-57{fill:url(#radial-gradient-39);}.cls-58{fill:url(#radial-gradient-40);}.cls-59{fill:url(#radial-gradient-41);}.cls-60{fill:url(#radial-gradient-42);}.cls-61{stroke-width:0.56px;stroke:url(#radial-gradient-43);}.cls-62{fill:url(#radial-gradient-44);}.cls-63{fill:url(#radial-gradient-45);}.cls-64{fill:url(#radial-gradient-46);}.cls-65{fill:url(#radial-gradient-47);}.cls-66{fill:url(#radial-gradient-48);}.cls-67{fill:url(#radial-gradient-49);}.cls-68{stroke-width:0.3px;stroke:url(#radial-gradient-50);}.cls-69{fill:url(#radial-gradient-51);}.cls-70{fill:#fff;}.cls-71{fill:#c7c6c6;}</style><linearGradient id="linear-gradient" x1="126.39" y1="496.33" x2="126.39" y2="522.9" gradientTransform="translate(0 -500)" gradientUnits="userSpaceOnUse"><stop offset="0" stop-color="#f6fbff"/><stop offset="0.63" stop-color="#e9f1f6"/><stop offset="1" stop-color="#c5dae1"/></linearGradient><linearGradient id="linear-gradient-2" x1="144.24" y1="519.67" x2="121.94" y2="701.28" gradientTransform="translate(0 -500)" gradientUnits="userSpaceOnUse"><stop offset="0" stop-color="#c0c5c8"/><stop offset="1" stop-color="#b0c2c9"/></linearGradient><linearGradient id="linear-gradient-3" x1="77.94" y1="623.51" x2="172.32" y2="623.51" xlink:href="#linear-gradient"/><clipPath id="clip-path"><path class="cls-1" d="M219.39,218.28V14.16c0,4.93-63.58,8.92-87.38,8.92h-3.59c-4.8-.07-9.6-.25-14.39-.47q-8.52-.39-17-1-8.76-.6-17.51-1.4c-5.31-.49-10.61-1-15.89-1.73C59.73,18,55.89,17,52,17s-7.63,1.67-11.45,2.5l-1,.2a20,20,0,0,1-3.85.59c-.45,0-.9.09-1.36.12-.22,0-.86-.06-1,.14s.25.62.37.76a6.26,6.26,0,0,0,.76.6c.33.25.67.47,1,.71l3.45,2.44L44.44,29l.17.11V218.28a11.54,11.54,0,0,0,8.07,14.17h0a12.19,12.19,0,0,0,3,.41H208.27a11.53,11.53,0,0,0,11.53-11.53A10.84,10.84,0,0,0,219.39,218.28Z"/></clipPath><linearGradient id="linear-gradient-4" x1="93.35" y1="621.89" x2="144.53" y2="754.06" gradientTransform="translate(0 -500)" gradientUnits="userSpaceOnUse"><stop offset="0" stop-color="#f5f5f5"/><stop offset="1" stop-color="#c3d1d6"/></linearGradient><linearGradient id="linear-gradient-5" x1="71.92" y1="665.6" x2="186.02" y2="665.6" gradientTransform="translate(0 -500)" gradientUnits="userSpaceOnUse"><stop offset="0" stop-color="#bb9f09"/><stop offset="1" stop-color="#f0d03a"/></linearGradient><radialGradient id="radial-gradient" cx="-2794.37" cy="-14989.26" r="64.7" gradientTransform="matrix(0.01, 1, -0.12, 0, -1562.98, 2881.48)" gradientUnits="userSpaceOnUse"><stop offset="0" stop-color="#e6f3fc"/><stop offset="1" stop-color="#bacae9" stop-opacity="0"/></radialGradient><radialGradient id="radial-gradient-2" cx="-2473.28" cy="12802.27" r="54.3" gradientTransform="matrix(0.01, -1, 0.16, 0, -1969.1, -2362.8)" xlink:href="#radial-gradient"/><radialGradient id="radial-gradient-3" cx="200.21" cy="655.37" r="3.83" gradientTransform="translate(0 -500)" xlink:href="#radial-gradient"/><radialGradient id="radial-gradient-4" cx="-1599.33" cy="-143.32" r="13.58" gradientTransform="translate(1634.99 -225.66) rotate(-17.29)" gradientUnits="userSpaceOnUse"><stop offset="0.1" stop-color="#010101"/><stop offset="0.11" stop-color="#070706"/><stop offset="0.16" stop-color="#221d12"/><stop offset="0.22" stop-color="#392e16"/><stop offset="0.28" stop-color="#4a3a17"/><stop offset="0.37" stop-color="#564318"/><stop offset="0.48" stop-color="#5c4918"/><stop offset="0.8" stop-color="#5f4a17"/><stop offset="1" stop-color="#010101"/></radialGradient><radialGradient id="radial-gradient-5" cx="-1603.54" cy="-89.57" r="0.45" gradientTransform="matrix(0.95, -0.3, 0.3, 0.95, 1620.34, -220.96)" gradientUnits="userSpaceOnUse"><stop offset="0" stop-color="#d5e195"/><stop offset="0.06" stop-color="#b1bb79"/><stop offset="0.14" stop-color="#868f5f"/><stop offset="0.22" stop-color="#646946"/><stop offset="0.31" stop-color="#454930"/><stop offset="0.4" stop-color="#2c2f1f"/><stop offset="0.51" stop-color="#191a13"/><stop offset="0.62" stop-color="#0b0c0a"/><stop offset="0.76" stop-color="#020404"/><stop offset="1" stop-color="#010101"/></radialGradient><radialGradient id="radial-gradient-6" cx="-1615.46" cy="-92.15" r="0.45" gradientTransform="translate(1635 -225.66) rotate(-17.29)" xlink:href="#radial-gradient-5"/><radialGradient id="radial-gradient-7" cx="-1604.06" cy="-87.93" r="3.4" gradientTransform="matrix(0.95, -0.3, 0.3, 0.95, 1620.34, -220.96)" gradientUnits="userSpaceOnUse"><stop offset="0.05" stop-color="#010101"/><stop offset="0.09" stop-color="#070b08"/><stop offset="0.3" stop-color="#1f341c"/><stop offset="0.48" stop-color="#265325"/><stop offset="0.64" stop-color="#30672c"/><stop offset="0.75" stop-color="#336e2e"/><stop offset="0.79" stop-color="#506f2a"/><stop offset="0.83" stop-color="#717021"/><stop offset="0.86" stop-color="#7f701b"/><stop offset="0.89" stop-color="#7a6d1c"/><stop offset="0.91" stop-color="#71641b"/><stop offset="0.94" stop-color="#5e5419"/><stop offset="0.96" stop-color="#433d18"/><stop offset="0.98" stop-color="#232114"/><stop offset="1" stop-color="#010101"/></radialGradient><radialGradient id="radial-gradient-8" cx="-1591.81" cy="-126.82" r="9.05" gradientTransform="matrix(0.95, -0.3, 0.3, 0.95, 1620.34, -220.96)" gradientUnits="userSpaceOnUse"><stop offset="0" stop-color="#1d090a"/><stop offset="0.73" stop-color="#994123"/><stop offset="1" stop-color="#1d090a"/></radialGradient><radialGradient id="radial-gradient-9" cx="-1591.81" cy="-126.82" r="4.53" gradientTransform="matrix(0.95, -0.3, 0.3, 0.95, 1620.34, -220.96)" gradientUnits="userSpaceOnUse"><stop offset="0.15" stop-color="#fff"/><stop offset="0.21" stop-color="#e5d3d3"/><stop offset="0.29" stop-color="#c49c9e"/><stop offset="0.36" stop-color="#ad7477"/><stop offset="0.42" stop-color="#9f5d60"/><stop offset="0.45" stop-color="#9a5457"/><stop offset="0.57" stop-color="#6b3436"/><stop offset="0.69" stop-color="#431719"/><stop offset="0.79" stop-color="#270d0e"/><stop offset="0.85" stop-color="#1d090a"/><stop offset="0.86" stop-color="#210a0a"/><stop offset="0.86" stop-color="#300f0e"/><stop offset="0.87" stop-color="#461410"/><stop offset="0.88" stop-color="#641e11"/><stop offset="0.89" stop-color="#8b2e19"/><stop offset="0.9" stop-color="#b84323"/><stop offset="0.9" stop-color="#d34f29"/><stop offset="0.9" stop-color="#c94928"/><stop offset="0.91" stop-color="#9d371d"/><stop offset="0.93" stop-color="#772615"/><stop offset="0.94" stop-color="#591a10"/><stop offset="0.95" stop-color="#3e130f"/><stop offset="0.97" stop-color="#2b0e0d"/><stop offset="0.98" stop-color="#1f090b"/><stop offset="1" stop-color="#1d090a"/></radialGradient><radialGradient id="radial-gradient-10" cx="-1602.56" cy="-133.08" r="3.77" gradientTransform="translate(1634.99 -225.66) rotate(-17.29)" gradientUnits="userSpaceOnUse"><stop offset="0.15" stop-color="#fff"/><stop offset="0.28" stop-color="#c3c2c2"/><stop offset="0.43" stop-color="#878889"/><stop offset="0.56" stop-color="#585858"/><stop offset="0.69" stop-color="#323232"/><stop offset="0.81" stop-color="#161617"/><stop offset="0.92" stop-color="#050606"/><stop offset="1" stop-color="#010101"/></radialGradient><radialGradient id="radial-gradient-11" cx="-1604.71" cy="-85.89" r="6.79" gradientTransform="matrix(0.95, -0.3, 0.3, 0.95, 1620.34, -220.96)" gradientUnits="userSpaceOnUse"><stop offset="0.64" stop-color="#010101"/><stop offset="0.72" stop-color="#010302"/><stop offset="0.75" stop-color="#060908"/><stop offset="0.77" stop-color="#0c140e"/><stop offset="0.78" stop-color="#132517"/><stop offset="0.8" stop-color="#1b3b1d"/><stop offset="0.8" stop-color="#1c431f"/><stop offset="0.81" stop-color="#212c19"/><stop offset="0.83" stop-color="#2c190f"/><stop offset="0.85" stop-color="#33110d"/><stop offset="0.86" stop-color="#35100f"/><stop offset="0.87" stop-color="#200a0a"/><stop offset="0.89" stop-color="#100606"/><stop offset="0.9" stop-color="#050303"/><stop offset="0.93" stop-color="#020102"/><stop offset="1" stop-color="#010101"/></radialGradient><radialGradient id="radial-gradient-12" cx="-1602.21" cy="-93.79" r="1.93" gradientTransform="matrix(0.95, -0.3, 0.3, 0.95, 1620.34, -220.96)" gradientUnits="userSpaceOnUse"><stop offset="0.1" stop-color="#010101"/><stop offset="0.25" stop-color="#1a130c"/><stop offset="0.43" stop-color="#352413"/><stop offset="0.61" stop-color="#483014"/><stop offset="0.8" stop-color="#533613"/><stop offset="1" stop-color="#573812"/></radialGradient><radialGradient id="radial-gradient-13" cx="-1595.49" cy="-115.13" r="1.08" gradientTransform="matrix(0.95, -0.3, 0.3, 0.95, 1620.34, -220.96)" gradientUnits="userSpaceOnUse"><stop offset="0.1" stop-color="#1a301d"/><stop offset="0.23" stop-color="#142318"/><stop offset="0.48" stop-color="#0a0f0c"/><stop offset="0.73" stop-color="#030404"/><stop offset="1" stop-color="#010101"/></radialGradient><radialGradient id="radial-gradient-14" cx="65.21" cy="3147.21" r="0.71" gradientTransform="matrix(1, 0, 0, -1, 0, 3296.69)" xlink:href="#radial-gradient-12"/><radialGradient id="radial-gradient-15" cx="-1610.99" cy="-106.31" r="1" gradientTransform="translate(1634.99 -225.65) rotate(-17.29)" gradientUnits="userSpaceOnUse"><stop offset="0.1" stop-color="#010101"/><stop offset="0.29" stop-color="#151711"/><stop offset="0.52" stop-color="#262a1b"/><stop offset="0.75" stop-color="#313523"/><stop offset="1" stop-color="#333824"/></radialGradient><radialGradient id="radial-gradient-16" cx="-1907.45" cy="1837.23" r="1.86" gradientTransform="matrix(1, 0, 0, -1, 0, 3296.69)" xlink:href="#radial-gradient-13"/><linearGradient id="linear-gradient-6" x1="192.01" y1="728.63" x2="73.91" y2="572.11" xlink:href="#linear-gradient-5"/><clipPath id="clip-path-2"><path class="cls-1" d="M209.3,213V80h0c0,4.75-55.7,8.6-77.27,8.6S54.73,84.7,54.73,80h0V213c.08,5.91,2.77,11.84,8.94,11.84H200.36C206.53,224.86,209.37,218.81,209.3,213Z"/></clipPath><linearGradient id="linear-gradient-7" x1="288.67" y1="675.27" x2="41.64" y2="652.29" xlink:href="#linear-gradient-5"/><linearGradient id="linear-gradient-8" x1="8.4" y1="700.39" x2="242.92" y2="700.39" xlink:href="#linear-gradient-5"/><linearGradient id="linear-gradient-9" x1="269.27" y1="579.95" x2="86.12" y2="579.95" xlink:href="#linear-gradient-5"/><linearGradient id="linear-gradient-10" x1="54.31" y1="579.95" x2="209.73" y2="579.95" gradientTransform="translate(0 -500)" gradientUnits="userSpaceOnUse"><stop offset="0" stop-color="#ffdc28"/><stop offset="1" stop-color="#f0d03a"/></linearGradient><radialGradient id="radial-gradient-17" cx="-390.78" cy="3281.01" r="14.16" gradientTransform="matrix(0.25, -0.97, 0.96, 0.25, -2949.89, -1109.97)" gradientUnits="userSpaceOnUse"><stop offset="0" stop-color="#c8ae35" stop-opacity="0.8"/><stop offset="0.3" stop-color="#cab038" stop-opacity="0.8"/><stop offset="0.52" stop-color="#d2b845" stop-opacity="0.8"/><stop offset="0.72" stop-color="#e1c859" stop-opacity="0.8"/><stop offset="0.91" stop-color="#f3db75" stop-opacity="0.81"/><stop offset="1" stop-color="#ffe887" stop-opacity="0.81"/></radialGradient><radialGradient id="radial-gradient-18" cx="346.9" cy="720.11" r="9.18" gradientTransform="translate(-331.5 -474.3) scale(1.24 0.77)" gradientUnits="userSpaceOnUse"><stop offset="0" stop-color="#ebd952"/><stop offset="0.38" stop-color="#ebd952" stop-opacity="0.99"/><stop offset="0.52" stop-color="#ead953" stop-opacity="0.96"/><stop offset="0.61" stop-color="#ebd855" stop-opacity="0.91"/><stop offset="0.69" stop-color="#ead859" stop-opacity="0.84"/><stop offset="0.76" stop-color="#e8d75a" stop-opacity="0.75"/><stop offset="0.82" stop-color="#e5d55e" stop-opacity="0.63"/><stop offset="0.87" stop-color="#e2d363" stop-opacity="0.49"/><stop offset="0.92" stop-color="#e0d168" stop-opacity="0.33"/><stop offset="0.97" stop-color="#ded06d" stop-opacity="0.16"/><stop offset="1" stop-color="#dbce72" stop-opacity="0"/></radialGradient><radialGradient id="radial-gradient-19" cx="-382.85" cy="3273.51" r="1.16" gradientTransform="matrix(0.25, -0.97, 0.96, 0.25, -2936.81, -1107.91)" gradientUnits="userSpaceOnUse"><stop offset="0" stop-color="#ebe6c1"/><stop offset="0.38" stop-color="#ebe6c0" stop-opacity="0.99"/><stop offset="0.52" stop-color="#e9e4bd" stop-opacity="0.96"/><stop offset="0.61" stop-color="#eae4ba" stop-opacity="0.91"/><stop offset="0.69" stop-color="#e9e2b4" stop-opacity="0.84"/><stop offset="0.76" stop-color="#e7e0ae" stop-opacity="0.75"/><stop offset="0.82" stop-color="#e5dda5" stop-opacity="0.63"/><stop offset="0.87" stop-color="#e3db9a" stop-opacity="0.49"/><stop offset="0.92" stop-color="#e1d68c" stop-opacity="0.33"/><stop offset="0.97" stop-color="#ded27e" stop-opacity="0.16"/><stop offset="1" stop-color="#dbce72" stop-opacity="0"/></radialGradient><radialGradient id="radial-gradient-20" cx="-380.94" cy="3275.11" r="0.42" gradientTransform="matrix(0.25, -0.97, 0.96, 0.25, -2936.92, -1104.86)" gradientUnits="userSpaceOnUse"><stop offset="0" stop-color="#ebe6c1"/><stop offset="0.22" stop-color="#ebe6c0" stop-opacity="0.99"/><stop offset="0.36" stop-color="#eae5bd" stop-opacity="0.95"/><stop offset="0.48" stop-color="#e9e3b8" stop-opacity="0.89"/><stop offset="0.58" stop-color="#e7e1b1" stop-opacity="0.8"/><stop offset="0.68" stop-color="#e6e0a9" stop-opacity="0.69"/><stop offset="0.77" stop-color="#e5dc9d" stop-opacity="0.55"/><stop offset="0.85" stop-color="#e3d790" stop-opacity="0.38"/><stop offset="0.93" stop-color="#dfd382" stop-opacity="0.2"/><stop offset="1" stop-color="#dbce72" stop-opacity="0"/></radialGradient><radialGradient id="radial-gradient-21" cx="-397.33" cy="3291.09" r="0.42" gradientTransform="matrix(0.25, -0.97, 0.96, 0.25, -2964.42, -1108.74)" xlink:href="#radial-gradient-20"/><radialGradient id="radial-gradient-22" cx="92.69" cy="593.75" r="3.7" gradientTransform="translate(0 -500)" xlink:href="#radial-gradient-19"/><radialGradient id="radial-gradient-23" cx="109.1" cy="415.12" r="1.69" gradientTransform="translate(0 -255.45) scale(1 0.85)" gradientUnits="userSpaceOnUse"><stop offset="0" stop-color="#ebd952"/><stop offset="0.09" stop-color="#ecda53" stop-opacity="0.97"/><stop offset="0.23" stop-color="#e9d857" stop-opacity="0.88"/><stop offset="0.4" stop-color="#e8d75a" stop-opacity="0.74"/><stop offset="0.59" stop-color="#e4d463" stop-opacity="0.54"/><stop offset="0.79" stop-color="#e0d069" stop-opacity="0.28"/><stop offset="1" stop-color="#dbce72" stop-opacity="0"/></radialGradient><radialGradient id="radial-gradient-24" cx="-346.56" cy="3262.72" r="8.01" gradientTransform="matrix(0.25, -0.97, 0.96, 0.25, -2899.42, -1080.9)" xlink:href="#radial-gradient-17"/><radialGradient id="radial-gradient-25" cx="383.6" cy="707.61" r="5.19" gradientTransform="translate(-332.49 -479.37) scale(1.24 0.77)" xlink:href="#radial-gradient-18"/><radialGradient id="radial-gradient-26" cx="-342.08" cy="3258.49" r="0.66" gradientTransform="matrix(0.25, -0.97, 0.96, 0.25, -2892.03, -1079.73)" xlink:href="#radial-gradient-19"/><radialGradient id="radial-gradient-27" cx="-341" cy="3259.39" r="0.24" gradientTransform="matrix(0.25, -0.97, 0.96, 0.25, -2892.09, -1078.01)" xlink:href="#radial-gradient-20"/><radialGradient id="radial-gradient-28" cx="-350.26" cy="3268.42" r="0.24" gradientTransform="matrix(0.25, -0.97, 0.96, 0.25, -2907.63, -1080.2)" xlink:href="#radial-gradient-20"/><radialGradient id="radial-gradient-29" cx="141.13" cy="573.21" r="2.09" gradientTransform="translate(0 -500)" xlink:href="#radial-gradient-19"/><radialGradient id="radial-gradient-30" cx="150.4" cy="393.32" r="0.95" gradientTransform="translate(0 -258.61) scale(1 0.85)" xlink:href="#radial-gradient-23"/><radialGradient id="radial-gradient-31" cx="-364.42" cy="3243.74" r="4.26" gradientTransform="matrix(0.25, -0.97, 0.96, 0.25, -2894.61, -1112.39)" xlink:href="#radial-gradient-17"/><radialGradient id="radial-gradient-32" cx="370.53" cy="687.57" r="2.76" gradientTransform="translate(-333.81 -480.71) scale(1.24 0.77)" xlink:href="#radial-gradient-18"/><radialGradient id="radial-gradient-33" cx="-362.03" cy="3241.49" r="0.35" gradientTransform="matrix(0.25, -0.97, 0.96, 0.25, -2890.68, -1111.77)" xlink:href="#radial-gradient-19"/><radialGradient id="radial-gradient-34" cx="-361.46" cy="3241.97" r="0.13" gradientTransform="matrix(0.25, -0.97, 0.96, 0.25, -2890.71, -1110.85)" xlink:href="#radial-gradient-20"/><radialGradient id="radial-gradient-35" cx="-366.39" cy="3246.78" r="0.13" gradientTransform="matrix(0.25, -0.97, 0.96, 0.25, -2898.98, -1112.01)" xlink:href="#radial-gradient-20"/><radialGradient id="radial-gradient-36" cx="125.83" cy="552.86" r="1.11" gradientTransform="translate(0 -500)" xlink:href="#radial-gradient-19"/><radialGradient id="radial-gradient-37" cx="130.77" cy="372.2" r="0.51" gradientTransform="translate(0 -261.68) scale(1 0.85)" xlink:href="#radial-gradient-23"/><radialGradient id="radial-gradient-38" cx="-319.01" cy="3314.9" r="9.35" gradientTransform="matrix(0.25, -0.97, 0.96, 0.25, -2928.73, -1015.15)" xlink:href="#radial-gradient-17"/><radialGradient id="radial-gradient-39" cx="402.47" cy="766.73" r="6.06" gradientTransform="translate(-328.51 -473.56) scale(1.24 0.77)" xlink:href="#radial-gradient-18"/><radialGradient id="radial-gradient-40" cx="-313.78" cy="3309.96" r="0.77" gradientTransform="matrix(0.25, -0.97, 0.96, 0.25, -2920.1, -1013.79)" xlink:href="#radial-gradient-19"/><radialGradient id="radial-gradient-41" cx="-312.52" cy="3311.01" r="0.28" gradientTransform="matrix(0.25, -0.97, 0.96, 0.25, -2920.18, -1011.78)" xlink:href="#radial-gradient-20"/><radialGradient id="radial-gradient-42" cx="-323.33" cy="3321.56" r="0.28" gradientTransform="matrix(0.25, -0.97, 0.96, 0.25, -2938.32, -1014.34)" xlink:href="#radial-gradient-20"/><radialGradient id="radial-gradient-43" cx="167.76" cy="625.88" r="2.44" gradientTransform="translate(0 -500)" xlink:href="#radial-gradient-19"/><radialGradient id="radial-gradient-44" cx="178.58" cy="446.26" r="1.11" gradientTransform="translate(0 -250.92) scale(1 0.85)" xlink:href="#radial-gradient-23"/><radialGradient id="radial-gradient-45" cx="-335.96" cy="3335.34" r="4.97" gradientTransform="matrix(0.25, -0.97, 0.96, 0.25, -2960.92, -1016.23)" xlink:href="#radial-gradient-17"/><radialGradient id="radial-gradient-46" cx="387.75" cy="790.73" r="3.22" gradientTransform="translate(-326.81 -469.09) scale(1.24 0.77)" xlink:href="#radial-gradient-18"/><radialGradient id="radial-gradient-47" cx="-333.17" cy="3332.71" r="0.41" gradientTransform="matrix(0.25, -0.97, 0.96, 0.25, -2956.33, -1015.5)" xlink:href="#radial-gradient-19"/><radialGradient id="radial-gradient-48" cx="-332.5" cy="3333.27" r="0.15" gradientTransform="matrix(0.25, -0.97, 0.96, 0.25, -2956.36, -1014.43)" xlink:href="#radial-gradient-20"/><radialGradient id="radial-gradient-49" cx="-338.25" cy="3338.88" r="0.15" gradientTransform="matrix(0.25, -0.97, 0.96, 0.25, -2966.02, -1015.79)" xlink:href="#radial-gradient-20"/><radialGradient id="radial-gradient-50" cx="153.81" cy="644.71" r="1.3" gradientTransform="translate(0 -500)" xlink:href="#radial-gradient-19"/><radialGradient id="radial-gradient-51" cx="159.57" cy="464.2" r="0.59" gradientTransform="translate(0 -248.32) scale(1 0.85)" xlink:href="#radial-gradient-23"/></defs><path class="cls-2" d="M219.39,14.16c0,4.93-63.58,8.92-87.38,8.92-4.58,0-9.17-.12-13.75-.28q-9.63-.35-19.26-.92-10.16-.61-20.27-1.47c-2.53-.22-5.06-.46-7.59-.7s-5.15-.55-7.72-.86c-1.24-.16-2.48-.36-3.71-.62s-2.48-.49-3.73-.66a21.87,21.87,0,0,0-7.13,0c-2.33.46-4.57,1.28-6.88,1.84a41.35,41.35,0,0,1-8.59,1.12,7.35,7.35,0,0,1,1.6-1.4,36.91,36.91,0,0,1,4.45-2.53c2.14-1.08,4.26-2.37,6.46-3.41A29.36,29.36,0,0,1,53.32,11c4.44-.82,8.93-1.38,13.42-1.88C72.35,8.43,78,7.93,83.6,7.48q9-.71,18-1.21,8.45-.48,16.89-.78c4.5-.15,9-.27,13.49-.27C155.81,5.25,219.39,9.24,219.39,14.16Z"/><polygon class="cls-3" points="15.31 251.22 3.72 257.65 214.77 257.65 232.72 244.52 232.68 242.03 15.31 251.22"/><path class="cls-4" d="M213.62,216.55l-.9-199.39c-12.06,5.92-64.22,5.92-80.71,5.92h-4c-1.27,0-2.53-.06-3.8-.11L120,22.81c-1.43-.06-3.13-.13-4.69-.21l-5-.26L105,22.05c-1.81-.1-3.61-.21-5.42-.33l-5.49-.35L88.62,21l-5.41-.4L78,20.14c-1.67-.13-3.33-.27-5-.42l-4.65-.42-4.23-.42-1.94-.2c-.95-.15-1.89-.35-2.83-.59L58.81,18a26,26,0,0,0-7.35-.7l-1.24.08.22,199.21a9.83,9.83,0,0,0,6.76,12.12,10.62,10.62,0,0,0,2.68.37H204.15a9.81,9.81,0,0,0,9.81-9.81A9.64,9.64,0,0,0,213.62,216.55Z"/><path class="cls-5" d="M219.39,218.28V14.16c0,4.93-63.58,8.92-87.38,8.92h-3.59c-4.8-.07-9.6-.25-14.39-.47q-8.52-.39-17-1-8.76-.6-17.51-1.4c-5.31-.49-10.61-1-15.89-1.73C59.73,18,55.89,17,52,17s-7.63,1.67-11.45,2.5l-1,.2a20,20,0,0,1-3.85.59c-.45,0-.9.09-1.36.12-.22,0-.86-.06-1,.14s.25.62.37.76a6.26,6.26,0,0,0,.76.6c.33.25.67.47,1,.71l3.45,2.44L44.44,29l.17.11V218.28a11.54,11.54,0,0,0,8.07,14.17h0a12.19,12.19,0,0,0,3,.41H208.27a11.53,11.53,0,0,0,11.53-11.53A10.84,10.84,0,0,0,219.39,218.28Z"/><g class="cls-6"><path class="cls-7" d="M214.62,221.85c0-8.62-36.85-11.59-82.31-11.59S50,213.56,50,222.18s8,6.88,82.32,7.57C202.83,230.4,214.62,230.47,214.62,221.85Z"/><rect class="cls-8" x="17.95" y="77.93" width="225.47" height="175.35"/></g><g class="cls-9"><path class="cls-10" d="M199.17,146.29a4.23,4.23,0,0,1-4.13-3.36V77.86A4.28,4.28,0,0,1,195,77V37.81a4.23,4.23,0,1,1,8.46,0h0V76.55l-.09,64.64a4.23,4.23,0,0,1-3.28,5,4.14,4.14,0,0,1-.87.09Z"/></g><g class="cls-11"><path class="cls-12" d="M63.77,168.2a4.67,4.67,0,0,1-5.67-3.36h0a4.33,4.33,0,0,1-.14-1.18L58.62,56a4.66,4.66,0,0,1,9.31.06l-.71,107.73A4.64,4.64,0,0,1,63.77,168.2Z"/></g><circle class="cls-13" cx="200.11" cy="155.35" r="4.23"/><circle class="cls-14" cx="65.33" cy="112.84" r="13.58"/><circle class="cls-15" cx="65.16" cy="162.62" r="0.45"/><circle class="cls-16" cx="65.15" cy="166.49" r="0.45"/><circle class="cls-17" cx="65.16" cy="164.34" r="3.4"/><line class="cls-1" x1="65.3" y1="123.57" x2="65.15" y2="166.49"/><circle class="cls-18" cx="65.3" cy="123.57" r="9.05"/><circle class="cls-19" cx="65.3" cy="123.57" r="4.53"/><circle class="cls-20" cx="65.29" cy="123.57" r="3.77"/><polyline class="cls-21" points="65.3 123.57 67.34 138.3 65.3 123.57 63.27 108.84 65.3 123.57 50.57 125.61 65.3 123.57 80.03 121.54 65.3 123.57 72.89 141.23 65.3 123.57 57.71 105.91 65.3 123.57 47.64 131.17 65.3 123.57 82.96 115.98 65.3 123.57 78.96 135.75 65.3 123.57 51.64 111.39 65.3 123.57 53.12 137.23 65.3 123.57 77.48 109.92 65.3 123.57 66.21 136.32 65.3 123.57 64.39 110.83 65.3 123.57 52.55 124.49 65.3 123.57 78.05 122.66 65.3 123.57 65.64 125.05 65.3 123.57 64.96 122.1 65.3 123.57 63.83 123.91 65.3 123.57 66.77 123.23 65.3 123.57 61.04 142.39 65.3 123.57 69.57 104.75 65.3 123.57 46.48 119.31 65.3 123.57 84.12 127.84 65.3 123.57 62.92 129.84 65.3 123.57 67.68 117.3 65.3 123.57 59.03 121.19 65.3 123.57 71.57 125.96 65.3 123.57 68.69 127.27 65.3 123.57 61.91 119.87 65.3 123.57 61.6 126.96 65.3 123.57 69 120.18 65.3 123.57 85.95 132.74 65.3 123.57 44.65 114.4 65.3 123.57 56.13 144.22 65.3 123.57 74.47 102.93 65.3 123.57 74.37 140.05 65.3 123.57 56.23 107.09 65.3 123.57 48.82 132.64 65.3 123.57 81.78 114.51 65.3 123.57 74.97 143.17 65.3 123.57 55.63 103.98 65.3 123.57 45.71 133.24 65.3 123.57 84.89 113.9 65.3 123.57 68.17 126.8 65.3 123.57 62.43 120.34 65.3 123.57 62.07 126.44 65.3 123.57 68.53 120.71 65.3 123.57 79.52 130.08 65.3 123.57 51.09 117.06 65.3 123.57 58.79 137.79 65.3 123.57 71.81 109.36 65.3 123.57 64.47 140.27 65.3 123.57 66.13 106.87 65.3 123.57 48.6 122.74 65.3 123.57 82 124.4 65.3 123.57 70.18 136.35 65.3 123.57 60.42 110.79 65.3 123.57 52.52 128.45 65.3 123.57 78.08 118.7"/><circle class="cls-22" cx="65.15" cy="166.49" r="6.79"/><circle class="cls-23" cx="65.18" cy="158.2" r="1.93"/><circle class="cls-24" cx="65.26" cy="135.83" r="1.08"/><circle class="cls-25" cx="65.21" cy="149.48" r="0.71"/><circle class="cls-26" cx="65.2" cy="151.64" r="1"/><circle class="cls-27" cx="65.18" cy="157.78" r="1.86"/><path class="cls-28" d="M209.3,213V80h0c0,4.75-55.7,8.6-77.27,8.6S54.73,84.7,54.73,80h0V213c.08,5.91,2.77,11.84,8.94,11.84H200.36C206.53,224.86,209.37,218.81,209.3,213Z"/><g class="cls-29"><path class="cls-30" d="M136.62,114.22c-18.68,1.5-37.41,2.26-56.09,3.8-20,1.63-41.8,7.14-57.54,20.19l-.45.38c-8.76,7.43-16,18-15.41,29.46.45,9,5.69,17.24,12.53,23.09s15.2,9.61,23.58,12.92c48.69,19.22,104.27,25.27,153.43,7.27,9.88-3.62,19.52-8.23,27.68-14.89s14.78-15.49,17.51-25.66c2.82-10.48,1.32-21.89-3.25-31.73-4.33-9.32-11.15-16.48-14-26.61-.52-1.88-1.11-4-2.75-5a7.37,7.37,0,0,0-3.74-.85c-21.64-1-42.53,3.5-63.89,5.94C148.41,113.19,142.53,113.74,136.62,114.22Z"/><path class="cls-31" d="M131.77,154.12c-18.41,3.47-37,6.22-55.37,9.72C56.69,167.59,35.62,175.38,21.32,190l-.4.42C13,198.76,6.92,210,8.72,221.37c1.39,8.9,7.48,16.54,14.9,21.63S39.76,251,48.44,253.35c50.45,14,106.36,14.08,153.33-9,9.45-4.65,18.55-10.26,25.95-17.74s13.06-17,14.7-27.37c1.69-10.72-1-21.9-6.6-31.2-5.3-8.81-12.84-15.21-16.72-25-.72-1.82-1.52-3.82-3.27-4.69a7.4,7.4,0,0,0-3.81-.45c-21.63,1.3-41.92,8-62.89,12.68C143.36,151.85,137.62,153,131.77,154.12Z"/></g><path class="cls-32" d="M209.3,80c0,4.75-55.7,8.6-77.27,8.6S54.73,84.7,54.73,80s55.72-8.59,77.3-8.59S209.3,75.2,209.3,80Z"/><g class="cls-33"><circle class="cls-34" cx="102.39" cy="88.54" r="14.91"/><ellipse class="cls-35" cx="101.35" cy="80.31" rx="9.96" ry="6.01" transform="translate(-5.8 7.92) rotate(-4.35)"/><circle class="cls-36" cx="110.32" cy="81.05" r="1.22"/><circle class="cls-37" cx="112.23" cy="82.66" r="0.44"/><circle class="cls-38" cx="95.84" cy="98.64" r="0.44"/><path class="cls-39" d="M90.52,89.63c-.14,2.88,1.59,7,4.35,8.25"/><circle class="cls-40" cx="109.1" cy="96.65" r="1.36"/></g><g class="cls-33"><circle class="cls-41" cx="146.6" cy="70.26" r="8.43"/><ellipse class="cls-42" cx="146.02" cy="65.6" rx="5.63" ry="3.4" transform="translate(-4.56 11.26) rotate(-4.35)"/><circle class="cls-43" cx="151.09" cy="66.03" r="0.69"/><circle class="cls-44" cx="152.16" cy="66.94" r="0.25"/><circle class="cls-45" cx="142.9" cy="75.97" r="0.25"/><path class="cls-46" d="M139.9,70.88c-.08,1.63.9,4,2.46,4.66"/><circle class="cls-47" cx="150.4" cy="74.85" r="0.77"/></g><g class="cls-33"><circle class="cls-48" cx="128.75" cy="51.29" r="4.48"/><ellipse class="cls-49" cx="128.44" cy="48.81" rx="3" ry="1.81" transform="translate(-3.33 9.88) rotate(-4.35)"/><circle class="cls-50" cx="131.13" cy="49.04" r="0.37"/><circle class="cls-51" cx="131.71" cy="49.52" r="0.13"/><circle class="cls-52" cx="126.78" cy="54.32" r="0.13"/><path class="cls-53" d="M125.18,51.62a2.85,2.85,0,0,0,1.31,2.48"/><circle class="cls-54" cx="130.77" cy="53.73" r="0.41"/></g><g class="cls-55"><circle class="cls-56" cx="174.15" cy="122.44" r="9.84"/><ellipse class="cls-57" cx="173.47" cy="117" rx="6.58" ry="3.96" transform="translate(-8.37 13.49) rotate(-4.35)"/><circle class="cls-58" cx="179.39" cy="117.5" r="0.81"/><circle class="cls-59" cx="180.65" cy="118.56" r="0.29"/><circle class="cls-60" cx="169.84" cy="129.1" r="0.29"/><path class="cls-61" d="M166.33,123.16c-.1,1.9,1,4.64,2.86,5.44"/><circle class="cls-62" cx="178.58" cy="127.79" r="0.89"/></g><g class="cls-55"><circle class="cls-63" cx="157.21" cy="142.88" r="5.23"/><ellipse class="cls-64" cx="156.85" cy="139.98" rx="3.5" ry="2.11" transform="translate(-10.17 12.3) rotate(-4.35)"/><circle class="cls-65" cx="160" cy="140.25" r="0.43"/><circle class="cls-66" cx="160.67" cy="140.82" r="0.16"/><circle class="cls-67" cx="154.91" cy="146.43" r="0.16"/><path class="cls-68" d="M153.05,143.26a3.27,3.27,0,0,0,1.52,2.9"/><circle class="cls-69" cx="159.57" cy="145.73" r="0.48"/></g><polygon class="cls-70" points="226.05 172.06 30.49 172.06 15.31 251.22 210.87 251.22 226.05 172.06"/><polygon class="cls-71" points="226.05 172.06 232.68 242.03 230.07 244.07 215.08 244.24 213.97 248.79 210.87 251.22 226.05 172.06"/></svg>