<svg id="Layer_1" data-name="Layer 1" xmlns="http://www.w3.org/2000/svg" xmlns:xlink="http://www.w3.org/1999/xlink" viewBox="0 0 235.13 262.86"><defs><style>.cls-1,.cls-21,.cls-39,.cls-46,.cls-53,.cls-61,.cls-68{fill:none;}.cls-2,.cls-5{opacity:0.72;}.cls-13,.cls-14,.cls-17,.cls-18,.cls-19,.cls-2,.cls-21,.cls-22,.cls-28,.cls-30,.cls-31,.cls-32,.cls-5,.cls-8{isolation:isolate;}.cls-2{fill:url(#linear-gradient);}.cls-3{fill:#683d14;fill-opacity:0.51;}.cls-4{fill:url(#linear-gradient-2);}.cls-5{fill:url(#linear-gradient-3);}.cls-6{clip-path:url(#clip-path);}.cls-7{fill:url(#linear-gradient-4);}.cls-8{opacity:0.42;fill:url(#linear-gradient-5);}.cls-9{opacity:0.54;}.cls-10{fill:url(#radial-gradient);}.cls-11,.cls-28,.cls-32{opacity:0.8;}.cls-12{fill:url(#radial-gradient-2);}.cls-13,.cls-19,.cls-22{opacity:0.5;}.cls-13{fill:url(#radial-gradient-3);}.cls-14{opacity:0.25;fill:url(#radial-gradient-4);}.cls-15{fill:url(#radial-gradient-5);}.cls-16{fill:url(#radial-gradient-6);}.cls-17,.cls-55{opacity:0.2;}.cls-17{fill:url(#radial-gradient-7);}.cls-18{opacity:0.15;fill:url(#radial-gradient-8);}.cls-19{fill:url(#radial-gradient-9);}.cls-20{fill:url(#radial-gradient-10);}.cls-21{stroke:#fff;stroke-width:1.69px;opacity:0.03;}.cls-21,.cls-32{stroke-miterlimit:10;}.cls-22{fill:url(#radial-gradient-11);}.cls-23{fill:url(#radial-gradient-12);}.cls-24{fill:url(#radial-gradient-13);}.cls-25{fill:url(#radial-gradient-14);}.cls-26{fill:url(#radial-gradient-15);}.cls-27{fill:url(#radial-gradient-16);}.cls-28{fill:url(#linear-gradient-6);}.cls-29{clip-path:url(#clip-path-2);}.cls-30,.cls-31,.cls-33{opacity:0.3;}.cls-30{fill:url(#linear-gradient-7);}.cls-31{fill:url(#linear-gradient-8);}.cls-32,.cls-39{stroke-width:0.85px;}.cls-32{fill:url(#linear-gradient-9);stroke:url(#linear-gradient-10);}.cls-34{fill:url(#radial-gradient-17);}.cls-35{fill:url(#radial-gradient-18);}.cls-36{fill:url(#radial-gradient-19);}.cls-37{fill:url(#radial-gradient-20);}.cls-38{fill:url(#radial-gradient-21);}.cls-39,.cls-46,.cls-53,.cls-61,.cls-68{stroke-linecap:round;stroke-linejoin:round;}.cls-39{stroke:url(#radial-gradient-22);}.cls-40{fill:url(#radial-gradient-23);}.cls-41{fill:url(#radial-gradient-24);}.cls-42{fill:url(#radial-gradient-25);}.cls-43{fill:url(#radial-gradient-26);}.cls-44{fill:url(#radial-gradient-27);}.cls-45{fill:url(#radial-gradient-28);}.cls-46{stroke-width:0.48px;stroke:url(#radial-gradient-29);}.cls-47{fill:url(#radial-gradient-30);}.cls-48{fill:url(#radial-gradient-31);}.cls-49{fill:url(#radial-gradient-32);}.cls-50{fill:url(#radial-gradient-33);}.cls-51{fill:url(#radial-gradient-34);}.cls-52{fill:url(#radial-gradient-35);}.cls-53{stroke-width:0.25px;stroke:url(#radial-gradient-36);}.cls-54{fill:url(#radial-gradient-37);}.cls-56{fill:url(#radial-gradient-38);}.cls-57{fill:url(#radial-gradient-39);}.cls-58{fill:url(#radial-gradient-40);}.cls-59{fill:url(#radial-gradient-41);}.cls-60{fill:url(#radial-gradient-42);}.cls-61{stroke-width:0.56px;stroke:url(#radial-gradient-43);}.cls-62{fill:url(#radial-gradient-44);}.cls-63{fill:url(#radial-gradient-45);}.cls-64{fill:url(#radial-gradient-46);}.cls-65{fill:url(#radial-gradient-47);}.cls-66{fill:url(#radial-gradient-48);}.cls-67{fill:url(#radial-gradient-49);}.cls-68{stroke-width:0.3px;stroke:url(#radial-gradient-50);}.cls-69{fill:url(#radial-gradient-51);}.cls-70{fill:#fff;}.cls-71{fill:#c7c6c6;}</style><linearGradient id="linear-gradient" x1="125.13" y1="496.82" x2="125.13" y2="523.39" gradientTransform="translate(0 -500)" gradientUnits="userSpaceOnUse"><stop offset="0" stop-color="#f6fbff"/><stop offset="0.63" stop-color="#e9f1f6"/><stop offset="1" stop-color="#c5dae1"/></linearGradient><linearGradient id="linear-gradient-2" x1="142.99" y1="520.16" x2="120.7" y2="701.77" gradientTransform="translate(0 -500)" gradientUnits="userSpaceOnUse"><stop offset="0" stop-color="#c0c5c8"/><stop offset="1" stop-color="#b0c2c9"/></linearGradient><linearGradient id="linear-gradient-3" x1="76.69" y1="624" x2="171.07" y2="624" xlink:href="#linear-gradient"/><clipPath id="clip-path"><path class="cls-1" d="M218.14,218.77V14.65c0,4.93-63.58,8.92-87.38,8.92h-3.59c-4.8-.07-9.6-.25-14.39-.47q-8.52-.39-17-1Q87,21.5,78.26,20.7c-5.3-.49-10.6-1-15.88-1.73-3.9-.53-7.74-1.53-11.67-1.44S43.07,19.2,39.29,20l-.95.2a20,20,0,0,1-3.85.59c-.45,0-.91.09-1.36.12-.22,0-.86-.06-1,.14s.24.62.37.76a4.77,4.77,0,0,0,.76.6c.32.25.67.47,1,.71l3.45,2.44,5.56,3.94.16.11V218.77a11.55,11.55,0,0,0,11.13,14.58H207a11.54,11.54,0,0,0,11.54-11.53,11.28,11.28,0,0,0-.42-3Z"/></clipPath><linearGradient id="linear-gradient-4" x1="92.12" y1="622.38" x2="143.29" y2="754.55" gradientTransform="translate(0 -500)" gradientUnits="userSpaceOnUse"><stop offset="0" stop-color="#f5f5f5"/><stop offset="1" stop-color="#c3d1d6"/></linearGradient><linearGradient id="linear-gradient-5" x1="70.66" y1="666.1" x2="184.76" y2="666.1" gradientTransform="translate(0 -500)" gradientUnits="userSpaceOnUse"><stop offset="0" stop-color="#bb4d18"/><stop offset="1" stop-color="#ef793b"/></linearGradient><radialGradient id="radial-gradient" cx="-1176.27" cy="-12074.82" r="64.7" gradientTransform="matrix(0.01, 1, -0.12, 0, -1230.67, 1263.89)" gradientUnits="userSpaceOnUse"><stop offset="0" stop-color="#e6f3fc"/><stop offset="1" stop-color="#bacae9" stop-opacity="0"/></radialGradient><radialGradient id="radial-gradient-2" cx="-3112.84" cy="8519.65" r="54.3" gradientTransform="matrix(0.01, -1, 0.16, 0, -1279.23, -3001.62)" xlink:href="#radial-gradient"/><radialGradient id="radial-gradient-3" cx="198.96" cy="655.86" r="3.83" gradientTransform="translate(0 -500)" xlink:href="#radial-gradient"/><radialGradient id="radial-gradient-4" cx="-1875.43" cy="-622.71" r="13.58" gradientTransform="translate(2039.85 150.52) rotate(-17.29)" gradientUnits="userSpaceOnUse"><stop offset="0.1" stop-color="#010101"/><stop offset="0.11" stop-color="#070706"/><stop offset="0.16" stop-color="#221d12"/><stop offset="0.22" stop-color="#392e16"/><stop offset="0.28" stop-color="#4a3a17"/><stop offset="0.37" stop-color="#564318"/><stop offset="0.48" stop-color="#5c4918"/><stop offset="0.8" stop-color="#5f4a17"/><stop offset="1" stop-color="#010101"/></radialGradient><radialGradient id="radial-gradient-5" cx="-1886.56" cy="-568.68" r="0.45" gradientTransform="matrix(0.95, -0.3, 0.3, 0.95, 2030.68, 151.02)" gradientUnits="userSpaceOnUse"><stop offset="0" stop-color="#d5e195"/><stop offset="0.06" stop-color="#b1bb79"/><stop offset="0.14" stop-color="#868f5f"/><stop offset="0.22" stop-color="#646946"/><stop offset="0.31" stop-color="#454930"/><stop offset="0.4" stop-color="#2c2f1f"/><stop offset="0.51" stop-color="#191a13"/><stop offset="0.62" stop-color="#0b0c0a"/><stop offset="0.76" stop-color="#020404"/><stop offset="1" stop-color="#010101"/></radialGradient><radialGradient id="radial-gradient-6" cx="63.9" cy="843.01" r="0.45" gradientTransform="matrix(1, 0, 0, -1, 0, 1009.99)" xlink:href="#radial-gradient-5"/><radialGradient id="radial-gradient-7" cx="-1887.08" cy="-567.04" r="3.4" gradientTransform="matrix(0.95, -0.3, 0.3, 0.95, 2030.68, 151.02)" gradientUnits="userSpaceOnUse"><stop offset="0.05" stop-color="#010101"/><stop offset="0.09" stop-color="#070b08"/><stop offset="0.3" stop-color="#1f341c"/><stop offset="0.48" stop-color="#265325"/><stop offset="0.64" stop-color="#30672c"/><stop offset="0.75" stop-color="#336e2e"/><stop offset="0.79" stop-color="#506f2a"/><stop offset="0.83" stop-color="#717021"/><stop offset="0.86" stop-color="#7f701b"/><stop offset="0.89" stop-color="#7a6d1c"/><stop offset="0.91" stop-color="#71641b"/><stop offset="0.94" stop-color="#5e5419"/><stop offset="0.96" stop-color="#433d18"/><stop offset="0.98" stop-color="#232114"/><stop offset="1" stop-color="#010101"/></radialGradient><radialGradient id="radial-gradient-8" cx="-1874.82" cy="-605.92" r="9.05" gradientTransform="matrix(0.95, -0.3, 0.3, 0.95, 2030.68, 151.02)" gradientUnits="userSpaceOnUse"><stop offset="0" stop-color="#1d090a"/><stop offset="0.73" stop-color="#994123"/><stop offset="1" stop-color="#1d090a"/></radialGradient><radialGradient id="radial-gradient-9" cx="-1874.82" cy="-605.92" r="4.53" gradientTransform="matrix(0.95, -0.3, 0.3, 0.95, 2030.68, 151.02)" gradientUnits="userSpaceOnUse"><stop offset="0.15" stop-color="#fff"/><stop offset="0.21" stop-color="#e5d3d3"/><stop offset="0.29" stop-color="#c49c9e"/><stop offset="0.36" stop-color="#ad7477"/><stop offset="0.42" stop-color="#9f5d60"/><stop offset="0.45" stop-color="#9a5457"/><stop offset="0.57" stop-color="#6b3436"/><stop offset="0.69" stop-color="#431719"/><stop offset="0.79" stop-color="#270d0e"/><stop offset="0.85" stop-color="#1d090a"/><stop offset="0.86" stop-color="#210a0a"/><stop offset="0.86" stop-color="#300f0e"/><stop offset="0.87" stop-color="#461410"/><stop offset="0.88" stop-color="#641e11"/><stop offset="0.89" stop-color="#8b2e19"/><stop offset="0.9" stop-color="#b84323"/><stop offset="0.9" stop-color="#d34f29"/><stop offset="0.9" stop-color="#c94928"/><stop offset="0.91" stop-color="#9d371d"/><stop offset="0.93" stop-color="#772615"/><stop offset="0.94" stop-color="#591a10"/><stop offset="0.95" stop-color="#3e130f"/><stop offset="0.97" stop-color="#2b0e0d"/><stop offset="0.98" stop-color="#1f090b"/><stop offset="1" stop-color="#1d090a"/></radialGradient><radialGradient id="radial-gradient-10" cx="-1878.66" cy="-612.47" r="3.77" gradientTransform="translate(1942.71 736.55)" gradientUnits="userSpaceOnUse"><stop offset="0.15" stop-color="#fff"/><stop offset="0.28" stop-color="#c3c2c2"/><stop offset="0.43" stop-color="#878889"/><stop offset="0.56" stop-color="#585858"/><stop offset="0.69" stop-color="#323232"/><stop offset="0.81" stop-color="#161617"/><stop offset="0.92" stop-color="#050606"/><stop offset="1" stop-color="#010101"/></radialGradient><radialGradient id="radial-gradient-11" cx="-1887.73" cy="-564.99" r="6.79" gradientTransform="matrix(0.95, -0.3, 0.3, 0.95, 2030.68, 151.02)" gradientUnits="userSpaceOnUse"><stop offset="0.64" stop-color="#010101"/><stop offset="0.72" stop-color="#010302"/><stop offset="0.75" stop-color="#060908"/><stop offset="0.77" stop-color="#0c140e"/><stop offset="0.78" stop-color="#132517"/><stop offset="0.8" stop-color="#1b3b1d"/><stop offset="0.8" stop-color="#1c431f"/><stop offset="0.81" stop-color="#212c19"/><stop offset="0.83" stop-color="#2c190f"/><stop offset="0.85" stop-color="#33110d"/><stop offset="0.86" stop-color="#35100f"/><stop offset="0.87" stop-color="#200a0a"/><stop offset="0.89" stop-color="#100606"/><stop offset="0.9" stop-color="#050303"/><stop offset="0.93" stop-color="#020102"/><stop offset="1" stop-color="#010101"/></radialGradient><radialGradient id="radial-gradient-12" cx="-1885.23" cy="-572.89" r="1.93" gradientTransform="matrix(0.95, -0.3, 0.3, 0.95, 2030.68, 151.02)" gradientUnits="userSpaceOnUse"><stop offset="0.1" stop-color="#010101"/><stop offset="0.25" stop-color="#1a130c"/><stop offset="0.43" stop-color="#352413"/><stop offset="0.61" stop-color="#483014"/><stop offset="0.8" stop-color="#533613"/><stop offset="1" stop-color="#573812"/></radialGradient><radialGradient id="radial-gradient-13" cx="-1882.35" cy="-600.78" r="1.08" gradientTransform="translate(2039.85 150.51) rotate(-17.29)" gradientUnits="userSpaceOnUse"><stop offset="0.1" stop-color="#1a301d"/><stop offset="0.23" stop-color="#142318"/><stop offset="0.48" stop-color="#0a0f0c"/><stop offset="0.73" stop-color="#030404"/><stop offset="1" stop-color="#010101"/></radialGradient><radialGradient id="radial-gradient-14" cx="63.96" cy="860.02" r="0.71" gradientTransform="matrix(1, 0, 0, -1, 0, 1009.99)" xlink:href="#radial-gradient-12"/><radialGradient id="radial-gradient-15" cx="-1883.26" cy="-579.15" r="1" gradientTransform="matrix(0.95, -0.3, 0.3, 0.95, 2030.68, 151.02)" gradientUnits="userSpaceOnUse"><stop offset="0.1" stop-color="#010101"/><stop offset="0.29" stop-color="#151711"/><stop offset="0.52" stop-color="#262a1b"/><stop offset="0.75" stop-color="#313523"/><stop offset="1" stop-color="#333824"/></radialGradient><radialGradient id="radial-gradient-16" cx="-1885.11" cy="-573.3" r="1.86" gradientTransform="matrix(0.95, -0.3, 0.3, 0.95, 2030.68, 151.02)" xlink:href="#radial-gradient-13"/><linearGradient id="linear-gradient-6" x1="190.76" y1="729.12" x2="72.66" y2="572.6" xlink:href="#linear-gradient-5"/><clipPath id="clip-path-2"><path class="cls-1" d="M208.05,213.51V80.44h0c0,4.75-55.7,8.6-77.28,8.6s-77.29-3.85-77.29-8.6h0V213.51c.08,5.91,2.77,11.84,8.94,11.84H199.1C205.29,225.35,208.12,219.3,208.05,213.51Z"/></clipPath><linearGradient id="linear-gradient-7" x1="287.42" y1="675.76" x2="40.39" y2="652.78" xlink:href="#linear-gradient-5"/><linearGradient id="linear-gradient-8" x1="7.16" y1="700.88" x2="241.71" y2="700.88" xlink:href="#linear-gradient-5"/><linearGradient id="linear-gradient-9" x1="268.02" y1="580.45" x2="84.87" y2="580.45" xlink:href="#linear-gradient-5"/><linearGradient id="linear-gradient-10" x1="53.06" y1="580.45" x2="208.48" y2="580.45" gradientTransform="translate(0 -500)" gradientUnits="userSpaceOnUse"><stop offset="0" stop-color="#ee7531"/><stop offset="1" stop-color="#ef793b"/></linearGradient><radialGradient id="radial-gradient-17" cx="-1141.21" cy="1961.27" r="14.16" gradientTransform="matrix(0.25, -0.97, 0.96, 0.25, -1496.59, -1507.47)" gradientUnits="userSpaceOnUse"><stop offset="0" stop-color="#c86836" stop-opacity="0.8"/><stop offset="0.3" stop-color="#ca6b39" stop-opacity="0.8"/><stop offset="0.52" stop-color="#d17444" stop-opacity="0.8"/><stop offset="0.72" stop-color="#e08758" stop-opacity="0.8"/><stop offset="0.91" stop-color="#f49f74" stop-opacity="0.81"/><stop offset="1" stop-color="#f6ab87" stop-opacity="0.81"/></radialGradient><radialGradient id="radial-gradient-18" cx="560.44" cy="930.09" r="9.18" gradientTransform="translate(-598.34 -635.41) scale(1.24 0.77)" gradientUnits="userSpaceOnUse"><stop offset="0" stop-color="#ec9351"/><stop offset="0.38" stop-color="#ec9351" stop-opacity="0.99"/><stop offset="0.52" stop-color="#ea9353" stop-opacity="0.96"/><stop offset="0.61" stop-color="#ea9455" stop-opacity="0.91"/><stop offset="0.69" stop-color="#e99557" stop-opacity="0.84"/><stop offset="0.76" stop-color="#e8965a" stop-opacity="0.75"/><stop offset="0.82" stop-color="#e5975e" stop-opacity="0.63"/><stop offset="0.87" stop-color="#e39861" stop-opacity="0.49"/><stop offset="0.92" stop-color="#e19b67" stop-opacity="0.33"/><stop offset="0.97" stop-color="#de9b6e" stop-opacity="0.16"/><stop offset="1" stop-color="#dc9e73" stop-opacity="0"/></radialGradient><radialGradient id="radial-gradient-19" cx="-1133.28" cy="1953.78" r="1.16" gradientTransform="matrix(0.25, -0.97, 0.96, 0.25, -1483.52, -1505.41)" gradientUnits="userSpaceOnUse"><stop offset="0" stop-color="#ebd3c2"/><stop offset="0.38" stop-color="#ecd4c1" stop-opacity="0.99"/><stop offset="0.52" stop-color="#ebd2bf" stop-opacity="0.96"/><stop offset="0.61" stop-color="#ebcfbb" stop-opacity="0.91"/><stop offset="0.69" stop-color="#e9cab3" stop-opacity="0.84"/><stop offset="0.76" stop-color="#e7c6ae" stop-opacity="0.75"/><stop offset="0.82" stop-color="#e5c0a5" stop-opacity="0.63"/><stop offset="0.87" stop-color="#e3b99a" stop-opacity="0.49"/><stop offset="0.92" stop-color="#e1b08c" stop-opacity="0.33"/><stop offset="0.97" stop-color="#dea77f" stop-opacity="0.16"/><stop offset="1" stop-color="#dc9e73" stop-opacity="0"/></radialGradient><radialGradient id="radial-gradient-20" cx="-1131.37" cy="1955.38" r="0.42" gradientTransform="matrix(0.25, -0.97, 0.96, 0.25, -1483.62, -1502.36)" gradientUnits="userSpaceOnUse"><stop offset="0" stop-color="#ebd3c2"/><stop offset="0.22" stop-color="#ecd3c1" stop-opacity="0.99"/><stop offset="0.36" stop-color="#ebd1be" stop-opacity="0.95"/><stop offset="0.48" stop-color="#e9cdb9" stop-opacity="0.89"/><stop offset="0.58" stop-color="#e8c8b1" stop-opacity="0.8"/><stop offset="0.68" stop-color="#e5c2a8" stop-opacity="0.69"/><stop offset="0.77" stop-color="#e4bc9e" stop-opacity="0.55"/><stop offset="0.85" stop-color="#e2b291" stop-opacity="0.38"/><stop offset="0.93" stop-color="#dfa982" stop-opacity="0.2"/><stop offset="1" stop-color="#dc9e73" stop-opacity="0"/></radialGradient><radialGradient id="radial-gradient-21" cx="-1147.76" cy="1971.36" r="0.42" gradientTransform="matrix(0.25, -0.97, 0.96, 0.25, -1511.12, -1506.24)" xlink:href="#radial-gradient-20"/><radialGradient id="radial-gradient-22" cx="91.44" cy="594.25" r="3.7" gradientTransform="translate(0 -500)" xlink:href="#radial-gradient-19"/><radialGradient id="radial-gradient-23" cx="107.84" cy="617.47" r="1.69" gradientTransform="translate(0 -426.95) scale(1 0.85)" gradientUnits="userSpaceOnUse"><stop offset="0" stop-color="#ec9351"/><stop offset="0.09" stop-color="#ec9353" stop-opacity="0.97"/><stop offset="0.23" stop-color="#e89456" stop-opacity="0.88"/><stop offset="0.4" stop-color="#e8965a" stop-opacity="0.74"/><stop offset="0.59" stop-color="#e49861" stop-opacity="0.54"/><stop offset="0.79" stop-color="#e09a68" stop-opacity="0.28"/><stop offset="1" stop-color="#dc9e73" stop-opacity="0"/></radialGradient><radialGradient id="radial-gradient-24" cx="-1096.99" cy="1942.99" r="8.01" gradientTransform="matrix(0.25, -0.97, 0.96, 0.25, -1446.12, -1478.39)" xlink:href="#radial-gradient-17"/><radialGradient id="radial-gradient-25" cx="597.14" cy="917.59" r="5.19" gradientTransform="translate(-599.33 -640.46) scale(1.24 0.77)" xlink:href="#radial-gradient-18"/><radialGradient id="radial-gradient-26" cx="-1092.51" cy="1938.76" r="0.66" gradientTransform="matrix(0.25, -0.97, 0.96, 0.25, -1438.73, -1477.23)" xlink:href="#radial-gradient-19"/><radialGradient id="radial-gradient-27" cx="-1091.43" cy="1939.66" r="0.24" gradientTransform="matrix(0.25, -0.97, 0.96, 0.25, -1438.79, -1475.5)" xlink:href="#radial-gradient-20"/><radialGradient id="radial-gradient-28" cx="-1100.69" cy="1948.69" r="0.24" gradientTransform="matrix(0.25, -0.97, 0.96, 0.25, -1454.33, -1477.7)" xlink:href="#radial-gradient-20"/><radialGradient id="radial-gradient-29" cx="139.88" cy="573.7" r="2.09" gradientTransform="translate(0 -500)" xlink:href="#radial-gradient-19"/><radialGradient id="radial-gradient-30" cx="149.14" cy="595.67" r="0.95" gradientTransform="translate(0 -430.11) scale(1 0.85)" xlink:href="#radial-gradient-23"/><radialGradient id="radial-gradient-31" cx="-1114.85" cy="1924.01" r="4.26" gradientTransform="matrix(0.25, -0.97, 0.96, 0.25, -1441.31, -1509.88)" xlink:href="#radial-gradient-17"/><radialGradient id="radial-gradient-32" cx="580.65" cy="904.52" r="2.76" gradientTransform="translate(-597.9 -649.76) scale(1.24 0.77)" xlink:href="#radial-gradient-18"/><radialGradient id="radial-gradient-33" cx="-1112.47" cy="1921.76" r="0.35" gradientTransform="matrix(0.25, -0.97, 0.96, 0.25, -1437.38, -1509.26)" xlink:href="#radial-gradient-19"/><radialGradient id="radial-gradient-34" cx="-1111.89" cy="1922.24" r="0.13" gradientTransform="matrix(0.25, -0.97, 0.96, 0.25, -1437.41, -1508.34)" xlink:href="#radial-gradient-20"/><radialGradient id="radial-gradient-35" cx="-1116.82" cy="1927.05" r="0.13" gradientTransform="matrix(0.25, -0.97, 0.96, 0.25, -1445.68, -1509.51)" xlink:href="#radial-gradient-20"/><radialGradient id="radial-gradient-36" cx="124.58" cy="553.35" r="1.11" gradientTransform="translate(0 -500)" xlink:href="#radial-gradient-19"/><radialGradient id="radial-gradient-37" cx="129.51" cy="574.55" r="0.51" gradientTransform="translate(0 -433.18) scale(1 0.85)" xlink:href="#radial-gradient-23"/><radialGradient id="radial-gradient-38" cx="-1069.44" cy="1995.17" r="9.35" gradientTransform="matrix(0.25, -0.97, 0.96, 0.25, -1475.44, -1412.65)" xlink:href="#radial-gradient-17"/><radialGradient id="radial-gradient-39" cx="616.01" cy="976.71" r="6.06" gradientTransform="translate(-595.35 -634.66) scale(1.24 0.77)" xlink:href="#radial-gradient-18"/><radialGradient id="radial-gradient-40" cx="-1064.21" cy="1990.23" r="0.77" gradientTransform="matrix(0.25, -0.97, 0.96, 0.25, -1466.81, -1411.28)" xlink:href="#radial-gradient-19"/><radialGradient id="radial-gradient-41" cx="-1062.95" cy="1991.28" r="0.28" gradientTransform="matrix(0.25, -0.97, 0.96, 0.25, -1466.88, -1409.27)" xlink:href="#radial-gradient-20"/><radialGradient id="radial-gradient-42" cx="-1073.76" cy="2001.83" r="0.28" gradientTransform="matrix(0.25, -0.97, 0.96, 0.25, -1485.03, -1411.83)" xlink:href="#radial-gradient-20"/><radialGradient id="radial-gradient-43" cx="166.51" cy="626.37" r="2.44" gradientTransform="translate(0 -500)" xlink:href="#radial-gradient-19"/><radialGradient id="radial-gradient-44" cx="177.33" cy="648.61" r="1.11" gradientTransform="translate(0 -422.42) scale(1 0.85)" xlink:href="#radial-gradient-23"/><radialGradient id="radial-gradient-45" cx="-1086.39" cy="2015.61" r="4.97" gradientTransform="matrix(0.25, -0.97, 0.96, 0.25, -1507.62, -1413.72)" xlink:href="#radial-gradient-17"/><radialGradient id="radial-gradient-46" cx="601.29" cy="1000.71" r="3.22" gradientTransform="translate(-593.66 -630.19) scale(1.24 0.77)" xlink:href="#radial-gradient-18"/><radialGradient id="radial-gradient-47" cx="-1083.6" cy="2012.98" r="0.41" gradientTransform="matrix(0.25, -0.97, 0.96, 0.25, -1503.03, -1413)" xlink:href="#radial-gradient-19"/><radialGradient id="radial-gradient-48" cx="-1082.93" cy="2013.54" r="0.15" gradientTransform="matrix(0.25, -0.97, 0.96, 0.25, -1503.07, -1411.93)" xlink:href="#radial-gradient-20"/><radialGradient id="radial-gradient-49" cx="-1088.69" cy="2019.15" r="0.15" gradientTransform="matrix(0.25, -0.97, 0.96, 0.25, -1512.72, -1413.29)" xlink:href="#radial-gradient-20"/><radialGradient id="radial-gradient-50" cx="152.55" cy="645.2" r="1.3" gradientTransform="translate(0 -500)" xlink:href="#radial-gradient-19"/><radialGradient id="radial-gradient-51" cx="158.31" cy="666.55" r="0.59" gradientTransform="translate(0 -419.82) scale(1 0.85)" xlink:href="#radial-gradient-23"/></defs><path class="cls-2" d="M218.14,14.65c0,4.93-63.59,8.92-87.38,8.92-4.59,0-9.17-.12-13.76-.28q-9.63-.34-19.26-.92Q87.6,21.76,77.47,20.9q-3.8-.33-7.58-.7c-2.52-.25-5.09-.53-7.72-.86-1.25-.16-2.49-.36-3.71-.62s-2.48-.49-3.74-.66a21.81,21.81,0,0,0-7.12,0c-2.34.46-4.57,1.28-6.88,1.84A41.44,41.44,0,0,1,32.12,21a7.94,7.94,0,0,1,1.61-1.4,39,39,0,0,1,4.44-2.53c2.14-1.08,4.26-2.37,6.46-3.41a29.77,29.77,0,0,1,7.43-2.24c4.45-.82,8.94-1.38,13.42-1.88C71.09,8.92,76.72,8.42,82.35,8q9-.7,18-1.21,8.46-.48,16.9-.78c4.49-.15,9-.27,13.49-.27C154.55,5.74,218.14,9.73,218.14,14.65Z"/><polygon class="cls-3" points="14.06 251.71 2.46 258.14 213.53 258.14 231.47 245.01 231.43 242.52 14.06 251.71"/><path class="cls-4" d="M212.34,217l-.87-199.39c-12.06,5.92-64.22,5.92-80.71,5.92h-4c-1.26,0-2.52-.06-3.79-.11-1.43,0-2.85-.1-4.28-.16s-3.13-.13-4.69-.21l-5-.26-5.25-.29c-1.81-.1-3.61-.21-5.42-.33l-5.5-.35-5.51-.42L82,21l-5.24-.41-5-.42-4.65-.42c-1.41-.13-2.83-.27-4.24-.42l-1.93-.2a25.41,25.41,0,0,1-2.83-.59l-.5-.14a26.29,26.29,0,0,0-7.35-.7L49,17.82,49.19,217A9.82,9.82,0,0,0,56,229.16h0a10.06,10.06,0,0,0,2.67.37H202.9A9.82,9.82,0,0,0,212.34,217Z"/><path class="cls-5" d="M218.14,218.77V14.65c0,4.93-63.58,8.92-87.38,8.92h-3.59c-4.8-.07-9.6-.25-14.39-.47q-8.52-.39-17-1Q87,21.5,78.26,20.7c-5.3-.49-10.6-1-15.88-1.73-3.9-.53-7.74-1.53-11.67-1.44S43.07,19.2,39.29,20l-.95.2a20,20,0,0,1-3.85.59c-.45,0-.91.09-1.36.12-.22,0-.86-.06-1,.14s.24.62.37.76a4.77,4.77,0,0,0,.76.6c.32.25.67.47,1,.71l3.45,2.44,5.56,3.94.16.11V218.77a11.55,11.55,0,0,0,11.13,14.58H207a11.54,11.54,0,0,0,11.54-11.53,11.28,11.28,0,0,0-.42-3Z"/><g class="cls-6"><path class="cls-7" d="M213.38,222.34c0-8.62-36.85-11.59-82.32-11.59s-82.31,3.3-82.31,11.92,8,6.88,82.31,7.57C201.58,230.89,213.38,231,213.38,222.34Z"/><rect class="cls-8" x="16.7" y="78.42" width="225.47" height="175.35"/></g><g class="cls-9"><path class="cls-10" d="M197.92,146.78a4.23,4.23,0,0,1-4.13-3.34V78.35a4.21,4.21,0,0,1-.09-.87V38.3a4.23,4.23,0,1,1,8.46,0h0V77l-.09,64.64a4.22,4.22,0,0,1-3.28,5,4.14,4.14,0,0,1-.87.09Z"/></g><g class="cls-11"><path class="cls-12" d="M62.51,168.69a4.64,4.64,0,0,1-5.65-3.35h0a5.15,5.15,0,0,1-.15-1.18l.71-107.71a4.66,4.66,0,0,1,9.31.06L66,164.23A4.63,4.63,0,0,1,62.51,168.69Z"/></g><circle class="cls-13" cx="198.85" cy="155.84" r="4.23"/><circle class="cls-14" cx="64.09" cy="113.34" r="13.58"/><circle class="cls-15" cx="63.91" cy="163.11" r="0.45"/><circle class="cls-16" cx="63.9" cy="166.98" r="0.45"/><circle class="cls-17" cx="63.9" cy="164.83" r="3.4"/><line class="cls-1" x1="64.05" y1="124.06" x2="63.9" y2="166.98"/><circle class="cls-18" cx="64.05" cy="124.06" r="9.05"/><circle class="cls-19" cx="64.05" cy="124.06" r="4.53"/><circle class="cls-20" cx="64.05" cy="124.06" r="3.77" transform="translate(-33.98 24.64) rotate(-17.29)"/><polyline class="cls-21" points="64.06 124.06 66.08 138.79 64.06 124.06 62.02 109.33 64.06 124.06 49.33 126.1 64.06 124.06 78.78 122.03 64.06 124.06 71.64 141.72 64.06 124.06 56.45 106.4 64.06 124.06 46.4 131.66 64.06 124.06 81.72 116.47 64.06 124.06 77.72 136.24 64.06 124.06 50.4 111.88 64.06 124.06 51.88 137.72 64.06 124.06 76.23 110.41 64.06 124.06 64.97 136.81 64.06 124.06 63.13 111.32 64.06 124.06 51.3 124.98 64.06 124.06 76.8 123.15 64.06 124.06 64.39 125.54 64.06 124.06 63.72 122.59 64.06 124.06 62.58 124.4 64.06 124.06 65.53 123.72 64.06 124.06 59.78 142.88 64.06 124.06 68.31 105.24 64.06 124.06 45.23 119.8 64.06 124.06 82.88 128.33 64.06 124.06 61.67 130.33 64.06 124.06 66.44 117.79 64.06 124.06 57.78 121.68 64.06 124.06 70.33 126.45 64.06 124.06 67.44 127.76 64.06 124.06 60.66 120.36 64.06 124.06 60.35 127.45 64.06 124.06 67.75 120.67 64.06 124.06 84.69 133.23 64.06 124.06 43.41 114.89 64.06 124.06 54.88 144.71 64.06 124.06 73.22 103.42 64.06 124.06 73.11 140.54 64.06 124.06 54.98 107.58 64.06 124.06 47.58 133.13 64.06 124.06 80.53 115 64.06 124.06 73.72 143.66 64.06 124.06 54.38 104.47 64.06 124.06 44.47 133.73 64.06 124.06 83.64 114.39 64.06 124.06 66.92 127.29 64.06 124.06 61.19 120.83 64.06 124.06 60.83 126.93 64.06 124.06 67.28 121.2 64.06 124.06 78.27 130.57 64.06 124.06 49.84 117.55 64.06 124.06 57.55 138.28 64.06 124.06 70.56 109.85 64.06 124.06 63.23 140.76 64.06 124.06 64.89 107.36 64.06 124.06 47.35 123.23 64.06 124.06 80.75 124.89 64.06 124.06 68.94 136.84 64.06 124.06 59.17 111.28 64.06 124.06 51.27 128.94 64.06 124.06 76.83 119.19"/><circle class="cls-22" cx="63.9" cy="166.98" r="6.79"/><circle class="cls-23" cx="63.93" cy="158.69" r="1.93"/><circle class="cls-24" cx="64.01" cy="136.32" r="1.08"/><circle class="cls-25" cx="63.96" cy="149.97" r="0.71"/><circle class="cls-26" cx="63.95" cy="152.13" r="1"/><circle class="cls-27" cx="63.93" cy="158.27" r="1.86"/><path class="cls-28" d="M208.05,213.51V80.44h0c0,4.75-55.7,8.6-77.28,8.6s-77.29-3.85-77.29-8.6h0V213.51c.08,5.91,2.77,11.84,8.94,11.84H199.1C205.29,225.35,208.12,219.3,208.05,213.51Z"/><g class="cls-29"><path class="cls-30" d="M135.39,114.71c-18.68,1.5-37.42,2.26-56.09,3.8-20,1.63-41.8,7.14-57.54,20.19l-.45.38c-8.76,7.43-16,18-15.41,29.46.44,9,5.68,17.24,12.53,23.09s15.2,9.61,23.58,12.92c48.69,19.22,104.27,25.27,153.42,7.27,9.89-3.62,19.53-8.23,27.69-14.89s14.78-15.49,17.51-25.66c2.82-10.48,1.32-21.89-3.26-31.73-4.33-9.32-11.14-16.48-14-26.61-.52-1.88-1.11-4-2.75-5a7.39,7.39,0,0,0-3.75-.85c-21.64-1-42.52,3.5-63.88,5.94C147.15,113.68,141.29,114.23,135.39,114.71Z"/><path class="cls-31" d="M130.52,154.61c-18.41,3.47-37,6.22-55.37,9.72-19.71,3.75-40.81,11.54-55.08,26.18l-.4.42c-7.93,8.32-14,19.58-12.2,30.93,1.39,8.9,7.47,16.54,14.9,21.63s16.14,7.95,24.81,10.35c50.46,14,106.36,14.08,153.34-9,9.44-4.65,18.54-10.26,26-17.74s13.06-17,14.69-27.37c1.69-10.72-1-21.9-6.6-31.2-5.29-8.81-12.83-15.21-16.71-25-.72-1.82-1.52-3.82-3.27-4.69a7.49,7.49,0,0,0-3.81-.45c-21.63,1.3-41.92,8-62.9,12.68C142.11,152.34,136.29,153.51,130.52,154.61Z"/></g><path class="cls-32" d="M208.05,80.44c0,4.75-55.7,8.6-77.28,8.6s-77.29-3.85-77.29-8.6,55.72-8.59,77.29-8.59S208.05,75.69,208.05,80.44Z"/><g class="cls-33"><circle class="cls-34" cx="101.13" cy="89.03" r="14.91"/><ellipse class="cls-35" cx="100.09" cy="80.8" rx="9.96" ry="6.01" transform="translate(-5.84 7.82) rotate(-4.35)"/><circle class="cls-36" cx="109.07" cy="81.54" r="1.22"/><circle class="cls-37" cx="110.97" cy="83.15" r="0.44"/><circle class="cls-38" cx="94.59" cy="99.13" r="0.44"/><path class="cls-39" d="M89.29,90.12c-.15,2.88,1.59,7,4.35,8.25"/><circle class="cls-40" cx="107.84" cy="97.14" r="1.36"/></g><g class="cls-33"><circle class="cls-41" cx="145.35" cy="70.75" r="8.43"/><ellipse class="cls-42" cx="144.78" cy="66.1" rx="5.63" ry="3.4" transform="translate(-4.6 11.17) rotate(-4.35)"/><circle class="cls-43" cx="149.83" cy="66.52" r="0.69"/><circle class="cls-44" cx="150.91" cy="67.43" r="0.25"/><circle class="cls-45" cx="141.65" cy="76.46" r="0.25"/><path class="cls-46" d="M138.65,71.37c-.09,1.63.89,4,2.45,4.66"/><circle class="cls-47" cx="149.14" cy="75.34" r="0.77"/></g><g class="cls-33"><circle class="cls-48" cx="127.5" cy="51.78" r="4.48"/><ellipse class="cls-49" cx="128" cy="48.94" rx="3.01" ry="1.82" transform="translate(-3.5 10.36) rotate(-4.57)"/><circle class="cls-50" cx="129.88" cy="49.53" r="0.37"/><circle class="cls-51" cx="130.45" cy="50.01" r="0.13"/><circle class="cls-52" cx="125.53" cy="54.81" r="0.13"/><path class="cls-53" d="M123.93,52.11a2.84,2.84,0,0,0,1.36,2.48"/><circle class="cls-54" cx="129.51" cy="54.22" r="0.41"/></g><g class="cls-55"><circle class="cls-56" cx="172.9" cy="122.93" r="9.84"/><ellipse class="cls-57" cx="172.23" cy="117.49" rx="6.58" ry="3.96" transform="translate(-8.42 13.4) rotate(-4.35)"/><circle class="cls-58" cx="178.14" cy="117.99" r="0.81"/><circle class="cls-59" cx="179.4" cy="119.05" r="0.29"/><circle class="cls-60" cx="168.58" cy="129.59" r="0.29"/><path class="cls-61" d="M165.07,123.65c-.09,1.9,1.05,4.64,2.87,5.44"/><circle class="cls-62" cx="177.33" cy="128.28" r="0.89"/></g><g class="cls-55"><circle class="cls-63" cx="155.96" cy="143.37" r="5.23"/><ellipse class="cls-64" cx="155.61" cy="140.48" rx="3.5" ry="2.11" transform="translate(-10.21 12.21) rotate(-4.35)"/><circle class="cls-65" cx="158.74" cy="140.74" r="0.43"/><circle class="cls-66" cx="159.41" cy="141.31" r="0.16"/><circle class="cls-67" cx="153.66" cy="146.92" r="0.16"/><path class="cls-68" d="M151.79,143.75a3.31,3.31,0,0,0,1.53,2.9"/><circle class="cls-69" cx="158.31" cy="146.22" r="0.48"/></g><polygon class="cls-70" points="224.81 172.55 29.25 172.55 14.06 251.71 209.63 251.71 224.81 172.55"/><polygon class="cls-71" points="224.81 172.55 231.43 242.52 228.81 244.56 213.82 244.73 212.72 249.28 209.63 251.71 224.81 172.55"/></svg>