<svg id="Layer_1" data-name="Layer 1" xmlns="http://www.w3.org/2000/svg" xmlns:xlink="http://www.w3.org/1999/xlink" viewBox="0 0 235.13 262.86"><defs><style>.cls-1,.cls-22,.cls-40,.cls-47,.cls-54,.cls-62,.cls-69{fill:none;}.cls-2,.cls-5{opacity:0.72;}.cls-13,.cls-14,.cls-15,.cls-18,.cls-19,.cls-2,.cls-20,.cls-22,.cls-23,.cls-29,.cls-31,.cls-32,.cls-33,.cls-5,.cls-8{isolation:isolate;}.cls-2{fill:url(#linear-gradient);}.cls-3{fill:#683d14;fill-opacity:0.51;}.cls-4{fill:url(#linear-gradient-2);}.cls-5{fill:url(#linear-gradient-3);}.cls-6{clip-path:url(#clip-path);}.cls-7{fill:url(#linear-gradient-4);}.cls-8{opacity:0.42;fill:url(#linear-gradient-5);}.cls-9{opacity:0.54;}.cls-10{fill:url(#radial-gradient);}.cls-11,.cls-29,.cls-33{opacity:0.8;}.cls-12{fill:url(#radial-gradient-2);}.cls-13,.cls-14,.cls-20,.cls-23{opacity:0.5;}.cls-13{fill:url(#radial-gradient-3);}.cls-14{fill:url(#radial-gradient-4);}.cls-15{opacity:0.25;fill:url(#radial-gradient-5);}.cls-16{fill:url(#radial-gradient-6);}.cls-17{fill:url(#radial-gradient-7);}.cls-18,.cls-56{opacity:0.2;}.cls-18{fill:url(#radial-gradient-8);}.cls-19{opacity:0.15;fill:url(#radial-gradient-9);}.cls-20{fill:url(#radial-gradient-10);}.cls-21{fill:url(#radial-gradient-11);}.cls-22{stroke:#fff;stroke-width:1.69px;opacity:0.03;}.cls-22,.cls-33{stroke-miterlimit:10;}.cls-23{fill:url(#radial-gradient-12);}.cls-24{fill:url(#radial-gradient-13);}.cls-25{fill:url(#radial-gradient-14);}.cls-26{fill:url(#radial-gradient-15);}.cls-27{fill:url(#radial-gradient-16);}.cls-28{fill:url(#radial-gradient-17);}.cls-29{fill:url(#linear-gradient-6);}.cls-30{clip-path:url(#clip-path-2);}.cls-31,.cls-32,.cls-34{opacity:0.3;}.cls-31{fill:url(#linear-gradient-7);}.cls-32{fill:url(#linear-gradient-8);}.cls-33,.cls-40{stroke-width:0.85px;}.cls-33{fill:url(#linear-gradient-9);stroke:url(#linear-gradient-10);}.cls-35{fill:url(#radial-gradient-18);}.cls-36{fill:url(#radial-gradient-19);}.cls-37{fill:url(#radial-gradient-20);}.cls-38{fill:url(#radial-gradient-21);}.cls-39{fill:url(#radial-gradient-22);}.cls-40,.cls-47,.cls-54,.cls-62,.cls-69{stroke-linecap:round;stroke-linejoin:round;}.cls-40{stroke:url(#radial-gradient-23);}.cls-41{fill:url(#radial-gradient-24);}.cls-42{fill:url(#radial-gradient-25);}.cls-43{fill:url(#radial-gradient-26);}.cls-44{fill:url(#radial-gradient-27);}.cls-45{fill:url(#radial-gradient-28);}.cls-46{fill:url(#radial-gradient-29);}.cls-47{stroke-width:0.48px;stroke:url(#radial-gradient-30);}.cls-48{fill:url(#radial-gradient-31);}.cls-49{fill:url(#radial-gradient-32);}.cls-50{fill:url(#radial-gradient-33);}.cls-51{fill:url(#radial-gradient-34);}.cls-52{fill:url(#radial-gradient-35);}.cls-53{fill:url(#radial-gradient-36);}.cls-54{stroke-width:0.25px;stroke:url(#radial-gradient-37);}.cls-55{fill:url(#radial-gradient-38);}.cls-57{fill:url(#radial-gradient-39);}.cls-58{fill:url(#radial-gradient-40);}.cls-59{fill:url(#radial-gradient-41);}.cls-60{fill:url(#radial-gradient-42);}.cls-61{fill:url(#radial-gradient-43);}.cls-62{stroke-width:0.56px;stroke:url(#radial-gradient-44);}.cls-63{fill:url(#radial-gradient-45);}.cls-64{fill:url(#radial-gradient-46);}.cls-65{fill:url(#radial-gradient-47);}.cls-66{fill:url(#radial-gradient-48);}.cls-67{fill:url(#radial-gradient-49);}.cls-68{fill:url(#radial-gradient-50);}.cls-69{stroke-width:0.3px;stroke:url(#radial-gradient-51);}.cls-70{fill:url(#radial-gradient-52);}.cls-71{fill:#fff;}.cls-72{fill:#c7c6c6;}</style><linearGradient id="linear-gradient" x1="126.12" y1="496.21" x2="126.12" y2="522.78" gradientTransform="translate(0 -500)" gradientUnits="userSpaceOnUse"><stop offset="0" stop-color="#f6fbff"/><stop offset="0.63" stop-color="#e9f1f6"/><stop offset="1" stop-color="#c5dae1"/></linearGradient><linearGradient id="linear-gradient-2" x1="143.99" y1="519.55" x2="121.69" y2="701.16" gradientTransform="translate(0 -500)" gradientUnits="userSpaceOnUse"><stop offset="0" stop-color="#c0c5c8"/><stop offset="1" stop-color="#b0c2c9"/></linearGradient><linearGradient id="linear-gradient-3" x1="77.69" y1="623.39" x2="172.07" y2="623.39" xlink:href="#linear-gradient"/><clipPath id="clip-path"><path class="cls-1" d="M219.14,218.16V14c0,4.93-63.58,8.92-87.38,8.92h-3.59c-4.8-.07-9.6-.25-14.39-.47q-8.52-.39-17-1-8.76-.6-17.52-1.4c-5.3-.49-10.6-1-15.88-1.73-3.9-.53-7.74-1.53-11.68-1.44s-7.63,1.67-11.4,2.5l-1,.2a19.8,19.8,0,0,1-3.84.59l-1.36.12c-.23,0-.87-.06-1,.14s.24.62.37.76a6.26,6.26,0,0,0,.76.6c.32.25.67.47,1,.71L38.67,25l5.57,3.94.16.11V218.16a11.55,11.55,0,0,0,11.13,14.58H208a11.54,11.54,0,0,0,11.55-11.52,11.24,11.24,0,0,0-.42-3.06Z"/></clipPath><linearGradient id="linear-gradient-4" x1="93.1" y1="621.77" x2="144.28" y2="753.94" gradientTransform="translate(0 -500)" gradientUnits="userSpaceOnUse"><stop offset="0" stop-color="#f5f5f5"/><stop offset="1" stop-color="#c3d1d6"/></linearGradient><linearGradient id="linear-gradient-5" x1="71.66" y1="665.48" x2="185.76" y2="665.48" gradientTransform="translate(0 -500)" gradientUnits="userSpaceOnUse"><stop offset="0" stop-color="#88bb25"/><stop offset="1" stop-color="#c0d239"/></linearGradient><radialGradient id="radial-gradient" cx="-1961.9" cy="-11354.46" r="64.7" gradientTransform="matrix(0.01, 1, -0.12, 0, -1135.37, 2048.89)" gradientUnits="userSpaceOnUse"><stop offset="0" stop-color="#e6f3fc"/><stop offset="1" stop-color="#bacae9" stop-opacity="0"/></radialGradient><radialGradient id="radial-gradient-2" cx="-2381.34" cy="9702.7" r="54.3" gradientTransform="matrix(0.01, -1, 0.16, 0, -1473.91, -2271.19)" xlink:href="#radial-gradient"/><radialGradient id="radial-gradient-3" cx="199.95" cy="655.25" r="3.83" gradientTransform="translate(0 -500)" xlink:href="#radial-gradient"/><radialGradient id="radial-gradient-4" cx="199.95" cy="582.07" r="3.83" gradientTransform="translate(0 -500)" xlink:href="#radial-gradient"/><radialGradient id="radial-gradient-5" cx="-1714.3" cy="-47.32" r="13.58" gradientTransform="matrix(0.95, -0.3, 0.3, 0.95, 1713.46, -345.14)" gradientUnits="userSpaceOnUse"><stop offset="0.1" stop-color="#010101"/><stop offset="0.11" stop-color="#070706"/><stop offset="0.16" stop-color="#221d12"/><stop offset="0.22" stop-color="#392e16"/><stop offset="0.28" stop-color="#4a3a17"/><stop offset="0.37" stop-color="#564318"/><stop offset="0.48" stop-color="#5c4918"/><stop offset="0.8" stop-color="#5f4a17"/><stop offset="1" stop-color="#010101"/></radialGradient><radialGradient id="radial-gradient-6" cx="-1737.08" cy="-4.54" r="0.45" gradientTransform="translate(1724.85 -349.44) rotate(-17.29)" gradientUnits="userSpaceOnUse"><stop offset="0" stop-color="#d5e195"/><stop offset="0.06" stop-color="#b1bb79"/><stop offset="0.14" stop-color="#868f5f"/><stop offset="0.22" stop-color="#646946"/><stop offset="0.31" stop-color="#454930"/><stop offset="0.4" stop-color="#2c2f1f"/><stop offset="0.51" stop-color="#191a13"/><stop offset="0.62" stop-color="#0b0c0a"/><stop offset="0.76" stop-color="#020404"/><stop offset="1" stop-color="#010101"/></radialGradient><radialGradient id="radial-gradient-7" cx="-1738.24" cy="-0.85" r="0.45" xlink:href="#radial-gradient-6"/><radialGradient id="radial-gradient-8" cx="-1729.78" cy="1.8" r="3.4" gradientTransform="matrix(0.95, -0.3, 0.3, 0.95, 1713.46, -345.14)" gradientUnits="userSpaceOnUse"><stop offset="0.05" stop-color="#010101"/><stop offset="0.09" stop-color="#070b08"/><stop offset="0.3" stop-color="#1f341c"/><stop offset="0.48" stop-color="#265325"/><stop offset="0.64" stop-color="#30672c"/><stop offset="0.75" stop-color="#336e2e"/><stop offset="0.79" stop-color="#506f2a"/><stop offset="0.83" stop-color="#717021"/><stop offset="0.86" stop-color="#7f701b"/><stop offset="0.89" stop-color="#7a6d1c"/><stop offset="0.91" stop-color="#71641b"/><stop offset="0.94" stop-color="#5e5419"/><stop offset="0.96" stop-color="#433d18"/><stop offset="0.98" stop-color="#232114"/><stop offset="1" stop-color="#010101"/></radialGradient><radialGradient id="radial-gradient-9" cx="-1717.52" cy="-37.08" r="9.05" gradientTransform="matrix(0.95, -0.3, 0.3, 0.95, 1713.46, -345.14)" gradientUnits="userSpaceOnUse"><stop offset="0" stop-color="#1d090a"/><stop offset="0.73" stop-color="#994123"/><stop offset="1" stop-color="#1d090a"/></radialGradient><radialGradient id="radial-gradient-10" cx="-1717.52" cy="-37.08" r="4.53" gradientTransform="matrix(0.95, -0.3, 0.3, 0.95, 1713.46, -345.14)" gradientUnits="userSpaceOnUse"><stop offset="0.15" stop-color="#fff"/><stop offset="0.21" stop-color="#e5d3d3"/><stop offset="0.29" stop-color="#c49c9e"/><stop offset="0.36" stop-color="#ad7477"/><stop offset="0.42" stop-color="#9f5d60"/><stop offset="0.45" stop-color="#9a5457"/><stop offset="0.57" stop-color="#6b3436"/><stop offset="0.69" stop-color="#431719"/><stop offset="0.79" stop-color="#270d0e"/><stop offset="0.85" stop-color="#1d090a"/><stop offset="0.86" stop-color="#210a0a"/><stop offset="0.86" stop-color="#300f0e"/><stop offset="0.87" stop-color="#461410"/><stop offset="0.88" stop-color="#641e11"/><stop offset="0.89" stop-color="#8b2e19"/><stop offset="0.9" stop-color="#b84323"/><stop offset="0.9" stop-color="#d34f29"/><stop offset="0.9" stop-color="#c94928"/><stop offset="0.91" stop-color="#9d371d"/><stop offset="0.93" stop-color="#772615"/><stop offset="0.94" stop-color="#591a10"/><stop offset="0.95" stop-color="#3e130f"/><stop offset="0.97" stop-color="#2b0e0d"/><stop offset="0.98" stop-color="#1f090b"/><stop offset="1" stop-color="#1d090a"/></radialGradient><radialGradient id="radial-gradient-11" cx="-1717.52" cy="-37.08" r="3.77" gradientTransform="matrix(0.95, -0.3, 0.3, 0.95, 1713.46, -345.14)" gradientUnits="userSpaceOnUse"><stop offset="0.15" stop-color="#fff"/><stop offset="0.28" stop-color="#c3c2c2"/><stop offset="0.43" stop-color="#878889"/><stop offset="0.56" stop-color="#585858"/><stop offset="0.69" stop-color="#323232"/><stop offset="0.81" stop-color="#161617"/><stop offset="0.92" stop-color="#050606"/><stop offset="1" stop-color="#010101"/></radialGradient><radialGradient id="radial-gradient-12" cx="-1730.42" cy="3.85" r="6.79" gradientTransform="matrix(0.95, -0.3, 0.3, 0.95, 1713.46, -345.14)" gradientUnits="userSpaceOnUse"><stop offset="0.64" stop-color="#010101"/><stop offset="0.72" stop-color="#010302"/><stop offset="0.75" stop-color="#060908"/><stop offset="0.77" stop-color="#0c140e"/><stop offset="0.78" stop-color="#132517"/><stop offset="0.8" stop-color="#1b3b1d"/><stop offset="0.8" stop-color="#1c431f"/><stop offset="0.81" stop-color="#212c19"/><stop offset="0.83" stop-color="#2c190f"/><stop offset="0.85" stop-color="#33110d"/><stop offset="0.86" stop-color="#35100f"/><stop offset="0.87" stop-color="#200a0a"/><stop offset="0.89" stop-color="#100606"/><stop offset="0.9" stop-color="#050303"/><stop offset="0.93" stop-color="#020102"/><stop offset="1" stop-color="#010101"/></radialGradient><radialGradient id="radial-gradient-13" cx="-1727.93" cy="-4.06" r="1.93" gradientTransform="matrix(0.95, -0.3, 0.3, 0.95, 1713.46, -345.14)" gradientUnits="userSpaceOnUse"><stop offset="0.1" stop-color="#010101"/><stop offset="0.25" stop-color="#1a130c"/><stop offset="0.43" stop-color="#352413"/><stop offset="0.61" stop-color="#483014"/><stop offset="0.8" stop-color="#533613"/><stop offset="1" stop-color="#573812"/></radialGradient><radialGradient id="radial-gradient-14" cx="-1721.21" cy="-25.39" r="1.08" gradientTransform="matrix(0.95, -0.3, 0.3, 0.95, 1713.46, -345.14)" gradientUnits="userSpaceOnUse"><stop offset="0.1" stop-color="#1a301d"/><stop offset="0.23" stop-color="#142318"/><stop offset="0.48" stop-color="#0a0f0c"/><stop offset="0.73" stop-color="#030404"/><stop offset="1" stop-color="#010101"/></radialGradient><radialGradient id="radial-gradient-15" cx="64.95" cy="2432.62" r="0.71" gradientTransform="matrix(1, 0, 0, -1, 0, 2581.97)" xlink:href="#radial-gradient-13"/><radialGradient id="radial-gradient-16" cx="-1725.96" cy="-10.32" r="1" gradientTransform="matrix(0.95, -0.3, 0.3, 0.95, 1713.46, -345.14)" gradientUnits="userSpaceOnUse"><stop offset="0.1" stop-color="#010101"/><stop offset="0.29" stop-color="#151711"/><stop offset="0.52" stop-color="#262a1b"/><stop offset="0.75" stop-color="#313523"/><stop offset="1" stop-color="#333824"/></radialGradient><radialGradient id="radial-gradient-17" cx="-1945.55" cy="1371.51" r="1.86" gradientTransform="matrix(1, 0, 0, -1, 0, 2581.97)" xlink:href="#radial-gradient-14"/><linearGradient id="linear-gradient-6" x1="191.75" y1="728.51" x2="73.65" y2="571.99" xlink:href="#linear-gradient-5"/><clipPath id="clip-path-2"><path class="cls-1" d="M209,212.9V79.83h0c0,4.75-55.69,8.6-77.27,8.6s-77.29-3.85-77.29-8.6h0V212.9c.07,5.91,2.77,11.84,8.94,11.84H200.1C206.3,224.74,209.12,218.69,209,212.9Z"/></clipPath><linearGradient id="linear-gradient-7" x1="288.42" y1="675.15" x2="41.39" y2="652.17" xlink:href="#linear-gradient-5"/><linearGradient id="linear-gradient-8" x1="8.15" y1="700.27" x2="242.66" y2="700.27" xlink:href="#linear-gradient-5"/><linearGradient id="linear-gradient-9" x1="269.01" y1="579.83" x2="85.87" y2="579.83" xlink:href="#linear-gradient-5"/><linearGradient id="linear-gradient-10" x1="54.06" y1="579.83" x2="209.47" y2="579.83" gradientTransform="translate(0 -500)" gradientUnits="userSpaceOnUse"><stop offset="0" stop-color="#bed000"/><stop offset="1" stop-color="#c0d239"/></linearGradient><radialGradient id="radial-gradient-18" cx="-380.3" cy="2549.38" r="14.16" gradientTransform="matrix(0.25, -0.97, 0.96, 0.25, -2250.4, -917.01)" gradientUnits="userSpaceOnUse"><stop offset="0" stop-color="#a6c738" stop-opacity="0.8"/><stop offset="0.3" stop-color="#aaca3b" stop-opacity="0.8"/><stop offset="0.52" stop-color="#b3ce4a" stop-opacity="0.8"/><stop offset="0.72" stop-color="#c3d55e" stop-opacity="0.8"/><stop offset="0.91" stop-color="#d6df76" stop-opacity="0.81"/><stop offset="1" stop-color="#e2e581" stop-opacity="0.81"/></radialGradient><radialGradient id="radial-gradient-19" cx="250.56" cy="859.38" r="9.18" gradientTransform="translate(-211.74 -584.01) scale(1.24 0.77)" gradientUnits="userSpaceOnUse"><stop offset="0" stop-color="#adcc50"/><stop offset="0.38" stop-color="#adcc50" stop-opacity="0.99"/><stop offset="0.52" stop-color="#adcc53" stop-opacity="0.96"/><stop offset="0.61" stop-color="#adcc55" stop-opacity="0.91"/><stop offset="0.69" stop-color="#adcc57" stop-opacity="0.84"/><stop offset="0.76" stop-color="#aecd5a" stop-opacity="0.75"/><stop offset="0.82" stop-color="#b0ce61" stop-opacity="0.63"/><stop offset="0.87" stop-color="#b1cf64" stop-opacity="0.49"/><stop offset="0.92" stop-color="#b1cf6a" stop-opacity="0.33"/><stop offset="0.97" stop-color="#b3d16f" stop-opacity="0.16"/><stop offset="1" stop-color="#b4d174" stop-opacity="0"/></radialGradient><radialGradient id="radial-gradient-20" cx="-372.36" cy="2541.88" r="1.16" gradientTransform="matrix(0.25, -0.97, 0.96, 0.25, -2237.33, -914.95)" gradientUnits="userSpaceOnUse"><stop offset="0" stop-color="#dae8c1"/><stop offset="0.38" stop-color="#dae8c0" stop-opacity="0.99"/><stop offset="0.52" stop-color="#d8e7bf" stop-opacity="0.96"/><stop offset="0.61" stop-color="#d7e6ba" stop-opacity="0.91"/><stop offset="0.69" stop-color="#d4e5b5" stop-opacity="0.84"/><stop offset="0.76" stop-color="#d0e2ad" stop-opacity="0.75"/><stop offset="0.82" stop-color="#cce0a5" stop-opacity="0.63"/><stop offset="0.87" stop-color="#c7dd9a" stop-opacity="0.49"/><stop offset="0.92" stop-color="#c1d98e" stop-opacity="0.33"/><stop offset="0.97" stop-color="#bad580" stop-opacity="0.16"/><stop offset="1" stop-color="#b4d174" stop-opacity="0"/></radialGradient><radialGradient id="radial-gradient-21" cx="-370.46" cy="2543.48" r="0.42" gradientTransform="matrix(0.25, -0.97, 0.96, 0.25, -2237.44, -911.9)" gradientUnits="userSpaceOnUse"><stop offset="0" stop-color="#dae8c1"/><stop offset="0.22" stop-color="#dae8c0" stop-opacity="0.99"/><stop offset="0.36" stop-color="#d7e7bd" stop-opacity="0.95"/><stop offset="0.48" stop-color="#d5e6b8" stop-opacity="0.89"/><stop offset="0.58" stop-color="#d3e4b2" stop-opacity="0.8"/><stop offset="0.68" stop-color="#cee1a8" stop-opacity="0.69"/><stop offset="0.77" stop-color="#cade9e" stop-opacity="0.55"/><stop offset="0.85" stop-color="#c3da91" stop-opacity="0.38"/><stop offset="0.93" stop-color="#bbd584" stop-opacity="0.2"/><stop offset="1" stop-color="#b4d174" stop-opacity="0"/></radialGradient><radialGradient id="radial-gradient-22" cx="-386.84" cy="2559.46" r="0.42" gradientTransform="matrix(0.25, -0.97, 0.96, 0.25, -2264.94, -915.78)" xlink:href="#radial-gradient-21"/><radialGradient id="radial-gradient-23" cx="92.44" cy="593.63" r="3.7" gradientTransform="translate(0 -500)" xlink:href="#radial-gradient-20"/><radialGradient id="radial-gradient-24" cx="108.84" cy="478.04" r="1.69" gradientTransform="translate(0 -309.05) scale(1 0.85)" gradientUnits="userSpaceOnUse"><stop offset="0" stop-color="#adcc50"/><stop offset="0.09" stop-color="#adcc51" stop-opacity="0.97"/><stop offset="0.23" stop-color="#adcc56" stop-opacity="0.88"/><stop offset="0.4" stop-color="#aecd5a" stop-opacity="0.74"/><stop offset="0.59" stop-color="#b1cf63" stop-opacity="0.54"/><stop offset="0.79" stop-color="#b1cf6c" stop-opacity="0.28"/><stop offset="1" stop-color="#b4d174" stop-opacity="0"/></radialGradient><radialGradient id="radial-gradient-25" cx="-336.08" cy="2531.09" r="8.01" gradientTransform="matrix(0.25, -0.97, 0.96, 0.25, -2199.93, -887.94)" xlink:href="#radial-gradient-18"/><radialGradient id="radial-gradient-26" cx="288.38" cy="836.36" r="5.19" gradientTransform="translate(-213.99 -578.7) scale(1.24 0.77)" xlink:href="#radial-gradient-19"/><radialGradient id="radial-gradient-27" cx="-331.59" cy="2526.86" r="0.66" gradientTransform="matrix(0.25, -0.97, 0.96, 0.25, -2192.54, -886.77)" xlink:href="#radial-gradient-20"/><radialGradient id="radial-gradient-28" cx="-330.52" cy="2527.76" r="0.24" gradientTransform="matrix(0.25, -0.97, 0.96, 0.25, -2192.61, -885.05)" xlink:href="#radial-gradient-21"/><radialGradient id="radial-gradient-29" cx="-339.78" cy="2536.79" r="0.24" gradientTransform="matrix(0.25, -0.97, 0.96, 0.25, -2208.15, -887.24)" xlink:href="#radial-gradient-21"/><radialGradient id="radial-gradient-30" cx="140.87" cy="573.09" r="2.09" gradientTransform="translate(0 -500)" xlink:href="#radial-gradient-20"/><radialGradient id="radial-gradient-31" cx="150.14" cy="456.24" r="0.95" gradientTransform="translate(0 -312.21) scale(1 0.85)" xlink:href="#radial-gradient-24"/><radialGradient id="radial-gradient-32" cx="-353.93" cy="2512.11" r="4.26" gradientTransform="matrix(0.25, -0.97, 0.96, 0.25, -2195.12, -919.43)" xlink:href="#radial-gradient-18"/><radialGradient id="radial-gradient-33" cx="275.32" cy="816.31" r="2.76" gradientTransform="translate(-215.32 -580.04) scale(1.24 0.77)" xlink:href="#radial-gradient-19"/><radialGradient id="radial-gradient-34" cx="-351.55" cy="2509.86" r="0.35" gradientTransform="matrix(0.25, -0.97, 0.96, 0.25, -2191.19, -918.8)" xlink:href="#radial-gradient-20"/><radialGradient id="radial-gradient-35" cx="-350.97" cy="2510.34" r="0.13" gradientTransform="matrix(0.25, -0.97, 0.96, 0.25, -2191.22, -917.89)" xlink:href="#radial-gradient-21"/><radialGradient id="radial-gradient-36" cx="-355.9" cy="2515.15" r="0.13" gradientTransform="matrix(0.25, -0.97, 0.96, 0.25, -2199.49, -919.05)" xlink:href="#radial-gradient-21"/><radialGradient id="radial-gradient-37" cx="125.58" cy="552.74" r="1.11" gradientTransform="translate(0 -500)" xlink:href="#radial-gradient-20"/><radialGradient id="radial-gradient-38" cx="130.51" cy="435.12" r="0.51" gradientTransform="translate(0 -315.28) scale(1 0.85)" xlink:href="#radial-gradient-24"/><radialGradient id="radial-gradient-39" cx="-308.53" cy="2583.27" r="9.35" gradientTransform="matrix(0.25, -0.97, 0.96, 0.25, -2229.25, -822.19)" xlink:href="#radial-gradient-18"/><radialGradient id="radial-gradient-40" cx="307.25" cy="895.48" r="6.05" gradientTransform="translate(-210.01 -572.88) scale(1.24 0.77)" xlink:href="#radial-gradient-19"/><radialGradient id="radial-gradient-41" cx="-303.29" cy="2578.33" r="0.77" gradientTransform="matrix(0.25, -0.97, 0.96, 0.25, -2220.62, -820.83)" xlink:href="#radial-gradient-20"/><radialGradient id="radial-gradient-42" cx="-302.03" cy="2579.38" r="0.28" gradientTransform="matrix(0.25, -0.97, 0.96, 0.25, -2220.69, -818.82)" xlink:href="#radial-gradient-21"/><radialGradient id="radial-gradient-43" cx="-312.85" cy="2589.93" r="0.28" gradientTransform="matrix(0.25, -0.97, 0.96, 0.25, -2238.84, -821.38)" xlink:href="#radial-gradient-21"/><radialGradient id="radial-gradient-44" cx="167.51" cy="625.76" r="2.44" gradientTransform="translate(0 -500)" xlink:href="#radial-gradient-20"/><radialGradient id="radial-gradient-45" cx="178.33" cy="509.18" r="1.11" gradientTransform="translate(0 -304.52) scale(1 0.85)" xlink:href="#radial-gradient-24"/><radialGradient id="radial-gradient-46" cx="-325.47" cy="2603.71" r="4.97" gradientTransform="matrix(0.25, -0.97, 0.96, 0.25, -2261.43, -823.26)" xlink:href="#radial-gradient-18"/><radialGradient id="radial-gradient-47" cx="292.53" cy="919.48" r="3.22" gradientTransform="translate(-208.32 -568.41) scale(1.24 0.77)" xlink:href="#radial-gradient-19"/><radialGradient id="radial-gradient-48" cx="-322.69" cy="2601.08" r="0.41" gradientTransform="matrix(0.25, -0.97, 0.96, 0.25, -2256.84, -822.54)" xlink:href="#radial-gradient-20"/><radialGradient id="radial-gradient-49" cx="-322.02" cy="2601.64" r="0.15" gradientTransform="matrix(0.25, -0.97, 0.96, 0.25, -2256.88, -821.47)" xlink:href="#radial-gradient-21"/><radialGradient id="radial-gradient-50" cx="-327.77" cy="2607.25" r="0.15" gradientTransform="matrix(0.25, -0.97, 0.96, 0.25, -2266.53, -822.83)" xlink:href="#radial-gradient-21"/><radialGradient id="radial-gradient-51" cx="153.55" cy="644.59" r="1.3" gradientTransform="translate(0 -500)" xlink:href="#radial-gradient-20"/><radialGradient id="radial-gradient-52" cx="159.31" cy="527.12" r="0.59" gradientTransform="translate(0 -301.92) scale(1 0.85)" xlink:href="#radial-gradient-24"/></defs><path class="cls-2" d="M219.12,14c0,4.93-63.58,8.92-87.37,8.92-4.59,0-9.17-.12-13.76-.28q-9.63-.34-19.26-.92-10.14-.61-20.27-1.47c-2.53-.22-5.06-.46-7.58-.7s-5.15-.55-7.73-.86c-1.24-.16-2.48-.36-3.7-.62s-2.48-.49-3.74-.66a21.81,21.81,0,0,0-7.12,0c-2.34.46-4.58,1.28-6.88,1.84a42.13,42.13,0,0,1-8.6,1.12,7.89,7.89,0,0,1,1.6-1.4,37.69,37.69,0,0,1,4.45-2.53c2.14-1.08,4.26-2.37,6.46-3.41a29.36,29.36,0,0,1,7.43-2.24C57.49,10,62,9.45,66.47,9c5.61-.64,11.24-1.14,16.87-1.59q9-.71,18-1.21,8.44-.48,16.9-.78c4.49-.15,9-.27,13.49-.27C155.54,5.13,219.12,9.12,219.12,14Z"/><polygon class="cls-3" points="15.06 251.1 3.46 257.53 214.53 257.53 232.47 244.4 232.43 241.91 15.06 251.1"/><path class="cls-4" d="M213.3,216.43,212.44,17C200.37,23,148.21,23,131.73,23h-4c-1.26,0-2.53-.06-3.79-.11-1.43,0-2.86-.1-4.28-.16s-3.13-.13-4.69-.21l-5-.26-5.25-.29c-1.81-.1-3.62-.21-5.42-.33l-5.5-.35-5.48-.42-5.4-.4L77.71,20l-5-.42-4.65-.42c-1.42-.13-2.83-.27-4.24-.42l-1.93-.2c-1-.15-1.89-.35-2.83-.59l-.5-.14a26,26,0,0,0-7.36-.7L50,17.21l.22,199.21a9.82,9.82,0,0,0,6.75,12.12,10.62,10.62,0,0,0,2.68.37H203.9a9.81,9.81,0,0,0,9.81-9.81A9.24,9.24,0,0,0,213.3,216.43Z"/><path class="cls-5" d="M219.14,218.16V14c0,4.93-63.58,8.92-87.38,8.92h-3.59c-4.8-.07-9.6-.25-14.39-.47q-8.52-.39-17-1-8.76-.6-17.52-1.4c-5.3-.49-10.6-1-15.88-1.73-3.9-.53-7.74-1.53-11.68-1.44s-7.63,1.67-11.4,2.5l-1,.2a19.8,19.8,0,0,1-3.84.59l-1.36.12c-.23,0-.87-.06-1,.14s.24.62.37.76a6.26,6.26,0,0,0,.76.6c.32.25.67.47,1,.71L38.67,25l5.57,3.94.16.11V218.16a11.55,11.55,0,0,0,11.13,14.58H208a11.54,11.54,0,0,0,11.55-11.52,11.24,11.24,0,0,0-.42-3.06Z"/><g class="cls-6"><path class="cls-7" d="M214.38,221.73c0-8.62-36.86-11.59-82.32-11.59s-82.32,3.3-82.32,11.92,8,6.88,82.32,7.57C202.57,230.28,214.38,230.35,214.38,221.73Z"/><rect class="cls-8" x="17.7" y="77.81" width="225.47" height="175.35"/></g><g class="cls-9"><path class="cls-10" d="M198.92,146.17a4.27,4.27,0,0,1-4.14-3.36V77.74a4.28,4.28,0,0,1-.09-.87V37.69a4.24,4.24,0,0,1,8.47-.42,2.94,2.94,0,0,1,0,.42h0V76.43l-.1,64.64a4.22,4.22,0,0,1-3.27,5A4.93,4.93,0,0,1,198.92,146.17Z"/></g><g class="cls-11"><path class="cls-12" d="M63.51,168.08a4.65,4.65,0,0,1-5.65-3.36h0a5.3,5.3,0,0,1-.15-1.18l.71-107.71a4.65,4.65,0,1,1,9.3.06L67,163.62A4.63,4.63,0,0,1,63.51,168.08Z"/></g><circle class="cls-13" cx="199.85" cy="155.23" r="4.23"/><circle class="cls-14" cx="199.85" cy="82.05" r="4.23"/><circle class="cls-15" cx="65.08" cy="112.72" r="13.58"/><circle class="cls-16" cx="64.91" cy="162.5" r="0.45"/><circle class="cls-17" cx="64.9" cy="166.37" r="0.45"/><circle class="cls-18" cx="64.9" cy="164.22" r="3.4"/><line class="cls-1" x1="65.05" y1="123.45" x2="64.9" y2="166.37"/><circle class="cls-19" cx="65.05" cy="123.45" r="9.05"/><circle class="cls-20" cx="65.05" cy="123.45" r="4.53"/><circle class="cls-21" cx="65.05" cy="123.45" r="3.77"/><polyline class="cls-22" points="65.06 123.45 67.08 138.18 65.06 123.45 63.02 108.72 65.06 123.45 50.31 125.49 65.06 123.45 79.78 121.42 65.06 123.45 72.64 141.11 65.06 123.45 57.45 105.79 65.06 123.45 47.38 131.05 65.06 123.45 82.72 115.86 65.06 123.45 78.7 135.63 65.06 123.45 51.4 111.27 65.06 123.45 52.88 137.11 65.06 123.45 77.22 109.8 65.06 123.45 65.97 136.2 65.06 123.45 64.14 110.71 65.06 123.45 52.3 124.37 65.06 123.45 77.8 122.54 65.06 123.45 65.39 124.93 65.06 123.45 64.72 121.98 65.06 123.45 63.58 123.79 65.06 123.45 66.53 123.11 65.06 123.45 60.78 142.27 65.06 123.45 69.31 104.63 65.06 123.45 46.23 119.19 65.06 123.45 83.86 127.72 65.06 123.45 62.66 129.72 65.06 123.45 67.44 117.18 65.06 123.45 58.78 121.07 65.06 123.45 71.31 125.84 65.06 123.45 68.44 127.15 65.06 123.45 61.66 119.75 65.06 123.45 61.35 126.84 65.06 123.45 68.75 120.06 65.06 123.45 85.69 132.62 65.06 123.45 44.41 114.28 65.06 123.45 55.88 144.1 65.06 123.45 74.22 102.81 65.06 123.45 74.11 139.93 65.06 123.45 55.98 106.97 65.06 123.45 48.58 132.52 65.06 123.45 81.53 114.39 65.06 123.45 74.72 143.05 65.06 123.45 55.38 103.86 65.06 123.45 45.45 133.12 65.06 123.45 84.64 113.78 65.06 123.45 67.92 126.68 65.06 123.45 62.19 120.22 65.06 123.45 61.83 126.32 65.06 123.45 68.28 120.59 65.06 123.45 79.27 129.96 65.06 123.45 50.84 116.94 65.06 123.45 58.53 137.67 65.06 123.45 71.56 109.24 65.06 123.45 64.22 140.15 65.06 123.45 65.88 106.75 65.06 123.45 48.35 122.62 65.06 123.45 81.75 124.28 65.06 123.45 69.92 136.23 65.06 123.45 60.17 110.67 65.06 123.45 52.27 128.33 65.06 123.45 77.83 118.58"/><circle class="cls-23" cx="64.9" cy="166.37" r="6.79"/><circle class="cls-24" cx="64.92" cy="158.08" r="1.93"/><circle class="cls-25" cx="65" cy="135.71" r="1.08"/><circle class="cls-26" cx="64.95" cy="149.36" r="0.71"/><circle class="cls-27" cx="64.95" cy="151.52" r="1"/><circle class="cls-28" cx="64.93" cy="157.66" r="1.86"/><path class="cls-29" d="M209,212.9V79.83h0c0,4.75-55.69,8.6-77.27,8.6s-77.29-3.85-77.29-8.6h0V212.9c.07,5.91,2.77,11.84,8.94,11.84H200.1C206.3,224.74,209.12,218.69,209,212.9Z"/><g class="cls-30"><path class="cls-31" d="M136.39,114.1c-18.68,1.5-37.42,2.26-56.09,3.8-20,1.63-41.81,7.14-57.54,20.19l-.45.38c-8.76,7.43-16,18-15.41,29.46.44,9,5.68,17.24,12.53,23.09s15.2,9.61,23.57,12.92c48.7,19.22,104.27,25.27,153.43,7.27,9.89-3.62,19.53-8.23,27.69-14.89s14.78-15.49,17.51-25.66c2.82-10.48,1.31-21.89-3.26-31.73-4.33-9.32-11.15-16.48-14-26.61-.53-1.88-1.11-4-2.76-5a7.27,7.27,0,0,0-3.74-.85c-21.64-1-42.52,3.5-63.88,5.94C148.15,113.07,142.3,113.62,136.39,114.1Z"/><path class="cls-32" d="M131.52,154c-18.41,3.47-37,6.22-55.38,9.72-19.7,3.75-40.8,11.54-55.07,26.18l-.4.42c-7.93,8.32-14,19.58-12.21,30.93,1.4,8.9,7.48,16.54,14.91,21.63s16.13,8,24.81,10.35c50.46,14,106.36,14.08,153.34-9,9.44-4.65,18.54-10.26,25.95-17.74s13.05-17,14.69-27.37c1.69-10.72-1-21.9-6.6-31.2-5.29-8.81-12.83-15.21-16.72-25-.72-1.82-1.52-3.82-3.26-4.69a7.42,7.42,0,0,0-3.82-.45c-21.62,1.3-41.91,8-62.89,12.68C143.11,151.73,137.3,152.9,131.52,154Z"/></g><path class="cls-33" d="M209,79.83c0,4.75-55.69,8.6-77.27,8.6s-77.29-3.85-77.29-8.6,55.71-8.59,77.29-8.59S209,75.08,209,79.83Z"/><g class="cls-34"><circle class="cls-35" cx="102.13" cy="88.42" r="14.91"/><ellipse class="cls-36" cx="101.96" cy="80.02" rx="9.99" ry="6.03" transform="translate(-6.06 8.39) rotate(-4.57)"/><circle class="cls-37" cx="110.06" cy="80.93" r="1.22"/><circle class="cls-38" cx="111.97" cy="82.54" r="0.44"/><circle class="cls-39" cx="95.59" cy="98.52" r="0.44"/><path class="cls-40" d="M90.3,89.51c-.15,2.88,1.58,7,4.34,8.25"/><circle class="cls-41" cx="108.84" cy="96.53" r="1.36"/></g><g class="cls-34"><circle class="cls-42" cx="146.35" cy="70.14" r="8.43"/><ellipse class="cls-43" cx="145.77" cy="65.48" rx="5.63" ry="3.4" transform="translate(-4.55 11.25) rotate(-4.35)"/><circle class="cls-44" cx="150.83" cy="65.91" r="0.69"/><circle class="cls-45" cx="151.91" cy="66.82" r="0.25"/><circle class="cls-46" cx="142.65" cy="75.85" r="0.25"/><path class="cls-47" d="M139.64,70.76c-.08,1.63.9,4,2.46,4.66"/><circle class="cls-48" cx="150.14" cy="74.73" r="0.77"/></g><g class="cls-34"><circle class="cls-49" cx="128.49" cy="51.17" r="4.48"/><ellipse class="cls-50" cx="128.19" cy="48.68" rx="3" ry="1.81" transform="translate(-3.32 9.86) rotate(-4.35)"/><circle class="cls-51" cx="130.88" cy="48.92" r="0.37"/><circle class="cls-52" cx="131.45" cy="49.4" r="0.13"/><circle class="cls-53" cx="126.53" cy="54.2" r="0.13"/><path class="cls-54" d="M124.93,51.5a2.84,2.84,0,0,0,1.3,2.48"/><circle class="cls-55" cx="130.51" cy="53.61" r="0.41"/></g><g class="cls-56"><circle class="cls-57" cx="173.9" cy="122.32" r="9.84"/><ellipse class="cls-58" cx="173.22" cy="116.88" rx="6.58" ry="3.96" transform="translate(-8.37 13.48) rotate(-4.35)"/><circle class="cls-59" cx="179.14" cy="117.38" r="0.81"/><circle class="cls-60" cx="180.39" cy="118.44" r="0.29"/><circle class="cls-61" cx="169.58" cy="128.98" r="0.29"/><path class="cls-62" d="M166.07,123c-.1,1.9,1,4.64,2.87,5.44"/><circle class="cls-63" cx="178.33" cy="127.67" r="0.89"/></g><g class="cls-56"><circle class="cls-64" cx="156.96" cy="142.76" r="5.23"/><ellipse class="cls-65" cx="156.6" cy="139.86" rx="3.5" ry="2.11" transform="translate(-10.16 12.28) rotate(-4.35)"/><circle class="cls-66" cx="159.74" cy="140.13" r="0.43"/><circle class="cls-67" cx="160.41" cy="140.7" r="0.16"/><circle class="cls-68" cx="154.66" cy="146.31" r="0.16"/><path class="cls-69" d="M152.79,143.14a3.3,3.3,0,0,0,1.53,2.9"/><circle class="cls-70" cx="159.31" cy="145.61" r="0.48"/></g><polygon class="cls-71" points="225.81 171.94 30.25 171.94 15.06 251.1 210.63 251.1 225.81 171.94"/><polygon class="cls-72" points="225.81 171.94 232.43 241.91 229.81 243.95 214.82 244.12 213.72 248.67 210.63 251.1 225.81 171.94"/></svg>