<svg id="Layer_1" data-name="Layer 1" xmlns="http://www.w3.org/2000/svg" xmlns:xlink="http://www.w3.org/1999/xlink" viewBox="0 0 235.13 262.86"><defs><style>.cls-1,.cls-22,.cls-40,.cls-47,.cls-54,.cls-62,.cls-69{fill:none;}.cls-2,.cls-5{opacity:0.72;}.cls-13,.cls-14,.cls-15,.cls-18,.cls-19,.cls-2,.cls-20,.cls-22,.cls-23,.cls-29,.cls-31,.cls-32,.cls-33,.cls-5,.cls-8{isolation:isolate;}.cls-2{fill:url(#linear-gradient);}.cls-3{fill:#683d14;fill-opacity:0.51;}.cls-4{fill:url(#linear-gradient-2);}.cls-5{fill:url(#linear-gradient-3);}.cls-6{clip-path:url(#clip-path);}.cls-7{fill:url(#linear-gradient-4);}.cls-8{opacity:0.42;fill:url(#linear-gradient-5);}.cls-9{opacity:0.54;}.cls-10{fill:url(#radial-gradient);}.cls-11,.cls-29,.cls-33{opacity:0.8;}.cls-12{fill:url(#radial-gradient-2);}.cls-13,.cls-14,.cls-20,.cls-23{opacity:0.5;}.cls-13{fill:url(#radial-gradient-3);}.cls-14{fill:url(#radial-gradient-4);}.cls-15{opacity:0.25;fill:url(#radial-gradient-5);}.cls-16{fill:url(#radial-gradient-6);}.cls-17{fill:url(#radial-gradient-7);}.cls-18,.cls-56{opacity:0.2;}.cls-18{fill:url(#radial-gradient-8);}.cls-19{opacity:0.15;fill:url(#radial-gradient-9);}.cls-20{fill:url(#radial-gradient-10);}.cls-21{fill:url(#radial-gradient-11);}.cls-22{stroke:#fff;stroke-width:1.69px;opacity:0.03;}.cls-22,.cls-33{stroke-miterlimit:10;}.cls-23{fill:url(#radial-gradient-12);}.cls-24{fill:url(#radial-gradient-13);}.cls-25{fill:url(#radial-gradient-14);}.cls-26{fill:url(#radial-gradient-15);}.cls-27{fill:url(#radial-gradient-16);}.cls-28{fill:url(#radial-gradient-17);}.cls-29{fill:url(#linear-gradient-6);}.cls-30{clip-path:url(#clip-path-2);}.cls-31,.cls-32,.cls-34{opacity:0.3;}.cls-31{fill:url(#linear-gradient-7);}.cls-32{fill:url(#linear-gradient-8);}.cls-33,.cls-40{stroke-width:0.85px;}.cls-33{fill:url(#linear-gradient-9);stroke:url(#linear-gradient-10);}.cls-35{fill:url(#radial-gradient-18);}.cls-36{fill:url(#radial-gradient-19);}.cls-37{fill:url(#radial-gradient-20);}.cls-38{fill:url(#radial-gradient-21);}.cls-39{fill:url(#radial-gradient-22);}.cls-40,.cls-47,.cls-54,.cls-62,.cls-69{stroke-linecap:round;stroke-linejoin:round;}.cls-40{stroke:url(#radial-gradient-23);}.cls-41{fill:url(#radial-gradient-24);}.cls-42{fill:url(#radial-gradient-25);}.cls-43{fill:url(#radial-gradient-26);}.cls-44{fill:url(#radial-gradient-27);}.cls-45{fill:url(#radial-gradient-28);}.cls-46{fill:url(#radial-gradient-29);}.cls-47{stroke-width:0.48px;stroke:url(#radial-gradient-30);}.cls-48{fill:url(#radial-gradient-31);}.cls-49{fill:url(#radial-gradient-32);}.cls-50{fill:url(#radial-gradient-33);}.cls-51{fill:url(#radial-gradient-34);}.cls-52{fill:url(#radial-gradient-35);}.cls-53{fill:url(#radial-gradient-36);}.cls-54{stroke-width:0.25px;stroke:url(#radial-gradient-37);}.cls-55{fill:url(#radial-gradient-38);}.cls-57{fill:url(#radial-gradient-39);}.cls-58{fill:url(#radial-gradient-40);}.cls-59{fill:url(#radial-gradient-41);}.cls-60{fill:url(#radial-gradient-42);}.cls-61{fill:url(#radial-gradient-43);}.cls-62{stroke-width:0.56px;stroke:url(#radial-gradient-44);}.cls-63{fill:url(#radial-gradient-45);}.cls-64{fill:url(#radial-gradient-46);}.cls-65{fill:url(#radial-gradient-47);}.cls-66{fill:url(#radial-gradient-48);}.cls-67{fill:url(#radial-gradient-49);}.cls-68{fill:url(#radial-gradient-50);}.cls-69{stroke-width:0.3px;stroke:url(#radial-gradient-51);}.cls-70{fill:url(#radial-gradient-52);}.cls-71{fill:#fff;}.cls-72{fill:#c7c6c6;}</style><linearGradient id="linear-gradient" x1="125.41" y1="496.29" x2="125.41" y2="522.86" gradientTransform="translate(0 -500)" gradientUnits="userSpaceOnUse"><stop offset="0" stop-color="#f6fbff"/><stop offset="0.63" stop-color="#e9f1f6"/><stop offset="1" stop-color="#c5dae1"/></linearGradient><linearGradient id="linear-gradient-2" x1="143.5" y1="519.65" x2="121.21" y2="701.26" gradientTransform="translate(0 -500)" gradientUnits="userSpaceOnUse"><stop offset="0" stop-color="#c0c5c8"/><stop offset="1" stop-color="#b0c2c9"/></linearGradient><linearGradient id="linear-gradient-3" x1="77.08" y1="623.41" x2="171.46" y2="623.41" xlink:href="#linear-gradient"/><clipPath id="clip-path"><path class="cls-1" d="M218.56,218.21V14.11c0,4.9-63.6,8.9-87.4,8.9h-3.6c-4.8-.1-9.6-.2-14.4-.5-5.7-.3-11.3-.6-17-1s-11.7-.9-17.5-1.4c-5.3-.5-10.6-1-15.9-1.7-3.9-.5-7.7-1.5-11.7-1.4s-7.6,1.7-11.4,2.5c-.3.1-.6.1-1,.2a25,25,0,0,1-3.8.6c-.5,0-.9.1-1.4.1-.2,0-.9-.1-1,.1s.2.6.4.8a5.55,5.55,0,0,0,.8.6c.3.2.7.5,1,.7l3.4,2.4,5.6,3.9.2.1v189.1a11.55,11.55,0,0,0,8.1,14.2,10.32,10.32,0,0,0,3,.4h152.5a11.5,11.5,0,0,0,11.5-11.5A15.44,15.44,0,0,0,218.56,218.21Z"/></clipPath><linearGradient id="linear-gradient-4" x1="92.51" y1="621.85" x2="143.68" y2="754.02" gradientTransform="translate(0 -500)" gradientUnits="userSpaceOnUse"><stop offset="0" stop-color="#f5f5f5"/><stop offset="1" stop-color="#c3d1d6"/></linearGradient><linearGradient id="linear-gradient-5" x1="71.05" y1="665.61" x2="185.15" y2="665.61" gradientTransform="translate(0 -500)" gradientUnits="userSpaceOnUse"><stop offset="0" stop-color="#31b089"/><stop offset="1" stop-color="#71c1a5"/></linearGradient><radialGradient id="radial-gradient" cx="-1485.08" cy="-7639.33" r="64.7" gradientTransform="matrix(0.01, 1, -0.12, 0, -679.34, 1575.72)" gradientUnits="userSpaceOnUse"><stop offset="0" stop-color="#e6f3fc"/><stop offset="1" stop-color="#bacae9" stop-opacity="0"/></radialGradient><radialGradient id="radial-gradient-2" cx="-1945.45" cy="7187.3" r="54.29" gradientTransform="matrix(0.01, -1, 0.16, 0, -1057.53, -1842.81)" xlink:href="#radial-gradient"/><radialGradient id="radial-gradient-3" cx="199.35" cy="655.33" r="3.83" gradientTransform="translate(0 -500)" xlink:href="#radial-gradient"/><radialGradient id="radial-gradient-4" cx="199.35" cy="582.15" r="3.83" gradientTransform="translate(0 -500)" xlink:href="#radial-gradient"/><radialGradient id="radial-gradient-5" cx="-1761.98" cy="206.08" r="13.58" gradientTransform="translate(1685.61 -607.71) rotate(-17.29)" gradientUnits="userSpaceOnUse"><stop offset="0.1" stop-color="#010101"/><stop offset="0.11" stop-color="#070706"/><stop offset="0.16" stop-color="#221d12"/><stop offset="0.22" stop-color="#392e16"/><stop offset="0.28" stop-color="#4a3a17"/><stop offset="0.37" stop-color="#564318"/><stop offset="0.48" stop-color="#5c4918"/><stop offset="0.8" stop-color="#5f4a17"/><stop offset="1" stop-color="#010101"/></radialGradient><radialGradient id="radial-gradient-6" cx="-1776.95" cy="253.56" r="0.45" gradientTransform="translate(1685.61 -607.71) rotate(-17.29)" gradientUnits="userSpaceOnUse"><stop offset="0" stop-color="#d5e195"/><stop offset="0.06" stop-color="#b1bb79"/><stop offset="0.14" stop-color="#868f5f"/><stop offset="0.22" stop-color="#646946"/><stop offset="0.31" stop-color="#454930"/><stop offset="0.4" stop-color="#2c2f1f"/><stop offset="0.51" stop-color="#191a13"/><stop offset="0.62" stop-color="#0b0c0a"/><stop offset="0.76" stop-color="#020404"/><stop offset="1" stop-color="#010101"/></radialGradient><radialGradient id="radial-gradient-7" cx="-1778.11" cy="257.24" r="0.45" xlink:href="#radial-gradient-6"/><radialGradient id="radial-gradient-8" cx="-1777.46" cy="255.2" r="3.4" gradientTransform="translate(1685.61 -607.71) rotate(-17.29)" gradientUnits="userSpaceOnUse"><stop offset="0.05" stop-color="#010101"/><stop offset="0.09" stop-color="#070b08"/><stop offset="0.3" stop-color="#1f341c"/><stop offset="0.48" stop-color="#265325"/><stop offset="0.64" stop-color="#30672c"/><stop offset="0.75" stop-color="#336e2e"/><stop offset="0.79" stop-color="#506f2a"/><stop offset="0.83" stop-color="#717021"/><stop offset="0.86" stop-color="#7f701b"/><stop offset="0.89" stop-color="#7a6d1c"/><stop offset="0.91" stop-color="#71641b"/><stop offset="0.94" stop-color="#5e5419"/><stop offset="0.96" stop-color="#433d18"/><stop offset="0.98" stop-color="#232114"/><stop offset="1" stop-color="#010101"/></radialGradient><radialGradient id="radial-gradient-9" cx="-1765.21" cy="216.31" r="9.05" gradientTransform="translate(1685.61 -607.71) rotate(-17.29)" gradientUnits="userSpaceOnUse"><stop offset="0" stop-color="#1d090a"/><stop offset="0.73" stop-color="#994123"/><stop offset="1" stop-color="#1d090a"/></radialGradient><radialGradient id="radial-gradient-10" cx="-1765.21" cy="216.31" r="4.53" gradientTransform="translate(1685.61 -607.71) rotate(-17.29)" gradientUnits="userSpaceOnUse"><stop offset="0.15" stop-color="#fff"/><stop offset="0.21" stop-color="#e5d3d3"/><stop offset="0.29" stop-color="#c49c9e"/><stop offset="0.36" stop-color="#ad7477"/><stop offset="0.42" stop-color="#9f5d60"/><stop offset="0.45" stop-color="#9a5457"/><stop offset="0.57" stop-color="#6b3436"/><stop offset="0.69" stop-color="#431719"/><stop offset="0.79" stop-color="#270d0e"/><stop offset="0.85" stop-color="#1d090a"/><stop offset="0.86" stop-color="#210a0a"/><stop offset="0.86" stop-color="#300f0e"/><stop offset="0.87" stop-color="#461410"/><stop offset="0.88" stop-color="#641e11"/><stop offset="0.89" stop-color="#8b2e19"/><stop offset="0.9" stop-color="#b84323"/><stop offset="0.9" stop-color="#d34f29"/><stop offset="0.9" stop-color="#c94928"/><stop offset="0.91" stop-color="#9d371d"/><stop offset="0.93" stop-color="#772615"/><stop offset="0.94" stop-color="#591a10"/><stop offset="0.95" stop-color="#3e130f"/><stop offset="0.97" stop-color="#2b0e0d"/><stop offset="0.98" stop-color="#1f090b"/><stop offset="1" stop-color="#1d090a"/></radialGradient><radialGradient id="radial-gradient-11" cx="-1765.21" cy="216.31" r="3.77" gradientTransform="translate(1685.61 -607.71) rotate(-17.29)" gradientUnits="userSpaceOnUse"><stop offset="0.15" stop-color="#fff"/><stop offset="0.28" stop-color="#c3c2c2"/><stop offset="0.43" stop-color="#878889"/><stop offset="0.56" stop-color="#585858"/><stop offset="0.69" stop-color="#323232"/><stop offset="0.81" stop-color="#161617"/><stop offset="0.92" stop-color="#050606"/><stop offset="1" stop-color="#010101"/></radialGradient><radialGradient id="radial-gradient-12" cx="-1778.11" cy="257.24" r="6.79" gradientTransform="translate(1685.61 -607.71) rotate(-17.29)" gradientUnits="userSpaceOnUse"><stop offset="0.64" stop-color="#010101"/><stop offset="0.72" stop-color="#010302"/><stop offset="0.75" stop-color="#060908"/><stop offset="0.77" stop-color="#0c140e"/><stop offset="0.78" stop-color="#132517"/><stop offset="0.8" stop-color="#1b3b1d"/><stop offset="0.8" stop-color="#1c431f"/><stop offset="0.81" stop-color="#212c19"/><stop offset="0.83" stop-color="#2c190f"/><stop offset="0.85" stop-color="#33110d"/><stop offset="0.86" stop-color="#35100f"/><stop offset="0.87" stop-color="#200a0a"/><stop offset="0.89" stop-color="#100606"/><stop offset="0.9" stop-color="#050303"/><stop offset="0.93" stop-color="#020102"/><stop offset="1" stop-color="#010101"/></radialGradient><radialGradient id="radial-gradient-13" cx="-1775.62" cy="249.34" r="1.93" gradientTransform="translate(1685.61 -607.71) rotate(-17.29)" gradientUnits="userSpaceOnUse"><stop offset="0.1" stop-color="#010101"/><stop offset="0.25" stop-color="#1a130c"/><stop offset="0.43" stop-color="#352413"/><stop offset="0.61" stop-color="#483014"/><stop offset="0.8" stop-color="#533613"/><stop offset="1" stop-color="#573812"/></radialGradient><radialGradient id="radial-gradient-14" cx="-1768.89" cy="228" r="1.08" gradientTransform="translate(1685.61 -607.71) rotate(-17.29)" gradientUnits="userSpaceOnUse"><stop offset="0.1" stop-color="#1a301d"/><stop offset="0.23" stop-color="#142318"/><stop offset="0.48" stop-color="#0a0f0c"/><stop offset="0.73" stop-color="#030404"/><stop offset="1" stop-color="#010101"/></radialGradient><radialGradient id="radial-gradient-15" cx="-1772.99" cy="241.02" r="0.71" xlink:href="#radial-gradient-13"/><radialGradient id="radial-gradient-16" cx="-1773.64" cy="243.08" r="1" gradientTransform="translate(1685.61 -607.71) rotate(-17.29)" gradientUnits="userSpaceOnUse"><stop offset="0.1" stop-color="#010101"/><stop offset="0.29" stop-color="#151711"/><stop offset="0.52" stop-color="#262a1b"/><stop offset="0.75" stop-color="#313523"/><stop offset="1" stop-color="#333824"/></radialGradient><radialGradient id="radial-gradient-17" cx="-1775.49" cy="248.94" r="1.86" xlink:href="#radial-gradient-14"/><linearGradient id="linear-gradient-6" x1="191.15" y1="728.59" x2="73.05" y2="572.06" xlink:href="#linear-gradient-5"/><clipPath id="clip-path-2"><path class="cls-1" d="M208.46,213V79.91h0c0,4.7-55.7,8.6-77.3,8.6s-77.3-3.8-77.3-8.6h0V213c.1,5.9,2.8,11.8,8.9,11.8h136.7C205.66,224.81,208.46,218.81,208.46,213Z"/></clipPath><linearGradient id="linear-gradient-7" x1="287.8" y1="675.32" x2="40.77" y2="652.34" xlink:href="#linear-gradient-5"/><linearGradient id="linear-gradient-8" x1="7.44" y1="700.27" x2="241.96" y2="700.27" xlink:href="#linear-gradient-5"/><linearGradient id="linear-gradient-9" x1="268.4" y1="579.91" x2="85.26" y2="579.91" xlink:href="#linear-gradient-5"/><linearGradient id="linear-gradient-10" x1="53.44" y1="579.91" x2="208.88" y2="579.91" gradientTransform="translate(0 -500)" gradientUnits="userSpaceOnUse"><stop offset="0" stop-color="#71c1aa"/><stop offset="1" stop-color="#71c1a5"/></linearGradient><radialGradient id="radial-gradient-18" cx="-24.24" cy="2085.57" r="14.16" gradientTransform="matrix(0.25, -0.97, 0.96, 0.25, -1885.93, -457.8)" gradientUnits="userSpaceOnUse"><stop offset="0" stop-color="#4eb68e" stop-opacity="0.8"/><stop offset="0.3" stop-color="#52b791" stop-opacity="0.8"/><stop offset="0.52" stop-color="#5eba97" stop-opacity="0.8"/><stop offset="0.72" stop-color="#73c1a3" stop-opacity="0.8"/><stop offset="0.91" stop-color="#8acab2" stop-opacity="0.81"/><stop offset="1" stop-color="#9ad0bd" stop-opacity="0.81"/></radialGradient><radialGradient id="radial-gradient-19" cx="74.84" cy="916.51" r="9.18" gradientTransform="matrix(1.24, -0.09, 0.06, 0.77, -45.92, -617.35)" gradientUnits="userSpaceOnUse"><stop offset="0" stop-color="#75c6c6"/><stop offset="0.38" stop-color="#75c6c6" stop-opacity="0.99"/><stop offset="0.52" stop-color="#75c6c6" stop-opacity="0.96"/><stop offset="0.61" stop-color="#75c6c6" stop-opacity="0.91"/><stop offset="0.69" stop-color="#75c6c4" stop-opacity="0.84"/><stop offset="0.76" stop-color="#77c6c5" stop-opacity="0.75"/><stop offset="0.82" stop-color="#78c7c4" stop-opacity="0.63"/><stop offset="0.87" stop-color="#7ac7c4" stop-opacity="0.49"/><stop offset="0.92" stop-color="#7bc7c2" stop-opacity="0.33"/><stop offset="0.97" stop-color="#7dc8c2" stop-opacity="0.16"/><stop offset="1" stop-color="#80c8c1" stop-opacity="0"/></radialGradient><radialGradient id="radial-gradient-20" cx="-16.31" cy="2078.08" r="1.16" gradientTransform="matrix(0.25, -0.97, 0.96, 0.25, -1872.85, -455.73)" gradientUnits="userSpaceOnUse"><stop offset="0" stop-color="#c3e3e1"/><stop offset="0.38" stop-color="#c3e3e0" stop-opacity="0.99"/><stop offset="0.52" stop-color="#c1e2df" stop-opacity="0.96"/><stop offset="0.61" stop-color="#bde0dd" stop-opacity="0.91"/><stop offset="0.69" stop-color="#b8dedb" stop-opacity="0.84"/><stop offset="0.76" stop-color="#b1dbd8" stop-opacity="0.75"/><stop offset="0.82" stop-color="#aad8d4" stop-opacity="0.63"/><stop offset="0.87" stop-color="#a0d5d1" stop-opacity="0.49"/><stop offset="0.92" stop-color="#95d0cb" stop-opacity="0.33"/><stop offset="0.97" stop-color="#89ccc6" stop-opacity="0.16"/><stop offset="1" stop-color="#80c8c1" stop-opacity="0"/></radialGradient><radialGradient id="radial-gradient-21" cx="-14.4" cy="2079.68" r="0.42" gradientTransform="matrix(0.25, -0.97, 0.96, 0.25, -1872.96, -452.69)" gradientUnits="userSpaceOnUse"><stop offset="0" stop-color="#c3e3e1"/><stop offset="0.23" stop-color="#c3e3e0" stop-opacity="0.99"/><stop offset="0.36" stop-color="#c0e2df" stop-opacity="0.95"/><stop offset="0.48" stop-color="#bbe0dd" stop-opacity="0.89"/><stop offset="0.58" stop-color="#b5ddda" stop-opacity="0.8"/><stop offset="0.68" stop-color="#addad7" stop-opacity="0.69"/><stop offset="0.77" stop-color="#a4d6d2" stop-opacity="0.55"/><stop offset="0.85" stop-color="#98d1cc" stop-opacity="0.38"/><stop offset="0.93" stop-color="#8dcdc6" stop-opacity="0.2"/><stop offset="1" stop-color="#80c8c1" stop-opacity="0"/></radialGradient><radialGradient id="radial-gradient-22" cx="-30.79" cy="2095.66" r="0.42" gradientTransform="matrix(0.25, -0.97, 0.96, 0.25, -1900.46, -456.56)" xlink:href="#radial-gradient-21"/><radialGradient id="radial-gradient-23" cx="91.83" cy="593.71" r="3.71" gradientTransform="translate(0 -500)" xlink:href="#radial-gradient-20"/><radialGradient id="radial-gradient-24" cx="108.23" cy="484.04" r="1.69" gradientTransform="translate(0 -317.09) scale(1 0.85)" gradientUnits="userSpaceOnUse"><stop offset="0" stop-color="#75c6c6"/><stop offset="0.09" stop-color="#75c6c5" stop-opacity="0.97"/><stop offset="0.23" stop-color="#75c6c5" stop-opacity="0.88"/><stop offset="0.4" stop-color="#77c6c5" stop-opacity="0.74"/><stop offset="0.59" stop-color="#7ac7c5" stop-opacity="0.54"/><stop offset="0.79" stop-color="#7bc7c3" stop-opacity="0.28"/><stop offset="1" stop-color="#80c8c1" stop-opacity="0"/></radialGradient><radialGradient id="radial-gradient-25" cx="19.98" cy="2067.29" r="8.01" gradientTransform="matrix(0.25, -0.97, 0.96, 0.25, -1835.46, -428.72)" xlink:href="#radial-gradient-18"/><radialGradient id="radial-gradient-26" cx="111.54" cy="904.01" r="5.18" gradientTransform="matrix(1.24, -0.09, 0.06, 0.77, -46.04, -618.99)" xlink:href="#radial-gradient-19"/><radialGradient id="radial-gradient-27" cx="24.46" cy="2063.06" r="0.66" gradientTransform="matrix(0.25, -0.97, 0.96, 0.25, -1828.07, -427.55)" xlink:href="#radial-gradient-20"/><radialGradient id="radial-gradient-28" cx="25.54" cy="2063.97" r="0.24" gradientTransform="matrix(0.25, -0.97, 0.96, 0.25, -1828.13, -425.83)" xlink:href="#radial-gradient-21"/><radialGradient id="radial-gradient-29" cx="16.28" cy="2073" r="0.24" gradientTransform="matrix(0.25, -0.97, 0.96, 0.25, -1843.67, -428.02)" xlink:href="#radial-gradient-21"/><radialGradient id="radial-gradient-30" cx="140.26" cy="573.17" r="2.09" gradientTransform="translate(0 -500)" xlink:href="#radial-gradient-20"/><radialGradient id="radial-gradient-31" cx="149.53" cy="462.23" r="0.95" gradientTransform="translate(0 -320.26) scale(1 0.85)" xlink:href="#radial-gradient-24"/><radialGradient id="radial-gradient-32" cx="2.12" cy="2048.32" r="4.26" gradientTransform="matrix(0.25, -0.97, 0.96, 0.25, -1830.65, -460.21)" xlink:href="#radial-gradient-18"/><radialGradient id="radial-gradient-33" cx="98.47" cy="883.96" r="2.76" gradientTransform="matrix(1.24, -0.09, 0.06, 0.77, -46.24, -621.61)" xlink:href="#radial-gradient-19"/><radialGradient id="radial-gradient-34" cx="4.51" cy="2046.07" r="0.35" gradientTransform="matrix(0.25, -0.97, 0.96, 0.25, -1826.72, -459.59)" xlink:href="#radial-gradient-20"/><radialGradient id="radial-gradient-35" cx="5.08" cy="2046.55" r="0.13" gradientTransform="matrix(0.25, -0.97, 0.96, 0.25, -1826.75, -458.67)" xlink:href="#radial-gradient-21"/><radialGradient id="radial-gradient-36" cx="0.15" cy="2051.35" r="0.13" gradientTransform="matrix(0.25, -0.97, 0.96, 0.25, -1835.02, -459.84)" xlink:href="#radial-gradient-21"/><radialGradient id="radial-gradient-37" cx="124.97" cy="552.82" r="1.11" gradientTransform="translate(0 -500)" xlink:href="#radial-gradient-20"/><radialGradient id="radial-gradient-38" cx="129.9" cy="441.12" r="0.51" gradientTransform="translate(0 -323.33) scale(1 0.85)" xlink:href="#radial-gradient-24"/><radialGradient id="radial-gradient-39" cx="47.52" cy="2119.47" r="9.35" gradientTransform="matrix(0.25, -0.97, 0.96, 0.25, -1864.77, -362.97)" xlink:href="#radial-gradient-18"/><radialGradient id="radial-gradient-40" cx="130.41" cy="963.13" r="6.05" gradientTransform="matrix(1.24, -0.09, 0.06, 0.77, -45.45, -611.26)" xlink:href="#radial-gradient-19"/><radialGradient id="radial-gradient-41" cx="52.76" cy="2114.53" r="0.77" gradientTransform="matrix(0.25, -0.97, 0.96, 0.25, -1856.14, -361.61)" xlink:href="#radial-gradient-20"/><radialGradient id="radial-gradient-42" cx="54.02" cy="2115.59" r="0.28" gradientTransform="matrix(0.25, -0.97, 0.96, 0.25, -1856.22, -359.6)" xlink:href="#radial-gradient-21"/><radialGradient id="radial-gradient-43" cx="43.21" cy="2126.13" r="0.28" gradientTransform="matrix(0.25, -0.97, 0.96, 0.25, -1874.36, -362.16)" xlink:href="#radial-gradient-21"/><radialGradient id="radial-gradient-44" cx="166.89" cy="625.84" r="2.44" gradientTransform="translate(0 -500)" xlink:href="#radial-gradient-20"/><radialGradient id="radial-gradient-45" cx="177.72" cy="515.18" r="1.11" gradientTransform="translate(0 -312.57) scale(1 0.85)" xlink:href="#radial-gradient-24"/><radialGradient id="radial-gradient-46" cx="30.58" cy="2139.92" r="4.97" gradientTransform="matrix(0.25, -0.97, 0.96, 0.25, -1896.96, -364.05)" xlink:href="#radial-gradient-18"/><radialGradient id="radial-gradient-47" cx="115.69" cy="987.13" r="3.22" gradientTransform="matrix(1.24, -0.09, 0.06, 0.77, -45.21, -608.12)" xlink:href="#radial-gradient-19"/><radialGradient id="radial-gradient-48" cx="33.37" cy="2137.28" r="0.41" gradientTransform="matrix(0.25, -0.97, 0.96, 0.25, -1892.36, -363.32)" xlink:href="#radial-gradient-20"/><radialGradient id="radial-gradient-49" cx="34.04" cy="2137.84" r="0.15" gradientTransform="matrix(0.25, -0.97, 0.96, 0.25, -1892.4, -362.25)" xlink:href="#radial-gradient-21"/><radialGradient id="radial-gradient-50" cx="28.28" cy="2143.45" r="0.15" gradientTransform="matrix(0.25, -0.97, 0.96, 0.25, -1902.06, -363.61)" xlink:href="#radial-gradient-21"/><radialGradient id="radial-gradient-51" cx="152.94" cy="644.67" r="1.3" gradientTransform="translate(0 -500)" xlink:href="#radial-gradient-20"/><radialGradient id="radial-gradient-52" cx="158.7" cy="533.12" r="0.59" gradientTransform="translate(0 -309.96) scale(1 0.85)" xlink:href="#radial-gradient-24"/></defs><path class="cls-2" d="M218.46,14.11c0,4.9-63.6,8.9-87.4,8.9q-6.9,0-13.8-.3c-6.4-.2-12.8-.5-19.3-.9-6.8-.4-13.5-.9-20.3-1.5-2.5-.2-5.1-.5-7.6-.7s-5.2-.5-7.7-.9l-3.7-.6c-1.2-.3-2.5-.5-3.7-.7a21.15,21.15,0,0,0-7.1,0c-2.3.5-4.6,1.3-6.9,1.8a35.57,35.57,0,0,1-8.6,1.1,10.7,10.7,0,0,1,1.6-1.4,38.27,38.27,0,0,1,4.4-2.5c2.1-1.1,4.3-2.4,6.5-3.4a28.53,28.53,0,0,1,7.4-2.2c4.4-.8,8.9-1.4,13.4-1.9,5.6-.6,11.2-1.1,16.9-1.6q9-.75,18-1.2c5.6-.3,11.3-.6,16.9-.8Q124.21,5,131,5C155,5.21,218.46,9.21,218.46,14.11Z"/><polygon class="cls-3" points="14.46 251.21 2.86 257.61 213.86 257.61 231.86 244.51 231.86 242.01 14.46 251.21"/><path class="cls-4" d="M212.76,216.51l-.9-199.4c-12.1,5.9-64.2,5.9-80.7,5.9h-3.9c-1.3,0-2.5-.1-3.8-.1s-2.9-.1-4.3-.2c-1.6-.1-3.1-.1-4.7-.2l-5-.3-5.3-.3-5.4-.3c-1.8-.1-3.7-.2-5.5-.4s-3.7-.2-5.5-.4-3.6-.3-5.4-.4-3.5-.3-5.2-.4-3.3-.3-5-.4-3.1-.3-4.7-.4c-1.4-.1-2.8-.3-4.2-.4-.6-.1-1.3-.1-1.9-.2a12.66,12.66,0,0,1-2.8-.6c-.2,0-.3-.1-.5-.1a26.21,26.21,0,0,0-7.4-.7l-1.2.1.2,199.2a9.75,9.75,0,0,0,6.8,12.1,12.59,12.59,0,0,0,2.7.4h144.3a9.82,9.82,0,0,0,9.8-9.8C213.06,218.31,213,217.41,212.76,216.51Z"/><path class="cls-5" d="M218.56,218.21V14.11c0,4.9-63.6,8.9-87.4,8.9h-3.6c-4.8-.1-9.6-.2-14.4-.5-5.7-.3-11.3-.6-17-1s-11.7-.9-17.5-1.4c-5.3-.5-10.6-1-15.9-1.7-3.9-.5-7.7-1.5-11.7-1.4s-7.6,1.7-11.4,2.5c-.3.1-.6.1-1,.2a25,25,0,0,1-3.8.6c-.5,0-.9.1-1.4.1-.2,0-.9-.1-1,.1s.2.6.4.8a5.55,5.55,0,0,0,.8.6c.3.2.7.5,1,.7l3.4,2.4,5.6,3.9.2.1v189.1a11.55,11.55,0,0,0,8.1,14.2,10.32,10.32,0,0,0,3,.4h152.5a11.5,11.5,0,0,0,11.5-11.5A15.44,15.44,0,0,0,218.56,218.21Z"/><g class="cls-6"><path class="cls-7" d="M213.76,221.81c0-8.6-36.9-11.6-82.3-11.6s-82.3,3.3-82.3,11.9,8,6.9,82.3,7.6C202,230.41,213.76,230.41,213.76,221.81Z"/><rect class="cls-8" x="17.06" y="77.91" width="225.5" height="175.4"/></g><g class="cls-9"><path class="cls-10" d="M198.36,146.21a4.17,4.17,0,0,1-4.1-3.4V77.71a2.77,2.77,0,0,1-.1-.9v-39a4.2,4.2,0,1,1,8.4,0h0v38.7l-.1,64.6a4.22,4.22,0,0,1-3.3,5A2.49,2.49,0,0,1,198.36,146.21Z"/></g><g class="cls-11"><path class="cls-12" d="M62.86,168.21a4.77,4.77,0,0,1-5.7-3.4,4.87,4.87,0,0,1-.1-1.2l.7-107.7a4.65,4.65,0,0,1,9.3.1l-.7,107.7A4.68,4.68,0,0,1,62.86,168.21Z"/></g><circle class="cls-13" cx="199.26" cy="155.31" r="4.2"/><circle class="cls-14" cx="199.26" cy="82.11" r="4.2"/><circle class="cls-15" cx="64.46" cy="112.81" r="13.6"/><circle class="cls-16" cx="64.26" cy="162.61" r="0.5"/><circle class="cls-17" cx="64.26" cy="166.41" r="0.5"/><circle class="cls-18" cx="64.26" cy="164.31" r="3.4"/><line class="cls-1" x1="64.46" y1="123.51" x2="64.26" y2="166.41"/><circle class="cls-19" cx="64.46" cy="123.51" r="9.1"/><circle class="cls-20" cx="64.46" cy="123.51" r="4.5"/><circle class="cls-21" cx="64.46" cy="123.51" r="3.8"/><polyline class="cls-22" points="64.46 123.51 66.46 138.31 64.46 123.51 62.36 108.81 64.46 123.51 49.66 125.61 64.46 123.51 79.16 121.51 64.46 123.51 72.06 141.21 64.46 123.51 56.86 105.91 64.46 123.51 46.76 131.11 64.46 123.51 82.06 115.91 64.46 123.51 78.06 135.71 64.46 123.51 50.76 111.31 64.46 123.51 52.26 137.21 64.46 123.51 76.66 109.91 64.46 123.51 65.36 136.31 64.46 123.51 63.56 110.81 64.46 123.51 51.66 124.41 64.46 123.51 77.16 122.61 64.46 123.51 64.76 125.01 64.46 123.51 64.06 122.01 64.46 123.51 62.96 123.91 64.46 123.51 65.96 123.21 64.46 123.51 60.16 142.31 64.46 123.51 68.66 104.71 64.46 123.51 45.66 119.31 64.46 123.51 83.26 127.81 64.46 123.51 62.06 129.81 64.46 123.51 66.86 117.31 64.46 123.51 58.16 121.11 64.46 123.51 70.66 125.91 64.46 123.51 67.86 127.21 64.46 123.51 61.06 119.81 64.46 123.51 60.76 126.91 64.46 123.51 68.16 120.11 64.46 123.51 85.06 132.71 64.46 123.51 43.76 114.41 64.46 123.51 55.26 144.21 64.46 123.51 73.56 102.91 64.46 123.51 73.46 140.01 64.46 123.51 55.36 107.01 64.46 123.51 47.96 132.61 64.46 123.51 80.96 114.51 64.46 123.51 74.06 143.11 64.46 123.51 54.76 103.91 64.46 123.51 44.86 133.21 64.46 123.51 84.06 113.91 64.46 123.51 67.26 126.81 64.46 123.51 61.56 120.31 64.46 123.51 61.16 126.41 64.46 123.51 67.66 120.71 64.46 123.51 78.66 130.01 64.46 123.51 50.26 117.01 64.46 123.51 57.96 137.71 64.46 123.51 70.96 109.31 64.46 123.51 63.56 140.21 64.46 123.51 65.26 106.81 64.46 123.51 47.76 122.71 64.46 123.51 81.16 124.41 64.46 123.51 69.36 136.31 64.46 123.51 59.56 110.71 64.46 123.51 51.66 128.41 64.46 123.51 77.26 118.61"/><circle class="cls-23" cx="64.26" cy="166.41" r="6.8"/><circle class="cls-24" cx="64.36" cy="158.21" r="1.9"/><circle class="cls-25" cx="64.36" cy="135.81" r="1.1"/><circle class="cls-26" cx="64.36" cy="149.41" r="0.7"/><circle class="cls-27" cx="64.36" cy="151.61" r="1"/><circle class="cls-28" cx="64.36" cy="157.71" r="1.9"/><path class="cls-29" d="M208.46,213V79.91h0c0,4.7-55.7,8.6-77.3,8.6s-77.3-3.8-77.3-8.6h0V213c.1,5.9,2.8,11.8,8.9,11.8h136.7C205.66,224.81,208.46,218.81,208.46,213Z"/><g class="cls-30"><path class="cls-31" d="M135.76,114.21c-18.7,1.5-37.4,2.3-56.1,3.8-20,1.6-41.8,7.1-57.5,20.2-.1.1-.3.2-.4.4-8.8,7.4-16,18-15.4,29.5.4,9,5.7,17.2,12.5,23.1s15.2,9.6,23.6,12.9c48.7,19.2,104.3,25.3,153.4,7.3,9.9-3.6,19.5-8.2,27.7-14.9s14.8-15.5,17.5-25.7c2.8-10.5,1.3-21.9-3.3-31.7-4.3-9.3-11.1-16.5-14-26.6-.5-1.9-1.1-4-2.8-5a8.08,8.08,0,0,0-3.7-.9c-21.6-1-42.5,3.5-63.9,5.9C147.56,113.11,141.66,113.71,135.76,114.21Z"/><path class="cls-32" d="M130.86,154.11c-18.4,3.5-37,6.2-55.4,9.7-19.7,3.7-40.8,11.5-55.1,26.2l-.4.4c-7.9,8.3-14,19.6-12.2,30.9,1.4,8.9,7.5,16.5,14.9,21.6s16.1,7.9,24.8,10.3c50.5,14,106.4,14.1,153.3-9,9.4-4.6,18.5-10.3,26-17.7s13.1-17,14.7-27.4c1.7-10.7-1-21.9-6.6-31.2-5.3-8.8-12.8-15.2-16.7-25-.7-1.8-1.5-3.8-3.3-4.7a7,7,0,0,0-3.8-.4c-21.6,1.3-41.9,8-62.9,12.7C142.46,151.81,136.76,153,130.86,154.11Z"/></g><path class="cls-33" d="M208.46,79.91c0,4.7-55.7,8.6-77.3,8.6s-77.3-3.8-77.3-8.6,55.7-8.6,77.3-8.6S208.46,75.11,208.46,79.91Z"/><g class="cls-34"><circle class="cls-35" cx="101.56" cy="88.51" r="14.9"/><path class="cls-36" d="M100.06,74.31c5.5-.4,10.1,1.9,10.4,5.2s-4,6.3-9.5,6.7-10.1-1.9-10.4-5.2S94.56,74.71,100.06,74.31Z"/><circle class="cls-37" cx="109.46" cy="81.01" r="1.2"/><circle class="cls-38" cx="111.36" cy="82.61" r="0.4"/><circle class="cls-39" cx="94.96" cy="98.61" r="0.4"/><path class="cls-40" d="M89.66,89.61c-.1,2.9,1.6,7,4.3,8.2"/><circle class="cls-41" cx="108.26" cy="96.61" r="1.4"/></g><g class="cls-34"><circle class="cls-42" cx="145.76" cy="70.21" r="8.4"/><path class="cls-43" d="M144.86,62.21c3.1-.2,5.7,1.1,5.9,3s-2.3,3.6-5.4,3.8-5.7-1.1-5.9-3S141.76,62.41,144.86,62.21Z"/><circle class="cls-44" cx="150.26" cy="66.01" r="0.7"/><circle class="cls-45" cx="151.26" cy="66.91" r="0.3"/><circle class="cls-46" cx="142.06" cy="75.91" r="0.3"/><path class="cls-47" d="M139.06,70.81c-.1,1.6.9,4,2.5,4.7"/><circle class="cls-48" cx="149.56" cy="74.81" r="0.8"/></g><g class="cls-34"><circle class="cls-49" cx="127.86" cy="51.21" r="4.5"/><path class="cls-50" d="M127.46,47c1.6-.1,3,.6,3.1,1.6s-1.2,1.9-2.9,2-3-.6-3.1-1.6S125.76,47.11,127.46,47Z"/><circle class="cls-51" cx="130.26" cy="49.01" r="0.4"/><circle class="cls-52" cx="130.86" cy="49.51" r="0.1"/><circle class="cls-53" cx="125.96" cy="54.31" r="0.1"/><path class="cls-54" d="M124.36,51.61a3.13,3.13,0,0,0,1.3,2.5"/><circle class="cls-55" cx="129.86" cy="53.71" r="0.4"/></g><g class="cls-56"><circle class="cls-57" cx="173.26" cy="122.41" r="9.8"/><path class="cls-58" d="M172.26,113c3.6-.3,6.7,1.3,6.9,3.5s-2.6,4.2-6.3,4.5-6.7-1.3-6.9-3.5S168.66,113.31,172.26,113Z"/><circle class="cls-59" cx="178.56" cy="117.51" r="0.8"/><circle class="cls-60" cx="179.76" cy="118.51" r="0.3"/><circle class="cls-61" cx="168.96" cy="129.11" r="0.3"/><path class="cls-62" d="M165.46,123.11c-.1,1.9,1,4.6,2.9,5.4"/><circle class="cls-63" cx="177.76" cy="127.71" r="0.9"/></g><g class="cls-56"><circle class="cls-64" cx="156.36" cy="142.81" r="5.2"/><path class="cls-65" d="M155.86,137.81c1.9-.1,3.6.7,3.6,1.8s-1.4,2.2-3.3,2.4-3.6-.7-3.6-1.8C152.36,139,153.86,138,155.86,137.81Z"/><circle class="cls-66" cx="159.16" cy="140.21" r="0.4"/><circle class="cls-67" cx="159.76" cy="140.81" r="0.2"/><circle class="cls-68" cx="154.06" cy="146.41" r="0.2"/><path class="cls-69" d="M152.16,143.21a3.27,3.27,0,0,0,1.5,2.9"/><circle class="cls-70" cx="158.66" cy="145.71" r="0.5"/></g><polygon class="cls-71" points="225.16 172.01 29.66 172.01 14.46 251.21 210.06 251.21 225.16 172.01"/><polygon class="cls-72" points="225.16 172.01 231.86 242.01 229.16 244.01 214.26 244.21 213.06 248.71 210.06 251.21 225.16 172.01"/></svg>