<svg id="Layer_1" data-name="Layer 1" xmlns="http://www.w3.org/2000/svg" xmlns:xlink="http://www.w3.org/1999/xlink" viewBox="0 0 235.13 262.86"><defs><style>.cls-1,.cls-22,.cls-41,.cls-48,.cls-55,.cls-63,.cls-70{fill:none;}.cls-2{fill:#683d14;fill-opacity:0.51;}.cls-3{fill:url(#linear-gradient);}.cls-4,.cls-8{opacity:0.72;}.cls-13,.cls-14,.cls-15,.cls-18,.cls-19,.cls-20,.cls-22,.cls-23,.cls-30,.cls-32,.cls-33,.cls-34,.cls-4,.cls-7,.cls-8{isolation:isolate;}.cls-4{fill:url(#linear-gradient-2);}.cls-5{clip-path:url(#clip-path);}.cls-6{fill:url(#linear-gradient-3);}.cls-7{opacity:0.42;fill:url(#linear-gradient-4);}.cls-8{fill:url(#linear-gradient-5);}.cls-9{opacity:0.54;}.cls-10{fill:url(#radial-gradient);}.cls-11,.cls-30,.cls-34{opacity:0.8;}.cls-12{fill:url(#radial-gradient-2);}.cls-13,.cls-14,.cls-20,.cls-23{opacity:0.5;}.cls-13{fill:url(#radial-gradient-3);}.cls-14{fill:url(#radial-gradient-4);}.cls-15{opacity:0.25;fill:url(#radial-gradient-5);}.cls-16{fill:url(#radial-gradient-6);}.cls-17{fill:url(#radial-gradient-7);}.cls-18,.cls-57{opacity:0.2;}.cls-18{fill:url(#radial-gradient-8);}.cls-19{opacity:0.15;fill:url(#radial-gradient-9);}.cls-20{fill:url(#radial-gradient-10);}.cls-21{fill:url(#radial-gradient-11);}.cls-22{stroke:#fff;stroke-width:1.69px;opacity:0.03;}.cls-22,.cls-34{stroke-miterlimit:10;}.cls-23{fill:url(#radial-gradient-12);}.cls-24{fill:url(#radial-gradient-13);}.cls-25{fill:url(#radial-gradient-14);}.cls-26{fill:url(#radial-gradient-15);}.cls-27{fill:url(#radial-gradient-16);}.cls-28{fill:url(#radial-gradient-17);}.cls-29{fill:url(#radial-gradient-18);}.cls-30{fill:url(#linear-gradient-6);}.cls-31{clip-path:url(#clip-path-2);}.cls-32,.cls-33,.cls-35{opacity:0.3;}.cls-32{fill:url(#linear-gradient-7);}.cls-33{fill:url(#linear-gradient-8);}.cls-34,.cls-41{stroke-width:0.85px;}.cls-34{fill:url(#linear-gradient-9);stroke:url(#linear-gradient-10);}.cls-36{fill:url(#radial-gradient-19);}.cls-37{fill:url(#radial-gradient-20);}.cls-38{fill:url(#radial-gradient-21);}.cls-39{fill:url(#radial-gradient-22);}.cls-40{fill:url(#radial-gradient-23);}.cls-41,.cls-48,.cls-55,.cls-63,.cls-70{stroke-linecap:round;stroke-linejoin:round;}.cls-41{stroke:url(#radial-gradient-24);}.cls-42{fill:url(#radial-gradient-25);}.cls-43{fill:url(#radial-gradient-26);}.cls-44{fill:url(#radial-gradient-27);}.cls-45{fill:url(#radial-gradient-28);}.cls-46{fill:url(#radial-gradient-29);}.cls-47{fill:url(#radial-gradient-30);}.cls-48{stroke-width:0.48px;stroke:url(#radial-gradient-31);}.cls-49{fill:url(#radial-gradient-32);}.cls-50{fill:url(#radial-gradient-33);}.cls-51{fill:url(#radial-gradient-34);}.cls-52{fill:url(#radial-gradient-35);}.cls-53{fill:url(#radial-gradient-36);}.cls-54{fill:url(#radial-gradient-37);}.cls-55{stroke-width:0.25px;stroke:url(#radial-gradient-38);}.cls-56{fill:url(#radial-gradient-39);}.cls-58{fill:url(#radial-gradient-40);}.cls-59{fill:url(#radial-gradient-41);}.cls-60{fill:url(#radial-gradient-42);}.cls-61{fill:url(#radial-gradient-43);}.cls-62{fill:url(#radial-gradient-44);}.cls-63{stroke-width:0.56px;stroke:url(#radial-gradient-45);}.cls-64{fill:url(#radial-gradient-46);}.cls-65{fill:url(#radial-gradient-47);}.cls-66{fill:url(#radial-gradient-48);}.cls-67{fill:url(#radial-gradient-49);}.cls-68{fill:url(#radial-gradient-50);}.cls-69{fill:url(#radial-gradient-51);}.cls-70{stroke-width:0.3px;stroke:url(#radial-gradient-52);}.cls-71{fill:url(#radial-gradient-53);}.cls-72{fill:#fff;}.cls-73{fill:#c7c6c6;}</style><linearGradient id="linear-gradient" x1="143.58" y1="519.67" x2="121.28" y2="701.28" gradientTransform="translate(0 -500)" gradientUnits="userSpaceOnUse"><stop offset="0" stop-color="#c0c5c8"/><stop offset="1" stop-color="#b0c2c9"/></linearGradient><linearGradient id="linear-gradient-2" x1="77.3" y1="623.51" x2="171.68" y2="623.51" gradientTransform="translate(0 -500)" gradientUnits="userSpaceOnUse"><stop offset="0" stop-color="#f6fbff"/><stop offset="0.63" stop-color="#e9f1f6"/><stop offset="1" stop-color="#c5dae1"/></linearGradient><clipPath id="clip-path"><path class="cls-1" d="M218.75,218.28V14.16c0,4.93-63.58,8.92-87.38,8.92h-3.6c-4.8-.07-9.59-.25-14.39-.47q-8.52-.39-17-1-8.76-.6-17.51-1.4c-5.3-.49-10.6-1-15.88-1.73C59.09,18,55.26,17,51.31,17s-7.63,1.67-11.44,2.5l-1,.2a20,20,0,0,1-3.84.59c-.46,0-.91.09-1.37.12-.22,0-.86-.06-1,.14s.24.62.36.76a5,5,0,0,0,.76.6c.33.25.67.47,1,.71l3.48,2.44L43.82,29l.17.11V218.28a11.52,11.52,0,0,0,8.06,14.17h0a12.06,12.06,0,0,0,3,.41H207.62a11.53,11.53,0,0,0,11.13-14.58Z"/></clipPath><linearGradient id="linear-gradient-3" x1="92.7" y1="621.89" x2="143.88" y2="754.06" gradientTransform="translate(0 -500)" gradientUnits="userSpaceOnUse"><stop offset="0" stop-color="#f5f5f5"/><stop offset="1" stop-color="#c3d1d6"/></linearGradient><linearGradient id="linear-gradient-4" x1="71.27" y1="665.6" x2="185.37" y2="665.6" gradientTransform="translate(0 -500)" gradientUnits="userSpaceOnUse"><stop offset="0" stop-color="#2558a5"/><stop offset="1" stop-color="#4f89c8"/></linearGradient><linearGradient id="linear-gradient-5" x1="125.74" y1="496.33" x2="125.74" y2="522.9" xlink:href="#linear-gradient-2"/><radialGradient id="radial-gradient" cx="-271.32" cy="-8517.52" r="64.7" gradientTransform="matrix(0.01, 1, -0.12, 0, -812.23, 358.43)" gradientUnits="userSpaceOnUse"><stop offset="0" stop-color="#e6f3fc"/><stop offset="1" stop-color="#bacae9" stop-opacity="0"/></radialGradient><radialGradient id="radial-gradient-2" cx="-3218.08" cy="6344.6" r="54.29" gradientTransform="matrix(0.01, -1, 0.16, 0, -927.12, -3108.54)" xlink:href="#radial-gradient"/><radialGradient id="radial-gradient-3" cx="199.56" cy="655.37" r="3.83" gradientTransform="translate(0 -500)" xlink:href="#radial-gradient"/><radialGradient id="radial-gradient-4" cx="199.56" cy="582.19" r="3.83" gradientTransform="translate(0 -500)" xlink:href="#radial-gradient"/><radialGradient id="radial-gradient-5" cx="-2198.49" cy="653.83" r="13.58" gradientTransform="matrix(0.95, -0.3, 0.3, 0.95, 1965.8, -1160.32)" gradientUnits="userSpaceOnUse"><stop offset="0.1" stop-color="#010101"/><stop offset="0.11" stop-color="#070706"/><stop offset="0.16" stop-color="#221d12"/><stop offset="0.22" stop-color="#392e16"/><stop offset="0.28" stop-color="#4a3a17"/><stop offset="0.37" stop-color="#564318"/><stop offset="0.48" stop-color="#5c4918"/><stop offset="0.8" stop-color="#5f4a17"/><stop offset="1" stop-color="#010101"/></radialGradient><radialGradient id="radial-gradient-6" cx="-2213.45" cy="701.31" r="0.45" gradientTransform="matrix(0.95, -0.3, 0.3, 0.95, 1965.8, -1160.32)" gradientUnits="userSpaceOnUse"><stop offset="0" stop-color="#d5e195"/><stop offset="0.06" stop-color="#b1bb79"/><stop offset="0.14" stop-color="#868f5f"/><stop offset="0.22" stop-color="#646946"/><stop offset="0.31" stop-color="#454930"/><stop offset="0.4" stop-color="#2c2f1f"/><stop offset="0.51" stop-color="#191a13"/><stop offset="0.62" stop-color="#0b0c0a"/><stop offset="0.76" stop-color="#020404"/><stop offset="1" stop-color="#010101"/></radialGradient><radialGradient id="radial-gradient-7" cx="64.5" cy="-17.72" r="0.45" gradientTransform="matrix(1, 0, 0, -1, 0, 148.77)" xlink:href="#radial-gradient-6"/><radialGradient id="radial-gradient-8" cx="-2213.97" cy="702.95" r="3.4" gradientTransform="matrix(0.95, -0.3, 0.3, 0.95, 1965.8, -1160.32)" gradientUnits="userSpaceOnUse"><stop offset="0.05" stop-color="#010101"/><stop offset="0.09" stop-color="#070b08"/><stop offset="0.3" stop-color="#1f341c"/><stop offset="0.48" stop-color="#265325"/><stop offset="0.64" stop-color="#30672c"/><stop offset="0.75" stop-color="#336e2e"/><stop offset="0.79" stop-color="#506f2a"/><stop offset="0.83" stop-color="#717021"/><stop offset="0.86" stop-color="#7f701b"/><stop offset="0.89" stop-color="#7a6d1c"/><stop offset="0.91" stop-color="#71641b"/><stop offset="0.94" stop-color="#5e5419"/><stop offset="0.96" stop-color="#433d18"/><stop offset="0.98" stop-color="#232114"/><stop offset="1" stop-color="#010101"/></radialGradient><radialGradient id="radial-gradient-9" cx="-2201.72" cy="664.07" r="9.05" gradientTransform="matrix(0.95, -0.3, 0.3, 0.95, 1965.8, -1160.32)" gradientUnits="userSpaceOnUse"><stop offset="0" stop-color="#1d090a"/><stop offset="0.73" stop-color="#994123"/><stop offset="1" stop-color="#1d090a"/></radialGradient><radialGradient id="radial-gradient-10" cx="-2201.72" cy="664.07" r="4.53" gradientTransform="matrix(0.95, -0.3, 0.3, 0.95, 1965.8, -1160.32)" gradientUnits="userSpaceOnUse"><stop offset="0.15" stop-color="#fff"/><stop offset="0.21" stop-color="#e5d3d3"/><stop offset="0.29" stop-color="#c49c9e"/><stop offset="0.36" stop-color="#ad7477"/><stop offset="0.42" stop-color="#9f5d60"/><stop offset="0.45" stop-color="#9a5457"/><stop offset="0.57" stop-color="#6b3436"/><stop offset="0.69" stop-color="#431719"/><stop offset="0.79" stop-color="#270d0e"/><stop offset="0.85" stop-color="#1d090a"/><stop offset="0.86" stop-color="#210a0a"/><stop offset="0.86" stop-color="#300f0e"/><stop offset="0.87" stop-color="#461410"/><stop offset="0.88" stop-color="#641e11"/><stop offset="0.89" stop-color="#8b2e19"/><stop offset="0.9" stop-color="#b84323"/><stop offset="0.9" stop-color="#d34f29"/><stop offset="0.9" stop-color="#c94928"/><stop offset="0.91" stop-color="#9d371d"/><stop offset="0.93" stop-color="#772615"/><stop offset="0.94" stop-color="#591a10"/><stop offset="0.95" stop-color="#3e130f"/><stop offset="0.97" stop-color="#2b0e0d"/><stop offset="0.98" stop-color="#1f090b"/><stop offset="1" stop-color="#1d090a"/></radialGradient><radialGradient id="radial-gradient-11" cx="-2201.72" cy="664.07" r="3.77" gradientTransform="matrix(0.95, -0.3, 0.3, 0.95, 1965.8, -1160.32)" gradientUnits="userSpaceOnUse"><stop offset="0.15" stop-color="#fff"/><stop offset="0.28" stop-color="#c3c2c2"/><stop offset="0.43" stop-color="#878889"/><stop offset="0.56" stop-color="#585858"/><stop offset="0.69" stop-color="#323232"/><stop offset="0.81" stop-color="#161617"/><stop offset="0.92" stop-color="#050606"/><stop offset="1" stop-color="#010101"/></radialGradient><radialGradient id="radial-gradient-12" cx="-2214.62" cy="705" r="6.79" gradientTransform="matrix(0.95, -0.3, 0.3, 0.95, 1965.8, -1160.32)" gradientUnits="userSpaceOnUse"><stop offset="0.64" stop-color="#010101"/><stop offset="0.72" stop-color="#010302"/><stop offset="0.75" stop-color="#060908"/><stop offset="0.77" stop-color="#0c140e"/><stop offset="0.78" stop-color="#132517"/><stop offset="0.8" stop-color="#1b3b1d"/><stop offset="0.8" stop-color="#1c431f"/><stop offset="0.81" stop-color="#212c19"/><stop offset="0.83" stop-color="#2c190f"/><stop offset="0.85" stop-color="#33110d"/><stop offset="0.86" stop-color="#35100f"/><stop offset="0.87" stop-color="#200a0a"/><stop offset="0.89" stop-color="#100606"/><stop offset="0.9" stop-color="#050303"/><stop offset="0.93" stop-color="#020102"/><stop offset="1" stop-color="#010101"/></radialGradient><radialGradient id="radial-gradient-13" cx="-2212.13" cy="697.09" r="1.93" gradientTransform="matrix(0.95, -0.3, 0.3, 0.95, 1965.8, -1160.32)" gradientUnits="userSpaceOnUse"><stop offset="0.1" stop-color="#010101"/><stop offset="0.25" stop-color="#1a130c"/><stop offset="0.43" stop-color="#352413"/><stop offset="0.61" stop-color="#483014"/><stop offset="0.8" stop-color="#533613"/><stop offset="1" stop-color="#573812"/></radialGradient><radialGradient id="radial-gradient-14" cx="-2205.4" cy="675.76" r="1.08" gradientTransform="matrix(0.95, -0.3, 0.3, 0.95, 1965.8, -1160.32)" gradientUnits="userSpaceOnUse"><stop offset="0.1" stop-color="#1a301d"/><stop offset="0.23" stop-color="#142318"/><stop offset="0.48" stop-color="#0a0f0c"/><stop offset="0.73" stop-color="#030404"/><stop offset="1" stop-color="#010101"/></radialGradient><radialGradient id="radial-gradient-15" cx="64.56" cy="-0.71" r="0.71" gradientTransform="matrix(1, 0, 0, -1, 0, 148.77)" xlink:href="#radial-gradient-13"/><radialGradient id="radial-gradient-16" cx="-2210.15" cy="690.83" r="1" gradientTransform="matrix(0.95, -0.3, 0.3, 0.95, 1965.8, -1160.32)" gradientUnits="userSpaceOnUse"><stop offset="0.1" stop-color="#010101"/><stop offset="0.29" stop-color="#151711"/><stop offset="0.52" stop-color="#262a1b"/><stop offset="0.75" stop-color="#313523"/><stop offset="1" stop-color="#333824"/></radialGradient><radialGradient id="radial-gradient-17" cx="-2082.26" cy="-165.33" r="1.86" gradientTransform="matrix(1, 0, 0, -1, 0, 148.77)" xlink:href="#radial-gradient-14"/><radialGradient id="radial-gradient-18" cx="71.53" cy="520.65" r="7" gradientTransform="translate(0 -500)" gradientUnits="userSpaceOnUse"><stop offset="0" stop-color="#fff"/><stop offset="1" stop-color="#bacae9" stop-opacity="0"/></radialGradient><linearGradient id="linear-gradient-6" x1="191.35" y1="728.63" x2="73.25" y2="572.11" xlink:href="#linear-gradient-4"/><clipPath id="clip-path-2"><path class="cls-1" d="M208.65,213V80h0c0,4.75-55.69,8.6-77.27,8.6S54.09,84.7,54.09,80h0V213c.07,5.91,2.77,11.84,8.94,11.84H199.71C205.88,224.86,208.72,218.81,208.65,213Z"/></clipPath><linearGradient id="linear-gradient-7" x1="288.03" y1="675.27" x2="40.99" y2="652.29" xlink:href="#linear-gradient-4"/><linearGradient id="linear-gradient-8" x1="7.75" y1="700.39" x2="242.27" y2="700.39" xlink:href="#linear-gradient-4"/><linearGradient id="linear-gradient-9" x1="268.62" y1="579.95" x2="85.47" y2="579.95" xlink:href="#linear-gradient-4"/><linearGradient id="linear-gradient-10" x1="53.66" y1="579.95" x2="209.07" y2="579.95" gradientTransform="translate(0 -500)" gradientUnits="userSpaceOnUse"><stop offset="0" stop-color="#4579bd"/><stop offset="1" stop-color="#4f89c8"/></linearGradient><radialGradient id="radial-gradient-19" cx="-1201.21" cy="1175.92" r="14.17" gradientTransform="matrix(0.25, -0.97, 0.96, 0.25, -727.09, -1369.84)" gradientUnits="userSpaceOnUse"><stop offset="0" stop-color="#3682c4" stop-opacity="0.8"/><stop offset="0.3" stop-color="#3c85c6" stop-opacity="0.8"/><stop offset="0.52" stop-color="#478ecc" stop-opacity="0.8"/><stop offset="0.72" stop-color="#5c9fd7" stop-opacity="0.8"/><stop offset="0.91" stop-color="#7ab6e4" stop-opacity="0.81"/><stop offset="1" stop-color="#8cc3eb" stop-opacity="0.81"/></radialGradient><radialGradient id="radial-gradient-20" cx="-332.44" cy="1417.26" r="9.18" gradientTransform="translate(515.58 -1015.14) scale(1.24 0.77)" gradientUnits="userSpaceOnUse"><stop offset="0" stop-color="#5676b9"/><stop offset="0.38" stop-color="#5676b9" stop-opacity="0.99"/><stop offset="0.52" stop-color="#5776b9" stop-opacity="0.96"/><stop offset="0.61" stop-color="#5977ba" stop-opacity="0.91"/><stop offset="0.69" stop-color="#5c7abc" stop-opacity="0.84"/><stop offset="0.76" stop-color="#5f7cbd" stop-opacity="0.75"/><stop offset="0.82" stop-color="#6280c0" stop-opacity="0.63"/><stop offset="0.87" stop-color="#6684c2" stop-opacity="0.49"/><stop offset="0.92" stop-color="#6a8ac6" stop-opacity="0.33"/><stop offset="0.97" stop-color="#708fc9" stop-opacity="0.16"/><stop offset="1" stop-color="#7393cc" stop-opacity="0"/></radialGradient><radialGradient id="radial-gradient-21" cx="-1193.28" cy="1168.44" r="1.16" gradientTransform="matrix(0.25, -0.97, 0.96, 0.25, -714.02, -1367.77)" gradientUnits="userSpaceOnUse"><stop offset="0" stop-color="#c2cdea"/><stop offset="0.38" stop-color="#c0cdea" stop-opacity="0.99"/><stop offset="0.52" stop-color="#becbe9" stop-opacity="0.96"/><stop offset="0.61" stop-color="#bbc8e8" stop-opacity="0.91"/><stop offset="0.69" stop-color="#b6c4e6" stop-opacity="0.84"/><stop offset="0.76" stop-color="#adbee3" stop-opacity="0.75"/><stop offset="0.82" stop-color="#a5b8e0" stop-opacity="0.63"/><stop offset="0.87" stop-color="#9bb1dc" stop-opacity="0.49"/><stop offset="0.92" stop-color="#8da7d7" stop-opacity="0.33"/><stop offset="0.97" stop-color="#809dd2" stop-opacity="0.16"/><stop offset="1" stop-color="#7393cc" stop-opacity="0"/></radialGradient><radialGradient id="radial-gradient-22" cx="-1191.37" cy="1170.04" r="0.42" gradientTransform="matrix(0.25, -0.97, 0.96, 0.25, -714.12, -1364.73)" gradientUnits="userSpaceOnUse"><stop offset="0" stop-color="#c2cdea"/><stop offset="0.22" stop-color="#c0ccea" stop-opacity="0.99"/><stop offset="0.36" stop-color="#bdcae9" stop-opacity="0.95"/><stop offset="0.48" stop-color="#bac8e8" stop-opacity="0.89"/><stop offset="0.58" stop-color="#b2c2e5" stop-opacity="0.8"/><stop offset="0.68" stop-color="#a9bbe2" stop-opacity="0.69"/><stop offset="0.77" stop-color="#9eb4de" stop-opacity="0.55"/><stop offset="0.85" stop-color="#91aad9" stop-opacity="0.38"/><stop offset="0.93" stop-color="#849fd3" stop-opacity="0.2"/><stop offset="1" stop-color="#7393cc" stop-opacity="0"/></radialGradient><radialGradient id="radial-gradient-23" cx="-1207.75" cy="1186.02" r="0.42" gradientTransform="matrix(0.25, -0.97, 0.96, 0.25, -741.63, -1368.6)" xlink:href="#radial-gradient-22"/><radialGradient id="radial-gradient-24" cx="92.04" cy="593.75" r="3.7" gradientTransform="translate(0 -500)" xlink:href="#radial-gradient-21"/><radialGradient id="radial-gradient-25" cx="108.45" cy="692.87" r="1.69" gradientTransform="translate(0 -491.54) scale(1 0.85)" gradientUnits="userSpaceOnUse"><stop offset="0" stop-color="#5676b9"/><stop offset="0.09" stop-color="#5776b9" stop-opacity="0.97"/><stop offset="0.23" stop-color="#5b79bb" stop-opacity="0.88"/><stop offset="0.4" stop-color="#5f7cbd" stop-opacity="0.74"/><stop offset="0.59" stop-color="#6583c1" stop-opacity="0.54"/><stop offset="0.79" stop-color="#6c8bc6" stop-opacity="0.28"/><stop offset="1" stop-color="#7393cc" stop-opacity="0"/></radialGradient><radialGradient id="radial-gradient-26" cx="-1156.99" cy="1157.65" r="8.01" gradientTransform="matrix(0.25, -0.97, 0.96, 0.25, -676.62, -1340.76)" xlink:href="#radial-gradient-19"/><radialGradient id="radial-gradient-27" cx="-292.38" cy="1401.98" r="5.18" gradientTransform="translate(508.22 -1014.38) scale(1.24 0.77)" xlink:href="#radial-gradient-20"/><radialGradient id="radial-gradient-28" cx="-1152.51" cy="1153.42" r="0.66" gradientTransform="matrix(0.25, -0.97, 0.96, 0.25, -669.23, -1339.59)" xlink:href="#radial-gradient-21"/><radialGradient id="radial-gradient-29" cx="-1151.43" cy="1154.32" r="0.24" gradientTransform="matrix(0.25, -0.97, 0.96, 0.25, -669.29, -1337.87)" xlink:href="#radial-gradient-22"/><radialGradient id="radial-gradient-30" cx="-1160.69" cy="1163.35" r="0.24" gradientTransform="matrix(0.25, -0.97, 0.96, 0.25, -684.83, -1340.06)" xlink:href="#radial-gradient-22"/><radialGradient id="radial-gradient-31" cx="140.48" cy="573.21" r="2.09" gradientTransform="translate(0 -500)" xlink:href="#radial-gradient-21"/><radialGradient id="radial-gradient-32" cx="149.75" cy="671.07" r="0.95" gradientTransform="translate(0 -494.7) scale(1 0.85)" xlink:href="#radial-gradient-25"/><radialGradient id="radial-gradient-33" cx="-1174.84" cy="1138.67" r="4.26" gradientTransform="matrix(0.25, -0.97, 0.96, 0.25, -671.81, -1372.25)" xlink:href="#radial-gradient-19"/><radialGradient id="radial-gradient-34" cx="-305.44" cy="1381.94" r="2.76" gradientTransform="translate(506.89 -1015.72) scale(1.24 0.77)" xlink:href="#radial-gradient-20"/><radialGradient id="radial-gradient-35" cx="-1172.46" cy="1136.42" r="0.35" gradientTransform="matrix(0.25, -0.97, 0.96, 0.25, -667.88, -1371.63)" xlink:href="#radial-gradient-21"/><radialGradient id="radial-gradient-36" cx="-1171.89" cy="1136.9" r="0.13" gradientTransform="matrix(0.25, -0.97, 0.96, 0.25, -667.91, -1370.71)" xlink:href="#radial-gradient-22"/><radialGradient id="radial-gradient-37" cx="-1176.81" cy="1141.71" r="0.13" gradientTransform="matrix(0.25, -0.97, 0.96, 0.25, -676.18, -1371.88)" xlink:href="#radial-gradient-22"/><radialGradient id="radial-gradient-38" cx="125.19" cy="552.86" r="1.11" gradientTransform="translate(0 -500)" xlink:href="#radial-gradient-21"/><radialGradient id="radial-gradient-39" cx="130.12" cy="649.95" r="0.51" gradientTransform="translate(0 -497.77) scale(1 0.85)" xlink:href="#radial-gradient-25"/><radialGradient id="radial-gradient-40" cx="-1129.44" cy="1209.83" r="9.35" gradientTransform="matrix(0.25, -0.97, 0.96, 0.25, -705.94, -1275.01)" xlink:href="#radial-gradient-19"/><radialGradient id="radial-gradient-41" cx="-273.51" cy="1461.1" r="6.05" gradientTransform="translate(512.2 -1008.57) scale(1.24 0.77)" xlink:href="#radial-gradient-20"/><radialGradient id="radial-gradient-42" cx="-1124.2" cy="1204.89" r="0.77" gradientTransform="matrix(0.25, -0.97, 0.96, 0.25, -697.31, -1273.65)" xlink:href="#radial-gradient-21"/><radialGradient id="radial-gradient-43" cx="-1122.94" cy="1205.94" r="0.28" gradientTransform="matrix(0.25, -0.97, 0.96, 0.25, -697.38, -1271.64)" xlink:href="#radial-gradient-22"/><radialGradient id="radial-gradient-44" cx="-1133.76" cy="1216.49" r="0.28" gradientTransform="matrix(0.25, -0.97, 0.96, 0.25, -715.53, -1274.2)" xlink:href="#radial-gradient-22"/><radialGradient id="radial-gradient-45" cx="167.11" cy="625.88" r="2.44" gradientTransform="translate(0 -500)" xlink:href="#radial-gradient-21"/><radialGradient id="radial-gradient-46" cx="177.94" cy="724.01" r="1.11" gradientTransform="translate(0 -487.01) scale(1 0.85)" xlink:href="#radial-gradient-25"/><radialGradient id="radial-gradient-47" cx="-1146.38" cy="1230.27" r="4.97" gradientTransform="matrix(0.25, -0.97, 0.96, 0.25, -738.12, -1276.09)" xlink:href="#radial-gradient-19"/><radialGradient id="radial-gradient-48" cx="-288.23" cy="1485.1" r="3.22" gradientTransform="translate(513.89 -1004.09) scale(1.24 0.77)" xlink:href="#radial-gradient-20"/><radialGradient id="radial-gradient-49" cx="-1143.6" cy="1227.64" r="0.41" gradientTransform="matrix(0.25, -0.97, 0.96, 0.25, -733.53, -1275.36)" xlink:href="#radial-gradient-21"/><radialGradient id="radial-gradient-50" cx="-1142.93" cy="1228.2" r="0.15" gradientTransform="matrix(0.25, -0.97, 0.96, 0.25, -733.57, -1274.29)" xlink:href="#radial-gradient-22"/><radialGradient id="radial-gradient-51" cx="-1148.68" cy="1233.81" r="0.15" gradientTransform="matrix(0.25, -0.97, 0.96, 0.25, -743.22, -1275.65)" xlink:href="#radial-gradient-22"/><radialGradient id="radial-gradient-52" cx="153.15" cy="644.71" r="1.3" gradientTransform="translate(0 -500)" xlink:href="#radial-gradient-21"/><radialGradient id="radial-gradient-53" cx="158.92" cy="741.95" r="0.59" gradientTransform="translate(0 -484.41) scale(1 0.85)" xlink:href="#radial-gradient-25"/></defs><polygon class="cls-2" points="14.66 251.22 3.06 257.65 214.13 257.65 232.06 244.52 232.03 242.03 14.66 251.22"/><path class="cls-3" d="M212.94,216.55l-.87-199.39c-12.06,5.92-64.22,5.92-80.7,5.92h-4c-1.27,0-2.53-.06-3.79-.11-1.43,0-2.86-.1-4.29-.16l-4.69-.21-5-.26-5.26-.29c-1.8-.1-3.61-.21-5.41-.33l-5.5-.35L88,21l-5.41-.4-5.23-.41-5-.42q-2.32-.2-4.65-.42l-4.23-.42-1.94-.2c-1-.15-1.9-.35-2.82-.59L58.16,18a26,26,0,0,0-7.35-.7l-1.24.08.22,199.21a9.81,9.81,0,0,0,6.76,12.12,10.5,10.5,0,0,0,2.68.37H203.5a9.81,9.81,0,0,0,9.81-9.81A10,10,0,0,0,212.94,216.55Z"/><path class="cls-4" d="M218.75,218.28V14.16c0,4.93-63.58,8.92-87.38,8.92h-3.6c-4.8-.07-9.59-.25-14.39-.47q-8.52-.39-17-1-8.76-.6-17.51-1.4c-5.3-.49-10.6-1-15.88-1.73C59.09,18,55.26,17,51.31,17s-7.63,1.67-11.44,2.5l-1,.2a20,20,0,0,1-3.84.59c-.46,0-.91.09-1.37.12-.22,0-.86-.06-1,.14s.24.62.36.76a5,5,0,0,0,.76.6c.33.25.67.47,1,.71l3.48,2.44L43.82,29l.17.11V218.28a11.52,11.52,0,0,0,8.06,14.17h0a12.06,12.06,0,0,0,3,.41H207.62a11.53,11.53,0,0,0,11.13-14.58Z"/><g class="cls-5"><path class="cls-6" d="M214,221.85c0-8.62-36.86-11.59-82.32-11.59s-82.32,3.3-82.32,11.92,8,6.88,82.32,7.57C202.18,230.4,214,230.47,214,221.85Z"/><rect class="cls-7" x="17.31" y="77.93" width="225.47" height="175.35"/></g><path class="cls-8" d="M218.75,14.16c0,4.93-63.58,8.92-87.38,8.92-4.59,0-9.17-.12-13.76-.28q-9.63-.35-19.26-.92-10.14-.61-20.27-1.47c-2.53-.22-5.06-.46-7.58-.7s-5.1-.54-7.72-.86c-1.25-.16-2.49-.36-3.71-.62s-2.48-.49-3.74-.66a21.81,21.81,0,0,0-7.12,0c-2.34.46-4.57,1.28-6.88,1.84a42.22,42.22,0,0,1-8.59,1.12,7.13,7.13,0,0,1,1.6-1.4,36,36,0,0,1,4.44-2.53c2.14-1.08,4.26-2.37,6.46-3.41A29.52,29.52,0,0,1,52.67,11c4.45-.82,8.94-1.38,13.42-1.88C71.71,8.43,77.33,7.93,83,7.48q9-.71,18-1.21,8.43-.48,16.9-.78c4.49-.15,9-.27,13.49-.27C155.17,5.25,218.75,9.24,218.75,14.16Z"/><g class="cls-9"><path class="cls-10" d="M198.53,146.29a4.22,4.22,0,0,1-4.14-3.36V77.86a4.08,4.08,0,0,1-.13-.91V37.81a4.23,4.23,0,1,1,8.46,0h0V76.55l-.09,64.64a4.24,4.24,0,0,1-3.27,5A4.82,4.82,0,0,1,198.53,146.29Z"/></g><g class="cls-11"><path class="cls-12" d="M63.12,168.2a4.66,4.66,0,0,1-5.67-3.32,4.57,4.57,0,0,1-.14-1.22L58,56a4.66,4.66,0,0,1,9.31.06l-.7,107.73A4.66,4.66,0,0,1,63.12,168.2Z"/></g><circle class="cls-13" cx="199.46" cy="155.35" r="4.23"/><circle class="cls-14" cx="199.46" cy="82.17" r="4.23"/><circle class="cls-15" cx="64.69" cy="112.84" r="13.58"/><circle class="cls-16" cx="64.52" cy="162.62" r="0.45"/><circle class="cls-17" cx="64.5" cy="166.49" r="0.45"/><circle class="cls-18" cx="64.51" cy="164.34" r="3.4"/><line class="cls-1" x1="64.65" y1="123.57" x2="64.5" y2="166.49"/><circle class="cls-19" cx="64.65" cy="123.57" r="9.05"/><circle class="cls-20" cx="64.65" cy="123.57" r="4.53"/><circle class="cls-21" cx="64.65" cy="123.57" r="3.77"/><polyline class="cls-22" points="64.64 123.57 66.69 138.3 64.64 123.57 62.62 108.84 64.64 123.57 49.91 125.61 64.64 123.57 79.39 121.54 64.64 123.57 72.25 141.23 64.64 123.57 57.05 105.91 64.64 123.57 46.98 131.17 64.64 123.57 82.31 115.98 64.64 123.57 78.31 135.75 64.64 123.57 50.99 111.39 64.64 123.57 52.47 137.23 64.64 123.57 76.83 109.92 64.64 123.57 65.56 136.32 64.64 123.57 63.73 110.83 64.64 123.57 51.91 124.49 64.64 123.57 77.39 122.66 64.64 123.57 64.98 125.05 64.64 123.57 64.31 122.1 64.64 123.57 63.17 123.91 64.64 123.57 66.13 123.23 64.64 123.57 60.38 142.39 64.64 123.57 68.92 104.75 64.64 123.57 45.83 119.31 64.64 123.57 83.47 127.84 64.64 123.57 62.27 129.84 64.64 123.57 67.03 117.3 64.64 123.57 58.38 121.19 64.64 123.57 70.92 125.96 64.64 123.57 68.03 127.27 64.64 123.57 61.26 119.87 64.64 123.57 60.95 126.96 64.64 123.57 68.34 120.18 64.64 123.57 85.3 132.74 64.64 123.57 44.01 114.4 64.64 123.57 55.48 144.22 64.64 123.57 73.81 102.93 64.64 123.57 73.72 140.05 64.64 123.57 55.59 107.09 64.64 123.57 48.16 132.64 64.64 123.57 81.13 114.51 64.64 123.57 74.31 143.17 64.64 123.57 54.98 103.98 64.64 123.57 45.05 133.24 64.64 123.57 84.25 113.9 64.64 123.57 67.52 126.8 64.64 123.57 61.78 120.34 64.64 123.57 61.41 126.44 64.64 123.57 67.88 120.71 64.64 123.57 78.86 130.08 64.64 123.57 50.44 117.06 64.64 123.57 58.13 137.79 64.64 123.57 71.17 109.36 64.64 123.57 63.81 140.27 64.64 123.57 65.47 106.87 64.64 123.57 47.95 122.74 64.64 123.57 81.34 124.4 64.64 123.57 69.53 136.35 64.64 123.57 59.77 110.79 64.64 123.57 51.87 128.45 64.64 123.57 77.42 118.7"/><circle class="cls-23" cx="64.5" cy="166.49" r="6.79"/><circle class="cls-24" cx="64.53" cy="158.2" r="1.93"/><circle class="cls-25" cx="64.61" cy="135.83" r="1.08"/><circle class="cls-26" cx="64.56" cy="149.48" r="0.71"/><circle class="cls-27" cx="64.55" cy="151.64" r="1"/><circle class="cls-28" cx="64.53" cy="157.78" r="1.86"/><circle class="cls-29" cx="71.53" cy="20.65" r="7"/><path class="cls-30" d="M208.65,213V80h0c0,4.75-55.69,8.6-77.27,8.6S54.09,84.7,54.09,80h0V213c.07,5.91,2.77,11.84,8.94,11.84H199.71C205.88,224.86,208.72,218.81,208.65,213Z"/><g class="cls-31"><path class="cls-32" d="M136,114.22c-18.68,1.5-37.42,2.26-56.1,3.8-20,1.63-41.8,7.14-57.54,20.19l-.44.38c-8.76,7.43-16,18-15.41,29.46.44,9,5.68,17.24,12.52,23.09s15.23,9.61,23.58,12.92c48.7,19.22,104.27,25.27,153.43,7.27,9.88-3.62,19.53-8.23,27.68-14.89s14.79-15.49,17.54-25.66c2.81-10.48,1.31-21.89-3.26-31.73-4.33-9.32-11.15-16.48-14-26.61-.53-1.88-1.11-4-2.76-5a7.37,7.37,0,0,0-3.74-.85c-21.64-1-42.53,3.5-63.88,5.94C147.76,113.19,141.88,113.74,136,114.22Z"/><path class="cls-33" d="M131.13,154.12c-18.42,3.47-37,6.22-55.38,9.72C56,167.59,34.94,175.38,20.68,190l-.41.42c-7.92,8.32-14,19.58-12.2,30.93,1.4,8.9,7.48,16.54,14.91,21.63S39.11,251,47.79,253.35c50.46,14,106.36,14.08,153.33-9,9.45-4.65,18.55-10.26,25.95-17.74s13.06-17,14.7-27.37c1.69-10.72-1-21.9-6.6-31.2-5.3-8.81-12.83-15.21-16.72-25-.72-1.82-1.52-3.82-3.27-4.69a7.41,7.41,0,0,0-3.81-.45c-21.62,1.3-41.91,8-62.89,12.68Q139.83,152.48,131.13,154.12Z"/></g><path class="cls-34" d="M208.65,80c0,4.75-55.69,8.6-77.27,8.6S54.09,84.7,54.09,80s55.71-8.59,77.29-8.59S208.65,75.2,208.65,80Z"/><g class="cls-35"><circle class="cls-36" cx="101.74" cy="88.54" r="14.91"/><ellipse class="cls-37" cx="101.57" cy="80.12" rx="9.99" ry="6.03" transform="translate(-6.07 8.36) rotate(-4.57)"/><circle class="cls-38" cx="109.67" cy="81.05" r="1.22"/><circle class="cls-39" cx="111.58" cy="82.66" r="0.44"/><circle class="cls-40" cx="95.19" cy="98.64" r="0.44"/><path class="cls-41" d="M89.88,89.63c-.15,2.88,1.58,7,4.34,8.25"/><circle class="cls-42" cx="108.45" cy="96.65" r="1.36"/></g><g class="cls-35"><circle class="cls-43" cx="145.96" cy="70.26" r="8.43"/><ellipse class="cls-44" cx="145.36" cy="65.61" rx="5.63" ry="3.4" transform="translate(-4.56 11.21) rotate(-4.35)"/><circle class="cls-45" cx="150.44" cy="66.03" r="0.69"/><circle class="cls-46" cx="151.52" cy="66.94" r="0.25"/><circle class="cls-47" cx="142.26" cy="75.97" r="0.25"/><path class="cls-48" d="M139.26,70.88c-.08,1.63.9,4,2.46,4.66"/><circle class="cls-49" cx="149.75" cy="74.85" r="0.77"/></g><g class="cls-35"><circle class="cls-50" cx="128.1" cy="51.29" r="4.48"/><ellipse class="cls-51" cx="127.79" cy="48.81" rx="3" ry="1.81" transform="translate(-3.33 9.83) rotate(-4.35)"/><circle class="cls-52" cx="130.49" cy="49.04" r="0.37"/><circle class="cls-53" cx="131.06" cy="49.52" r="0.13"/><circle class="cls-54" cx="126.13" cy="54.32" r="0.13"/><path class="cls-55" d="M124.53,51.62a2.81,2.81,0,0,0,1.31,2.48"/><circle class="cls-56" cx="130.12" cy="53.73" r="0.41"/></g><g class="cls-57"><circle class="cls-58" cx="173.51" cy="122.44" r="9.84"/><ellipse class="cls-59" cx="172.82" cy="117" rx="6.58" ry="3.96" transform="translate(-8.38 13.45) rotate(-4.35)"/><circle class="cls-60" cx="178.74" cy="117.5" r="0.81"/><circle class="cls-61" cx="180" cy="118.56" r="0.29"/><circle class="cls-62" cx="169.19" cy="129.1" r="0.29"/><path class="cls-63" d="M165.68,123.16c-.1,1.9,1,4.64,2.87,5.44"/><circle class="cls-64" cx="177.94" cy="127.79" r="0.89"/></g><g class="cls-57"><circle class="cls-65" cx="156.56" cy="142.88" r="5.23"/><ellipse class="cls-66" cx="156.2" cy="139.98" rx="3.5" ry="2.11" transform="translate(-10.17 12.25) rotate(-4.35)"/><circle class="cls-67" cx="159.35" cy="140.25" r="0.43"/><circle class="cls-68" cx="160.02" cy="140.82" r="0.16"/><circle class="cls-69" cx="154.27" cy="146.43" r="0.16"/><path class="cls-70" d="M152.4,143.26a3.23,3.23,0,0,0,1.52,2.9"/><circle class="cls-71" cx="158.92" cy="145.73" r="0.48"/></g><polygon class="cls-72" points="225.41 172.06 29.84 172.06 14.66 251.22 210.22 251.22 225.41 172.06"/><polygon class="cls-73" points="225.41 172.06 232.03 242.03 229.41 244.07 214.43 244.24 213.31 248.79 210.22 251.22 225.41 172.06"/></svg>