<svg id="Layer_1" data-name="Layer 1" xmlns="http://www.w3.org/2000/svg" xmlns:xlink="http://www.w3.org/1999/xlink" viewBox="0 0 235.13 262.86"><defs><style>.cls-1,.cls-22,.cls-41,.cls-48,.cls-55,.cls-63,.cls-70{fill:none;}.cls-2{fill:#683d14;fill-opacity:0.51;}.cls-3{fill:url(#linear-gradient);}.cls-4,.cls-8{opacity:0.72;}.cls-13,.cls-14,.cls-15,.cls-18,.cls-19,.cls-20,.cls-22,.cls-23,.cls-30,.cls-32,.cls-33,.cls-34,.cls-4,.cls-7,.cls-8{isolation:isolate;}.cls-4{fill:url(#linear-gradient-2);}.cls-5{clip-path:url(#clip-path);}.cls-6{fill:url(#linear-gradient-3);}.cls-7{opacity:0.42;fill:url(#linear-gradient-4);}.cls-8{fill:url(#linear-gradient-5);}.cls-9{opacity:0.54;}.cls-10{fill:url(#radial-gradient);}.cls-11,.cls-30,.cls-34{opacity:0.8;}.cls-12{fill:url(#radial-gradient-2);}.cls-13,.cls-14,.cls-20,.cls-23{opacity:0.5;}.cls-13{fill:url(#radial-gradient-3);}.cls-14{fill:url(#radial-gradient-4);}.cls-15{opacity:0.25;fill:url(#radial-gradient-5);}.cls-16{fill:url(#radial-gradient-6);}.cls-17{fill:url(#radial-gradient-7);}.cls-18,.cls-57{opacity:0.2;}.cls-18{fill:url(#radial-gradient-8);}.cls-19{opacity:0.15;fill:url(#radial-gradient-9);}.cls-20{fill:url(#radial-gradient-10);}.cls-21{fill:url(#radial-gradient-11);}.cls-22{stroke:#fff;stroke-width:1.69px;opacity:0.03;}.cls-22,.cls-34{stroke-miterlimit:10;}.cls-23{fill:url(#radial-gradient-12);}.cls-24{fill:url(#radial-gradient-13);}.cls-25{fill:url(#radial-gradient-14);}.cls-26{fill:url(#radial-gradient-15);}.cls-27{fill:url(#radial-gradient-16);}.cls-28{fill:url(#radial-gradient-17);}.cls-29{fill:url(#radial-gradient-18);}.cls-30{fill:url(#linear-gradient-6);}.cls-31{clip-path:url(#clip-path-2);}.cls-32,.cls-33,.cls-35{opacity:0.3;}.cls-32{fill:url(#linear-gradient-7);}.cls-33{fill:url(#linear-gradient-8);}.cls-34,.cls-41{stroke-width:0.85px;}.cls-34{fill:url(#linear-gradient-9);stroke:url(#linear-gradient-10);}.cls-36{fill:url(#radial-gradient-19);}.cls-37{fill:url(#radial-gradient-20);}.cls-38{fill:url(#radial-gradient-21);}.cls-39{fill:url(#radial-gradient-22);}.cls-40{fill:url(#radial-gradient-23);}.cls-41,.cls-48,.cls-55,.cls-63,.cls-70{stroke-linecap:round;stroke-linejoin:round;}.cls-41{stroke:url(#radial-gradient-24);}.cls-42{fill:url(#radial-gradient-25);}.cls-43{fill:url(#radial-gradient-26);}.cls-44{fill:url(#radial-gradient-27);}.cls-45{fill:url(#radial-gradient-28);}.cls-46{fill:url(#radial-gradient-29);}.cls-47{fill:url(#radial-gradient-30);}.cls-48{stroke-width:0.48px;stroke:url(#radial-gradient-31);}.cls-49{fill:url(#radial-gradient-32);}.cls-50{fill:url(#radial-gradient-33);}.cls-51{fill:url(#radial-gradient-34);}.cls-52{fill:url(#radial-gradient-35);}.cls-53{fill:url(#radial-gradient-36);}.cls-54{fill:url(#radial-gradient-37);}.cls-55{stroke-width:0.25px;stroke:url(#radial-gradient-38);}.cls-56{fill:url(#radial-gradient-39);}.cls-58{fill:url(#radial-gradient-40);}.cls-59{fill:url(#radial-gradient-41);}.cls-60{fill:url(#radial-gradient-42);}.cls-61{fill:url(#radial-gradient-43);}.cls-62{fill:url(#radial-gradient-44);}.cls-63{stroke-width:0.56px;stroke:url(#radial-gradient-45);}.cls-64{fill:url(#radial-gradient-46);}.cls-65{fill:url(#radial-gradient-47);}.cls-66{fill:url(#radial-gradient-48);}.cls-67{fill:url(#radial-gradient-49);}.cls-68{fill:url(#radial-gradient-50);}.cls-69{fill:url(#radial-gradient-51);}.cls-70{stroke-width:0.3px;stroke:url(#radial-gradient-52);}.cls-71{fill:url(#radial-gradient-53);}.cls-72{fill:#fff;}.cls-73{fill:#c7c6c6;}</style><linearGradient id="linear-gradient" x1="143.81" y1="519.98" x2="121.51" y2="701.59" gradientTransform="translate(0 -500)" gradientUnits="userSpaceOnUse"><stop offset="0" stop-color="#c0c5c8"/><stop offset="1" stop-color="#b0c2c9"/></linearGradient><linearGradient id="linear-gradient-2" x1="77.52" y1="623.82" x2="171.9" y2="623.82" gradientTransform="translate(0 -500)" gradientUnits="userSpaceOnUse"><stop offset="0" stop-color="#f6fbff"/><stop offset="0.63" stop-color="#e9f1f6"/><stop offset="1" stop-color="#c5dae1"/></linearGradient><clipPath id="clip-path"><path class="cls-1" d="M219,218.59V14.47c0,4.93-63.58,8.92-87.38,8.92H128c-4.79-.07-9.59-.25-14.39-.47q-8.5-.39-17-1-8.77-.6-17.52-1.4c-5.3-.49-10.6-1-15.88-1.73-3.86-.53-7.73-1.53-11.67-1.44S43.9,19,40.09,19.85l-1,.2a20,20,0,0,1-3.84.59l-1.36.12c-.23,0-.87-.06-1,.14s.24.62.37.76a5.48,5.48,0,0,0,.75.6c.33.25.67.47,1,.71l3.44,2.44L44,29.35l.16.11V218.59a11.54,11.54,0,0,0,8.09,14.17,11.77,11.77,0,0,0,3.07.41h152.5A11.53,11.53,0,0,0,219,218.59Z"/></clipPath><linearGradient id="linear-gradient-3" x1="92.93" y1="622.2" x2="144.11" y2="754.37" gradientTransform="translate(0 -500)" gradientUnits="userSpaceOnUse"><stop offset="0" stop-color="#f5f5f5"/><stop offset="1" stop-color="#c3d1d6"/></linearGradient><linearGradient id="linear-gradient-4" x1="71.49" y1="665.91" x2="185.59" y2="665.91" gradientTransform="translate(0 -500)" gradientUnits="userSpaceOnUse"><stop offset="0" stop-color="#15aebc"/><stop offset="1" stop-color="#6bc5d7"/></linearGradient><linearGradient id="linear-gradient-5" x1="125.96" y1="496.64" x2="125.96" y2="523.21" xlink:href="#linear-gradient-2"/><radialGradient id="radial-gradient" cx="-702.48" cy="-8131.79" r="64.7" gradientTransform="matrix(0.01, 1, -0.12, 0, -761.42, 789.9)" gradientUnits="userSpaceOnUse"><stop offset="0" stop-color="#e6f3fc"/><stop offset="1" stop-color="#bacae9" stop-opacity="0"/></radialGradient><radialGradient id="radial-gradient-2" cx="-2752.25" cy="6464.91" r="54.33" gradientTransform="matrix(0.01, -1, 0.16, 0, -951.4, -2642.02)" xlink:href="#radial-gradient"/><radialGradient id="radial-gradient-3" cx="199.78" cy="655.68" r="3.83" gradientTransform="translate(0 -500)" xlink:href="#radial-gradient"/><radialGradient id="radial-gradient-4" cx="199.78" cy="582.5" r="3.83" gradientTransform="translate(0 -500)" xlink:href="#radial-gradient"/><radialGradient id="radial-gradient-5" cx="-2017.99" cy="320.29" r="13.58" gradientTransform="translate(1896.51 -792.43) rotate(-17.29)" gradientUnits="userSpaceOnUse"><stop offset="0.1" stop-color="#010101"/><stop offset="0.11" stop-color="#070706"/><stop offset="0.16" stop-color="#221d12"/><stop offset="0.22" stop-color="#392e16"/><stop offset="0.28" stop-color="#4a3a17"/><stop offset="0.37" stop-color="#564318"/><stop offset="0.48" stop-color="#5c4918"/><stop offset="0.8" stop-color="#5f4a17"/><stop offset="1" stop-color="#010101"/></radialGradient><radialGradient id="radial-gradient-6" cx="-2032.95" cy="367.77" r="0.45" gradientTransform="translate(1896.51 -792.42) rotate(-17.29)" gradientUnits="userSpaceOnUse"><stop offset="0" stop-color="#d5e195"/><stop offset="0.06" stop-color="#b1bb79"/><stop offset="0.14" stop-color="#868f5f"/><stop offset="0.22" stop-color="#646946"/><stop offset="0.31" stop-color="#454930"/><stop offset="0.4" stop-color="#2c2f1f"/><stop offset="0.51" stop-color="#191a13"/><stop offset="0.62" stop-color="#0b0c0a"/><stop offset="0.76" stop-color="#020404"/><stop offset="1" stop-color="#010101"/></radialGradient><radialGradient id="radial-gradient-7" cx="-2034.11" cy="371.46" r="0.45" gradientTransform="translate(1896.51 -792.43) rotate(-17.29)" xlink:href="#radial-gradient-6"/><radialGradient id="radial-gradient-8" cx="-2030.74" cy="373.57" r="3.4" gradientTransform="matrix(0.95, -0.3, 0.3, 0.95, 1889.56, -790.6)" gradientUnits="userSpaceOnUse"><stop offset="0.05" stop-color="#010101"/><stop offset="0.09" stop-color="#070b08"/><stop offset="0.3" stop-color="#1f341c"/><stop offset="0.48" stop-color="#265325"/><stop offset="0.64" stop-color="#30672c"/><stop offset="0.75" stop-color="#336e2e"/><stop offset="0.79" stop-color="#506f2a"/><stop offset="0.83" stop-color="#717021"/><stop offset="0.86" stop-color="#7f701b"/><stop offset="0.89" stop-color="#7a6d1c"/><stop offset="0.91" stop-color="#71641b"/><stop offset="0.94" stop-color="#5e5419"/><stop offset="0.96" stop-color="#433d18"/><stop offset="0.98" stop-color="#232114"/><stop offset="1" stop-color="#010101"/></radialGradient><radialGradient id="radial-gradient-9" cx="-2018.48" cy="334.68" r="9.05" gradientTransform="matrix(0.95, -0.3, 0.3, 0.95, 1889.56, -790.6)" gradientUnits="userSpaceOnUse"><stop offset="0" stop-color="#1d090a"/><stop offset="0.73" stop-color="#994123"/><stop offset="1" stop-color="#1d090a"/></radialGradient><radialGradient id="radial-gradient-10" cx="-2018.48" cy="334.68" r="4.53" gradientTransform="matrix(0.95, -0.3, 0.3, 0.95, 1889.56, -790.6)" gradientUnits="userSpaceOnUse"><stop offset="0.15" stop-color="#fff"/><stop offset="0.21" stop-color="#e5d3d3"/><stop offset="0.29" stop-color="#c49c9e"/><stop offset="0.36" stop-color="#ad7477"/><stop offset="0.42" stop-color="#9f5d60"/><stop offset="0.45" stop-color="#9a5457"/><stop offset="0.57" stop-color="#6b3436"/><stop offset="0.69" stop-color="#431719"/><stop offset="0.79" stop-color="#270d0e"/><stop offset="0.85" stop-color="#1d090a"/><stop offset="0.86" stop-color="#210a0a"/><stop offset="0.86" stop-color="#300f0e"/><stop offset="0.87" stop-color="#461410"/><stop offset="0.88" stop-color="#641e11"/><stop offset="0.89" stop-color="#8b2e19"/><stop offset="0.9" stop-color="#b84323"/><stop offset="0.9" stop-color="#d34f29"/><stop offset="0.9" stop-color="#c94928"/><stop offset="0.91" stop-color="#9d371d"/><stop offset="0.93" stop-color="#772615"/><stop offset="0.94" stop-color="#591a10"/><stop offset="0.95" stop-color="#3e130f"/><stop offset="0.97" stop-color="#2b0e0d"/><stop offset="0.98" stop-color="#1f090b"/><stop offset="1" stop-color="#1d090a"/></radialGradient><radialGradient id="radial-gradient-11" cx="-2018.48" cy="334.68" r="3.77" gradientTransform="matrix(0.95, -0.3, 0.3, 0.95, 1889.56, -790.6)" gradientUnits="userSpaceOnUse"><stop offset="0.15" stop-color="#fff"/><stop offset="0.28" stop-color="#c3c2c2"/><stop offset="0.43" stop-color="#878889"/><stop offset="0.56" stop-color="#585858"/><stop offset="0.69" stop-color="#323232"/><stop offset="0.81" stop-color="#161617"/><stop offset="0.92" stop-color="#050606"/><stop offset="1" stop-color="#010101"/></radialGradient><radialGradient id="radial-gradient-12" cx="-2031.38" cy="375.62" r="6.79" gradientTransform="matrix(0.95, -0.3, 0.3, 0.95, 1889.56, -790.6)" gradientUnits="userSpaceOnUse"><stop offset="0.64" stop-color="#010101"/><stop offset="0.72" stop-color="#010302"/><stop offset="0.75" stop-color="#060908"/><stop offset="0.77" stop-color="#0c140e"/><stop offset="0.78" stop-color="#132517"/><stop offset="0.8" stop-color="#1b3b1d"/><stop offset="0.8" stop-color="#1c431f"/><stop offset="0.81" stop-color="#212c19"/><stop offset="0.83" stop-color="#2c190f"/><stop offset="0.85" stop-color="#33110d"/><stop offset="0.86" stop-color="#35100f"/><stop offset="0.87" stop-color="#200a0a"/><stop offset="0.89" stop-color="#100606"/><stop offset="0.9" stop-color="#050303"/><stop offset="0.93" stop-color="#020102"/><stop offset="1" stop-color="#010101"/></radialGradient><radialGradient id="radial-gradient-13" cx="-2028.89" cy="367.71" r="1.93" gradientTransform="matrix(0.95, -0.3, 0.3, 0.95, 1889.56, -790.6)" gradientUnits="userSpaceOnUse"><stop offset="0.1" stop-color="#010101"/><stop offset="0.25" stop-color="#1a130c"/><stop offset="0.43" stop-color="#352413"/><stop offset="0.61" stop-color="#483014"/><stop offset="0.8" stop-color="#533613"/><stop offset="1" stop-color="#573812"/></radialGradient><radialGradient id="radial-gradient-14" cx="-2022.17" cy="346.37" r="1.08" gradientTransform="matrix(0.95, -0.3, 0.3, 0.95, 1889.56, -790.6)" gradientUnits="userSpaceOnUse"><stop offset="0.1" stop-color="#1a301d"/><stop offset="0.23" stop-color="#142318"/><stop offset="0.48" stop-color="#0a0f0c"/><stop offset="0.73" stop-color="#030404"/><stop offset="1" stop-color="#010101"/></radialGradient><radialGradient id="radial-gradient-15" cx="64.78" cy="860.2" r="0.71" gradientTransform="matrix(1, 0, 0, -1, 0, 1009.99)" xlink:href="#radial-gradient-13"/><radialGradient id="radial-gradient-16" cx="-2029.65" cy="357.29" r="1" gradientTransform="translate(1896.5 -792.43) rotate(-17.29)" gradientUnits="userSpaceOnUse"><stop offset="0.1" stop-color="#010101"/><stop offset="0.29" stop-color="#151711"/><stop offset="0.52" stop-color="#262a1b"/><stop offset="0.75" stop-color="#313523"/><stop offset="1" stop-color="#333824"/></radialGradient><radialGradient id="radial-gradient-17" cx="-2029.05" cy="347.14" r="1.86" gradientTransform="matrix(1, 0, 0, -1, 0, 1009.99)" xlink:href="#radial-gradient-14"/><radialGradient id="radial-gradient-18" cx="71.76" cy="520.96" r="7" gradientTransform="translate(0 -500)" gradientUnits="userSpaceOnUse"><stop offset="0" stop-color="#fff"/><stop offset="1" stop-color="#bacae9" stop-opacity="0"/></radialGradient><linearGradient id="linear-gradient-6" x1="191.59" y1="728.93" x2="73.49" y2="572.41" xlink:href="#linear-gradient-4"/><clipPath id="clip-path-2"><path class="cls-1" d="M208.87,213.33V80.26h0c0,4.75-55.69,8.6-77.27,8.6S54.34,85,54.34,80.26h0V213.33c.07,5.91,2.77,11.84,8.94,11.84H199.93C206.1,225.17,208.94,219.12,208.87,213.33Z"/></clipPath><linearGradient id="linear-gradient-7" x1="288.25" y1="675.58" x2="41.21" y2="652.6" xlink:href="#linear-gradient-4"/><linearGradient id="linear-gradient-8" x1="7.96" y1="700.7" x2="242.54" y2="700.7" xlink:href="#linear-gradient-4"/><linearGradient id="linear-gradient-9" x1="268.84" y1="580.26" x2="85.7" y2="580.26" xlink:href="#linear-gradient-4"/><linearGradient id="linear-gradient-10" x1="53.91" y1="580.26" x2="209.29" y2="580.26" gradientTransform="translate(0 -500)" gradientUnits="userSpaceOnUse"><stop offset="0" stop-color="#6ec7e2"/><stop offset="1" stop-color="#6bc5d7"/></linearGradient><radialGradient id="radial-gradient-19" cx="-786.09" cy="1499.33" r="14.17" gradientTransform="matrix(0.25, -0.97, 0.96, 0.25, -1141.11, -1047.72)" gradientUnits="userSpaceOnUse"><stop offset="0" stop-color="#4cbcbe" stop-opacity="0.8"/><stop offset="0.3" stop-color="#50bcbf" stop-opacity="0.8"/><stop offset="0.52" stop-color="#5dc0c5" stop-opacity="0.8"/><stop offset="0.72" stop-color="#72c6cd" stop-opacity="0.8"/><stop offset="0.91" stop-color="#8ccfd9" stop-opacity="0.81"/><stop offset="1" stop-color="#9bd5e1" stop-opacity="0.81"/></radialGradient><radialGradient id="radial-gradient-20" cx="-72.1" cy="1194.25" r="9.18" gradientTransform="translate(190.97 -842.43) scale(1.24 0.77)" gradientUnits="userSpaceOnUse"><stop offset="0" stop-color="#58c3e8"/><stop offset="0.38" stop-color="#58c3e8" stop-opacity="0.99"/><stop offset="0.52" stop-color="#58c3e7" stop-opacity="0.96"/><stop offset="0.61" stop-color="#5ac3e8" stop-opacity="0.91"/><stop offset="0.69" stop-color="#5ac3e7" stop-opacity="0.84"/><stop offset="0.76" stop-color="#5ec4e5" stop-opacity="0.75"/><stop offset="0.82" stop-color="#62c5e3" stop-opacity="0.63"/><stop offset="0.87" stop-color="#66c5e1" stop-opacity="0.49"/><stop offset="0.92" stop-color="#69c6e0" stop-opacity="0.33"/><stop offset="0.97" stop-color="#6ec7dd" stop-opacity="0.16"/><stop offset="1" stop-color="#72c8dc" stop-opacity="0"/></radialGradient><radialGradient id="radial-gradient-21" cx="-778.15" cy="1491.85" r="1.16" gradientTransform="matrix(0.25, -0.97, 0.96, 0.25, -1128.04, -1045.65)" gradientUnits="userSpaceOnUse"><stop offset="0" stop-color="#c2e2eb"/><stop offset="0.38" stop-color="#c1e2eb" stop-opacity="0.99"/><stop offset="0.52" stop-color="#c0e2ea" stop-opacity="0.96"/><stop offset="0.61" stop-color="#bce1ea" stop-opacity="0.91"/><stop offset="0.69" stop-color="#b6dfe9" stop-opacity="0.84"/><stop offset="0.76" stop-color="#addbe7" stop-opacity="0.75"/><stop offset="0.82" stop-color="#a5d8e5" stop-opacity="0.63"/><stop offset="0.87" stop-color="#9ad5e2" stop-opacity="0.49"/><stop offset="0.92" stop-color="#8ed1e1" stop-opacity="0.33"/><stop offset="0.97" stop-color="#7eccdd" stop-opacity="0.16"/><stop offset="1" stop-color="#72c8dc" stop-opacity="0"/></radialGradient><radialGradient id="radial-gradient-22" cx="-776.25" cy="1493.45" r="0.42" gradientTransform="matrix(0.25, -0.97, 0.96, 0.25, -1128.15, -1042.61)" gradientUnits="userSpaceOnUse"><stop offset="0" stop-color="#c2e2eb"/><stop offset="0.22" stop-color="#c1e2eb" stop-opacity="0.99"/><stop offset="0.36" stop-color="#bee1ea" stop-opacity="0.95"/><stop offset="0.48" stop-color="#bae0e9" stop-opacity="0.89"/><stop offset="0.58" stop-color="#b2dee8" stop-opacity="0.8"/><stop offset="0.68" stop-color="#a9dae6" stop-opacity="0.69"/><stop offset="0.77" stop-color="#9ed6e3" stop-opacity="0.55"/><stop offset="0.85" stop-color="#92d2e2" stop-opacity="0.38"/><stop offset="0.93" stop-color="#83cddf" stop-opacity="0.2"/><stop offset="1" stop-color="#72c8dc" stop-opacity="0"/></radialGradient><radialGradient id="radial-gradient-23" cx="-792.63" cy="1509.43" r="0.42" gradientTransform="matrix(0.25, -0.97, 0.96, 0.25, -1155.65, -1046.48)" xlink:href="#radial-gradient-22"/><radialGradient id="radial-gradient-24" cx="92.26" cy="594.06" r="3.7" gradientTransform="translate(0 -500)" xlink:href="#radial-gradient-21"/><radialGradient id="radial-gradient-25" cx="108.67" cy="617.25" r="1.69" gradientTransform="translate(0 -426.95) scale(1 0.85)" gradientUnits="userSpaceOnUse"><stop offset="0" stop-color="#58c3e8"/><stop offset="0.09" stop-color="#58c3e8" stop-opacity="0.97"/><stop offset="0.23" stop-color="#5ac3e7" stop-opacity="0.88"/><stop offset="0.4" stop-color="#5ec4e5" stop-opacity="0.74"/><stop offset="0.59" stop-color="#64c5e2" stop-opacity="0.54"/><stop offset="0.79" stop-color="#6bc6df" stop-opacity="0.28"/><stop offset="1" stop-color="#72c8dc" stop-opacity="0"/></radialGradient><radialGradient id="radial-gradient-26" cx="-741.87" cy="1481.06" r="8.01" gradientTransform="matrix(0.25, -0.97, 0.96, 0.25, -1090.64, -1018.64)" xlink:href="#radial-gradient-19"/><radialGradient id="radial-gradient-27" cx="-33.3" cy="1177.01" r="5.18" gradientTransform="translate(186.23 -840.74) scale(1.24 0.77)" xlink:href="#radial-gradient-20"/><radialGradient id="radial-gradient-28" cx="-737.39" cy="1476.83" r="0.66" gradientTransform="matrix(0.25, -0.97, 0.96, 0.25, -1083.25, -1017.47)" xlink:href="#radial-gradient-21"/><radialGradient id="radial-gradient-29" cx="-736.31" cy="1477.73" r="0.24" gradientTransform="matrix(0.25, -0.97, 0.96, 0.25, -1083.31, -1015.75)" xlink:href="#radial-gradient-22"/><radialGradient id="radial-gradient-30" cx="-745.57" cy="1486.76" r="0.24" gradientTransform="matrix(0.25, -0.97, 0.96, 0.25, -1098.86, -1017.94)" xlink:href="#radial-gradient-22"/><radialGradient id="radial-gradient-31" cx="140.7" cy="573.52" r="2.09" gradientTransform="translate(0 -500)" xlink:href="#radial-gradient-21"/><radialGradient id="radial-gradient-32" cx="149.97" cy="595.45" r="0.95" gradientTransform="translate(0 -430.11) scale(1 0.85)" xlink:href="#radial-gradient-25"/><radialGradient id="radial-gradient-33" cx="-759.72" cy="1462.08" r="4.26" gradientTransform="matrix(0.25, -0.97, 0.96, 0.25, -1085.83, -1050.13)" xlink:href="#radial-gradient-19"/><radialGradient id="radial-gradient-34" cx="-46.36" cy="1156.96" r="2.76" gradientTransform="translate(184.89 -842.08) scale(1.24 0.77)" xlink:href="#radial-gradient-20"/><radialGradient id="radial-gradient-35" cx="-757.34" cy="1459.83" r="0.35" gradientTransform="matrix(0.25, -0.97, 0.96, 0.25, -1081.9, -1049.51)" xlink:href="#radial-gradient-21"/><radialGradient id="radial-gradient-36" cx="-756.76" cy="1460.31" r="0.13" gradientTransform="matrix(0.25, -0.97, 0.96, 0.25, -1081.93, -1048.59)" xlink:href="#radial-gradient-22"/><radialGradient id="radial-gradient-37" cx="-761.69" cy="1465.12" r="0.13" gradientTransform="matrix(0.25, -0.97, 0.96, 0.25, -1090.2, -1049.76)" xlink:href="#radial-gradient-22"/><radialGradient id="radial-gradient-38" cx="125.41" cy="553.17" r="1.11" gradientTransform="translate(0 -500)" xlink:href="#radial-gradient-21"/><radialGradient id="radial-gradient-39" cx="130.34" cy="574.33" r="0.51" gradientTransform="translate(0 -433.18) scale(1 0.85)" xlink:href="#radial-gradient-25"/><radialGradient id="radial-gradient-40" cx="-714.32" cy="1533.24" r="9.35" gradientTransform="matrix(0.25, -0.97, 0.96, 0.25, -1119.96, -952.89)" xlink:href="#radial-gradient-19"/><radialGradient id="radial-gradient-41" cx="-14.43" cy="1236.13" r="6.05" gradientTransform="translate(190.2 -834.92) scale(1.24 0.77)" xlink:href="#radial-gradient-20"/><radialGradient id="radial-gradient-42" cx="-709.08" cy="1528.3" r="0.77" gradientTransform="matrix(0.25, -0.97, 0.96, 0.25, -1111.33, -951.53)" xlink:href="#radial-gradient-21"/><radialGradient id="radial-gradient-43" cx="-707.82" cy="1529.35" r="0.28" gradientTransform="matrix(0.25, -0.97, 0.96, 0.25, -1111.4, -949.52)" xlink:href="#radial-gradient-22"/><radialGradient id="radial-gradient-44" cx="-718.64" cy="1539.9" r="0.28" gradientTransform="matrix(0.25, -0.97, 0.96, 0.25, -1129.55, -952.08)" xlink:href="#radial-gradient-22"/><radialGradient id="radial-gradient-45" cx="167.33" cy="626.19" r="2.44" gradientTransform="translate(0 -500)" xlink:href="#radial-gradient-21"/><radialGradient id="radial-gradient-46" cx="178.16" cy="648.39" r="1.11" gradientTransform="translate(0 -422.42) scale(1 0.85)" xlink:href="#radial-gradient-25"/><radialGradient id="radial-gradient-47" cx="-731.26" cy="1553.68" r="4.97" gradientTransform="matrix(0.25, -0.97, 0.96, 0.25, -1152.14, -953.97)" xlink:href="#radial-gradient-19"/><radialGradient id="radial-gradient-48" cx="-29.15" cy="1260.13" r="3.22" gradientTransform="translate(191.89 -830.45) scale(1.24 0.77)" xlink:href="#radial-gradient-20"/><radialGradient id="radial-gradient-49" cx="-728.48" cy="1551.05" r="0.41" gradientTransform="matrix(0.25, -0.97, 0.96, 0.25, -1147.55, -953.24)" xlink:href="#radial-gradient-21"/><radialGradient id="radial-gradient-50" cx="-727.81" cy="1551.61" r="0.15" gradientTransform="matrix(0.25, -0.97, 0.96, 0.25, -1147.59, -952.17)" xlink:href="#radial-gradient-22"/><radialGradient id="radial-gradient-51" cx="-733.56" cy="1557.22" r="0.15" gradientTransform="matrix(0.25, -0.97, 0.96, 0.25, -1157.24, -953.53)" xlink:href="#radial-gradient-22"/><radialGradient id="radial-gradient-52" cx="153.38" cy="645.02" r="1.3" gradientTransform="translate(0 -500)" xlink:href="#radial-gradient-21"/><radialGradient id="radial-gradient-53" cx="159.14" cy="666.33" r="0.59" gradientTransform="translate(0 -419.82) scale(1 0.85)" xlink:href="#radial-gradient-25"/></defs><polygon class="cls-2" points="14.89 251.53 3.29 257.96 214.35 257.96 232.3 244.83 232.25 242.34 14.89 251.53"/><path class="cls-3" d="M213.16,216.86l-.82-199.39c-12.07,5.92-64.23,5.92-80.71,5.92h-4c-1.26,0-2.53-.06-3.79-.11-1.43,0-2.86-.1-4.28-.16-1.57-.06-3.13-.13-4.69-.21l-5-.26-5.26-.29c-1.8-.1-3.61-.21-5.41-.33l-5.5-.35-5.55-.42-5.4-.4-5.24-.41-5-.42q-2.33-.2-4.65-.42c-1.42-.13-2.83-.27-4.24-.42L61.71,19c-1-.15-1.89-.35-2.82-.59l-.5-.14a26.07,26.07,0,0,0-7.36-.7l-1.24.08L50,216.85A9.82,9.82,0,0,0,56.77,229a10.5,10.5,0,0,0,2.68.37H203.73a9.81,9.81,0,0,0,9.81-9.81A9.57,9.57,0,0,0,213.16,216.86Z"/><path class="cls-4" d="M219,218.59V14.47c0,4.93-63.58,8.92-87.38,8.92H128c-4.79-.07-9.59-.25-14.39-.47q-8.5-.39-17-1-8.77-.6-17.52-1.4c-5.3-.49-10.6-1-15.88-1.73-3.86-.53-7.73-1.53-11.67-1.44S43.9,19,40.09,19.85l-1,.2a20,20,0,0,1-3.84.59l-1.36.12c-.23,0-.87-.06-1,.14s.24.62.37.76a5.48,5.48,0,0,0,.75.6c.33.25.67.47,1,.71l3.44,2.44L44,29.35l.16.11V218.59a11.54,11.54,0,0,0,8.09,14.17,11.77,11.77,0,0,0,3.07.41h152.5A11.53,11.53,0,0,0,219,218.59Z"/><g class="cls-5"><path class="cls-6" d="M214.21,222.16c0-8.62-36.86-11.59-82.32-11.59s-82.32,3.3-82.32,11.92,8,6.88,82.32,7.57C202.4,230.71,214.21,230.78,214.21,222.16Z"/><rect class="cls-7" x="17.53" y="78.24" width="225.47" height="175.35"/></g><path class="cls-8" d="M219,14.47c0,4.93-63.58,8.92-87.38,8.92-4.59,0-9.17-.12-13.75-.28q-9.66-.34-19.27-.92-10.14-.61-20.27-1.47c-2.53-.22-5.06-.46-7.58-.7s-5.1-.54-7.72-.86c-1.25-.16-2.49-.36-3.71-.62s-2.48-.49-3.74-.66a21.81,21.81,0,0,0-7.12,0c-2.33.46-4.57,1.28-6.88,1.84A42.22,42.22,0,0,1,33,20.84a7.13,7.13,0,0,1,1.6-1.4A36,36,0,0,1,39,16.91c2.14-1.08,4.26-2.37,6.46-3.41a29.31,29.31,0,0,1,7.44-2.24c4.44-.79,8.93-1.35,13.44-1.85C72,8.77,77.57,8.27,83.2,7.82q9-.71,18-1.21,8.44-.48,16.9-.78c4.49-.15,9-.27,13.49-.27C155.39,5.56,219,9.55,219,14.47Z"/><g class="cls-9"><path class="cls-10" d="M198.75,146.6a4.24,4.24,0,0,1-4.14-3.36V78.17a4.28,4.28,0,0,1-.09-.87V38.12a4.23,4.23,0,0,1,8.46,0h0V76.86l-.09,64.64a4.24,4.24,0,0,1-3.27,5A5.16,5.16,0,0,1,198.75,146.6Z"/></g><g class="cls-11"><path class="cls-12" d="M63.34,168.51a4.67,4.67,0,0,1-5.67-3.36h0a5.28,5.28,0,0,1-.14-1.18l.7-107.71a4.66,4.66,0,0,1,9.31,0L66.84,164A4.65,4.65,0,0,1,63.34,168.51Z"/></g><circle class="cls-13" cx="199.68" cy="155.66" r="4.23"/><circle class="cls-14" cx="199.68" cy="82.48" r="4.23"/><circle class="cls-15" cx="64.9" cy="113.15" r="13.58"/><circle class="cls-16" cx="64.73" cy="162.93" r="0.45"/><circle class="cls-17" cx="64.71" cy="166.8" r="0.45"/><circle class="cls-18" cx="64.73" cy="164.65" r="3.4"/><line class="cls-1" x1="64.87" y1="123.88" x2="64.72" y2="166.8"/><circle class="cls-19" cx="64.87" cy="123.88" r="9.05"/><circle class="cls-20" cx="64.87" cy="123.88" r="4.53"/><circle class="cls-21" cx="64.87" cy="123.88" r="3.77"/><polyline class="cls-22" points="64.87 123.88 66.91 138.61 64.87 123.88 62.84 109.15 64.87 123.88 50.14 125.92 64.87 123.88 79.61 121.85 64.87 123.88 72.47 141.54 64.87 123.88 57.28 106.22 64.87 123.88 47.21 131.48 64.87 123.88 82.54 116.29 64.87 123.88 78.53 136.06 64.87 123.88 51.22 111.7 64.87 123.88 52.7 137.54 64.87 123.88 77.05 110.23 64.87 123.88 65.79 136.63 64.87 123.88 63.96 111.14 64.87 123.88 52.13 124.8 64.87 123.88 77.62 122.97 64.87 123.88 65.22 125.36 64.87 123.88 64.53 122.41 64.87 123.88 63.4 124.22 64.87 123.88 66.35 123.54 64.87 123.88 60.61 142.7 64.87 123.88 69.14 105.06 64.87 123.88 46.06 119.62 64.87 123.88 83.69 128.15 64.87 123.88 62.49 130.15 64.87 123.88 67.26 117.61 64.87 123.88 58.61 121.5 64.87 123.88 71.14 126.27 64.87 123.88 68.26 127.58 64.87 123.88 61.48 120.18 64.87 123.88 61.17 127.27 64.87 123.88 68.58 120.49 64.87 123.88 85.52 133.05 64.87 123.88 44.23 114.71 64.87 123.88 55.7 144.53 64.87 123.88 74.05 103.24 64.87 123.88 73.94 140.36 64.87 123.88 55.81 107.4 64.87 123.88 48.39 132.95 64.87 123.88 81.36 114.82 64.87 123.88 74.55 143.48 64.87 123.88 55.2 104.29 64.87 123.88 45.28 133.55 64.87 123.88 84.47 114.21 64.87 123.88 67.74 127.11 64.87 123.88 62.01 120.65 64.87 123.88 61.65 126.75 64.87 123.88 68.1 121.02 64.87 123.88 79.09 130.39 64.87 123.88 50.66 117.37 64.87 123.88 58.36 138.1 64.87 123.88 71.39 109.67 64.87 123.88 64.05 140.58 64.87 123.88 65.7 107.18 64.87 123.88 48.17 123.05 64.87 123.88 81.57 124.71 64.87 123.88 69.75 136.66 64.87 123.88 60 111.1 64.87 123.88 52.1 128.76 64.87 123.88 77.65 119.01"/><circle class="cls-23" cx="64.72" cy="166.8" r="6.79"/><circle class="cls-24" cx="64.75" cy="158.51" r="1.93"/><circle class="cls-25" cx="64.83" cy="136.14" r="1.08"/><circle class="cls-26" cx="64.78" cy="149.79" r="0.71"/><circle class="cls-27" cx="64.77" cy="151.95" r="1"/><circle class="cls-28" cx="64.75" cy="158.09" r="1.86"/><circle class="cls-29" cx="71.76" cy="20.96" r="7"/><path class="cls-30" d="M208.87,213.33V80.26h0c0,4.75-55.69,8.6-77.27,8.6S54.34,85,54.34,80.26h0V213.33c.07,5.91,2.77,11.84,8.94,11.84H199.93C206.1,225.17,208.94,219.12,208.87,213.33Z"/><g class="cls-31"><path class="cls-32" d="M136.22,114.53c-18.68,1.5-37.42,2.26-56.1,3.8-20,1.63-41.8,7.14-57.53,20.19l-.45.38c-8.76,7.43-16,18-15.41,29.46.44,9,5.68,17.24,12.53,23.09s15.2,9.61,23.57,12.92c48.7,19.22,104.27,25.27,153.43,7.27,9.89-3.62,19.53-8.23,27.69-14.89s14.78-15.49,17.51-25.66c2.81-10.48,1.31-21.89-3.26-31.73-4.33-9.32-11.15-16.48-14-26.61-.53-1.88-1.11-4-2.76-5a7.27,7.27,0,0,0-3.74-.85c-21.64-1-42.53,3.5-63.88,5.94C148,113.5,142.1,114.05,136.22,114.53Z"/><path class="cls-33" d="M131.34,154.43c-18.42,3.47-37,6.22-55.38,9.72-19.7,3.75-40.8,11.54-55.07,26.18l-.41.42c-7.92,8.32-14,19.58-12.2,30.93,1.4,8.9,7.48,16.54,14.91,21.63S39.34,251.26,48,253.66c50.46,14,106.36,14.08,153.34-9,9.44-4.65,18.54-10.26,26-17.74s13-17,14.69-27.37c1.69-10.72-1-21.9-6.6-31.2-5.3-8.81-12.83-15.21-16.72-25-.72-1.82-1.52-3.82-3.27-4.69a7.4,7.4,0,0,0-3.81-.45c-21.62,1.3-41.91,8-62.89,12.68C142.94,152.16,137.15,153.33,131.34,154.43Z"/></g><path class="cls-34" d="M208.87,80.26c0,4.75-55.69,8.6-77.27,8.6S54.34,85,54.34,80.26s55.71-8.59,77.29-8.59S208.87,75.51,208.87,80.26Z"/><g class="cls-35"><circle class="cls-36" cx="101.96" cy="88.85" r="14.91"/><ellipse class="cls-37" cx="101.79" cy="80.44" rx="9.99" ry="6.03" transform="translate(-6.09 8.37) rotate(-4.57)"/><circle class="cls-38" cx="109.89" cy="81.36" r="1.22"/><circle class="cls-39" cx="111.8" cy="82.97" r="0.44"/><circle class="cls-40" cx="95.41" cy="98.95" r="0.44"/><path class="cls-41" d="M90.1,89.94c-.15,2.88,1.58,7,4.34,8.25"/><circle class="cls-42" cx="108.67" cy="96.96" r="1.36"/></g><g class="cls-35"><circle class="cls-43" cx="146.18" cy="70.57" r="8.43"/><ellipse class="cls-44" cx="145.6" cy="65.91" rx="5.63" ry="3.4" transform="translate(-4.58 11.23) rotate(-4.35)"/><circle class="cls-45" cx="150.66" cy="66.34" r="0.69"/><circle class="cls-46" cx="151.74" cy="67.25" r="0.25"/><circle class="cls-47" cx="142.48" cy="76.28" r="0.25"/><path class="cls-48" d="M139.47,71.19c-.08,1.63.9,4,2.46,4.66"/><circle class="cls-49" cx="149.97" cy="75.16" r="0.77"/></g><g class="cls-35"><circle class="cls-50" cx="128.32" cy="51.6" r="4.48"/><ellipse class="cls-51" cx="128.01" cy="49.11" rx="3" ry="1.81" transform="translate(-3.36 9.85) rotate(-4.35)"/><circle class="cls-52" cx="130.71" cy="49.35" r="0.37"/><circle class="cls-53" cx="131.28" cy="49.83" r="0.13"/><circle class="cls-54" cx="126.36" cy="54.63" r="0.13"/><path class="cls-55" d="M124.76,51.93a2.8,2.8,0,0,0,1.3,2.48"/><circle class="cls-56" cx="130.34" cy="54.04" r="0.41"/></g><g class="cls-57"><circle class="cls-58" cx="173.73" cy="122.75" r="9.84"/><ellipse class="cls-59" cx="173.05" cy="117.31" rx="6.58" ry="3.96" transform="translate(-8.4 13.46) rotate(-4.35)"/><circle class="cls-60" cx="178.96" cy="117.81" r="0.81"/><circle class="cls-61" cx="180.22" cy="118.87" r="0.29"/><circle class="cls-62" cx="169.41" cy="129.41" r="0.29"/><path class="cls-63" d="M165.9,123.47c-.1,1.9,1,4.64,2.87,5.44"/><circle class="cls-64" cx="178.16" cy="128.1" r="0.89"/></g><g class="cls-57"><circle class="cls-65" cx="156.78" cy="143.19" r="5.23"/><ellipse class="cls-66" cx="156.43" cy="140.3" rx="3.5" ry="2.11" transform="translate(-10.19 12.27) rotate(-4.35)"/><circle class="cls-67" cx="159.57" cy="140.56" r="0.43"/><circle class="cls-68" cx="160.24" cy="141.13" r="0.16"/><circle class="cls-69" cx="154.49" cy="146.74" r="0.16"/><path class="cls-70" d="M152.62,143.57a3.25,3.25,0,0,0,1.53,2.9"/><circle class="cls-71" cx="159.14" cy="146.04" r="0.48"/></g><polygon class="cls-72" points="225.63 172.37 30.07 172.37 14.89 251.53 210.45 251.53 225.63 172.37"/><polygon class="cls-73" points="225.63 172.37 232.25 242.34 229.64 244.38 214.65 244.55 213.54 249.1 210.45 251.53 225.63 172.37"/></svg>