<svg id="Layer_1" data-name="Layer 1" xmlns="http://www.w3.org/2000/svg" xmlns:xlink="http://www.w3.org/1999/xlink" viewBox="0 0 235.13 262.86"><defs><style>.cls-1,.cls-18,.cls-36,.cls-43,.cls-50,.cls-58,.cls-65{fill:none;}.cls-2,.cls-5{opacity:0.72;}.cls-11,.cls-14,.cls-15,.cls-16,.cls-18,.cls-19,.cls-2,.cls-25,.cls-27,.cls-28,.cls-29,.cls-5,.cls-71,.cls-8{isolation:isolate;}.cls-2{fill:url(#linear-gradient);}.cls-3{fill:#683d14;fill-opacity:0.51;}.cls-4{fill:url(#linear-gradient-2);}.cls-5{fill:url(#linear-gradient-3);}.cls-6{clip-path:url(#clip-path);}.cls-7{fill:url(#linear-gradient-4);}.cls-8{opacity:0.42;fill:url(#linear-gradient-5);}.cls-25,.cls-29,.cls-9{opacity:0.8;}.cls-10{fill:url(#radial-gradient);}.cls-11{opacity:0.25;fill:url(#radial-gradient-2);}.cls-12{fill:url(#radial-gradient-3);}.cls-13{fill:url(#radial-gradient-4);}.cls-14,.cls-52{opacity:0.2;}.cls-14{fill:url(#radial-gradient-5);}.cls-15{opacity:0.15;fill:url(#radial-gradient-6);}.cls-16,.cls-19,.cls-71{opacity:0.5;}.cls-16{fill:url(#radial-gradient-7);}.cls-17{fill:url(#radial-gradient-8);}.cls-18{stroke:#fff;stroke-width:1.69px;opacity:0.03;}.cls-18,.cls-29{stroke-miterlimit:10;}.cls-19{fill:url(#radial-gradient-9);}.cls-20{fill:url(#radial-gradient-10);}.cls-21{fill:url(#radial-gradient-11);}.cls-22{fill:url(#radial-gradient-12);}.cls-23{fill:url(#radial-gradient-13);}.cls-24{fill:url(#radial-gradient-14);}.cls-25{fill:url(#linear-gradient-6);}.cls-26{clip-path:url(#clip-path-2);}.cls-27,.cls-28,.cls-30{opacity:0.3;}.cls-27{fill:url(#linear-gradient-7);}.cls-28{fill:url(#linear-gradient-8);}.cls-29,.cls-36{stroke-width:0.85px;}.cls-29{fill:url(#linear-gradient-9);stroke:url(#linear-gradient-10);}.cls-31{fill:url(#radial-gradient-15);}.cls-32{fill:url(#radial-gradient-16);}.cls-33{fill:url(#radial-gradient-17);}.cls-34{fill:url(#radial-gradient-18);}.cls-35{fill:url(#radial-gradient-19);}.cls-36,.cls-43,.cls-50,.cls-58,.cls-65{stroke-linecap:round;stroke-linejoin:round;}.cls-36{stroke:url(#radial-gradient-20);}.cls-37{fill:url(#radial-gradient-21);}.cls-38{fill:url(#radial-gradient-22);}.cls-39{fill:url(#radial-gradient-23);}.cls-40{fill:url(#radial-gradient-24);}.cls-41{fill:url(#radial-gradient-25);}.cls-42{fill:url(#radial-gradient-26);}.cls-43{stroke-width:0.48px;stroke:url(#radial-gradient-27);}.cls-44{fill:url(#radial-gradient-28);}.cls-45{fill:url(#radial-gradient-29);}.cls-46{fill:url(#radial-gradient-30);}.cls-47{fill:url(#radial-gradient-31);}.cls-48{fill:url(#radial-gradient-32);}.cls-49{fill:url(#radial-gradient-33);}.cls-50{stroke-width:0.25px;stroke:url(#radial-gradient-34);}.cls-51{fill:url(#radial-gradient-35);}.cls-53{fill:url(#radial-gradient-36);}.cls-54{fill:url(#radial-gradient-37);}.cls-55{fill:url(#radial-gradient-38);}.cls-56{fill:url(#radial-gradient-39);}.cls-57{fill:url(#radial-gradient-40);}.cls-58{stroke-width:0.56px;stroke:url(#radial-gradient-41);}.cls-59{fill:url(#radial-gradient-42);}.cls-60{fill:url(#radial-gradient-43);}.cls-61{fill:url(#radial-gradient-44);}.cls-62{fill:url(#radial-gradient-45);}.cls-63{fill:url(#radial-gradient-46);}.cls-64{fill:url(#radial-gradient-47);}.cls-65{stroke-width:0.3px;stroke:url(#radial-gradient-48);}.cls-66{fill:url(#radial-gradient-49);}.cls-67{fill:#fff;}.cls-68{fill:#c7c6c6;}.cls-69{opacity:0.54;}.cls-70{fill:url(#radial-gradient-50);}.cls-71{fill:url(#radial-gradient-51);}</style><linearGradient id="linear-gradient" x1="126.64" y1="495.55" x2="126.64" y2="522.12" gradientTransform="translate(0 -500)" gradientUnits="userSpaceOnUse"><stop offset="0" stop-color="#f6fbff"/><stop offset="0.63" stop-color="#e9f1f6"/><stop offset="1" stop-color="#c5dae1"/></linearGradient><linearGradient id="linear-gradient-2" x1="144.49" y1="518.89" x2="122.19" y2="700.5" gradientTransform="translate(0 -500)" gradientUnits="userSpaceOnUse"><stop offset="0" stop-color="#c0c5c8"/><stop offset="1" stop-color="#b0c2c9"/></linearGradient><linearGradient id="linear-gradient-3" x1="78.2" y1="622.73" x2="172.58" y2="622.73" xlink:href="#linear-gradient"/><clipPath id="clip-path"><path class="cls-1" d="M219.65,217.5V13.38c0,4.93-63.58,8.92-87.38,8.92h-3.6c-4.79-.07-9.59-.25-14.39-.47-5.67-.26-11.35-.58-17-1q-8.76-.6-17.52-1.4c-5.3-.49-10.6-1-15.88-1.73-3.86-.53-7.73-1.53-11.67-1.44s-7.63,1.67-11.44,2.5l-1,.2a19.8,19.8,0,0,1-3.84.59c-.46,0-.91.09-1.37.12-.22,0-.86-.06-1,.14s.24.62.36.76a6.26,6.26,0,0,0,.76.6c.33.25.67.47,1,.71l3.44,2.44,5.56,3.94.17.11V217.5A11.55,11.55,0,0,0,53,231.67a11.36,11.36,0,0,0,3.07.41h152.5a11.54,11.54,0,0,0,11.55-11.52,11.35,11.35,0,0,0-.42-3.06Z"/></clipPath><linearGradient id="linear-gradient-4" x1="93.61" y1="621.11" x2="144.79" y2="753.28" gradientTransform="translate(0 -500)" gradientUnits="userSpaceOnUse"><stop offset="0" stop-color="#f5f5f5"/><stop offset="1" stop-color="#c3d1d6"/></linearGradient><linearGradient id="linear-gradient-5" x1="72.17" y1="664.82" x2="186.27" y2="664.82" gradientTransform="translate(0 -500)" gradientUnits="userSpaceOnUse"><stop offset="0" stop-color="#773b8f"/><stop offset="1" stop-color="#7e4e9a"/></linearGradient><radialGradient id="radial-gradient" cx="-3975.34" cy="10753.75" r="54.28" gradientTransform="matrix(0.01, -1, 0.16, 0, -1627.31, -3865.02)" gradientUnits="userSpaceOnUse"><stop offset="0" stop-color="#e6f3fc"/><stop offset="1" stop-color="#bacae9" stop-opacity="0"/></radialGradient><radialGradient id="radial-gradient-2" cx="-1956.18" cy="-941.66" r="13.58" gradientTransform="translate(2213.24 429.78) rotate(-17.29)" gradientUnits="userSpaceOnUse"><stop offset="0.1" stop-color="#010101"/><stop offset="0.11" stop-color="#070706"/><stop offset="0.16" stop-color="#221d12"/><stop offset="0.22" stop-color="#392e16"/><stop offset="0.28" stop-color="#4a3a17"/><stop offset="0.37" stop-color="#564318"/><stop offset="0.48" stop-color="#5c4918"/><stop offset="0.8" stop-color="#5f4a17"/><stop offset="1" stop-color="#010101"/></radialGradient><radialGradient id="radial-gradient-3" cx="-1968.33" cy="-884.18" r="0.45" gradientTransform="matrix(0.95, -0.3, 0.3, 0.95, 2202.99, 426.88)" gradientUnits="userSpaceOnUse"><stop offset="0" stop-color="#d5e195"/><stop offset="0.06" stop-color="#b1bb79"/><stop offset="0.14" stop-color="#868f5f"/><stop offset="0.22" stop-color="#646946"/><stop offset="0.31" stop-color="#454930"/><stop offset="0.4" stop-color="#2c2f1f"/><stop offset="0.51" stop-color="#191a13"/><stop offset="0.62" stop-color="#0b0c0a"/><stop offset="0.76" stop-color="#020404"/><stop offset="1" stop-color="#010101"/></radialGradient><radialGradient id="radial-gradient-4" cx="-1972.3" cy="-890.49" r="0.45" gradientTransform="translate(2213.25 429.78) rotate(-17.29)" xlink:href="#radial-gradient-3"/><radialGradient id="radial-gradient-5" cx="-1968.85" cy="-882.54" r="3.4" gradientTransform="matrix(0.95, -0.3, 0.3, 0.95, 2202.99, 426.88)" gradientUnits="userSpaceOnUse"><stop offset="0.05" stop-color="#010101"/><stop offset="0.09" stop-color="#070b08"/><stop offset="0.3" stop-color="#1f341c"/><stop offset="0.48" stop-color="#265325"/><stop offset="0.64" stop-color="#30672c"/><stop offset="0.75" stop-color="#336e2e"/><stop offset="0.79" stop-color="#506f2a"/><stop offset="0.83" stop-color="#717021"/><stop offset="0.86" stop-color="#7f701b"/><stop offset="0.89" stop-color="#7a6d1c"/><stop offset="0.91" stop-color="#71641b"/><stop offset="0.94" stop-color="#5e5419"/><stop offset="0.96" stop-color="#433d18"/><stop offset="0.98" stop-color="#232114"/><stop offset="1" stop-color="#010101"/></radialGradient><radialGradient id="radial-gradient-6" cx="-1956.59" cy="-921.42" r="9.05" gradientTransform="matrix(0.95, -0.3, 0.3, 0.95, 2202.99, 426.88)" gradientUnits="userSpaceOnUse"><stop offset="0" stop-color="#1d090a"/><stop offset="0.73" stop-color="#994123"/><stop offset="1" stop-color="#1d090a"/></radialGradient><radialGradient id="radial-gradient-7" cx="-1956.59" cy="-921.42" r="4.53" gradientTransform="matrix(0.95, -0.3, 0.3, 0.95, 2202.99, 426.88)" gradientUnits="userSpaceOnUse"><stop offset="0.15" stop-color="#fff"/><stop offset="0.21" stop-color="#e5d3d3"/><stop offset="0.29" stop-color="#c49c9e"/><stop offset="0.36" stop-color="#ad7477"/><stop offset="0.42" stop-color="#9f5d60"/><stop offset="0.45" stop-color="#9a5457"/><stop offset="0.57" stop-color="#6b3436"/><stop offset="0.69" stop-color="#431719"/><stop offset="0.79" stop-color="#270d0e"/><stop offset="0.85" stop-color="#1d090a"/><stop offset="0.86" stop-color="#210a0a"/><stop offset="0.86" stop-color="#300f0e"/><stop offset="0.87" stop-color="#461410"/><stop offset="0.88" stop-color="#641e11"/><stop offset="0.89" stop-color="#8b2e19"/><stop offset="0.9" stop-color="#b84323"/><stop offset="0.9" stop-color="#d34f29"/><stop offset="0.9" stop-color="#c94928"/><stop offset="0.91" stop-color="#9d371d"/><stop offset="0.93" stop-color="#772615"/><stop offset="0.94" stop-color="#591a10"/><stop offset="0.95" stop-color="#3e130f"/><stop offset="0.97" stop-color="#2b0e0d"/><stop offset="0.98" stop-color="#1f090b"/><stop offset="1" stop-color="#1d090a"/></radialGradient><radialGradient id="radial-gradient-8" cx="-1956.59" cy="-921.42" r="3.77" gradientTransform="matrix(0.95, -0.3, 0.3, 0.95, 2202.99, 426.88)" gradientUnits="userSpaceOnUse"><stop offset="0.15" stop-color="#fff"/><stop offset="0.28" stop-color="#c3c2c2"/><stop offset="0.43" stop-color="#878889"/><stop offset="0.56" stop-color="#585858"/><stop offset="0.69" stop-color="#323232"/><stop offset="0.81" stop-color="#161617"/><stop offset="0.92" stop-color="#050606"/><stop offset="1" stop-color="#010101"/></radialGradient><radialGradient id="radial-gradient-9" cx="-1969.49" cy="-880.49" r="6.79" gradientTransform="matrix(0.95, -0.3, 0.3, 0.95, 2202.99, 426.88)" gradientUnits="userSpaceOnUse"><stop offset="0.64" stop-color="#010101"/><stop offset="0.72" stop-color="#010302"/><stop offset="0.75" stop-color="#060908"/><stop offset="0.77" stop-color="#0c140e"/><stop offset="0.78" stop-color="#132517"/><stop offset="0.8" stop-color="#1b3b1d"/><stop offset="0.8" stop-color="#1c431f"/><stop offset="0.81" stop-color="#212c19"/><stop offset="0.83" stop-color="#2c190f"/><stop offset="0.85" stop-color="#33110d"/><stop offset="0.86" stop-color="#35100f"/><stop offset="0.87" stop-color="#200a0a"/><stop offset="0.89" stop-color="#100606"/><stop offset="0.9" stop-color="#050303"/><stop offset="0.93" stop-color="#020102"/><stop offset="1" stop-color="#010101"/></radialGradient><radialGradient id="radial-gradient-10" cx="-1967" cy="-888.4" r="1.93" gradientTransform="matrix(0.95, -0.3, 0.3, 0.95, 2202.99, 426.88)" gradientUnits="userSpaceOnUse"><stop offset="0.1" stop-color="#010101"/><stop offset="0.25" stop-color="#1a130c"/><stop offset="0.43" stop-color="#352413"/><stop offset="0.61" stop-color="#483014"/><stop offset="0.8" stop-color="#533613"/><stop offset="1" stop-color="#573812"/></radialGradient><radialGradient id="radial-gradient-11" cx="-1960.28" cy="-909.73" r="1.08" gradientTransform="matrix(0.95, -0.3, 0.3, 0.95, 2202.99, 426.88)" gradientUnits="userSpaceOnUse"><stop offset="0.1" stop-color="#1a301d"/><stop offset="0.23" stop-color="#142318"/><stop offset="0.48" stop-color="#0a0f0c"/><stop offset="0.73" stop-color="#030404"/><stop offset="1" stop-color="#010101"/></radialGradient><radialGradient id="radial-gradient-12" cx="65.46" cy="0.07" r="0.71" gradientTransform="matrix(1, 0, 0, -1, 0, 148.77)" xlink:href="#radial-gradient-10"/><radialGradient id="radial-gradient-13" cx="-1967.84" cy="-904.66" r="1" gradientTransform="translate(2213.23 429.78) rotate(-17.29)" gradientUnits="userSpaceOnUse"><stop offset="0.1" stop-color="#010101"/><stop offset="0.29" stop-color="#151711"/><stop offset="0.52" stop-color="#262a1b"/><stop offset="0.75" stop-color="#313523"/><stop offset="1" stop-color="#333824"/></radialGradient><radialGradient id="radial-gradient-14" cx="65.43" cy="-8.23" r="1.86" gradientTransform="matrix(1, 0, 0, -1, 0, 148.77)" xlink:href="#radial-gradient-11"/><linearGradient id="linear-gradient-6" x1="192.27" y1="727.84" x2="74.17" y2="571.32" xlink:href="#linear-gradient-5"/><clipPath id="clip-path-2"><path class="cls-1" d="M209.55,212.24V79.17h0c0,4.75-55.69,8.6-77.27,8.6S55,83.91,55,79.17h0V212.24c.07,5.91,2.77,11.84,8.94,11.84H200.61C206.78,224.08,209.62,218,209.55,212.24Z"/></clipPath><linearGradient id="linear-gradient-7" x1="288.93" y1="674.49" x2="41.89" y2="651.51" xlink:href="#linear-gradient-5"/><linearGradient id="linear-gradient-8" x1="8.65" y1="699.61" x2="243.17" y2="699.61" xlink:href="#linear-gradient-5"/><linearGradient id="linear-gradient-9" x1="269.52" y1="579.17" x2="86.37" y2="579.17" xlink:href="#linear-gradient-5"/><linearGradient id="linear-gradient-10" x1="54.6" y1="579.17" x2="209.98" y2="579.17" gradientTransform="translate(0 -500)" gradientUnits="userSpaceOnUse"><stop offset="0" stop-color="#824d99"/><stop offset="1" stop-color="#7e4e9a"/></linearGradient><radialGradient id="radial-gradient-15" cx="-1914.37" cy="2108.06" r="14.17" gradientTransform="matrix(0.25, -0.97, 0.96, 0.25, -1442.71, -2295.39)" gradientUnits="userSpaceOnUse"><stop offset="0" stop-color="#7a4695" stop-opacity="0.8"/><stop offset="0.3" stop-color="#7a4896" stop-opacity="0.8"/><stop offset="0.52" stop-color="#7f4e9a" stop-opacity="0.8"/><stop offset="0.72" stop-color="#8d60a5" stop-opacity="0.8"/><stop offset="0.91" stop-color="#a27ab4" stop-opacity="0.81"/><stop offset="1" stop-color="#ae89be" stop-opacity="0.81"/></radialGradient><radialGradient id="radial-gradient-16" cx="736.2" cy="978.15" r="9.18" gradientTransform="translate(-816 -673.54) scale(1.24 0.77)" gradientUnits="userSpaceOnUse"><stop offset="0" stop-color="#a462a5"/><stop offset="0.38" stop-color="#a462a5" stop-opacity="0.99"/><stop offset="0.52" stop-color="#a463a5" stop-opacity="0.96"/><stop offset="0.61" stop-color="#a465a6" stop-opacity="0.91"/><stop offset="0.69" stop-color="#a466a7" stop-opacity="0.84"/><stop offset="0.76" stop-color="#a467a8" stop-opacity="0.75"/><stop offset="0.82" stop-color="#a669a9" stop-opacity="0.63"/><stop offset="0.87" stop-color="#a76cab" stop-opacity="0.49"/><stop offset="0.92" stop-color="#aa6fac" stop-opacity="0.33"/><stop offset="0.97" stop-color="#ab73af" stop-opacity="0.16"/><stop offset="1" stop-color="#af77b1" stop-opacity="0"/></radialGradient><radialGradient id="radial-gradient-17" cx="-1906.44" cy="2100.57" r="1.16" gradientTransform="matrix(0.25, -0.97, 0.96, 0.25, -1429.64, -2293.33)" gradientUnits="userSpaceOnUse"><stop offset="0" stop-color="#e2c1dd"/><stop offset="0.38" stop-color="#e2c0dd" stop-opacity="0.99"/><stop offset="0.52" stop-color="#e1bedc" stop-opacity="0.96"/><stop offset="0.61" stop-color="#debada" stop-opacity="0.91"/><stop offset="0.69" stop-color="#dbb4d6" stop-opacity="0.84"/><stop offset="0.76" stop-color="#d6add1" stop-opacity="0.75"/><stop offset="0.82" stop-color="#d1a4cc" stop-opacity="0.63"/><stop offset="0.87" stop-color="#c99bc7" stop-opacity="0.49"/><stop offset="0.92" stop-color="#c08ebf" stop-opacity="0.33"/><stop offset="0.97" stop-color="#b782b8" stop-opacity="0.16"/><stop offset="1" stop-color="#af77b1" stop-opacity="0"/></radialGradient><radialGradient id="radial-gradient-18" cx="-1904.53" cy="2102.17" r="0.42" gradientTransform="matrix(0.25, -0.97, 0.96, 0.25, -1429.75, -2290.28)" gradientUnits="userSpaceOnUse"><stop offset="0" stop-color="#e2c1dd"/><stop offset="0.22" stop-color="#e2c0dd" stop-opacity="0.99"/><stop offset="0.36" stop-color="#e0bcdb" stop-opacity="0.95"/><stop offset="0.48" stop-color="#ddb8d8" stop-opacity="0.89"/><stop offset="0.58" stop-color="#d8b1d4" stop-opacity="0.8"/><stop offset="0.68" stop-color="#d2a8cf" stop-opacity="0.69"/><stop offset="0.77" stop-color="#cc9fc9" stop-opacity="0.55"/><stop offset="0.85" stop-color="#c391c1" stop-opacity="0.38"/><stop offset="0.93" stop-color="#bb85b9" stop-opacity="0.2"/><stop offset="1" stop-color="#af77b1" stop-opacity="0"/></radialGradient><radialGradient id="radial-gradient-19" cx="-1920.91" cy="2118.15" r="0.42" gradientTransform="matrix(0.25, -0.97, 0.96, 0.25, -1457.25, -2294.16)" xlink:href="#radial-gradient-18"/><radialGradient id="radial-gradient-20" cx="92.94" cy="592.97" r="3.7" gradientTransform="translate(0 -500)" xlink:href="#radial-gradient-17"/><radialGradient id="radial-gradient-21" cx="109.35" cy="691.96" r="1.69" gradientTransform="translate(0 -491.54) scale(1 0.85)" gradientUnits="userSpaceOnUse"><stop offset="0" stop-color="#a462a5"/><stop offset="0.09" stop-color="#a463a5" stop-opacity="0.97"/><stop offset="0.23" stop-color="#a465a6" stop-opacity="0.88"/><stop offset="0.4" stop-color="#a467a8" stop-opacity="0.74"/><stop offset="0.59" stop-color="#a76baa" stop-opacity="0.54"/><stop offset="0.79" stop-color="#aa71ad" stop-opacity="0.28"/><stop offset="1" stop-color="#af77b1" stop-opacity="0"/></radialGradient><radialGradient id="radial-gradient-22" cx="-1870.15" cy="2089.78" r="8.01" gradientTransform="matrix(0.25, -0.97, 0.96, 0.25, -1392.24, -2266.32)" xlink:href="#radial-gradient-15"/><radialGradient id="radial-gradient-23" cx="772.9" cy="965.65" r="5.19" gradientTransform="translate(-816.98 -678.62) scale(1.24 0.77)" xlink:href="#radial-gradient-16"/><radialGradient id="radial-gradient-24" cx="-1865.67" cy="2085.55" r="0.66" gradientTransform="matrix(0.25, -0.97, 0.96, 0.25, -1384.85, -2265.15)" xlink:href="#radial-gradient-17"/><radialGradient id="radial-gradient-25" cx="-1864.59" cy="2086.45" r="0.24" gradientTransform="matrix(0.25, -0.97, 0.96, 0.25, -1384.92, -2263.43)" xlink:href="#radial-gradient-18"/><radialGradient id="radial-gradient-26" cx="-1873.85" cy="2095.48" r="0.24" gradientTransform="matrix(0.25, -0.97, 0.96, 0.25, -1400.46, -2265.62)" xlink:href="#radial-gradient-18"/><radialGradient id="radial-gradient-27" cx="141.38" cy="572.43" r="2.09" gradientTransform="translate(0 -500)" xlink:href="#radial-gradient-17"/><radialGradient id="radial-gradient-28" cx="150.65" cy="670.16" r="0.95" gradientTransform="translate(0 -494.7) scale(1 0.85)" xlink:href="#radial-gradient-21"/><radialGradient id="radial-gradient-29" cx="-1888" cy="2070.8" r="4.26" gradientTransform="matrix(0.25, -0.97, 0.96, 0.25, -1387.43, -2297.8)" xlink:href="#radial-gradient-15"/><radialGradient id="radial-gradient-30" cx="759.84" cy="945.6" r="2.76" gradientTransform="translate(-818.32 -679.96) scale(1.24 0.77)" xlink:href="#radial-gradient-16"/><radialGradient id="radial-gradient-31" cx="-1885.62" cy="2068.55" r="0.35" gradientTransform="matrix(0.25, -0.97, 0.96, 0.25, -1383.5, -2297.18)" xlink:href="#radial-gradient-17"/><radialGradient id="radial-gradient-32" cx="-1885.05" cy="2069.03" r="0.13" gradientTransform="matrix(0.25, -0.97, 0.96, 0.25, -1383.53, -2296.27)" xlink:href="#radial-gradient-18"/><radialGradient id="radial-gradient-33" cx="-1889.97" cy="2073.84" r="0.13" gradientTransform="matrix(0.25, -0.97, 0.96, 0.25, -1391.8, -2297.43)" xlink:href="#radial-gradient-18"/><radialGradient id="radial-gradient-34" cx="126.09" cy="552.08" r="1.11" gradientTransform="translate(0 -500)" xlink:href="#radial-gradient-17"/><radialGradient id="radial-gradient-35" cx="131.02" cy="649.04" r="0.51" gradientTransform="translate(0 -497.77) scale(1 0.85)" xlink:href="#radial-gradient-21"/><radialGradient id="radial-gradient-36" cx="-1842.6" cy="2141.96" r="9.35" gradientTransform="matrix(0.25, -0.97, 0.96, 0.25, -1421.56, -2200.57)" xlink:href="#radial-gradient-15"/><radialGradient id="radial-gradient-37" cx="791.77" cy="1024.77" r="6.06" gradientTransform="translate(-813 -672.8) scale(1.24 0.77)" xlink:href="#radial-gradient-16"/><radialGradient id="radial-gradient-38" cx="-1837.36" cy="2137.02" r="0.77" gradientTransform="matrix(0.25, -0.97, 0.96, 0.25, -1412.93, -2199.21)" xlink:href="#radial-gradient-17"/><radialGradient id="radial-gradient-39" cx="-1836.1" cy="2138.07" r="0.28" gradientTransform="matrix(0.25, -0.97, 0.96, 0.25, -1413, -2197.2)" xlink:href="#radial-gradient-18"/><radialGradient id="radial-gradient-40" cx="-1846.92" cy="2148.62" r="0.28" gradientTransform="matrix(0.25, -0.97, 0.96, 0.25, -1431.15, -2199.76)" xlink:href="#radial-gradient-18"/><radialGradient id="radial-gradient-41" cx="168.02" cy="625.1" r="2.44" gradientTransform="translate(0 -500)" xlink:href="#radial-gradient-17"/><radialGradient id="radial-gradient-42" cx="178.84" cy="723.1" r="1.11" gradientTransform="translate(0 -487.01) scale(1 0.85)" xlink:href="#radial-gradient-21"/><radialGradient id="radial-gradient-43" cx="-1859.54" cy="2162.4" r="4.97" gradientTransform="matrix(0.25, -0.97, 0.96, 0.25, -1453.74, -2201.64)" xlink:href="#radial-gradient-15"/><radialGradient id="radial-gradient-44" cx="777.05" cy="1048.77" r="3.22" gradientTransform="translate(-811.3 -668.32) scale(1.24 0.77)" xlink:href="#radial-gradient-16"/><radialGradient id="radial-gradient-45" cx="-1856.76" cy="2159.77" r="0.41" gradientTransform="matrix(0.25, -0.97, 0.96, 0.25, -1449.15, -2200.92)" xlink:href="#radial-gradient-17"/><radialGradient id="radial-gradient-46" cx="-1856.09" cy="2160.33" r="0.15" gradientTransform="matrix(0.25, -0.97, 0.96, 0.25, -1449.19, -2199.85)" xlink:href="#radial-gradient-18"/><radialGradient id="radial-gradient-47" cx="-1861.84" cy="2165.94" r="0.15" gradientTransform="matrix(0.25, -0.97, 0.96, 0.25, -1458.84, -2201.21)" xlink:href="#radial-gradient-18"/><radialGradient id="radial-gradient-48" cx="154.06" cy="643.93" r="1.3" gradientTransform="translate(0 -500)" xlink:href="#radial-gradient-17"/><radialGradient id="radial-gradient-49" cx="159.82" cy="741.04" r="0.59" gradientTransform="translate(0 -484.41) scale(1 0.85)" xlink:href="#radial-gradient-21"/><radialGradient id="radial-gradient-50" cx="-1232.23" cy="-16476.8" r="64.7" gradientTransform="matrix(0.01, 1, -0.12, 0, -1762.82, 1318.57)" xlink:href="#radial-gradient"/><radialGradient id="radial-gradient-51" cx="194.52" cy="654.59" r="3.83" gradientTransform="translate(0 -500)" xlink:href="#radial-gradient"/></defs><path class="cls-2" d="M219.64,13.38c0,4.93-63.58,8.92-87.37,8.92-4.59,0-9.18-.12-13.76-.28q-9.63-.35-19.26-.92Q89.11,20.49,79,19.63q-3.78-.33-7.58-.7c-2.58-.26-5.15-.55-7.73-.86-1.24-.16-2.48-.36-3.7-.62s-2.48-.49-3.74-.66a21.81,21.81,0,0,0-7.12,0c-2.34.46-4.58,1.28-6.88,1.84a41.53,41.53,0,0,1-8.6,1.12,7.89,7.89,0,0,1,1.6-1.4,39.16,39.16,0,0,1,4.45-2.53c2.14-1.08,4.26-2.37,6.46-3.41a29.77,29.77,0,0,1,7.43-2.24C58,9.38,62.51,8.82,67,8.32c5.61-.64,11.24-1.14,16.87-1.59q9-.71,18-1.21,8.46-.48,16.9-.78c4.49-.15,9-.27,13.49-.27C156,4.47,219.64,8.46,219.64,13.38Z"/><polygon class="cls-3" points="15.57 250.44 3.98 256.87 215.03 256.87 232.99 243.74 232.94 241.25 15.57 250.44"/><path class="cls-4" d="M213.84,215.77,213,16.38C201,22.3,148.8,22.3,132.32,22.3h-4c-1.26,0-2.53-.06-3.79-.11-1.43,0-2.86-.1-4.29-.16l-4.69-.21-5-.26-5.26-.29c-1.8-.1-3.61-.21-5.41-.33l-5.5-.35-5.55-.42-5.4-.4-5.24-.41-5-.42c-1.56-.13-3.11-.27-4.66-.42l-4.23-.42-1.94-.2a27.15,27.15,0,0,1-2.82-.59l-.5-.14a26.37,26.37,0,0,0-7.36-.7l-1.24.08.22,199.21a9.83,9.83,0,0,0,6.76,12.12,10.19,10.19,0,0,0,2.68.37H204.41a9.81,9.81,0,0,0,9.81-9.81A9.68,9.68,0,0,0,213.84,215.77Z"/><path class="cls-5" d="M219.65,217.5V13.38c0,4.93-63.58,8.92-87.38,8.92h-3.6c-4.79-.07-9.59-.25-14.39-.47-5.67-.26-11.35-.58-17-1q-8.76-.6-17.52-1.4c-5.3-.49-10.6-1-15.88-1.73-3.86-.53-7.73-1.53-11.67-1.44s-7.63,1.67-11.44,2.5l-1,.2a19.8,19.8,0,0,1-3.84.59c-.46,0-.91.09-1.37.12-.22,0-.86-.06-1,.14s.24.62.36.76a6.26,6.26,0,0,0,.76.6c.33.25.67.47,1,.71l3.44,2.44,5.56,3.94.17.11V217.5A11.55,11.55,0,0,0,53,231.67a11.36,11.36,0,0,0,3.07.41h152.5a11.54,11.54,0,0,0,11.55-11.52,11.35,11.35,0,0,0-.42-3.06Z"/><g class="cls-6"><path class="cls-7" d="M214.89,221.07c0-8.62-36.86-11.59-82.32-11.59s-82.32,3.3-82.32,11.92,8,6.88,82.32,7.57C203.08,229.62,214.89,229.69,214.89,221.07Z"/><rect class="cls-8" x="18.21" y="77.15" width="225.47" height="175.35"/></g><g class="cls-9"><path class="cls-10" d="M64,167.42a4.66,4.66,0,0,1-5.67-3.36h0a5.85,5.85,0,0,1-.14-1.18l.7-107.71a4.66,4.66,0,0,1,9.31,0l-.7,107.73A4.64,4.64,0,0,1,64,167.42Z"/></g><circle class="cls-11" cx="65.59" cy="112.06" r="13.58"/><circle class="cls-12" cx="65.42" cy="161.84" r="0.45"/><circle class="cls-13" cx="65.4" cy="165.71" r="0.45"/><circle class="cls-14" cx="65.41" cy="163.56" r="3.4"/><line class="cls-1" x1="65.55" y1="122.79" x2="65.4" y2="165.71"/><circle class="cls-15" cx="65.55" cy="122.79" r="9.05"/><circle class="cls-16" cx="65.55" cy="122.79" r="4.53"/><circle class="cls-17" cx="65.55" cy="122.79" r="3.77"/><polyline class="cls-18" points="65.55 122.79 67.59 137.52 65.55 122.79 63.52 108.06 65.55 122.79 50.83 124.83 65.55 122.79 80.29 120.76 65.55 122.79 73.15 140.45 65.55 122.79 57.97 105.13 65.55 122.79 47.9 130.39 65.55 122.79 83.22 115.2 65.55 122.79 79.22 134.97 65.55 122.79 51.9 110.61 65.55 122.79 53.37 136.45 65.55 122.79 77.73 109.14 65.55 122.79 66.47 135.54 65.55 122.79 64.64 110.05 65.55 122.79 52.81 123.71 65.55 122.79 78.3 121.88 65.55 122.79 65.89 124.27 65.55 122.79 65.22 121.32 65.55 122.79 64.08 123.13 65.55 122.79 67.03 122.45 65.55 122.79 61.29 141.61 65.55 122.79 69.83 103.97 65.55 122.79 46.73 118.53 65.55 122.79 84.37 127.06 65.55 122.79 63.17 129.06 65.55 122.79 67.94 116.52 65.55 122.79 59.29 120.41 65.55 122.79 71.83 125.18 65.55 122.79 68.94 126.49 65.55 122.79 62.16 119.09 65.55 122.79 61.85 126.18 65.55 122.79 69.25 119.4 65.55 122.79 86.2 131.96 65.55 122.79 44.91 113.62 65.55 122.79 56.38 143.44 65.55 122.79 74.72 102.15 65.55 122.79 74.62 139.27 65.55 122.79 56.49 106.31 65.55 122.79 49.08 131.86 65.55 122.79 82.03 113.73 65.55 122.79 75.22 142.39 65.55 122.79 55.88 103.2 65.55 122.79 45.97 132.46 65.55 122.79 85.15 113.12 65.55 122.79 68.42 126.02 65.55 122.79 62.69 119.56 65.55 122.79 62.33 125.66 65.55 122.79 68.78 119.93 65.55 122.79 79.78 129.3 65.55 122.79 51.34 116.28 65.55 122.79 59.04 137.01 65.55 122.79 72.08 108.58 65.55 122.79 64.73 139.49 65.55 122.79 66.39 106.09 65.55 122.79 48.85 121.96 65.55 122.79 82.25 123.62 65.55 122.79 70.44 135.57 65.55 122.79 60.69 110.01 65.55 122.79 52.77 127.67 65.55 122.79 78.33 117.92"/><circle class="cls-19" cx="65.4" cy="165.71" r="6.79"/><circle class="cls-20" cx="65.43" cy="157.42" r="1.93"/><circle class="cls-21" cx="65.51" cy="135.05" r="1.08"/><circle class="cls-22" cx="65.46" cy="148.7" r="0.71"/><circle class="cls-23" cx="65.45" cy="150.87" r="1"/><circle class="cls-24" cx="65.43" cy="157" r="1.86"/><path class="cls-25" d="M209.55,212.24V79.17h0c0,4.75-55.69,8.6-77.27,8.6S55,83.91,55,79.17h0V212.24c.07,5.91,2.77,11.84,8.94,11.84H200.61C206.78,224.08,209.62,218,209.55,212.24Z"/><g class="cls-26"><path class="cls-27" d="M136.9,113.44c-18.68,1.5-37.42,2.26-56.1,3.8-20,1.63-41.8,7.14-57.54,20.19l-.44.38c-8.76,7.43-16,18-15.41,29.46.44,9,5.68,17.24,12.53,23.09s15.2,9.61,23.57,12.92c48.7,19.22,104.27,25.27,153.43,7.27,9.89-3.62,19.53-8.23,27.68-14.89s14.79-15.49,17.52-25.66c2.81-10.48,1.31-21.89-3.26-31.73-4.33-9.32-11.15-16.48-14-26.61-.53-1.88-1.11-4-2.76-5a7.37,7.37,0,0,0-3.74-.85c-21.64-1-42.53,3.5-63.88,5.94C148.66,112.41,142.78,113,136.9,113.44Z"/><path class="cls-28" d="M132,153.34c-18.42,3.47-37,6.22-55.38,9.72-19.71,3.75-40.81,11.54-55.07,26.18l-.41.42C13.24,198,7.16,209.24,9,220.59c1.4,8.9,7.48,16.54,14.91,21.63S40,250.17,48.69,252.57c50.46,14,106.36,14.08,153.33-9,9.45-4.65,18.55-10.26,25.95-17.74s13.06-17,14.7-27.37c1.69-10.72-1-21.9-6.6-31.2-5.3-8.81-12.83-15.21-16.72-25-.72-1.82-1.52-3.82-3.27-4.69a7.5,7.5,0,0,0-3.81-.45c-21.62,1.3-41.91,8-62.89,12.68Q140.73,151.7,132,153.34Z"/></g><path class="cls-29" d="M209.55,79.17c0,4.75-55.69,8.6-77.27,8.6S55,83.91,55,79.17s55.71-8.59,77.29-8.59S209.55,74.42,209.55,79.17Z"/><g class="cls-30"><circle class="cls-31" cx="102.64" cy="87.76" r="14.91"/><ellipse class="cls-32" cx="101.6" cy="79.53" rx="9.96" ry="6.01" transform="translate(-5.74 7.94) rotate(-4.35)"/><circle class="cls-33" cx="110.57" cy="80.27" r="1.22"/><circle class="cls-34" cx="112.48" cy="81.88" r="0.44"/><circle class="cls-35" cx="96.09" cy="97.86" r="0.44"/><path class="cls-36" d="M90.78,88.85c-.15,2.88,1.58,7,4.34,8.25"/><circle class="cls-37" cx="109.35" cy="95.87" r="1.36"/></g><g class="cls-30"><circle class="cls-38" cx="146.86" cy="69.48" r="8.43"/><ellipse class="cls-39" cx="146.27" cy="64.82" rx="5.63" ry="3.4" transform="translate(-4.5 11.28) rotate(-4.35)"/><circle class="cls-40" cx="151.34" cy="65.25" r="0.69"/><circle class="cls-41" cx="152.42" cy="66.16" r="0.25"/><circle class="cls-42" cx="143.16" cy="75.19" r="0.25"/><path class="cls-43" d="M140.15,70.1c-.08,1.63.9,4,2.46,4.66"/><circle class="cls-44" cx="150.65" cy="74.07" r="0.77"/></g><g class="cls-30"><circle class="cls-45" cx="129" cy="50.51" r="4.48"/><ellipse class="cls-46" cx="128.7" cy="48.03" rx="3" ry="1.81" transform="translate(-3.27 9.9) rotate(-4.35)"/><circle class="cls-47" cx="131.39" cy="48.26" r="0.37"/><circle class="cls-48" cx="131.96" cy="48.74" r="0.13"/><circle class="cls-49" cx="127.03" cy="53.54" r="0.13"/><path class="cls-50" d="M125.44,50.84a2.81,2.81,0,0,0,1.3,2.48"/><circle class="cls-51" cx="131.02" cy="52.95" r="0.41"/></g><g class="cls-52"><circle class="cls-53" cx="174.41" cy="121.66" r="9.84"/><ellipse class="cls-54" cx="173.74" cy="116.22" rx="6.58" ry="3.96" transform="translate(-8.31 13.51) rotate(-4.35)"/><circle class="cls-55" cx="179.64" cy="116.72" r="0.81"/><circle class="cls-56" cx="180.9" cy="117.78" r="0.29"/><circle class="cls-57" cx="170.09" cy="128.32" r="0.29"/><path class="cls-58" d="M166.58,122.38c-.1,1.9,1,4.64,2.87,5.44"/><circle class="cls-59" cx="178.84" cy="127.01" r="0.89"/></g><g class="cls-52"><circle class="cls-60" cx="157.46" cy="142.1" r="5.23"/><ellipse class="cls-61" cx="157.12" cy="139.21" rx="3.5" ry="2.11" transform="translate(-10.11 12.32) rotate(-4.35)"/><circle class="cls-62" cx="160.25" cy="139.47" r="0.43"/><circle class="cls-63" cx="160.92" cy="140.04" r="0.16"/><circle class="cls-64" cx="155.17" cy="145.65" r="0.16"/><path class="cls-65" d="M153.3,142.48a3.27,3.27,0,0,0,1.53,2.9"/><circle class="cls-66" cx="159.82" cy="144.95" r="0.48"/></g><polygon class="cls-67" points="226.31 171.28 30.75 171.28 15.57 250.44 211.13 250.44 226.31 171.28"/><polygon class="cls-68" points="226.31 171.28 232.94 241.25 230.32 243.29 215.33 243.46 214.22 248.01 211.13 250.44 226.31 171.28"/><g class="cls-69"><path class="cls-70" d="M193.48,145.51a4.25,4.25,0,0,1-4.13-3.36V77.08a4.28,4.28,0,0,1-.09-.87V37a4.23,4.23,0,1,1,8.46,0h0V75.77l-.09,64.64a4.22,4.22,0,0,1-3.28,5,4.14,4.14,0,0,1-.87.09Z"/></g><circle class="cls-71" cx="194.42" cy="154.57" r="4.23"/></svg>