<svg id="Layer_1" data-name="Layer 1" xmlns="http://www.w3.org/2000/svg" xmlns:xlink="http://www.w3.org/1999/xlink" viewBox="0 0 235.13 262.86"><defs><style>.cls-1,.cls-22,.cls-40,.cls-47,.cls-54,.cls-62,.cls-69{fill:none;}.cls-2,.cls-5{opacity:0.72;}.cls-13,.cls-14,.cls-15,.cls-18,.cls-19,.cls-2,.cls-20,.cls-22,.cls-23,.cls-29,.cls-31,.cls-32,.cls-33,.cls-5,.cls-8{isolation:isolate;}.cls-2{fill:url(#linear-gradient);}.cls-3{fill:#683d14;fill-opacity:0.51;}.cls-4{fill:url(#linear-gradient-2);}.cls-5{fill:url(#linear-gradient-3);}.cls-6{clip-path:url(#clip-path);}.cls-7{fill:url(#linear-gradient-4);}.cls-8{opacity:0.42;fill:url(#linear-gradient-5);}.cls-9{opacity:0.54;}.cls-10{fill:url(#radial-gradient);}.cls-11,.cls-29,.cls-33{opacity:0.8;}.cls-12{fill:url(#radial-gradient-2);}.cls-13,.cls-14,.cls-20,.cls-23{opacity:0.5;}.cls-13{fill:url(#radial-gradient-3);}.cls-14{fill:url(#radial-gradient-4);}.cls-15{opacity:0.25;fill:url(#radial-gradient-5);}.cls-16{fill:url(#radial-gradient-6);}.cls-17{fill:url(#radial-gradient-7);}.cls-18,.cls-56{opacity:0.2;}.cls-18{fill:url(#radial-gradient-8);}.cls-19{opacity:0.15;fill:url(#radial-gradient-9);}.cls-20{fill:url(#radial-gradient-10);}.cls-21{fill:url(#radial-gradient-11);}.cls-22{stroke:#fff;stroke-width:1.69px;opacity:0.03;}.cls-22,.cls-33{stroke-miterlimit:10;}.cls-23{fill:url(#radial-gradient-12);}.cls-24{fill:url(#radial-gradient-13);}.cls-25{fill:url(#radial-gradient-14);}.cls-26{fill:url(#radial-gradient-15);}.cls-27{fill:url(#radial-gradient-16);}.cls-28{fill:url(#radial-gradient-17);}.cls-29{fill:url(#linear-gradient-6);}.cls-30{clip-path:url(#clip-path-2);}.cls-31,.cls-32,.cls-34{opacity:0.3;}.cls-31{fill:url(#linear-gradient-7);}.cls-32{fill:url(#linear-gradient-8);}.cls-33,.cls-40{stroke-width:0.85px;}.cls-33{fill:url(#linear-gradient-9);stroke:url(#linear-gradient-10);}.cls-35{fill:url(#radial-gradient-18);}.cls-36{fill:url(#radial-gradient-19);}.cls-37{fill:url(#radial-gradient-20);}.cls-38{fill:url(#radial-gradient-21);}.cls-39{fill:url(#radial-gradient-22);}.cls-40,.cls-47,.cls-54,.cls-62,.cls-69{stroke-linecap:round;stroke-linejoin:round;}.cls-40{stroke:url(#radial-gradient-23);}.cls-41{fill:url(#radial-gradient-24);}.cls-42{fill:url(#radial-gradient-25);}.cls-43{fill:url(#radial-gradient-26);}.cls-44{fill:url(#radial-gradient-27);}.cls-45{fill:url(#radial-gradient-28);}.cls-46{fill:url(#radial-gradient-29);}.cls-47{stroke-width:0.48px;stroke:url(#radial-gradient-30);}.cls-48{fill:url(#radial-gradient-31);}.cls-49{fill:url(#radial-gradient-32);}.cls-50{fill:url(#radial-gradient-33);}.cls-51{fill:url(#radial-gradient-34);}.cls-52{fill:url(#radial-gradient-35);}.cls-53{fill:url(#radial-gradient-36);}.cls-54{stroke-width:0.25px;stroke:url(#radial-gradient-37);}.cls-55{fill:url(#radial-gradient-38);}.cls-57{fill:url(#radial-gradient-39);}.cls-58{fill:url(#radial-gradient-40);}.cls-59{fill:url(#radial-gradient-41);}.cls-60{fill:url(#radial-gradient-42);}.cls-61{fill:url(#radial-gradient-43);}.cls-62{stroke-width:0.56px;stroke:url(#radial-gradient-44);}.cls-63{fill:url(#radial-gradient-45);}.cls-64{fill:url(#radial-gradient-46);}.cls-65{fill:url(#radial-gradient-47);}.cls-66{fill:url(#radial-gradient-48);}.cls-67{fill:url(#radial-gradient-49);}.cls-68{fill:url(#radial-gradient-50);}.cls-69{stroke-width:0.3px;stroke:url(#radial-gradient-51);}.cls-70{fill:url(#radial-gradient-52);}.cls-71{fill:#fff;}.cls-72{fill:#c7c6c6;}</style><linearGradient id="linear-gradient" x1="126.12" y1="496.33" x2="126.12" y2="522.9" gradientTransform="translate(0 -500)" gradientUnits="userSpaceOnUse"><stop offset="0" stop-color="#f6fbff"/><stop offset="0.63" stop-color="#e9f1f6"/><stop offset="1" stop-color="#c5dae1"/></linearGradient><linearGradient id="linear-gradient-2" x1="143.98" y1="519.67" x2="121.68" y2="701.28" gradientTransform="translate(0 -500)" gradientUnits="userSpaceOnUse"><stop offset="0" stop-color="#c0c5c8"/><stop offset="1" stop-color="#b0c2c9"/></linearGradient><linearGradient id="linear-gradient-3" x1="77.69" y1="623.51" x2="172.07" y2="623.51" xlink:href="#linear-gradient"/><clipPath id="clip-path"><path class="cls-1" d="M219.14,218.28V14.16c0,4.93-63.58,8.92-87.38,8.92h-3.6c-4.79-.07-9.59-.25-14.39-.47-5.67-.26-11.35-.58-17-1Q88,21,79.25,20.21c-5.3-.49-10.6-1-15.88-1.73C59.48,18,55.64,17,51.7,17s-7.63,1.67-11.44,2.5l-1,.2a19.8,19.8,0,0,1-3.84.59c-.46,0-.91.09-1.37.12-.22,0-.86-.06-1,.14s.24.62.36.76a6.26,6.26,0,0,0,.76.6c.33.25.67.47,1,.71l3.44,2.44L44.18,29l.16.11V218.28a11.55,11.55,0,0,0,8.1,14.17,11.4,11.4,0,0,0,3,.41H208a11.54,11.54,0,0,0,11.55-11.52A11.24,11.24,0,0,0,219.14,218.28Z"/></clipPath><linearGradient id="linear-gradient-4" x1="93.1" y1="621.89" x2="144.28" y2="754.06" gradientTransform="translate(0 -500)" gradientUnits="userSpaceOnUse"><stop offset="0" stop-color="#f5f5f5"/><stop offset="1" stop-color="#c3d1d6"/></linearGradient><linearGradient id="linear-gradient-5" x1="71.66" y1="665.6" x2="185.76" y2="665.6" gradientTransform="translate(0 -500)" gradientUnits="userSpaceOnUse"><stop offset="0" stop-color="#55af31"/><stop offset="1" stop-color="#8ebf29"/></linearGradient><radialGradient id="radial-gradient" cx="-2318.68" cy="-11023.04" r="64.7" gradientTransform="matrix(0.01, 1, -0.12, 0, -1092.03, 2405.79)" gradientUnits="userSpaceOnUse"><stop offset="0" stop-color="#e6f3fc"/><stop offset="1" stop-color="#bacae9" stop-opacity="0"/></radialGradient><radialGradient id="radial-gradient-2" cx="-2036.77" cy="10139.25" r="54.3" gradientTransform="matrix(0.01, -1, 0.16, 0, -1547, -1926.6)" xlink:href="#radial-gradient"/><radialGradient id="radial-gradient-3" cx="199.95" cy="655.37" r="3.83" gradientTransform="translate(0 -500)" xlink:href="#radial-gradient"/><radialGradient id="radial-gradient-4" cx="199.95" cy="582.19" r="3.83" gradientTransform="translate(0 -500)" xlink:href="#radial-gradient"/><radialGradient id="radial-gradient-5" cx="-1634.99" cy="89.46" r="13.58" gradientTransform="translate(1599.59 -458.5) rotate(-17.29)" gradientUnits="userSpaceOnUse"><stop offset="0.1" stop-color="#010101"/><stop offset="0.11" stop-color="#070706"/><stop offset="0.16" stop-color="#221d12"/><stop offset="0.22" stop-color="#392e16"/><stop offset="0.28" stop-color="#4a3a17"/><stop offset="0.37" stop-color="#564318"/><stop offset="0.48" stop-color="#5c4918"/><stop offset="0.8" stop-color="#5f4a17"/><stop offset="1" stop-color="#010101"/></radialGradient><radialGradient id="radial-gradient-6" cx="-1640.32" cy="140.78" r="0.45" gradientTransform="matrix(0.95, -0.3, 0.3, 0.95, 1587.22, -452.48)" gradientUnits="userSpaceOnUse"><stop offset="0" stop-color="#d5e195"/><stop offset="0.06" stop-color="#b1bb79"/><stop offset="0.14" stop-color="#868f5f"/><stop offset="0.22" stop-color="#646946"/><stop offset="0.31" stop-color="#454930"/><stop offset="0.4" stop-color="#2c2f1f"/><stop offset="0.51" stop-color="#191a13"/><stop offset="0.62" stop-color="#0b0c0a"/><stop offset="0.76" stop-color="#020404"/><stop offset="1" stop-color="#010101"/></radialGradient><radialGradient id="radial-gradient-7" cx="-1651.12" cy="140.62" r="0.45" gradientTransform="translate(1599.6 -458.5) rotate(-17.29)" xlink:href="#radial-gradient-6"/><radialGradient id="radial-gradient-8" cx="-1640.84" cy="142.42" r="3.4" gradientTransform="matrix(0.95, -0.3, 0.3, 0.95, 1587.22, -452.48)" gradientUnits="userSpaceOnUse"><stop offset="0.05" stop-color="#010101"/><stop offset="0.09" stop-color="#070b08"/><stop offset="0.3" stop-color="#1f341c"/><stop offset="0.48" stop-color="#265325"/><stop offset="0.64" stop-color="#30672c"/><stop offset="0.75" stop-color="#336e2e"/><stop offset="0.79" stop-color="#506f2a"/><stop offset="0.83" stop-color="#717021"/><stop offset="0.86" stop-color="#7f701b"/><stop offset="0.89" stop-color="#7a6d1c"/><stop offset="0.91" stop-color="#71641b"/><stop offset="0.94" stop-color="#5e5419"/><stop offset="0.96" stop-color="#433d18"/><stop offset="0.98" stop-color="#232114"/><stop offset="1" stop-color="#010101"/></radialGradient><radialGradient id="radial-gradient-9" cx="-1628.59" cy="103.53" r="9.05" gradientTransform="matrix(0.95, -0.3, 0.3, 0.95, 1587.22, -452.48)" gradientUnits="userSpaceOnUse"><stop offset="0" stop-color="#1d090a"/><stop offset="0.73" stop-color="#994123"/><stop offset="1" stop-color="#1d090a"/></radialGradient><radialGradient id="radial-gradient-10" cx="-1628.59" cy="103.53" r="4.53" gradientTransform="matrix(0.95, -0.3, 0.3, 0.95, 1587.22, -452.48)" gradientUnits="userSpaceOnUse"><stop offset="0.15" stop-color="#fff"/><stop offset="0.21" stop-color="#e5d3d3"/><stop offset="0.29" stop-color="#c49c9e"/><stop offset="0.36" stop-color="#ad7477"/><stop offset="0.42" stop-color="#9f5d60"/><stop offset="0.45" stop-color="#9a5457"/><stop offset="0.57" stop-color="#6b3436"/><stop offset="0.69" stop-color="#431719"/><stop offset="0.79" stop-color="#270d0e"/><stop offset="0.85" stop-color="#1d090a"/><stop offset="0.86" stop-color="#210a0a"/><stop offset="0.86" stop-color="#300f0e"/><stop offset="0.87" stop-color="#461410"/><stop offset="0.88" stop-color="#641e11"/><stop offset="0.89" stop-color="#8b2e19"/><stop offset="0.9" stop-color="#b84323"/><stop offset="0.9" stop-color="#d34f29"/><stop offset="0.9" stop-color="#c94928"/><stop offset="0.91" stop-color="#9d371d"/><stop offset="0.93" stop-color="#772615"/><stop offset="0.94" stop-color="#591a10"/><stop offset="0.95" stop-color="#3e130f"/><stop offset="0.97" stop-color="#2b0e0d"/><stop offset="0.98" stop-color="#1f090b"/><stop offset="1" stop-color="#1d090a"/></radialGradient><radialGradient id="radial-gradient-11" cx="-1628.59" cy="103.53" r="3.77" gradientTransform="matrix(0.95, -0.3, 0.3, 0.95, 1587.22, -452.48)" gradientUnits="userSpaceOnUse"><stop offset="0.15" stop-color="#fff"/><stop offset="0.28" stop-color="#c3c2c2"/><stop offset="0.43" stop-color="#878889"/><stop offset="0.56" stop-color="#585858"/><stop offset="0.69" stop-color="#323232"/><stop offset="0.81" stop-color="#161617"/><stop offset="0.92" stop-color="#050606"/><stop offset="1" stop-color="#010101"/></radialGradient><radialGradient id="radial-gradient-12" cx="-1641.49" cy="144.47" r="6.79" gradientTransform="matrix(0.95, -0.3, 0.3, 0.95, 1587.22, -452.49)" gradientUnits="userSpaceOnUse"><stop offset="0.64" stop-color="#010101"/><stop offset="0.72" stop-color="#010302"/><stop offset="0.75" stop-color="#060908"/><stop offset="0.77" stop-color="#0c140e"/><stop offset="0.78" stop-color="#132517"/><stop offset="0.8" stop-color="#1b3b1d"/><stop offset="0.8" stop-color="#1c431f"/><stop offset="0.81" stop-color="#212c19"/><stop offset="0.83" stop-color="#2c190f"/><stop offset="0.85" stop-color="#33110d"/><stop offset="0.86" stop-color="#35100f"/><stop offset="0.87" stop-color="#200a0a"/><stop offset="0.89" stop-color="#100606"/><stop offset="0.9" stop-color="#050303"/><stop offset="0.93" stop-color="#020102"/><stop offset="1" stop-color="#010101"/></radialGradient><radialGradient id="radial-gradient-13" cx="-1639" cy="136.56" r="1.93" gradientTransform="matrix(0.95, -0.3, 0.3, 0.95, 1587.22, -452.48)" gradientUnits="userSpaceOnUse"><stop offset="0.1" stop-color="#010101"/><stop offset="0.25" stop-color="#1a130c"/><stop offset="0.43" stop-color="#352413"/><stop offset="0.61" stop-color="#483014"/><stop offset="0.8" stop-color="#533613"/><stop offset="1" stop-color="#573812"/></radialGradient><radialGradient id="radial-gradient-14" cx="-1632.27" cy="115.22" r="1.08" gradientTransform="matrix(0.95, -0.3, 0.3, 0.95, 1587.22, -452.48)" gradientUnits="userSpaceOnUse"><stop offset="0.1" stop-color="#1a301d"/><stop offset="0.23" stop-color="#142318"/><stop offset="0.48" stop-color="#0a0f0c"/><stop offset="0.73" stop-color="#030404"/><stop offset="1" stop-color="#010101"/></radialGradient><radialGradient id="radial-gradient-15" cx="64.95" cy="3147.21" r="0.71" gradientTransform="matrix(1, 0, 0, -1, 0, 3296.69)" xlink:href="#radial-gradient-13"/><radialGradient id="radial-gradient-16" cx="-1646.65" cy="126.46" r="1" gradientTransform="translate(1599.6 -458.5) rotate(-17.29)" gradientUnits="userSpaceOnUse"><stop offset="0.1" stop-color="#010101"/><stop offset="0.29" stop-color="#151711"/><stop offset="0.52" stop-color="#262a1b"/><stop offset="0.75" stop-color="#313523"/><stop offset="1" stop-color="#333824"/></radialGradient><radialGradient id="radial-gradient-17" cx="-1964.61" cy="2211.45" r="1.86" gradientTransform="matrix(1, 0, 0, -1, 0, 3296.69)" xlink:href="#radial-gradient-14"/><linearGradient id="linear-gradient-6" x1="191.75" y1="728.63" x2="73.65" y2="572.11" xlink:href="#linear-gradient-5"/><clipPath id="clip-path-2"><path class="cls-1" d="M209,213V80h0c0,4.75-55.69,8.6-77.27,8.6S54.48,84.7,54.48,80h0V213c.07,5.91,2.77,11.84,8.94,11.84H200.1C206.27,224.86,209.11,218.81,209,213Z"/></clipPath><linearGradient id="linear-gradient-7" x1="288.42" y1="675.27" x2="41.38" y2="652.29" xlink:href="#linear-gradient-5"/><linearGradient id="linear-gradient-8" x1="8.15" y1="700.39" x2="242.7" y2="700.39" xlink:href="#linear-gradient-5"/><linearGradient id="linear-gradient-9" x1="269.01" y1="579.95" x2="85.87" y2="579.95" xlink:href="#linear-gradient-5"/><linearGradient id="linear-gradient-10" x1="54.06" y1="579.95" x2="209.47" y2="579.95" gradientTransform="translate(0 -500)" gradientUnits="userSpaceOnUse"><stop offset="0" stop-color="#89bd24"/><stop offset="1" stop-color="#8ebf29"/></linearGradient><radialGradient id="radial-gradient-18" cx="-34.83" cy="2816.42" r="14.16" gradientTransform="matrix(0.25, -0.97, 0.96, 0.25, -2593.13, -648.56)" gradientUnits="userSpaceOnUse"><stop offset="0" stop-color="#7aba3e" stop-opacity="0.8"/><stop offset="0.3" stop-color="#7dba41" stop-opacity="0.8"/><stop offset="0.52" stop-color="#88be49" stop-opacity="0.8"/><stop offset="0.72" stop-color="#98c559" stop-opacity="0.8"/><stop offset="0.91" stop-color="#afcf6e" stop-opacity="0.81"/><stop offset="1" stop-color="#bed67a" stop-opacity="0.81"/></radialGradient><radialGradient id="radial-gradient-19" cx="189.89" cy="778.98" r="9.18" gradientTransform="translate(-136.04 -519.75) scale(1.24 0.77)" gradientUnits="userSpaceOnUse"><stop offset="0" stop-color="#85bd48"/><stop offset="0.38" stop-color="#85bd48" stop-opacity="0.99"/><stop offset="0.52" stop-color="#86be4a" stop-opacity="0.96"/><stop offset="0.61" stop-color="#87be4d" stop-opacity="0.91"/><stop offset="0.69" stop-color="#88bf50" stop-opacity="0.84"/><stop offset="0.76" stop-color="#8bc054" stop-opacity="0.75"/><stop offset="0.82" stop-color="#8cc159" stop-opacity="0.63"/><stop offset="0.87" stop-color="#8cc15f" stop-opacity="0.49"/><stop offset="0.92" stop-color="#90c363" stop-opacity="0.33"/><stop offset="0.97" stop-color="#92c46b" stop-opacity="0.16"/><stop offset="1" stop-color="#95c671" stop-opacity="0"/></radialGradient><radialGradient id="radial-gradient-20" cx="-26.89" cy="2808.91" r="1.16" gradientTransform="matrix(0.25, -0.97, 0.96, 0.25, -2580.06, -646.5)" gradientUnits="userSpaceOnUse"><stop offset="0" stop-color="#cbe2c0"/><stop offset="0.38" stop-color="#cbe2bf" stop-opacity="0.99"/><stop offset="0.52" stop-color="#c9e1bc" stop-opacity="0.96"/><stop offset="0.61" stop-color="#c7e0b8" stop-opacity="0.91"/><stop offset="0.69" stop-color="#c2ddb3" stop-opacity="0.84"/><stop offset="0.76" stop-color="#bddbac" stop-opacity="0.75"/><stop offset="0.82" stop-color="#b7d7a3" stop-opacity="0.63"/><stop offset="0.87" stop-color="#b0d398" stop-opacity="0.49"/><stop offset="0.92" stop-color="#a7ce89" stop-opacity="0.33"/><stop offset="0.97" stop-color="#9cc97d" stop-opacity="0.16"/><stop offset="1" stop-color="#95c671" stop-opacity="0"/></radialGradient><radialGradient id="radial-gradient-21" cx="-24.99" cy="2810.51" r="0.42" gradientTransform="matrix(0.25, -0.97, 0.96, 0.25, -2580.17, -643.45)" gradientUnits="userSpaceOnUse"><stop offset="0" stop-color="#cbe2c0"/><stop offset="0.22" stop-color="#cae2bf" stop-opacity="0.99"/><stop offset="0.36" stop-color="#c8e1bc" stop-opacity="0.95"/><stop offset="0.48" stop-color="#c5dfb7" stop-opacity="0.89"/><stop offset="0.58" stop-color="#c0dcaf" stop-opacity="0.8"/><stop offset="0.68" stop-color="#bbd9a7" stop-opacity="0.69"/><stop offset="0.77" stop-color="#b2d59c" stop-opacity="0.55"/><stop offset="0.85" stop-color="#a8cf8e" stop-opacity="0.38"/><stop offset="0.93" stop-color="#9fcb80" stop-opacity="0.2"/><stop offset="1" stop-color="#95c671" stop-opacity="0"/></radialGradient><radialGradient id="radial-gradient-22" cx="-41.37" cy="2826.49" r="0.42" gradientTransform="matrix(0.25, -0.97, 0.96, 0.25, -2607.67, -647.33)" xlink:href="#radial-gradient-21"/><radialGradient id="radial-gradient-23" cx="92.44" cy="593.75" r="3.7" gradientTransform="translate(0 -500)" xlink:href="#radial-gradient-20"/><radialGradient id="radial-gradient-24" cx="108.84" cy="415.12" r="1.69" gradientTransform="translate(0 -255.45) scale(1 0.85)" gradientUnits="userSpaceOnUse"><stop offset="0" stop-color="#85bd48"/><stop offset="0.09" stop-color="#86be49" stop-opacity="0.97"/><stop offset="0.23" stop-color="#87bf50" stop-opacity="0.88"/><stop offset="0.4" stop-color="#8bc054" stop-opacity="0.74"/><stop offset="0.59" stop-color="#8cc15d" stop-opacity="0.54"/><stop offset="0.79" stop-color="#90c366" stop-opacity="0.28"/><stop offset="1" stop-color="#95c671" stop-opacity="0"/></radialGradient><radialGradient id="radial-gradient-25" cx="9.39" cy="2798.12" r="8.01" gradientTransform="matrix(0.25, -0.97, 0.96, 0.25, -2542.66, -619.48)" xlink:href="#radial-gradient-18"/><radialGradient id="radial-gradient-26" cx="226.59" cy="766.48" r="5.19" gradientTransform="translate(-137.03 -524.81) scale(1.24 0.77)" xlink:href="#radial-gradient-19"/><radialGradient id="radial-gradient-27" cx="13.87" cy="2793.89" r="0.66" gradientTransform="matrix(0.25, -0.97, 0.96, 0.25, -2535.27, -618.32)" xlink:href="#radial-gradient-20"/><radialGradient id="radial-gradient-28" cx="14.95" cy="2794.79" r="0.24" gradientTransform="matrix(0.25, -0.97, 0.96, 0.25, -2535.33, -616.6)" xlink:href="#radial-gradient-21"/><radialGradient id="radial-gradient-29" cx="5.69" cy="2803.82" r="0.24" gradientTransform="matrix(0.25, -0.97, 0.96, 0.25, -2550.87, -618.79)" xlink:href="#radial-gradient-21"/><radialGradient id="radial-gradient-30" cx="140.87" cy="573.21" r="2.09" gradientTransform="translate(0 -500)" xlink:href="#radial-gradient-20"/><radialGradient id="radial-gradient-31" cx="150.14" cy="393.32" r="0.95" gradientTransform="translate(0 -258.61) scale(1 0.85)" xlink:href="#radial-gradient-24"/><radialGradient id="radial-gradient-32" cx="-8.46" cy="2779.14" r="4.26" gradientTransform="matrix(0.25, -0.97, 0.96, 0.25, -2537.85, -650.97)" xlink:href="#radial-gradient-18"/><radialGradient id="radial-gradient-33" cx="213.53" cy="746.43" r="2.76" gradientTransform="translate(-138.35 -526.16) scale(1.24 0.77)" xlink:href="#radial-gradient-19"/><radialGradient id="radial-gradient-34" cx="-6.08" cy="2776.89" r="0.35" gradientTransform="matrix(0.25, -0.97, 0.96, 0.25, -2533.92, -650.35)" xlink:href="#radial-gradient-20"/><radialGradient id="radial-gradient-35" cx="-5.51" cy="2777.37" r="0.13" gradientTransform="matrix(0.25, -0.97, 0.96, 0.25, -2533.95, -649.44)" xlink:href="#radial-gradient-21"/><radialGradient id="radial-gradient-36" cx="-10.43" cy="2782.18" r="0.13" gradientTransform="matrix(0.25, -0.97, 0.96, 0.25, -2542.22, -650.6)" xlink:href="#radial-gradient-21"/><radialGradient id="radial-gradient-37" cx="125.58" cy="552.86" r="1.11" gradientTransform="translate(0 -500)" xlink:href="#radial-gradient-20"/><radialGradient id="radial-gradient-38" cx="130.51" cy="372.2" r="0.51" gradientTransform="translate(0 -261.68) scale(1 0.85)" xlink:href="#radial-gradient-24"/><radialGradient id="radial-gradient-39" cx="36.94" cy="2850.3" r="9.35" gradientTransform="matrix(0.25, -0.97, 0.96, 0.25, -2571.98, -553.74)" xlink:href="#radial-gradient-18"/><radialGradient id="radial-gradient-40" cx="245.46" cy="825.6" r="6.05" gradientTransform="translate(-133.06 -519.01) scale(1.24 0.77)" xlink:href="#radial-gradient-19"/><radialGradient id="radial-gradient-41" cx="42.18" cy="2845.36" r="0.77" gradientTransform="matrix(0.25, -0.97, 0.96, 0.25, -2563.35, -552.38)" xlink:href="#radial-gradient-20"/><radialGradient id="radial-gradient-42" cx="43.44" cy="2846.41" r="0.28" gradientTransform="matrix(0.25, -0.97, 0.96, 0.25, -2563.42, -550.36)" xlink:href="#radial-gradient-21"/><radialGradient id="radial-gradient-43" cx="32.62" cy="2856.96" r="0.28" gradientTransform="matrix(0.25, -0.97, 0.96, 0.25, -2581.57, -552.92)" xlink:href="#radial-gradient-21"/><radialGradient id="radial-gradient-44" cx="167.51" cy="625.88" r="2.44" gradientTransform="translate(0 -500)" xlink:href="#radial-gradient-20"/><radialGradient id="radial-gradient-45" cx="178.33" cy="446.26" r="1.11" gradientTransform="translate(0 -250.92) scale(1 0.85)" xlink:href="#radial-gradient-24"/><radialGradient id="radial-gradient-46" cx="20" cy="2870.74" r="4.97" gradientTransform="matrix(0.25, -0.97, 0.96, 0.25, -2604.16, -554.81)" xlink:href="#radial-gradient-18"/><radialGradient id="radial-gradient-47" cx="230.74" cy="849.6" r="3.22" gradientTransform="translate(-131.36 -514.53) scale(1.24 0.77)" xlink:href="#radial-gradient-19"/><radialGradient id="radial-gradient-48" cx="22.78" cy="2868.11" r="0.41" gradientTransform="matrix(0.25, -0.97, 0.96, 0.25, -2599.57, -554.09)" xlink:href="#radial-gradient-20"/><radialGradient id="radial-gradient-49" cx="23.45" cy="2868.67" r="0.15" gradientTransform="matrix(0.25, -0.97, 0.96, 0.25, -2599.61, -553.02)" xlink:href="#radial-gradient-21"/><radialGradient id="radial-gradient-50" cx="17.7" cy="2874.28" r="0.15" gradientTransform="matrix(0.25, -0.97, 0.96, 0.25, -2609.26, -554.38)" xlink:href="#radial-gradient-21"/><radialGradient id="radial-gradient-51" cx="153.55" cy="644.71" r="1.3" gradientTransform="translate(0 -500)" xlink:href="#radial-gradient-20"/><radialGradient id="radial-gradient-52" cx="159.31" cy="464.2" r="0.59" gradientTransform="translate(0 -248.32) scale(1 0.85)" xlink:href="#radial-gradient-24"/></defs><path class="cls-2" d="M219.12,14.16c0,4.93-63.58,8.92-87.38,8.92-4.58,0-9.17-.12-13.75-.28q-9.64-.35-19.27-.92-10.14-.61-20.27-1.47c-2.53-.22-5-.45-7.58-.7s-5.15-.55-7.72-.86c-1.25-.16-2.48-.36-3.71-.62s-2.48-.49-3.73-.66a21.87,21.87,0,0,0-7.13,0C46.25,18,44,18.85,41.7,19.41a42,42,0,0,1-8.59,1.12,7.59,7.59,0,0,1,1.6-1.4,37.57,37.57,0,0,1,4.44-2.53c2.14-1.08,4.26-2.37,6.46-3.41A29.55,29.55,0,0,1,53.05,11c4.44-.82,8.93-1.38,13.42-1.88,5.61-.64,11.23-1.14,16.86-1.59q9-.71,18-1.21,8.44-.48,16.9-.78c4.5-.15,9-.27,13.49-.27C155.54,5.25,219.12,9.24,219.12,14.16Z"/><polygon class="cls-3" points="15.06 251.22 3.46 257.65 214.53 257.65 232.47 244.52 232.43 242.03 15.06 251.22"/><path class="cls-4" d="M213.33,216.55l-.87-199.39c-12.06,5.92-64.22,5.92-80.7,5.92h-4c-1.26,0-2.53-.06-3.79-.11-1.43,0-2.86-.1-4.29-.16L115,22.6l-5-.26-5.26-.29c-1.8-.1-3.61-.21-5.41-.33l-5.5-.35L88.35,21l-5.4-.4-5.24-.41-5-.42c-1.56-.13-3.11-.27-4.66-.42l-4.21-.43-1.94-.2c-.94-.15-1.89-.35-2.82-.59L58.56,18a26,26,0,0,0-7.36-.7L50,17.33l.22,199.21a9.83,9.83,0,0,0,6.76,12.12,10.62,10.62,0,0,0,2.68.37H203.9a9.81,9.81,0,0,0,9.81-9.81A9.22,9.22,0,0,0,213.33,216.55Z"/><path class="cls-5" d="M219.14,218.28V14.16c0,4.93-63.58,8.92-87.38,8.92h-3.6c-4.79-.07-9.59-.25-14.39-.47-5.67-.26-11.35-.58-17-1Q88,21,79.25,20.21c-5.3-.49-10.6-1-15.88-1.73C59.48,18,55.64,17,51.7,17s-7.63,1.67-11.44,2.5l-1,.2a19.8,19.8,0,0,1-3.84.59c-.46,0-.91.09-1.37.12-.22,0-.86-.06-1,.14s.24.62.36.76a6.26,6.26,0,0,0,.76.6c.33.25.67.47,1,.71l3.44,2.44L44.18,29l.16.11V218.28a11.55,11.55,0,0,0,8.1,14.17,11.4,11.4,0,0,0,3,.41H208a11.54,11.54,0,0,0,11.55-11.52A11.24,11.24,0,0,0,219.14,218.28Z"/><g class="cls-6"><path class="cls-7" d="M214.38,221.85c0-8.62-36.86-11.59-82.32-11.59s-82.32,3.3-82.32,11.92,8,6.88,82.32,7.57C202.57,230.4,214.38,230.47,214.38,221.85Z"/><rect class="cls-8" x="17.7" y="77.93" width="225.47" height="175.35"/></g><g class="cls-9"><path class="cls-10" d="M198.92,146.29a4.25,4.25,0,0,1-4.14-3.36V77.86a4.28,4.28,0,0,1-.09-.87V37.81a4.23,4.23,0,0,1,8.46,0h0V76.55l-.09,64.64a4.22,4.22,0,0,1-3.27,5A4.93,4.93,0,0,1,198.92,146.29Z"/></g><g class="cls-11"><path class="cls-12" d="M63.51,168.2a4.66,4.66,0,0,1-5.66-3.36h0a5.94,5.94,0,0,1-.14-1.18L58.4,56a4.66,4.66,0,0,1,9.31.06L67,163.74A4.65,4.65,0,0,1,63.51,168.2Z"/></g><circle class="cls-13" cx="199.85" cy="155.35" r="4.23"/><circle class="cls-14" cx="199.85" cy="82.17" r="4.23"/><circle class="cls-15" cx="65.08" cy="112.84" r="13.58"/><circle class="cls-16" cx="64.91" cy="162.62" r="0.45"/><circle class="cls-17" cx="64.89" cy="166.5" r="0.45"/><circle class="cls-18" cx="64.9" cy="164.34" r="3.4"/><line class="cls-1" x1="65.04" y1="123.57" x2="64.89" y2="166.49"/><circle class="cls-19" cx="65.04" cy="123.57" r="9.05"/><circle class="cls-20" cx="65.04" cy="123.57" r="4.53"/><circle class="cls-21" cx="65.04" cy="123.57" r="3.77"/><polyline class="cls-22" points="65.05 123.57 67.08 138.3 65.05 123.57 63.02 108.84 65.05 123.57 50.31 125.61 65.05 123.57 79.78 121.54 65.05 123.57 72.64 141.23 65.05 123.57 57.45 105.91 65.05 123.57 47.38 131.17 65.05 123.57 82.72 115.98 65.05 123.57 78.7 135.75 65.05 123.57 51.4 111.39 65.05 123.57 52.88 137.23 65.05 123.57 77.22 109.92 65.05 123.57 65.97 136.32 65.05 123.57 64.14 110.83 65.05 123.57 52.3 124.49 65.05 123.57 77.8 122.66 65.05 123.57 65.39 125.05 65.05 123.57 64.7 122.1 65.05 123.57 63.58 123.91 65.05 123.57 66.53 123.23 65.05 123.57 60.78 142.39 65.05 123.57 69.31 104.75 65.05 123.57 46.23 119.31 65.05 123.57 83.86 127.84 65.05 123.57 62.66 129.84 65.05 123.57 67.44 117.3 65.05 123.57 58.78 121.19 65.05 123.57 71.31 125.96 65.05 123.57 68.44 127.27 65.05 123.57 61.66 119.87 65.05 123.57 61.34 126.96 65.05 123.57 68.75 120.18 65.05 123.57 85.69 132.74 65.05 123.57 44.41 114.4 65.05 123.57 55.88 144.22 65.05 123.57 74.22 102.93 65.05 123.57 74.11 140.05 65.05 123.57 55.98 107.09 65.05 123.57 48.56 132.64 65.05 123.57 81.53 114.51 65.05 123.57 74.72 143.17 65.05 123.57 55.38 103.98 65.05 123.57 45.45 133.24 65.05 123.57 84.64 113.9 65.05 123.57 67.92 126.8 65.05 123.57 62.19 120.34 65.05 123.57 61.81 126.44 65.05 123.57 68.28 120.71 65.05 123.57 79.27 130.08 65.05 123.57 50.84 117.06 65.05 123.57 58.53 137.79 65.05 123.57 71.56 109.36 65.05 123.57 64.22 140.27 65.05 123.57 65.88 106.87 65.05 123.57 48.34 122.74 65.05 123.57 81.75 124.4 65.05 123.57 69.92 136.35 65.05 123.57 60.17 110.79 65.05 123.57 52.27 128.45 65.05 123.57 77.83 118.7"/><circle class="cls-23" cx="64.89" cy="166.49" r="6.79"/><circle class="cls-24" cx="64.92" cy="158.2" r="1.93"/><circle class="cls-25" cx="65" cy="135.83" r="1.08"/><circle class="cls-26" cx="64.95" cy="149.48" r="0.71"/><circle class="cls-27" cx="64.94" cy="151.64" r="1"/><circle class="cls-28" cx="64.92" cy="157.78" r="1.86"/><path class="cls-29" d="M209,213V80h0c0,4.75-55.69,8.6-77.27,8.6S54.48,84.7,54.48,80h0V213c.07,5.91,2.77,11.84,8.94,11.84H200.1C206.27,224.86,209.11,218.81,209,213Z"/><g class="cls-30"><path class="cls-31" d="M136.39,114.22c-18.68,1.5-37.42,2.26-56.1,3.8-20,1.63-41.8,7.14-57.54,20.19l-.44.38c-8.76,7.43-16,18-15.41,29.46.44,9,5.68,17.24,12.53,23.09s15.2,9.61,23.57,12.92c48.7,19.22,104.27,25.27,153.43,7.27,9.89-3.62,19.53-8.23,27.68-14.89S238.9,181,241.63,170.78c2.81-10.48,1.31-21.89-3.26-31.73-4.33-9.32-11.15-16.48-14-26.61-.53-1.88-1.11-4-2.76-5a7.37,7.37,0,0,0-3.74-.85c-21.64-1-42.53,3.5-63.88,5.94C148.15,113.19,142.27,113.74,136.39,114.22Z"/><path class="cls-32" d="M131.52,154.12c-18.42,3.47-37,6.22-55.38,9.72C56.43,167.59,35.33,175.38,21.07,190l-.41.42c-7.92,8.32-14,19.58-12.2,30.93,1.4,8.9,7.48,16.54,14.91,21.63S39.5,251,48.18,253.35c50.46,14,106.36,14.08,153.33-9,9.45-4.65,18.55-10.26,26-17.74s13.05-17,14.69-27.37c1.69-10.72-1-21.9-6.6-31.2-5.3-8.81-12.83-15.21-16.72-25-.72-1.82-1.52-3.82-3.27-4.69a7.39,7.39,0,0,0-3.81-.45c-21.62,1.3-41.91,8-62.89,12.68C143.1,151.85,137.32,153,131.52,154.12Z"/></g><path class="cls-33" d="M209,80c0,4.75-55.69,8.6-77.27,8.6S54.48,84.7,54.48,80s55.71-8.59,77.29-8.59S209,75.2,209,80Z"/><g class="cls-34"><circle class="cls-35" cx="102.13" cy="88.54" r="14.91"/><ellipse class="cls-36" cx="101.1" cy="80.3" rx="9.96" ry="6.01" transform="translate(-5.8 7.9) rotate(-4.35)"/><circle class="cls-37" cx="110.06" cy="81.05" r="1.22"/><circle class="cls-38" cx="111.97" cy="82.66" r="0.44"/><circle class="cls-39" cx="95.58" cy="98.64" r="0.44"/><path class="cls-40" d="M90.27,89.63c-.15,2.88,1.58,7,4.34,8.25"/><circle class="cls-41" cx="108.84" cy="96.65" r="1.36"/></g><g class="cls-34"><circle class="cls-42" cx="146.35" cy="70.26" r="8.43"/><ellipse class="cls-43" cx="145.76" cy="65.6" rx="5.63" ry="3.4" transform="translate(-4.56 11.24) rotate(-4.35)"/><circle class="cls-44" cx="150.83" cy="66.03" r="0.69"/><circle class="cls-45" cx="151.91" cy="66.94" r="0.25"/><circle class="cls-46" cx="142.65" cy="75.97" r="0.25"/><path class="cls-47" d="M139.64,70.88c-.08,1.63.9,4,2.46,4.66"/><circle class="cls-48" cx="150.14" cy="74.85" r="0.77"/></g><g class="cls-34"><circle class="cls-49" cx="128.49" cy="51.29" r="4.48"/><ellipse class="cls-50" cx="128.19" cy="48.8" rx="3" ry="1.81" transform="translate(-3.33 9.86) rotate(-4.35)"/><circle class="cls-51" cx="130.88" cy="49.04" r="0.37"/><circle class="cls-52" cx="131.45" cy="49.52" r="0.13"/><circle class="cls-53" cx="126.52" cy="54.32" r="0.13"/><path class="cls-54" d="M124.93,51.62a2.82,2.82,0,0,0,1.3,2.48"/><circle class="cls-55" cx="130.51" cy="53.73" r="0.41"/></g><g class="cls-56"><circle class="cls-57" cx="173.9" cy="122.44" r="9.84"/><ellipse class="cls-58" cx="173.22" cy="117" rx="6.58" ry="3.96" transform="translate(-8.38 13.48) rotate(-4.35)"/><circle class="cls-59" cx="179.13" cy="117.5" r="0.81"/><circle class="cls-60" cx="180.39" cy="118.56" r="0.29"/><circle class="cls-61" cx="169.58" cy="129.1" r="0.29"/><path class="cls-62" d="M166.07,123.16c-.1,1.9,1.05,4.64,2.87,5.44"/><circle class="cls-63" cx="178.33" cy="127.79" r="0.89"/></g><g class="cls-56"><circle class="cls-64" cx="156.95" cy="142.88" r="5.23"/><ellipse class="cls-65" cx="156.6" cy="139.98" rx="3.5" ry="2.11" transform="translate(-10.17 12.28) rotate(-4.35)"/><circle class="cls-66" cx="159.74" cy="140.25" r="0.43"/><circle class="cls-67" cx="160.41" cy="140.82" r="0.16"/><circle class="cls-68" cx="154.66" cy="146.43" r="0.16"/><path class="cls-69" d="M152.84,143.26a3.27,3.27,0,0,0,1.53,2.9"/><circle class="cls-70" cx="159.31" cy="145.73" r="0.48"/></g><polygon class="cls-71" points="225.81 172.06 30.23 172.06 15.06 251.22 210.63 251.22 225.81 172.06"/><polygon class="cls-72" points="225.81 172.06 232.43 242.03 229.81 244.07 214.82 244.24 213.72 248.79 210.63 251.22 225.81 172.06"/></svg>