<svg id="Layer_1" data-name="Layer 1" xmlns="http://www.w3.org/2000/svg" xmlns:xlink="http://www.w3.org/1999/xlink" viewBox="0 0 235.13 262.86"><defs><style>.cls-1,.cls-18,.cls-36,.cls-43,.cls-50,.cls-58,.cls-65{fill:none;}.cls-2,.cls-5{opacity:0.72;}.cls-11,.cls-14,.cls-15,.cls-16,.cls-18,.cls-19,.cls-2,.cls-25,.cls-27,.cls-28,.cls-29,.cls-5,.cls-71,.cls-8{isolation:isolate;}.cls-2{fill:url(#linear-gradient);}.cls-3{fill:#683d14;fill-opacity:0.51;}.cls-4{fill:url(#linear-gradient-2);}.cls-5{fill:url(#linear-gradient-3);}.cls-6{clip-path:url(#clip-path);}.cls-7{fill:url(#linear-gradient-4);}.cls-8{opacity:0.42;fill:url(#linear-gradient-5);}.cls-25,.cls-29,.cls-9{opacity:0.8;}.cls-10{fill:url(#radial-gradient);}.cls-11{opacity:0.25;fill:url(#radial-gradient-2);}.cls-12{fill:url(#radial-gradient-3);}.cls-13{fill:url(#radial-gradient-4);}.cls-14,.cls-52{opacity:0.2;}.cls-14{fill:url(#radial-gradient-5);}.cls-15{opacity:0.15;fill:url(#radial-gradient-6);}.cls-16,.cls-19,.cls-71{opacity:0.5;}.cls-16{fill:url(#radial-gradient-7);}.cls-17{fill:url(#radial-gradient-8);}.cls-18{stroke:#fff;stroke-width:1.69px;opacity:0.03;}.cls-18,.cls-29{stroke-miterlimit:10;}.cls-19{fill:url(#radial-gradient-9);}.cls-20{fill:url(#radial-gradient-10);}.cls-21{fill:url(#radial-gradient-11);}.cls-22{fill:url(#radial-gradient-12);}.cls-23{fill:url(#radial-gradient-13);}.cls-24{fill:url(#radial-gradient-14);}.cls-25{fill:url(#linear-gradient-6);}.cls-26{clip-path:url(#clip-path-2);}.cls-27,.cls-28,.cls-30{opacity:0.3;}.cls-27{fill:url(#linear-gradient-7);}.cls-28{fill:url(#linear-gradient-8);}.cls-29,.cls-36{stroke-width:0.85px;}.cls-29{fill:url(#linear-gradient-9);stroke:url(#linear-gradient-10);}.cls-31{fill:url(#radial-gradient-15);}.cls-32{fill:url(#radial-gradient-16);}.cls-33{fill:url(#radial-gradient-17);}.cls-34{fill:url(#radial-gradient-18);}.cls-35{fill:url(#radial-gradient-19);}.cls-36,.cls-43,.cls-50,.cls-58,.cls-65{stroke-linecap:round;stroke-linejoin:round;}.cls-36{stroke:url(#radial-gradient-20);}.cls-37{fill:url(#radial-gradient-21);}.cls-38{fill:url(#radial-gradient-22);}.cls-39{fill:url(#radial-gradient-23);}.cls-40{fill:url(#radial-gradient-24);}.cls-41{fill:url(#radial-gradient-25);}.cls-42{fill:url(#radial-gradient-26);}.cls-43{stroke-width:0.48px;stroke:url(#radial-gradient-27);}.cls-44{fill:url(#radial-gradient-28);}.cls-45{fill:url(#radial-gradient-29);}.cls-46{fill:url(#radial-gradient-30);}.cls-47{fill:url(#radial-gradient-31);}.cls-48{fill:url(#radial-gradient-32);}.cls-49{fill:url(#radial-gradient-33);}.cls-50{stroke-width:0.25px;stroke:url(#radial-gradient-34);}.cls-51{fill:url(#radial-gradient-35);}.cls-53{fill:url(#radial-gradient-36);}.cls-54{fill:url(#radial-gradient-37);}.cls-55{fill:url(#radial-gradient-38);}.cls-56{fill:url(#radial-gradient-39);}.cls-57{fill:url(#radial-gradient-40);}.cls-58{stroke-width:0.56px;stroke:url(#radial-gradient-41);}.cls-59{fill:url(#radial-gradient-42);}.cls-60{fill:url(#radial-gradient-43);}.cls-61{fill:url(#radial-gradient-44);}.cls-62{fill:url(#radial-gradient-45);}.cls-63{fill:url(#radial-gradient-46);}.cls-64{fill:url(#radial-gradient-47);}.cls-65{stroke-width:0.3px;stroke:url(#radial-gradient-48);}.cls-66{fill:url(#radial-gradient-49);}.cls-67{fill:#fff;}.cls-68{fill:#c7c6c6;}.cls-69{opacity:0.54;}.cls-70{fill:url(#radial-gradient-50);}.cls-71{fill:url(#radial-gradient-51);}</style><linearGradient id="linear-gradient" x1="125.39" y1="496.81" x2="125.39" y2="523.38" gradientTransform="translate(0 -500)" gradientUnits="userSpaceOnUse"><stop offset="0" stop-color="#f6fbff"/><stop offset="0.63" stop-color="#e9f1f6"/><stop offset="1" stop-color="#c5dae1"/></linearGradient><linearGradient id="linear-gradient-2" x1="143.24" y1="520.15" x2="120.95" y2="701.76" gradientTransform="translate(0 -500)" gradientUnits="userSpaceOnUse"><stop offset="0" stop-color="#c0c5c8"/><stop offset="1" stop-color="#b0c2c9"/></linearGradient><linearGradient id="linear-gradient-3" x1="76.95" y1="623.99" x2="171.33" y2="623.99" xlink:href="#linear-gradient"/><clipPath id="clip-path"><path class="cls-1" d="M218.4,218.76V14.64c0,4.93-63.58,8.92-87.38,8.92h-3.59c-4.8-.07-9.6-.25-14.39-.47q-8.52-.39-17-1-8.78-.6-17.52-1.4c-5.3-.49-10.6-1-15.88-1.73-3.9-.53-7.74-1.53-11.67-1.44S43.33,19.19,39.52,20l-1,.2a20,20,0,0,1-3.85.59c-.45,0-.91.09-1.36.12-.23,0-.87-.06-1,.14s.24.62.37.76a5.57,5.57,0,0,0,.76.6c.32.25.67.47,1,.71l3.44,2.44,5.57,3.94.16.11V218.76a11.55,11.55,0,0,0,11.13,14.58H207.33a11.53,11.53,0,0,0,11.12-14.58Z"/></clipPath><linearGradient id="linear-gradient-4" x1="92.37" y1="622.37" x2="143.54" y2="754.54" gradientTransform="translate(0 -500)" gradientUnits="userSpaceOnUse"><stop offset="0" stop-color="#f5f5f5"/><stop offset="1" stop-color="#c3d1d6"/></linearGradient><linearGradient id="linear-gradient-5" x1="70.92" y1="666.08" x2="185.02" y2="666.08" gradientTransform="translate(0 -500)" gradientUnits="userSpaceOnUse"><stop offset="0" stop-color="#4d398e"/><stop offset="1" stop-color="#5c4b9a"/></linearGradient><radialGradient id="radial-gradient" cx="-3524.35" cy="10983.44" r="54.28" gradientTransform="matrix(0.01, -1, 0.16, 0, -1670.12, -3412.64)" gradientUnits="userSpaceOnUse"><stop offset="0" stop-color="#e6f3fc"/><stop offset="1" stop-color="#bacae9" stop-opacity="0"/></radialGradient><radialGradient id="radial-gradient-2" cx="-1798.17" cy="-1087.52" r="13.58" gradientTransform="matrix(0.95, -0.3, 0.3, 0.95, 2098.88, 606.03)" gradientUnits="userSpaceOnUse"><stop offset="0.1" stop-color="#010101"/><stop offset="0.11" stop-color="#070706"/><stop offset="0.16" stop-color="#221d12"/><stop offset="0.22" stop-color="#392e16"/><stop offset="0.28" stop-color="#4a3a17"/><stop offset="0.37" stop-color="#564318"/><stop offset="0.48" stop-color="#5c4918"/><stop offset="0.8" stop-color="#5f4a17"/><stop offset="1" stop-color="#010101"/></radialGradient><radialGradient id="radial-gradient-3" cx="-1813.13" cy="-1040.04" r="0.45" gradientTransform="matrix(0.95, -0.3, 0.3, 0.95, 2100.45, 623.54)" gradientUnits="userSpaceOnUse"><stop offset="0" stop-color="#d5e195"/><stop offset="0.06" stop-color="#b1bb79"/><stop offset="0.14" stop-color="#868f5f"/><stop offset="0.22" stop-color="#646946"/><stop offset="0.31" stop-color="#454930"/><stop offset="0.4" stop-color="#2c2f1f"/><stop offset="0.51" stop-color="#191a13"/><stop offset="0.62" stop-color="#0b0c0a"/><stop offset="0.76" stop-color="#020404"/><stop offset="1" stop-color="#010101"/></radialGradient><radialGradient id="radial-gradient-4" cx="-1819.27" cy="-1045.31" r="0.45" gradientTransform="translate(2111.87 624.35) rotate(-17.29)" xlink:href="#radial-gradient-3"/><radialGradient id="radial-gradient-5" cx="-1813.65" cy="-1038.4" r="3.4" gradientTransform="matrix(0.95, -0.3, 0.3, 0.95, 2100.45, 623.54)" gradientUnits="userSpaceOnUse"><stop offset="0.05" stop-color="#010101"/><stop offset="0.09" stop-color="#070b08"/><stop offset="0.3" stop-color="#1f341c"/><stop offset="0.48" stop-color="#265325"/><stop offset="0.64" stop-color="#30672c"/><stop offset="0.75" stop-color="#336e2e"/><stop offset="0.79" stop-color="#506f2a"/><stop offset="0.83" stop-color="#717021"/><stop offset="0.86" stop-color="#7f701b"/><stop offset="0.89" stop-color="#7a6d1c"/><stop offset="0.91" stop-color="#71641b"/><stop offset="0.94" stop-color="#5e5419"/><stop offset="0.96" stop-color="#433d18"/><stop offset="0.98" stop-color="#232114"/><stop offset="1" stop-color="#010101"/></radialGradient><radialGradient id="radial-gradient-6" cx="-1801.39" cy="-1077.29" r="9.05" gradientTransform="matrix(0.95, -0.3, 0.3, 0.95, 2100.45, 623.54)" gradientUnits="userSpaceOnUse"><stop offset="0" stop-color="#1d090a"/><stop offset="0.73" stop-color="#994123"/><stop offset="1" stop-color="#1d090a"/></radialGradient><radialGradient id="radial-gradient-7" cx="-1801.39" cy="-1077.29" r="4.53" gradientTransform="matrix(0.95, -0.3, 0.3, 0.95, 2100.45, 623.54)" gradientUnits="userSpaceOnUse"><stop offset="0.15" stop-color="#fff"/><stop offset="0.21" stop-color="#e5d3d3"/><stop offset="0.29" stop-color="#c49c9e"/><stop offset="0.36" stop-color="#ad7477"/><stop offset="0.42" stop-color="#9f5d60"/><stop offset="0.45" stop-color="#9a5457"/><stop offset="0.57" stop-color="#6b3436"/><stop offset="0.69" stop-color="#431719"/><stop offset="0.79" stop-color="#270d0e"/><stop offset="0.85" stop-color="#1d090a"/><stop offset="0.86" stop-color="#210a0a"/><stop offset="0.86" stop-color="#300f0e"/><stop offset="0.87" stop-color="#461410"/><stop offset="0.88" stop-color="#641e11"/><stop offset="0.89" stop-color="#8b2e19"/><stop offset="0.9" stop-color="#b84323"/><stop offset="0.9" stop-color="#d34f29"/><stop offset="0.9" stop-color="#c94928"/><stop offset="0.91" stop-color="#9d371d"/><stop offset="0.93" stop-color="#772615"/><stop offset="0.94" stop-color="#591a10"/><stop offset="0.95" stop-color="#3e130f"/><stop offset="0.97" stop-color="#2b0e0d"/><stop offset="0.98" stop-color="#1f090b"/><stop offset="1" stop-color="#1d090a"/></radialGradient><radialGradient id="radial-gradient-8" cx="-1801.39" cy="-1077.29" r="3.77" gradientTransform="matrix(0.95, -0.3, 0.3, 0.95, 2100.45, 623.54)" gradientUnits="userSpaceOnUse"><stop offset="0.15" stop-color="#fff"/><stop offset="0.28" stop-color="#c3c2c2"/><stop offset="0.43" stop-color="#878889"/><stop offset="0.56" stop-color="#585858"/><stop offset="0.69" stop-color="#323232"/><stop offset="0.81" stop-color="#161617"/><stop offset="0.92" stop-color="#050606"/><stop offset="1" stop-color="#010101"/></radialGradient><radialGradient id="radial-gradient-9" cx="-1814.29" cy="-1036.35" r="6.79" gradientTransform="matrix(0.95, -0.3, 0.3, 0.95, 2100.45, 623.54)" gradientUnits="userSpaceOnUse"><stop offset="0.64" stop-color="#010101"/><stop offset="0.72" stop-color="#010302"/><stop offset="0.75" stop-color="#060908"/><stop offset="0.77" stop-color="#0c140e"/><stop offset="0.78" stop-color="#132517"/><stop offset="0.8" stop-color="#1b3b1d"/><stop offset="0.8" stop-color="#1c431f"/><stop offset="0.81" stop-color="#212c19"/><stop offset="0.83" stop-color="#2c190f"/><stop offset="0.85" stop-color="#33110d"/><stop offset="0.86" stop-color="#35100f"/><stop offset="0.87" stop-color="#200a0a"/><stop offset="0.89" stop-color="#100606"/><stop offset="0.9" stop-color="#050303"/><stop offset="0.93" stop-color="#020102"/><stop offset="1" stop-color="#010101"/></radialGradient><radialGradient id="radial-gradient-10" cx="-1811.8" cy="-1044.26" r="1.93" gradientTransform="matrix(0.95, -0.3, 0.3, 0.95, 2100.45, 623.54)" gradientUnits="userSpaceOnUse"><stop offset="0.1" stop-color="#010101"/><stop offset="0.25" stop-color="#1a130c"/><stop offset="0.43" stop-color="#352413"/><stop offset="0.61" stop-color="#483014"/><stop offset="0.8" stop-color="#533613"/><stop offset="1" stop-color="#573812"/></radialGradient><radialGradient id="radial-gradient-11" cx="-1805.08" cy="-1065.59" r="1.08" gradientTransform="matrix(0.95, -0.3, 0.3, 0.95, 2100.45, 623.54)" gradientUnits="userSpaceOnUse"><stop offset="0.1" stop-color="#1a301d"/><stop offset="0.23" stop-color="#142318"/><stop offset="0.48" stop-color="#0a0f0c"/><stop offset="0.73" stop-color="#030404"/><stop offset="1" stop-color="#010101"/></radialGradient><radialGradient id="radial-gradient-12" cx="64.22" cy="860.03" r="0.71" gradientTransform="matrix(1, 0, 0, -1, 0, 1009.99)" xlink:href="#radial-gradient-10"/><radialGradient id="radial-gradient-13" cx="-1809.83" cy="-1050.52" r="1" gradientTransform="matrix(0.95, -0.3, 0.3, 0.95, 2100.45, 623.54)" gradientUnits="userSpaceOnUse"><stop offset="0.1" stop-color="#010101"/><stop offset="0.29" stop-color="#151711"/><stop offset="0.52" stop-color="#262a1b"/><stop offset="0.75" stop-color="#313523"/><stop offset="1" stop-color="#333824"/></radialGradient><radialGradient id="radial-gradient-14" cx="64.19" cy="851.73" r="1.86" gradientTransform="matrix(1, 0, 0, -1, 0, 1009.99)" xlink:href="#radial-gradient-11"/><linearGradient id="linear-gradient-6" x1="191.03" y1="729.1" x2="72.93" y2="572.58" xlink:href="#linear-gradient-5"/><clipPath id="clip-path-2"><path class="cls-1" d="M208.33,213.5V80.43h0c0,4.75-55.69,8.6-77.27,8.6s-77.29-3.85-77.29-8.6h0V213.5c.08,5.91,2.77,11.84,8.94,11.84H199.33C205.53,225.34,208.38,219.29,208.33,213.5Z"/></clipPath><linearGradient id="linear-gradient-7" x1="287.68" y1="675.75" x2="40.65" y2="652.77" xlink:href="#linear-gradient-5"/><linearGradient id="linear-gradient-8" x1="7.41" y1="700.87" x2="241.97" y2="700.87" xlink:href="#linear-gradient-5"/><linearGradient id="linear-gradient-9" x1="268.27" y1="580.43" x2="85.13" y2="580.43" xlink:href="#linear-gradient-5"/><linearGradient id="linear-gradient-10" x1="53.34" y1="580.43" x2="208.75" y2="580.43" gradientTransform="translate(0 -500)" gradientUnits="userSpaceOnUse"><stop offset="0" stop-color="#5a4998"/><stop offset="1" stop-color="#5c4b9a"/></linearGradient><radialGradient id="radial-gradient-15" cx="-1497.34" cy="2426.11" r="14.17" gradientTransform="matrix(0.25, -0.97, 0.96, 0.25, -1853.55, -1969.13)" gradientUnits="userSpaceOnUse"><stop offset="0" stop-color="#5b4495" stop-opacity="0.8"/><stop offset="0.3" stop-color="#5e4796" stop-opacity="0.8"/><stop offset="0.52" stop-color="#624c9a" stop-opacity="0.8"/><stop offset="0.72" stop-color="#7059a2" stop-opacity="0.8"/><stop offset="0.91" stop-color="#8975b3" stop-opacity="0.81"/><stop offset="1" stop-color="#9885be" stop-opacity="0.81"/></radialGradient><radialGradient id="radial-gradient-16" cx="878.42" cy="803.11" r="9.18" gradientTransform="translate(-994.08 -537.45) scale(1.24 0.77)" gradientUnits="userSpaceOnUse"><stop offset="0" stop-color="#7759a2"/><stop offset="0.38" stop-color="#7759a2" stop-opacity="0.99"/><stop offset="0.52" stop-color="#785aa2" stop-opacity="0.96"/><stop offset="0.61" stop-color="#795ba3" stop-opacity="0.91"/><stop offset="0.69" stop-color="#7b5da4" stop-opacity="0.84"/><stop offset="0.76" stop-color="#7d5ea5" stop-opacity="0.75"/><stop offset="0.82" stop-color="#8262a7" stop-opacity="0.63"/><stop offset="0.87" stop-color="#8465a9" stop-opacity="0.49"/><stop offset="0.92" stop-color="#886aac" stop-opacity="0.33"/><stop offset="0.97" stop-color="#8d6eaf" stop-opacity="0.16"/><stop offset="1" stop-color="#9173b1" stop-opacity="0"/></radialGradient><radialGradient id="radial-gradient-17" cx="-1489.41" cy="2418.62" r="1.16" gradientTransform="matrix(0.25, -0.97, 0.96, 0.25, -1840.47, -1967.07)" gradientUnits="userSpaceOnUse"><stop offset="0" stop-color="#d6c1df"/><stop offset="0.38" stop-color="#d6bfde" stop-opacity="0.99"/><stop offset="0.52" stop-color="#d4bddd" stop-opacity="0.96"/><stop offset="0.61" stop-color="#d1b9db" stop-opacity="0.91"/><stop offset="0.69" stop-color="#ccb2d7" stop-opacity="0.84"/><stop offset="0.76" stop-color="#c6acd3" stop-opacity="0.75"/><stop offset="0.82" stop-color="#c0a4ce" stop-opacity="0.63"/><stop offset="0.87" stop-color="#b598c7" stop-opacity="0.49"/><stop offset="0.92" stop-color="#ab8cc0" stop-opacity="0.33"/><stop offset="0.97" stop-color="#9c7eb8" stop-opacity="0.16"/><stop offset="1" stop-color="#9173b1" stop-opacity="0"/></radialGradient><radialGradient id="radial-gradient-18" cx="-1487.5" cy="2420.22" r="0.42" gradientTransform="matrix(0.25, -0.97, 0.96, 0.25, -1840.58, -1964.02)" gradientUnits="userSpaceOnUse"><stop offset="0" stop-color="#d6c1df"/><stop offset="0.22" stop-color="#d5bfde" stop-opacity="0.99"/><stop offset="0.36" stop-color="#d4bddc" stop-opacity="0.95"/><stop offset="0.48" stop-color="#d0b7d9" stop-opacity="0.89"/><stop offset="0.58" stop-color="#cab0d5" stop-opacity="0.8"/><stop offset="0.68" stop-color="#c2a7d0" stop-opacity="0.69"/><stop offset="0.77" stop-color="#b99cca" stop-opacity="0.55"/><stop offset="0.85" stop-color="#ad90c3" stop-opacity="0.38"/><stop offset="0.93" stop-color="#a183bb" stop-opacity="0.2"/><stop offset="1" stop-color="#9173b1" stop-opacity="0"/></radialGradient><radialGradient id="radial-gradient-19" cx="-1503.89" cy="2436.2" r="0.42" gradientTransform="matrix(0.25, -0.97, 0.96, 0.25, -1868.08, -1967.9)" xlink:href="#radial-gradient-18"/><radialGradient id="radial-gradient-20" cx="91.7" cy="594.23" r="3.7" gradientTransform="translate(0 -500)" xlink:href="#radial-gradient-17"/><radialGradient id="radial-gradient-21" cx="108.1" cy="617.45" r="1.69" gradientTransform="translate(0 -426.95) scale(1 0.85)" gradientUnits="userSpaceOnUse"><stop offset="0" stop-color="#7759a2"/><stop offset="0.09" stop-color="#785aa2" stop-opacity="0.97"/><stop offset="0.23" stop-color="#7b5ca3" stop-opacity="0.88"/><stop offset="0.4" stop-color="#7d5ea5" stop-opacity="0.74"/><stop offset="0.59" stop-color="#8364a8" stop-opacity="0.54"/><stop offset="0.79" stop-color="#8a6bad" stop-opacity="0.28"/><stop offset="1" stop-color="#9173b1" stop-opacity="0"/></radialGradient><radialGradient id="radial-gradient-22" cx="-1453.13" cy="2407.83" r="8.01" gradientTransform="matrix(0.25, -0.97, 0.96, 0.25, -1803.08, -1940.06)" xlink:href="#radial-gradient-15"/><radialGradient id="radial-gradient-23" cx="915.12" cy="790.61" r="5.19" gradientTransform="translate(-995.06 -542.53) scale(1.24 0.77)" xlink:href="#radial-gradient-16"/><radialGradient id="radial-gradient-24" cx="-1448.64" cy="2403.6" r="0.66" gradientTransform="matrix(0.25, -0.97, 0.96, 0.25, -1795.69, -1938.89)" xlink:href="#radial-gradient-17"/><radialGradient id="radial-gradient-25" cx="-1447.56" cy="2404.5" r="0.24" gradientTransform="matrix(0.25, -0.97, 0.96, 0.25, -1795.75, -1937.17)" xlink:href="#radial-gradient-18"/><radialGradient id="radial-gradient-26" cx="-1456.82" cy="2413.53" r="0.24" gradientTransform="matrix(0.25, -0.97, 0.96, 0.25, -1811.29, -1939.36)" xlink:href="#radial-gradient-18"/><radialGradient id="radial-gradient-27" cx="140.13" cy="573.69" r="2.09" gradientTransform="translate(0 -500)" xlink:href="#radial-gradient-17"/><radialGradient id="radial-gradient-28" cx="149.4" cy="595.65" r="0.95" gradientTransform="translate(0 -430.11) scale(1 0.85)" xlink:href="#radial-gradient-21"/><radialGradient id="radial-gradient-29" cx="-1470.98" cy="2388.85" r="4.26" gradientTransform="matrix(0.25, -0.97, 0.96, 0.25, -1798.27, -1971.54)" xlink:href="#radial-gradient-15"/><radialGradient id="radial-gradient-30" cx="902.05" cy="770.57" r="2.76" gradientTransform="translate(-996.38 -543.87) scale(1.24 0.77)" xlink:href="#radial-gradient-16"/><radialGradient id="radial-gradient-31" cx="-1468.6" cy="2386.6" r="0.35" gradientTransform="matrix(0.25, -0.97, 0.96, 0.25, -1794.34, -1970.92)" xlink:href="#radial-gradient-17"/><radialGradient id="radial-gradient-32" cx="-1468.02" cy="2387.08" r="0.13" gradientTransform="matrix(0.25, -0.97, 0.96, 0.25, -1794.37, -1970.01)" xlink:href="#radial-gradient-18"/><radialGradient id="radial-gradient-33" cx="-1472.95" cy="2391.89" r="0.13" gradientTransform="matrix(0.25, -0.97, 0.96, 0.25, -1802.64, -1971.17)" xlink:href="#radial-gradient-18"/><radialGradient id="radial-gradient-34" cx="124.84" cy="553.34" r="1.11" gradientTransform="translate(0 -500)" xlink:href="#radial-gradient-17"/><radialGradient id="radial-gradient-35" cx="129.77" cy="574.53" r="0.51" gradientTransform="translate(0 -433.18) scale(1 0.85)" xlink:href="#radial-gradient-21"/><radialGradient id="radial-gradient-36" cx="-1425.57" cy="2460.01" r="9.35" gradientTransform="matrix(0.25, -0.97, 0.96, 0.25, -1832.39, -1874.31)" xlink:href="#radial-gradient-15"/><radialGradient id="radial-gradient-37" cx="933.99" cy="849.73" r="6.06" gradientTransform="translate(-991.09 -536.71) scale(1.24 0.77)" xlink:href="#radial-gradient-16"/><radialGradient id="radial-gradient-38" cx="-1420.34" cy="2455.07" r="0.77" gradientTransform="matrix(0.25, -0.97, 0.96, 0.25, -1823.76, -1872.95)" xlink:href="#radial-gradient-17"/><radialGradient id="radial-gradient-39" cx="-1419.08" cy="2456.12" r="0.28" gradientTransform="matrix(0.25, -0.97, 0.96, 0.25, -1823.84, -1870.94)" xlink:href="#radial-gradient-18"/><radialGradient id="radial-gradient-40" cx="-1429.89" cy="2466.67" r="0.28" gradientTransform="matrix(0.25, -0.97, 0.96, 0.25, -1841.99, -1873.49)" xlink:href="#radial-gradient-18"/><radialGradient id="radial-gradient-41" cx="166.76" cy="626.36" r="2.44" gradientTransform="translate(0 -500)" xlink:href="#radial-gradient-17"/><radialGradient id="radial-gradient-42" cx="177.59" cy="648.59" r="1.11" gradientTransform="translate(0 -422.42) scale(1 0.85)" xlink:href="#radial-gradient-21"/><radialGradient id="radial-gradient-43" cx="-1442.52" cy="2480.45" r="4.97" gradientTransform="matrix(0.25, -0.97, 0.96, 0.25, -1864.58, -1875.38)" xlink:href="#radial-gradient-15"/><radialGradient id="radial-gradient-44" cx="919.27" cy="873.73" r="3.22" gradientTransform="translate(-989.39 -532.23) scale(1.24 0.77)" xlink:href="#radial-gradient-16"/><radialGradient id="radial-gradient-45" cx="-1439.73" cy="2477.82" r="0.41" gradientTransform="matrix(0.25, -0.97, 0.96, 0.25, -1859.99, -1874.66)" xlink:href="#radial-gradient-17"/><radialGradient id="radial-gradient-46" cx="-1439.06" cy="2478.38" r="0.15" gradientTransform="matrix(0.25, -0.97, 0.96, 0.25, -1860.02, -1873.59)" xlink:href="#radial-gradient-18"/><radialGradient id="radial-gradient-47" cx="-1444.82" cy="2483.99" r="0.15" gradientTransform="matrix(0.25, -0.97, 0.96, 0.25, -1869.68, -1874.95)" xlink:href="#radial-gradient-18"/><radialGradient id="radial-gradient-48" cx="152.81" cy="645.19" r="1.3" gradientTransform="translate(0 -500)" xlink:href="#radial-gradient-17"/><radialGradient id="radial-gradient-49" cx="158.57" cy="666.53" r="0.59" gradientTransform="translate(0 -419.82) scale(1 0.85)" xlink:href="#radial-gradient-21"/><radialGradient id="radial-gradient-50" cx="-1651.23" cy="-16043.17" r="64.7" gradientTransform="matrix(0.01, 1, -0.12, 0, -1700.87, 1738.82)" xlink:href="#radial-gradient"/><radialGradient id="radial-gradient-51" cx="200.23" cy="655.85" r="3.83" gradientTransform="translate(0 -500)" xlink:href="#radial-gradient"/></defs><path class="cls-2" d="M218.4,14.64c0,4.93-63.58,8.92-87.38,8.92-4.58,0-9.17-.12-13.75-.28q-9.66-.34-19.27-.92-10.14-.62-20.27-1.47c-2.53-.22-5-.45-7.58-.7s-5.15-.55-7.72-.86c-1.24-.16-2.48-.36-3.71-.62s-2.48-.49-3.73-.66a21.87,21.87,0,0,0-7.13,0c-2.33.46-4.57,1.28-6.88,1.84A42.22,42.22,0,0,1,32.39,21a7.13,7.13,0,0,1,1.6-1.4,36,36,0,0,1,4.44-2.53c2.14-1.08,4.26-2.37,6.46-3.41a29.31,29.31,0,0,1,7.44-2.24c4.44-.82,8.93-1.38,13.42-1.88C71.33,8.94,77,8.43,82.61,8q9-.71,18-1.21,8.44-.48,16.9-.78c4.5-.15,9-.27,13.49-.27C154.82,5.73,218.4,9.72,218.4,14.64Z"/><polygon class="cls-3" points="14.32 251.7 2.72 258.13 213.78 258.13 231.73 245 231.68 242.51 14.32 251.7"/><path class="cls-4" d="M212.6,217l-.87-199.39c-12.06,5.92-64.22,5.92-80.71,5.92h-4c-1.26,0-2.53-.06-3.79-.11-1.43,0-2.85-.1-4.28-.16s-3.13-.13-4.69-.21l-5-.26L104,22.53c-1.81-.1-3.62-.21-5.42-.33l-5.5-.35-5.51-.42-5.4-.4L77,20.62l-5-.42q-2.32-.19-4.65-.42c-1.41-.13-2.83-.27-4.24-.42l-1.93-.2a27.19,27.19,0,0,1-2.82-.6l-.51-.13a26.07,26.07,0,0,0-7.36-.7l-1.23.08L49.45,217a9.82,9.82,0,0,0,6.75,12.12,10.5,10.5,0,0,0,2.68.37H203.16A9.81,9.81,0,0,0,213,219.7,10.42,10.42,0,0,0,212.6,217Z"/><path class="cls-5" d="M218.4,218.76V14.64c0,4.93-63.58,8.92-87.38,8.92h-3.59c-4.8-.07-9.6-.25-14.39-.47q-8.52-.39-17-1-8.78-.6-17.52-1.4c-5.3-.49-10.6-1-15.88-1.73-3.9-.53-7.74-1.53-11.67-1.44S43.33,19.19,39.52,20l-1,.2a20,20,0,0,1-3.85.59c-.45,0-.91.09-1.36.12-.23,0-.87-.06-1,.14s.24.62.37.76a5.57,5.57,0,0,0,.76.6c.32.25.67.47,1,.71l3.44,2.44,5.57,3.94.16.11V218.76a11.55,11.55,0,0,0,11.13,14.58H207.33a11.53,11.53,0,0,0,11.12-14.58Z"/><g class="cls-6"><path class="cls-7" d="M213.64,222.33c0-8.62-36.86-11.59-82.32-11.59S49,214,49,222.66s8,6.88,82.31,7.57C201.84,230.88,213.64,231,213.64,222.33Z"/><rect class="cls-8" x="16.96" y="78.41" width="225.47" height="175.35"/></g><g class="cls-9"><path class="cls-10" d="M62.77,168.68a4.66,4.66,0,0,1-5.66-3.36h0a4.77,4.77,0,0,1-.15-1.18l.71-107.71a4.66,4.66,0,0,1,9.31.06l-.71,107.73A4.65,4.65,0,0,1,62.77,168.68Z"/></g><circle class="cls-11" cx="64.36" cy="112.34" r="13.53"/><circle class="cls-12" cx="64.17" cy="163.1" r="0.45"/><circle class="cls-13" cx="64.15" cy="166.97" r="0.45"/><circle class="cls-14" cx="64.16" cy="164.82" r="3.4"/><line class="cls-1" x1="64.31" y1="124.05" x2="64.16" y2="166.97"/><circle class="cls-15" cx="64.31" cy="124.05" r="9.05"/><circle class="cls-16" cx="64.31" cy="124.05" r="4.53"/><circle class="cls-17" cx="64.31" cy="124.05" r="3.77"/><polyline class="cls-18" points="64.31 124.05 66.34 138.78 64.31 124.05 62.27 109.32 64.31 124.05 49.58 126.09 64.31 124.05 79.04 122.02 64.31 124.05 71.9 141.71 64.31 124.05 56.71 106.39 64.31 124.05 46.64 131.65 64.31 124.05 81.97 116.46 64.31 124.05 77.96 136.23 64.31 124.05 50.65 111.87 64.31 124.05 52.13 137.71 64.31 124.05 76.49 110.4 64.31 124.05 65.22 136.8 64.31 124.05 63.39 111.31 64.31 124.05 51.56 124.97 64.31 124.05 77.05 123.14 64.31 124.05 64.65 125.53 64.31 124.05 63.97 122.58 64.31 124.05 62.83 124.39 64.31 124.05 65.78 123.71 64.31 124.05 60.04 142.87 64.31 124.05 68.57 105.23 64.31 124.05 45.49 119.79 64.31 124.05 83.13 128.32 64.31 124.05 61.92 130.32 64.31 124.05 66.69 117.78 64.31 124.05 58.04 121.67 64.31 124.05 70.58 126.44 64.31 124.05 67.7 127.75 64.31 124.05 60.92 120.35 64.31 124.05 60.61 127.44 64.31 124.05 68.01 120.66 64.31 124.05 84.95 133.22 64.31 124.05 43.66 114.88 64.31 124.05 55.14 144.7 64.31 124.05 73.48 103.41 64.31 124.05 73.37 140.53 64.31 124.05 55.24 107.57 64.31 124.05 47.83 133.12 64.31 124.05 80.79 114.99 64.31 124.05 73.98 143.65 64.31 124.05 54.64 104.46 64.31 124.05 44.71 133.72 64.31 124.05 83.9 114.38 64.31 124.05 67.17 127.28 64.31 124.05 61.44 120.82 64.31 124.05 61.08 126.92 64.31 124.05 67.54 121.19 64.31 124.05 78.52 130.56 64.31 124.05 50.09 117.54 64.31 124.05 57.8 138.27 64.31 124.05 70.82 109.84 64.31 124.05 63.48 140.75 64.31 124.05 65.14 107.35 64.31 124.05 47.61 123.22 64.31 124.05 81.01 124.88 64.31 124.05 69.19 136.83 64.31 124.05 59.43 111.27 64.31 124.05 51.53 128.93 64.31 124.05 77.09 119.18"/><circle class="cls-19" cx="64.16" cy="166.97" r="6.79"/><circle class="cls-20" cx="64.19" cy="158.68" r="1.93"/><circle class="cls-21" cx="64.26" cy="136.31" r="1.08"/><circle class="cls-22" cx="64.22" cy="149.96" r="0.71"/><circle class="cls-23" cx="64.21" cy="152.12" r="1"/><circle class="cls-24" cx="64.19" cy="158.26" r="1.86"/><path class="cls-25" d="M208.33,213.5V80.43h0c0,4.75-55.69,8.6-77.27,8.6s-77.29-3.85-77.29-8.6h0V213.5c.08,5.91,2.77,11.84,8.94,11.84H199.33C205.53,225.34,208.38,219.29,208.33,213.5Z"/><g class="cls-26"><path class="cls-27" d="M135.65,114.7C117,116.2,98.23,117,79.56,118.5c-20,1.63-41.8,7.14-57.54,20.19l-.45.38c-8.76,7.43-16,18-15.41,29.46.44,9,5.68,17.24,12.53,23.09s15.2,9.61,23.58,12.92c48.69,19.22,104.26,25.27,153.42,7.27,9.89-3.62,19.53-8.23,27.69-14.89s14.78-15.49,17.51-25.66c2.82-10.48,1.32-21.89-3.26-31.73-4.33-9.32-11.14-16.48-14-26.61-.53-1.88-1.11-4-2.75-5a7.43,7.43,0,0,0-3.75-.85c-21.64-1-42.52,3.5-63.88,5.94C147.41,113.67,141.53,114.22,135.65,114.7Z"/><path class="cls-28" d="M130.78,154.6c-18.41,3.47-37,6.22-55.37,9.72C55.7,168.07,34.6,175.86,20.33,190.5l-.4.42c-7.93,8.32-14,19.58-12.2,30.93,1.39,8.9,7.47,16.54,14.9,21.63s16.13,8,24.81,10.35c50.46,14,106.36,14.08,153.34-9,9.44-4.65,18.54-10.26,26-17.74s13.06-17,14.69-27.37c1.69-10.72-1-21.9-6.6-31.2-5.29-8.81-12.83-15.21-16.71-25-.72-1.82-1.53-3.82-3.27-4.69a7.4,7.4,0,0,0-3.81-.45c-21.63,1.3-41.92,8-62.9,12.68C142.33,152.33,136.58,153.5,130.78,154.6Z"/></g><path class="cls-29" d="M208.33,80.43c0,4.75-55.69,8.6-77.27,8.6s-77.29-3.85-77.29-8.6,55.72-8.59,77.29-8.59S208.33,75.68,208.33,80.43Z"/><g class="cls-30"><circle class="cls-31" cx="101.39" cy="89.02" r="14.91"/><ellipse class="cls-32" cx="100.35" cy="80.79" rx="9.96" ry="6.01" transform="translate(-5.84 7.84) rotate(-4.35)"/><circle class="cls-33" cx="109.32" cy="81.53" r="1.22"/><circle class="cls-34" cx="111.23" cy="83.14" r="0.44"/><circle class="cls-35" cx="94.85" cy="99.12" r="0.44"/><path class="cls-36" d="M89.53,90.11c-.15,2.88,1.58,7,4.35,8.25"/><circle class="cls-37" cx="108.1" cy="97.13" r="1.36"/></g><g class="cls-30"><circle class="cls-38" cx="145.61" cy="70.74" r="8.43"/><ellipse class="cls-39" cx="145.02" cy="66.08" rx="5.63" ry="3.4" transform="translate(-4.59 11.19) rotate(-4.35)"/><circle class="cls-40" cx="150.09" cy="66.51" r="0.69"/><circle class="cls-41" cx="151.17" cy="67.42" r="0.25"/><circle class="cls-42" cx="141.91" cy="76.45" r="0.25"/><path class="cls-43" d="M138.91,71.36c-.09,1.63.89,4,2.45,4.66"/><circle class="cls-44" cx="149.4" cy="75.33" r="0.77"/></g><g class="cls-30"><circle class="cls-45" cx="127.76" cy="51.77" r="4.48"/><ellipse class="cls-46" cx="127.44" cy="49.29" rx="3" ry="1.81" transform="translate(-3.37 9.81) rotate(-4.35)"/><circle class="cls-47" cx="130.14" cy="49.52" r="0.37"/><circle class="cls-48" cx="130.71" cy="50" r="0.13"/><circle class="cls-49" cx="125.79" cy="54.8" r="0.13"/><path class="cls-50" d="M124.19,52.1a2.81,2.81,0,0,0,1.31,2.48"/><circle class="cls-51" cx="129.77" cy="54.21" r="0.41"/></g><g class="cls-52"><circle class="cls-53" cx="173.16" cy="122.92" r="9.84"/><ellipse class="cls-54" cx="172.47" cy="117.48" rx="6.58" ry="3.96" transform="translate(-8.41 13.42) rotate(-4.35)"/><circle class="cls-55" cx="178.4" cy="117.98" r="0.81"/><circle class="cls-56" cx="179.66" cy="119.04" r="0.29"/><circle class="cls-57" cx="168.84" cy="129.58" r="0.29"/><path class="cls-58" d="M165.33,123.64c-.09,1.9,1,4.64,2.87,5.44"/><circle class="cls-59" cx="177.59" cy="128.27" r="0.89"/></g><g class="cls-52"><circle class="cls-60" cx="156.22" cy="143.36" r="5.23"/><ellipse class="cls-61" cx="155.86" cy="140.47" rx="3.5" ry="2.11" transform="translate(-10.21 12.23) rotate(-4.35)"/><circle class="cls-62" cx="159" cy="140.73" r="0.43"/><circle class="cls-63" cx="159.67" cy="141.3" r="0.16"/><circle class="cls-64" cx="153.92" cy="146.91" r="0.16"/><path class="cls-65" d="M152.05,143.74a3.28,3.28,0,0,0,1.53,2.9"/><circle class="cls-66" cx="158.57" cy="146.21" r="0.48"/></g><polygon class="cls-67" points="225.06 172.54 29.5 172.54 14.32 251.7 209.88 251.7 225.06 172.54"/><polygon class="cls-68" points="225.06 172.54 231.68 242.51 229.07 244.55 214.08 244.72 212.98 249.27 209.88 251.7 225.06 172.54"/><g class="cls-69"><path class="cls-70" d="M199.19,146.77a4.24,4.24,0,0,1-4.13-3.36V78.34a4.28,4.28,0,0,1-.09-.87V38.29a4.23,4.23,0,0,1,8.46,0h0V77l-.1,64.64a4.24,4.24,0,0,1-3.28,5A4.93,4.93,0,0,1,199.19,146.77Z"/></g><circle class="cls-71" cx="200.13" cy="155.83" r="4.23"/></svg>