<svg id="Layer_1" data-name="Layer 1" xmlns="http://www.w3.org/2000/svg" xmlns:xlink="http://www.w3.org/1999/xlink" viewBox="0 0 235.13 262.86"><defs><style>.cls-1,.cls-21,.cls-39,.cls-46,.cls-53,.cls-61,.cls-68{fill:none;}.cls-2,.cls-5{opacity:0.72;}.cls-13,.cls-14,.cls-17,.cls-18,.cls-19,.cls-2,.cls-21,.cls-22,.cls-28,.cls-30,.cls-31,.cls-32,.cls-5,.cls-8{isolation:isolate;}.cls-2{fill:url(#linear-gradient);}.cls-3{fill:#683d14;fill-opacity:0.51;}.cls-4{fill:url(#linear-gradient-2);}.cls-5{fill:url(#linear-gradient-3);}.cls-6{clip-path:url(#clip-path);}.cls-7{fill:url(#linear-gradient-4);}.cls-8{opacity:0.42;fill:url(#linear-gradient-5);}.cls-9{opacity:0.54;}.cls-10{fill:url(#radial-gradient);}.cls-11,.cls-28,.cls-32{opacity:0.8;}.cls-12{fill:url(#radial-gradient-2);}.cls-13,.cls-19,.cls-22{opacity:0.5;}.cls-13{fill:url(#radial-gradient-3);}.cls-14{opacity:0.25;fill:url(#radial-gradient-4);}.cls-15{fill:url(#radial-gradient-5);}.cls-16{fill:url(#radial-gradient-6);}.cls-17,.cls-55{opacity:0.2;}.cls-17{fill:url(#radial-gradient-7);}.cls-18{opacity:0.15;fill:url(#radial-gradient-8);}.cls-19{fill:url(#radial-gradient-9);}.cls-20{fill:url(#radial-gradient-10);}.cls-21{stroke:#fff;stroke-width:1.69px;opacity:0.03;}.cls-21,.cls-32{stroke-miterlimit:10;}.cls-22{fill:url(#radial-gradient-11);}.cls-23{fill:url(#radial-gradient-12);}.cls-24{fill:url(#radial-gradient-13);}.cls-25{fill:url(#radial-gradient-14);}.cls-26{fill:url(#radial-gradient-15);}.cls-27{fill:url(#radial-gradient-16);}.cls-28{fill:url(#linear-gradient-6);}.cls-29{clip-path:url(#clip-path-2);}.cls-30,.cls-31,.cls-33{opacity:0.3;}.cls-30{fill:url(#linear-gradient-7);}.cls-31{fill:url(#linear-gradient-8);}.cls-32,.cls-39{stroke-width:0.85px;}.cls-32{fill:url(#linear-gradient-9);stroke:url(#linear-gradient-10);}.cls-34{fill:url(#radial-gradient-17);}.cls-35{fill:url(#radial-gradient-18);}.cls-36{fill:url(#radial-gradient-19);}.cls-37{fill:url(#radial-gradient-20);}.cls-38{fill:url(#radial-gradient-21);}.cls-39,.cls-46,.cls-53,.cls-61,.cls-68{stroke-linecap:round;stroke-linejoin:round;}.cls-39{stroke:url(#radial-gradient-22);}.cls-40{fill:url(#radial-gradient-23);}.cls-41{fill:url(#radial-gradient-24);}.cls-42{fill:url(#radial-gradient-25);}.cls-43{fill:url(#radial-gradient-26);}.cls-44{fill:url(#radial-gradient-27);}.cls-45{fill:url(#radial-gradient-28);}.cls-46{stroke-width:0.48px;stroke:url(#radial-gradient-29);}.cls-47{fill:url(#radial-gradient-30);}.cls-48{fill:url(#radial-gradient-31);}.cls-49{fill:url(#radial-gradient-32);}.cls-50{fill:url(#radial-gradient-33);}.cls-51{fill:url(#radial-gradient-34);}.cls-52{fill:url(#radial-gradient-35);}.cls-53{stroke-width:0.25px;stroke:url(#radial-gradient-36);}.cls-54{fill:url(#radial-gradient-37);}.cls-56{fill:url(#radial-gradient-38);}.cls-57{fill:url(#radial-gradient-39);}.cls-58{fill:url(#radial-gradient-40);}.cls-59{fill:url(#radial-gradient-41);}.cls-60{fill:url(#radial-gradient-42);}.cls-61{stroke-width:0.56px;stroke:url(#radial-gradient-43);}.cls-62{fill:url(#radial-gradient-44);}.cls-63{fill:url(#radial-gradient-45);}.cls-64{fill:url(#radial-gradient-46);}.cls-65{fill:url(#radial-gradient-47);}.cls-66{fill:url(#radial-gradient-48);}.cls-67{fill:url(#radial-gradient-49);}.cls-68{stroke-width:0.3px;stroke:url(#radial-gradient-50);}.cls-69{fill:url(#radial-gradient-51);}.cls-70{fill:#fff;}.cls-71{fill:#c7c6c6;}</style><linearGradient id="linear-gradient" x1="125.38" y1="496.21" x2="125.38" y2="522.78" gradientTransform="translate(0 -500)" gradientUnits="userSpaceOnUse"><stop offset="0" stop-color="#f6fbff"/><stop offset="0.63" stop-color="#e9f1f6"/><stop offset="1" stop-color="#c5dae1"/></linearGradient><linearGradient id="linear-gradient-2" x1="143.24" y1="519.55" x2="120.94" y2="701.16" gradientTransform="translate(0 -500)" gradientUnits="userSpaceOnUse"><stop offset="0" stop-color="#c0c5c8"/><stop offset="1" stop-color="#b0c2c9"/></linearGradient><linearGradient id="linear-gradient-3" x1="76.95" y1="623.39" x2="171.33" y2="623.39" xlink:href="#linear-gradient"/><clipPath id="clip-path"><path class="cls-1" d="M218.4,218.16V14C218.4,19,154.82,23,131,23h-3.59c-4.8-.07-9.6-.25-14.39-.47q-8.52-.39-17-1-8.79-.6-17.52-1.4c-5.3-.49-10.6-1-15.88-1.73-3.9-.53-7.74-1.53-11.67-1.44s-7.64,1.67-11.45,2.5l-1,.2a20,20,0,0,1-3.85.59c-.45,0-.91.09-1.36.12-.23,0-.87-.06-1,.14s.24.62.37.76a5.57,5.57,0,0,0,.76.6c.32.25.67.47,1,.71L37.88,25l5.57,3.94.16.11V218.16a11.54,11.54,0,0,0,8.09,14.17,11.77,11.77,0,0,0,3.07.41H207.28a11.53,11.53,0,0,0,11.12-14.58Z"/></clipPath><linearGradient id="linear-gradient-4" x1="92.36" y1="621.76" x2="143.54" y2="753.93" gradientTransform="translate(0 -500)" gradientUnits="userSpaceOnUse"><stop offset="0" stop-color="#f5f5f5"/><stop offset="1" stop-color="#c3d1d6"/></linearGradient><linearGradient id="linear-gradient-5" x1="70.92" y1="665.48" x2="185.02" y2="665.48" gradientTransform="translate(0 -500)" gradientUnits="userSpaceOnUse"><stop offset="0" stop-color="#cecc03"/><stop offset="1" stop-color="#f0e526"/></linearGradient><radialGradient id="radial-gradient" cx="-2436.58" cy="-15303.89" r="64.7" gradientTransform="matrix(0.01, 1, -0.12, 0, -1605.31, 2523.57)" gradientUnits="userSpaceOnUse"><stop offset="0" stop-color="#e6f3fc"/><stop offset="1" stop-color="#bacae9" stop-opacity="0"/></radialGradient><radialGradient id="radial-gradient-2" cx="-2843.58" cy="12565.88" r="54.3" gradientTransform="matrix(0.01, -1, 0.16, 0, -1928.35, -2733.32)" xlink:href="#radial-gradient"/><radialGradient id="radial-gradient-3" cx="199.21" cy="655.25" r="3.83" gradientTransform="translate(0 -500)" xlink:href="#radial-gradient"/><radialGradient id="radial-gradient-4" cx="-1726.22" cy="-29.91" r="13.58" gradientTransform="translate(1721.44 -371.76) rotate(-17.29)" gradientUnits="userSpaceOnUse"><stop offset="0.1" stop-color="#010101"/><stop offset="0.11" stop-color="#070706"/><stop offset="0.16" stop-color="#221d12"/><stop offset="0.22" stop-color="#392e16"/><stop offset="0.28" stop-color="#4a3a17"/><stop offset="0.37" stop-color="#564318"/><stop offset="0.48" stop-color="#5c4918"/><stop offset="0.8" stop-color="#5f4a17"/><stop offset="1" stop-color="#010101"/></radialGradient><radialGradient id="radial-gradient-5" cx="-1732.24" cy="24.66" r="0.45" gradientTransform="matrix(0.95, -0.3, 0.3, 0.95, 1707.79, -368.79)" gradientUnits="userSpaceOnUse"><stop offset="0" stop-color="#d5e195"/><stop offset="0.06" stop-color="#b1bb79"/><stop offset="0.14" stop-color="#868f5f"/><stop offset="0.22" stop-color="#646946"/><stop offset="0.31" stop-color="#454930"/><stop offset="0.4" stop-color="#2c2f1f"/><stop offset="0.51" stop-color="#191a13"/><stop offset="0.62" stop-color="#0b0c0a"/><stop offset="0.76" stop-color="#020404"/><stop offset="1" stop-color="#010101"/></radialGradient><radialGradient id="radial-gradient-6" cx="-1742.35" cy="21.26" r="0.45" gradientTransform="translate(1721.44 -371.76) rotate(-17.29)" xlink:href="#radial-gradient-5"/><radialGradient id="radial-gradient-7" cx="-1732.76" cy="26.3" r="3.4" gradientTransform="matrix(0.95, -0.3, 0.3, 0.95, 1707.79, -368.79)" gradientUnits="userSpaceOnUse"><stop offset="0.05" stop-color="#010101"/><stop offset="0.09" stop-color="#070b08"/><stop offset="0.3" stop-color="#1f341c"/><stop offset="0.48" stop-color="#265325"/><stop offset="0.64" stop-color="#30672c"/><stop offset="0.75" stop-color="#336e2e"/><stop offset="0.79" stop-color="#506f2a"/><stop offset="0.83" stop-color="#717021"/><stop offset="0.86" stop-color="#7f701b"/><stop offset="0.89" stop-color="#7a6d1c"/><stop offset="0.91" stop-color="#71641b"/><stop offset="0.94" stop-color="#5e5419"/><stop offset="0.96" stop-color="#433d18"/><stop offset="0.98" stop-color="#232114"/><stop offset="1" stop-color="#010101"/></radialGradient><radialGradient id="radial-gradient-8" cx="-1729.44" cy="-19.68" r="9.05" gradientTransform="translate(1721.45 -371.77) rotate(-17.29)" gradientUnits="userSpaceOnUse"><stop offset="0" stop-color="#1d090a"/><stop offset="0.73" stop-color="#994123"/><stop offset="1" stop-color="#1d090a"/></radialGradient><radialGradient id="radial-gradient-9" cx="-1720.51" cy="-12.58" r="4.53" gradientTransform="matrix(0.95, -0.3, 0.3, 0.95, 1707.79, -368.79)" gradientUnits="userSpaceOnUse"><stop offset="0.15" stop-color="#fff"/><stop offset="0.21" stop-color="#e5d3d3"/><stop offset="0.29" stop-color="#c49c9e"/><stop offset="0.36" stop-color="#ad7477"/><stop offset="0.42" stop-color="#9f5d60"/><stop offset="0.45" stop-color="#9a5457"/><stop offset="0.57" stop-color="#6b3436"/><stop offset="0.69" stop-color="#431719"/><stop offset="0.79" stop-color="#270d0e"/><stop offset="0.85" stop-color="#1d090a"/><stop offset="0.86" stop-color="#210a0a"/><stop offset="0.86" stop-color="#300f0e"/><stop offset="0.87" stop-color="#461410"/><stop offset="0.88" stop-color="#641e11"/><stop offset="0.89" stop-color="#8b2e19"/><stop offset="0.9" stop-color="#b84323"/><stop offset="0.9" stop-color="#d34f29"/><stop offset="0.9" stop-color="#c94928"/><stop offset="0.91" stop-color="#9d371d"/><stop offset="0.93" stop-color="#772615"/><stop offset="0.94" stop-color="#591a10"/><stop offset="0.95" stop-color="#3e130f"/><stop offset="0.97" stop-color="#2b0e0d"/><stop offset="0.98" stop-color="#1f090b"/><stop offset="1" stop-color="#1d090a"/></radialGradient><radialGradient id="radial-gradient-10" cx="-1729.45" cy="-19.67" r="3.77" gradientTransform="translate(1793.75 143.13)" gradientUnits="userSpaceOnUse"><stop offset="0.15" stop-color="#fff"/><stop offset="0.28" stop-color="#c3c2c2"/><stop offset="0.43" stop-color="#878889"/><stop offset="0.56" stop-color="#585858"/><stop offset="0.69" stop-color="#323232"/><stop offset="0.81" stop-color="#161617"/><stop offset="0.92" stop-color="#050606"/><stop offset="1" stop-color="#010101"/></radialGradient><radialGradient id="radial-gradient-11" cx="-1733.41" cy="28.35" r="6.79" gradientTransform="matrix(0.95, -0.3, 0.3, 0.95, 1707.79, -368.79)" gradientUnits="userSpaceOnUse"><stop offset="0.64" stop-color="#010101"/><stop offset="0.72" stop-color="#010302"/><stop offset="0.75" stop-color="#060908"/><stop offset="0.77" stop-color="#0c140e"/><stop offset="0.78" stop-color="#132517"/><stop offset="0.8" stop-color="#1b3b1d"/><stop offset="0.8" stop-color="#1c431f"/><stop offset="0.81" stop-color="#212c19"/><stop offset="0.83" stop-color="#2c190f"/><stop offset="0.85" stop-color="#33110d"/><stop offset="0.86" stop-color="#35100f"/><stop offset="0.87" stop-color="#200a0a"/><stop offset="0.89" stop-color="#100606"/><stop offset="0.9" stop-color="#050303"/><stop offset="0.93" stop-color="#020102"/><stop offset="1" stop-color="#010101"/></radialGradient><radialGradient id="radial-gradient-12" cx="-1730.92" cy="20.45" r="1.93" gradientTransform="matrix(0.95, -0.3, 0.3, 0.95, 1707.79, -368.79)" gradientUnits="userSpaceOnUse"><stop offset="0.1" stop-color="#010101"/><stop offset="0.25" stop-color="#1a130c"/><stop offset="0.43" stop-color="#352413"/><stop offset="0.61" stop-color="#483014"/><stop offset="0.8" stop-color="#533613"/><stop offset="1" stop-color="#573812"/></radialGradient><radialGradient id="radial-gradient-13" cx="-1733.13" cy="-7.98" r="1.08" gradientTransform="translate(1721.44 -371.76) rotate(-17.29)" gradientUnits="userSpaceOnUse"><stop offset="0.1" stop-color="#1a301d"/><stop offset="0.23" stop-color="#142318"/><stop offset="0.48" stop-color="#0a0f0c"/><stop offset="0.73" stop-color="#030404"/><stop offset="1" stop-color="#010101"/></radialGradient><radialGradient id="radial-gradient-14" cx="64.22" cy="2432.62" r="0.71" gradientTransform="matrix(1, 0, 0, -1, 0, 2581.97)" xlink:href="#radial-gradient-12"/><radialGradient id="radial-gradient-15" cx="-1737.88" cy="7.1" r="1" gradientTransform="translate(1721.44 -371.77) rotate(-17.29)" gradientUnits="userSpaceOnUse"><stop offset="0.1" stop-color="#010101"/><stop offset="0.29" stop-color="#151711"/><stop offset="0.52" stop-color="#262a1b"/><stop offset="0.75" stop-color="#313523"/><stop offset="1" stop-color="#333824"/></radialGradient><radialGradient id="radial-gradient-16" cx="-1730.79" cy="20.04" r="1.86" gradientTransform="matrix(0.95, -0.3, 0.3, 0.95, 1707.79, -368.79)" xlink:href="#radial-gradient-13"/><linearGradient id="linear-gradient-6" x1="191.01" y1="728.51" x2="72.91" y2="571.99" xlink:href="#linear-gradient-5"/><clipPath id="clip-path-2"><path class="cls-1" d="M208.3,212.9V79.83h0c0,4.75-55.69,8.6-77.27,8.6s-77.29-3.85-77.29-8.6h0V212.9c.07,5.91,2.77,11.84,8.94,11.84H199.36C205.53,224.74,208.38,218.69,208.3,212.9Z"/></clipPath><linearGradient id="linear-gradient-7" x1="287.68" y1="675.15" x2="40.65" y2="652.17" xlink:href="#linear-gradient-5"/><linearGradient id="linear-gradient-8" x1="7.4" y1="700.27" x2="241.92" y2="700.27" xlink:href="#linear-gradient-5"/><linearGradient id="linear-gradient-9" x1="268.27" y1="579.83" x2="85.13" y2="579.83" xlink:href="#linear-gradient-5"/><linearGradient id="linear-gradient-10" x1="53.31" y1="579.83" x2="208.72" y2="579.83" gradientTransform="translate(0 -500)" gradientUnits="userSpaceOnUse"><stop offset="0" stop-color="#f4e600"/><stop offset="1" stop-color="#f0e526"/></linearGradient><radialGradient id="radial-gradient-17" cx="-735.73" cy="3012.01" r="14.16" gradientTransform="matrix(0.25, -0.97, 0.96, 0.25, -2606.41, -1377.46)" gradientUnits="userSpaceOnUse"><stop offset="0" stop-color="#d9d302" stop-opacity="0.8"/><stop offset="0.51" stop-color="#dcd601" stop-opacity="0.8"/><stop offset="0.89" stop-color="#e6e00c" stop-opacity="0.81"/><stop offset="1" stop-color="#e9e213" stop-opacity="0.81"/></radialGradient><radialGradient id="radial-gradient-18" cx="237.42" cy="861.98" r="9.18" gradientTransform="translate(-196.4 -583.7) scale(1.24 0.77)" gradientUnits="userSpaceOnUse"><stop offset="0" stop-color="#d3d800"/><stop offset="0.38" stop-color="#d3d800" stop-opacity="0.99"/><stop offset="0.51" stop-color="#d3d800" stop-opacity="0.96"/><stop offset="0.61" stop-color="#d3d802" stop-opacity="0.92"/><stop offset="0.69" stop-color="#d3d802" stop-opacity="0.85"/><stop offset="0.75" stop-color="#d3d807" stop-opacity="0.76"/><stop offset="0.81" stop-color="#d5d911" stop-opacity="0.65"/><stop offset="0.87" stop-color="#d5d917" stop-opacity="0.51"/><stop offset="0.91" stop-color="#d5d919" stop-opacity="0.36"/><stop offset="0.96" stop-color="#d6da1d" stop-opacity="0.19"/><stop offset="1" stop-color="#d6da1d" stop-opacity="0.01"/><stop offset="1" stop-color="#d6da1d" stop-opacity="0"/></radialGradient><radialGradient id="radial-gradient-19" cx="-727.8" cy="3004.51" r="1.16" gradientTransform="matrix(0.25, -0.97, 0.96, 0.25, -2593.34, -1375.39)" gradientUnits="userSpaceOnUse"><stop offset="0" stop-color="#d7da14"/><stop offset="0.38" stop-color="#d7da14" stop-opacity="0.99"/><stop offset="0.51" stop-color="#d7da14" stop-opacity="0.96"/><stop offset="0.61" stop-color="#d7da17" stop-opacity="0.92"/><stop offset="0.69" stop-color="#d7da17" stop-opacity="0.85"/><stop offset="0.75" stop-color="#d6da1a" stop-opacity="0.76"/><stop offset="0.81" stop-color="#d7da1c" stop-opacity="0.65"/><stop offset="0.87" stop-color="#d7da1e" stop-opacity="0.51"/><stop offset="0.91" stop-color="#d6da1f" stop-opacity="0.36"/><stop offset="0.96" stop-color="#d6da1f" stop-opacity="0.19"/><stop offset="1" stop-color="#d6da1d" stop-opacity="0.01"/><stop offset="1" stop-color="#d6da1d" stop-opacity="0"/></radialGradient><radialGradient id="radial-gradient-20" cx="-725.89" cy="3006.11" r="0.42" gradientTransform="matrix(0.25, -0.97, 0.96, 0.25, -2593.45, -1372.35)" gradientUnits="userSpaceOnUse"><stop offset="0" stop-color="#d7da14"/><stop offset="0.22" stop-color="#d7da14" stop-opacity="0.99"/><stop offset="0.36" stop-color="#d7da14" stop-opacity="0.95"/><stop offset="0.47" stop-color="#d7da17" stop-opacity="0.9"/><stop offset="0.58" stop-color="#d6da1a" stop-opacity="0.81"/><stop offset="0.67" stop-color="#d6da18" stop-opacity="0.7"/><stop offset="0.76" stop-color="#d7da1c" stop-opacity="0.57"/><stop offset="0.84" stop-color="#d6da1f" stop-opacity="0.41"/><stop offset="0.92" stop-color="#d6da1f" stop-opacity="0.22"/><stop offset="0.99" stop-color="#d6da1d" stop-opacity="0.02"/><stop offset="1" stop-color="#d6da1d" stop-opacity="0"/></radialGradient><radialGradient id="radial-gradient-21" cx="-742.28" cy="3022.09" r="0.42" gradientTransform="matrix(0.25, -0.97, 0.96, 0.25, -2620.95, -1376.22)" xlink:href="#radial-gradient-20"/><radialGradient id="radial-gradient-22" cx="91.7" cy="593.63" r="3.7" gradientTransform="translate(0 -500)" xlink:href="#radial-gradient-19"/><radialGradient id="radial-gradient-23" cx="108.1" cy="478.04" r="1.69" gradientTransform="translate(0 -309.05) scale(1 0.85)" gradientUnits="userSpaceOnUse"><stop offset="0" stop-color="#d3d800"/><stop offset="0.09" stop-color="#d3d800" stop-opacity="0.97"/><stop offset="0.22" stop-color="#d3d802" stop-opacity="0.89"/><stop offset="0.39" stop-color="#d4d90a" stop-opacity="0.75"/><stop offset="0.57" stop-color="#d5d917" stop-opacity="0.56"/><stop offset="0.77" stop-color="#d5d91c" stop-opacity="0.31"/><stop offset="0.99" stop-color="#d6da1d" stop-opacity="0.01"/><stop offset="1" stop-color="#d6da1d" stop-opacity="0"/></radialGradient><radialGradient id="radial-gradient-24" cx="-691.52" cy="2993.72" r="8.01" gradientTransform="matrix(0.25, -0.97, 0.96, 0.25, -2555.94, -1348.38)" xlink:href="#radial-gradient-17"/><radialGradient id="radial-gradient-25" cx="274.12" cy="849.48" r="5.19" gradientTransform="translate(-197.39 -588.78) scale(1.24 0.77)" xlink:href="#radial-gradient-18"/><radialGradient id="radial-gradient-26" cx="-687.03" cy="2989.49" r="0.66" gradientTransform="matrix(0.25, -0.97, 0.96, 0.25, -2548.55, -1347.21)" xlink:href="#radial-gradient-19"/><radialGradient id="radial-gradient-27" cx="-685.96" cy="2990.39" r="0.24" gradientTransform="matrix(0.25, -0.97, 0.96, 0.25, -2548.62, -1345.49)" xlink:href="#radial-gradient-20"/><radialGradient id="radial-gradient-28" cx="-695.21" cy="2999.42" r="0.24" gradientTransform="matrix(0.25, -0.97, 0.96, 0.25, -2564.16, -1347.68)" xlink:href="#radial-gradient-20"/><radialGradient id="radial-gradient-29" cx="140.13" cy="573.09" r="2.09" gradientTransform="translate(0 -500)" xlink:href="#radial-gradient-19"/><radialGradient id="radial-gradient-30" cx="149.4" cy="456.24" r="0.95" gradientTransform="translate(0 -312.21) scale(1 0.85)" xlink:href="#radial-gradient-23"/><radialGradient id="radial-gradient-31" cx="-709.37" cy="2974.74" r="4.26" gradientTransform="matrix(0.25, -0.97, 0.96, 0.25, -2551.13, -1379.87)" xlink:href="#radial-gradient-17"/><radialGradient id="radial-gradient-32" cx="261.06" cy="829.44" r="2.76" gradientTransform="translate(-198.71 -590.12) scale(1.24 0.77)" xlink:href="#radial-gradient-18"/><radialGradient id="radial-gradient-33" cx="-706.99" cy="2972.49" r="0.35" gradientTransform="matrix(0.25, -0.97, 0.96, 0.25, -2547.2, -1379.25)" xlink:href="#radial-gradient-19"/><radialGradient id="radial-gradient-34" cx="-706.41" cy="2972.97" r="0.13" gradientTransform="matrix(0.25, -0.97, 0.96, 0.25, -2547.23, -1378.33)" xlink:href="#radial-gradient-20"/><radialGradient id="radial-gradient-35" cx="-711.34" cy="2977.78" r="0.13" gradientTransform="matrix(0.25, -0.97, 0.96, 0.25, -2555.5, -1379.5)" xlink:href="#radial-gradient-20"/><radialGradient id="radial-gradient-36" cx="124.84" cy="552.74" r="1.11" gradientTransform="translate(0 -500)" xlink:href="#radial-gradient-19"/><radialGradient id="radial-gradient-37" cx="129.77" cy="435.12" r="0.51" gradientTransform="translate(0 -315.28) scale(1 0.85)" xlink:href="#radial-gradient-23"/><radialGradient id="radial-gradient-38" cx="-663.97" cy="3045.9" r="9.35" gradientTransform="matrix(0.25, -0.97, 0.96, 0.25, -2585.26, -1282.63)" xlink:href="#radial-gradient-17"/><radialGradient id="radial-gradient-39" cx="292.99" cy="908.6" r="6.06" gradientTransform="translate(-193.41 -582.96) scale(1.24 0.77)" xlink:href="#radial-gradient-18"/><radialGradient id="radial-gradient-40" cx="-658.73" cy="3040.96" r="0.77" gradientTransform="matrix(0.25, -0.97, 0.96, 0.25, -2576.63, -1281.27)" xlink:href="#radial-gradient-19"/><radialGradient id="radial-gradient-41" cx="-657.47" cy="3042.01" r="0.28" gradientTransform="matrix(0.25, -0.97, 0.96, 0.25, -2576.7, -1279.26)" xlink:href="#radial-gradient-20"/><radialGradient id="radial-gradient-42" cx="-668.28" cy="3052.56" r="0.28" gradientTransform="matrix(0.25, -0.97, 0.96, 0.25, -2594.85, -1281.82)" xlink:href="#radial-gradient-20"/><radialGradient id="radial-gradient-43" cx="166.76" cy="625.76" r="2.44" gradientTransform="translate(0 -500)" xlink:href="#radial-gradient-19"/><radialGradient id="radial-gradient-44" cx="177.59" cy="509.18" r="1.11" gradientTransform="translate(0 -304.52) scale(1 0.85)" xlink:href="#radial-gradient-23"/><radialGradient id="radial-gradient-45" cx="-680.91" cy="3066.34" r="4.97" gradientTransform="matrix(0.25, -0.97, 0.96, 0.25, -2617.44, -1283.71)" xlink:href="#radial-gradient-17"/><radialGradient id="radial-gradient-46" cx="278.27" cy="932.6" r="3.22" gradientTransform="translate(-191.71 -578.48) scale(1.24 0.77)" xlink:href="#radial-gradient-18"/><radialGradient id="radial-gradient-47" cx="-678.12" cy="3063.71" r="0.41" gradientTransform="matrix(0.25, -0.97, 0.96, 0.25, -2612.85, -1282.98)" xlink:href="#radial-gradient-19"/><radialGradient id="radial-gradient-48" cx="-677.45" cy="3064.27" r="0.15" gradientTransform="matrix(0.25, -0.97, 0.96, 0.25, -2612.89, -1281.91)" xlink:href="#radial-gradient-20"/><radialGradient id="radial-gradient-49" cx="-683.21" cy="3069.88" r="0.15" gradientTransform="matrix(0.25, -0.97, 0.96, 0.25, -2622.54, -1283.27)" xlink:href="#radial-gradient-20"/><radialGradient id="radial-gradient-50" cx="152.81" cy="644.59" r="1.3" gradientTransform="translate(0 -500)" xlink:href="#radial-gradient-19"/><radialGradient id="radial-gradient-51" cx="158.57" cy="527.12" r="0.59" gradientTransform="translate(0 -301.92) scale(1 0.85)" xlink:href="#radial-gradient-23"/></defs><path class="cls-2" d="M218.39,14C218.39,19,154.81,23,131,23c-4.58,0-9.17-.12-13.75-.28q-9.63-.34-19.26-.92-10.17-.61-20.27-1.47c-2.54-.22-5.07-.46-7.59-.7S65,19,62.42,18.73c-1.24-.16-2.48-.36-3.71-.62s-2.48-.49-3.73-.66a21.81,21.81,0,0,0-7.12,0c-2.34.46-4.58,1.28-6.89,1.84a42.22,42.22,0,0,1-8.59,1.12A7.13,7.13,0,0,1,34,19a36.16,36.16,0,0,1,4.45-2.53c2.14-1.08,4.26-2.37,6.46-3.41a29.24,29.24,0,0,1,7.43-2.24C56.76,10,61.25,9.45,65.74,9,71.35,8.31,77,7.81,82.61,7.36q9-.71,18-1.21,8.43-.48,16.9-.78c4.49-.15,9-.27,13.48-.27C154.81,5.13,218.39,9.12,218.39,14Z"/><polygon class="cls-3" points="14.32 251.1 2.72 257.53 213.78 257.53 231.73 244.4 231.68 241.91 14.32 251.1"/><path class="cls-4" d="M212.6,216.43,211.73,17C199.67,23,147.51,23,131,23h-4c-1.26,0-2.53-.06-3.79-.11-1.43,0-2.86-.1-4.28-.16s-3.13-.13-4.69-.21l-5-.26-5.22-.34c-1.81-.1-3.62-.21-5.42-.33l-5.5-.35-5.54-.37-5.4-.4L77,20l-5-.42q-2.34-.2-4.65-.42c-1.42-.13-2.83-.27-4.24-.42l-1.93-.2c-1-.15-1.9-.35-2.83-.59l-.5-.14a26.07,26.07,0,0,0-7.36-.7l-1.23.08.22,199.21a9.82,9.82,0,0,0,6.75,12.12,10.5,10.5,0,0,0,2.68.37H203.16A9.81,9.81,0,0,0,213,219.1,10.42,10.42,0,0,0,212.6,216.43Z"/><path class="cls-5" d="M218.4,218.16V14C218.4,19,154.82,23,131,23h-3.59c-4.8-.07-9.6-.25-14.39-.47q-8.52-.39-17-1-8.79-.6-17.52-1.4c-5.3-.49-10.6-1-15.88-1.73-3.9-.53-7.74-1.53-11.67-1.44s-7.64,1.67-11.45,2.5l-1,.2a20,20,0,0,1-3.85.59c-.45,0-.91.09-1.36.12-.23,0-.87-.06-1,.14s.24.62.37.76a5.57,5.57,0,0,0,.76.6c.32.25.67.47,1,.71L37.88,25l5.57,3.94.16.11V218.16a11.54,11.54,0,0,0,8.09,14.17,11.77,11.77,0,0,0,3.07.41H207.28a11.53,11.53,0,0,0,11.12-14.58Z"/><g class="cls-6"><path class="cls-7" d="M213.64,221.73c0-8.62-36.86-11.59-82.32-11.59S49,213.44,49,222.06s8,6.88,82.31,7.57C201.83,230.28,213.64,230.35,213.64,221.73Z"/><rect class="cls-8" x="16.96" y="77.81" width="225.47" height="175.35"/></g><g class="cls-9"><path class="cls-10" d="M198.18,146.17a4.25,4.25,0,0,1-4.11-3.34V77.74a4.28,4.28,0,0,1-.09-.87V37.69a4.24,4.24,0,0,1,8.47-.42v.42h0V76.43l-.09,64.64a4.24,4.24,0,0,1-3.28,5A4.59,4.59,0,0,1,198.18,146.17Z"/></g><g class="cls-11"><path class="cls-12" d="M62.77,168.08a4.67,4.67,0,0,1-5.69-3.31v-.05a4.77,4.77,0,0,1-.15-1.18l.75-107.71a4.65,4.65,0,1,1,9.3.06l-.7,107.73A4.65,4.65,0,0,1,62.77,168.08Z"/></g><circle class="cls-13" cx="199.11" cy="155.23" r="4.23"/><circle class="cls-14" cx="64.33" cy="112.72" r="13.58"/><circle class="cls-15" cx="64.17" cy="162.5" r="0.45"/><circle class="cls-16" cx="64.15" cy="166.37" r="0.45"/><circle class="cls-17" cx="64.16" cy="164.22" r="3.4"/><line class="cls-1" x1="64.31" y1="123.45" x2="64.16" y2="166.37"/><circle class="cls-18" cx="64.3" cy="123.45" r="9.05"/><circle class="cls-19" cx="64.31" cy="123.45" r="4.53"/><circle class="cls-20" cx="64.3" cy="123.45" r="3.77" transform="translate(-33.78 24.69) rotate(-17.29)"/><polyline class="cls-21" points="64.31 123.45 66.34 138.18 64.31 123.45 62.27 108.72 64.31 123.45 49.57 125.49 64.31 123.45 79.04 121.42 64.31 123.45 71.9 141.11 64.31 123.45 56.71 105.79 64.31 123.45 46.64 131.05 64.31 123.45 81.97 115.86 64.31 123.45 77.96 135.63 64.31 123.45 50.65 111.27 64.31 123.45 52.13 137.11 64.31 123.45 76.49 109.8 64.31 123.45 65.22 136.2 64.31 123.45 63.39 110.71 64.31 123.45 51.56 124.37 64.31 123.45 77.05 122.54 64.31 123.45 64.65 124.93 64.31 123.45 63.97 121.98 64.31 123.45 62.83 123.79 64.31 123.45 65.78 123.11 64.31 123.45 60.04 142.27 64.31 123.45 68.57 104.63 64.31 123.45 45.49 119.19 64.31 123.45 83.13 127.72 64.31 123.45 61.92 129.72 64.31 123.45 66.69 117.18 64.31 123.45 58.04 121.07 64.31 123.45 70.57 125.84 64.31 123.45 67.7 127.15 64.31 123.45 60.92 119.75 64.31 123.45 60.61 126.84 64.31 123.45 68.01 120.06 64.31 123.45 84.95 132.62 64.31 123.45 43.66 114.28 64.31 123.45 55.13 144.1 64.31 123.45 73.48 102.81 64.31 123.45 73.37 139.93 64.31 123.45 55.24 106.97 64.31 123.45 47.83 132.52 64.31 123.45 80.79 114.39 64.31 123.45 73.98 143.05 64.31 123.45 54.63 103.86 64.31 123.45 44.71 133.12 64.31 123.45 83.9 113.78 64.31 123.45 67.17 126.68 64.31 123.45 61.44 120.22 64.31 123.45 61.08 126.32 64.31 123.45 67.54 120.59 64.31 123.45 78.52 129.96 64.31 123.45 50.09 116.94 64.31 123.45 57.79 137.67 64.31 123.45 70.82 109.24 64.31 123.45 63.48 140.15 64.31 123.45 65.13 106.75 64.31 123.45 47.61 122.62 64.31 123.45 81.01 124.28 64.31 123.45 69.18 136.23 64.31 123.45 59.43 110.67 64.31 123.45 51.53 128.33 64.31 123.45 77.09 118.58"/><circle class="cls-22" cx="64.16" cy="166.37" r="6.79"/><circle class="cls-23" cx="64.18" cy="158.08" r="1.93"/><circle class="cls-24" cx="64.25" cy="135.72" r="1.08"/><circle class="cls-25" cx="64.22" cy="149.36" r="0.71"/><circle class="cls-26" cx="64.2" cy="151.52" r="1"/><circle class="cls-27" cx="64.19" cy="157.66" r="1.86"/><path class="cls-28" d="M208.3,212.9V79.83h0c0,4.75-55.69,8.6-77.27,8.6s-77.29-3.85-77.29-8.6h0V212.9c.07,5.91,2.77,11.84,8.94,11.84H199.36C205.53,224.74,208.38,218.69,208.3,212.9Z"/><g class="cls-29"><path class="cls-30" d="M135.65,114.1c-18.68,1.5-37.42,2.26-56.09,3.8-20,1.63-41.8,7.14-57.54,20.19l-.45.38c-8.76,7.43-16,18-15.41,29.46.44,9,5.68,17.24,12.53,23.09s15.2,9.61,23.57,12.92c48.7,19.22,104.27,25.27,153.43,7.27,9.89-3.62,19.53-8.23,27.69-14.89s14.78-15.49,17.51-25.66c2.82-10.48,1.32-21.89-3.26-31.73-4.33-9.32-11.15-16.48-14-26.61-.53-1.88-1.11-4-2.76-5a7.27,7.27,0,0,0-3.74-.85c-21.64-1-42.52,3.5-63.88,5.94C147.41,113.07,141.53,113.62,135.65,114.1Z"/><path class="cls-31" d="M130.78,154c-18.41,3.47-37,6.22-55.37,9.72C55.7,167.47,34.6,175.26,20.33,189.9l-.4.42c-7.93,8.32-14,19.58-12.21,30.93,1.4,8.9,7.48,16.54,14.91,21.63s16.13,8,24.81,10.35c50.46,14,106.36,14.08,153.34-9,9.44-4.65,18.54-10.26,25.95-17.74s13-17,14.69-27.37c1.69-10.72-1-21.9-6.6-31.2-5.29-8.81-12.83-15.21-16.71-25-.73-1.82-1.53-3.82-3.27-4.69a7.4,7.4,0,0,0-3.81-.45c-21.63,1.3-41.92,8-62.9,12.68Q139.49,152.36,130.78,154Z"/></g><path class="cls-32" d="M208.3,79.83c0,4.75-55.69,8.6-77.27,8.6s-77.29-3.85-77.29-8.6,55.72-8.59,77.29-8.59S208.3,75.08,208.3,79.83Z"/><g class="cls-33"><circle class="cls-34" cx="101.39" cy="88.42" r="14.91"/><ellipse class="cls-35" cx="100.34" cy="80.19" rx="9.96" ry="6.01" transform="translate(-5.79 7.84) rotate(-4.35)"/><circle class="cls-36" cx="109.32" cy="80.93" r="1.22"/><circle class="cls-37" cx="111.23" cy="82.54" r="0.44"/><circle class="cls-38" cx="94.85" cy="98.52" r="0.44"/><path class="cls-39" d="M89.53,89.51c-.15,2.88,1.58,7,4.35,8.25"/><circle class="cls-40" cx="108.1" cy="96.53" r="1.36"/></g><g class="cls-33"><circle class="cls-41" cx="145.61" cy="70.14" r="8.43"/><ellipse class="cls-42" cx="145.03" cy="65.48" rx="5.63" ry="3.4" transform="translate(-4.55 11.19) rotate(-4.35)"/><circle class="cls-43" cx="150.09" cy="65.91" r="0.69"/><circle class="cls-44" cx="151.17" cy="66.82" r="0.25"/><circle class="cls-45" cx="141.91" cy="75.85" r="0.25"/><path class="cls-46" d="M138.91,70.76c-.09,1.63.89,4,2.45,4.66"/><circle class="cls-47" cx="149.4" cy="74.73" r="0.77"/></g><g class="cls-33"><circle class="cls-48" cx="127.75" cy="51.17" r="4.48"/><ellipse class="cls-49" cx="127.44" cy="48.68" rx="3" ry="1.81" transform="translate(-3.33 9.81) rotate(-4.35)"/><circle class="cls-50" cx="130.14" cy="48.92" r="0.37"/><circle class="cls-51" cx="130.71" cy="49.4" r="0.13"/><circle class="cls-52" cx="125.79" cy="54.2" r="0.13"/><path class="cls-53" d="M124.19,51.5a2.82,2.82,0,0,0,1.3,2.48"/><circle class="cls-54" cx="129.77" cy="53.61" r="0.41"/></g><g class="cls-55"><circle class="cls-56" cx="173.16" cy="122.32" r="9.84"/><ellipse class="cls-57" cx="172.48" cy="116.88" rx="6.58" ry="3.96" transform="translate(-8.37 13.42) rotate(-4.35)"/><circle class="cls-58" cx="178.4" cy="117.38" r="0.81"/><circle class="cls-59" cx="179.65" cy="118.44" r="0.29"/><circle class="cls-60" cx="168.84" cy="128.98" r="0.29"/><path class="cls-61" d="M165.33,123c-.09,1.9,1,4.64,2.87,5.44"/><circle class="cls-62" cx="177.59" cy="127.67" r="0.89"/></g><g class="cls-55"><circle class="cls-63" cx="156.22" cy="142.76" r="5.23"/><ellipse class="cls-64" cx="155.86" cy="139.87" rx="3.5" ry="2.11" transform="translate(-10.16 12.22) rotate(-4.35)"/><circle class="cls-65" cx="159" cy="140.13" r="0.43"/><circle class="cls-66" cx="159.67" cy="140.7" r="0.16"/><circle class="cls-67" cx="153.92" cy="146.31" r="0.16"/><path class="cls-68" d="M152.07,143.14a3.28,3.28,0,0,0,1.53,2.9"/><circle class="cls-69" cx="158.57" cy="145.61" r="0.48"/></g><polygon class="cls-70" points="225.06 171.94 29.5 171.94 14.32 251.1 209.88 251.1 225.06 171.94"/><polygon class="cls-71" points="225.06 171.94 231.68 241.91 229.07 243.95 214.08 244.12 212.97 248.67 209.88 251.1 225.06 171.94"/></svg>