<svg id="Layer_1" data-name="Layer 1" xmlns="http://www.w3.org/2000/svg" xmlns:xlink="http://www.w3.org/1999/xlink" viewBox="0 0 235.13 262.86"><defs><style>.cls-1,.cls-18,.cls-36,.cls-43,.cls-50,.cls-58,.cls-65{fill:none;}.cls-2,.cls-5{opacity:0.72;}.cls-11,.cls-14,.cls-15,.cls-16,.cls-18,.cls-19,.cls-2,.cls-25,.cls-27,.cls-28,.cls-29,.cls-5,.cls-71,.cls-8{isolation:isolate;}.cls-2{fill:url(#linear-gradient);}.cls-3{fill:#683d14;fill-opacity:0.51;}.cls-4{fill:url(#linear-gradient-2);}.cls-5{fill:url(#linear-gradient-3);}.cls-6{clip-path:url(#clip-path);}.cls-7{fill:url(#linear-gradient-4);}.cls-8{opacity:0.42;fill:url(#linear-gradient-5);}.cls-25,.cls-29,.cls-9{opacity:0.8;}.cls-10{fill:url(#radial-gradient);}.cls-11{opacity:0.25;fill:url(#radial-gradient-2);}.cls-12{fill:url(#radial-gradient-3);}.cls-13{fill:url(#radial-gradient-4);}.cls-14,.cls-52{opacity:0.2;}.cls-14{fill:url(#radial-gradient-5);}.cls-15{opacity:0.15;fill:url(#radial-gradient-6);}.cls-16,.cls-19,.cls-71{opacity:0.5;}.cls-16{fill:url(#radial-gradient-7);}.cls-17{fill:url(#radial-gradient-8);}.cls-18{stroke:#fff;stroke-width:1.69px;opacity:0.03;}.cls-18,.cls-29{stroke-miterlimit:10;}.cls-19{fill:url(#radial-gradient-9);}.cls-20{fill:url(#radial-gradient-10);}.cls-21{fill:url(#radial-gradient-11);}.cls-22{fill:url(#radial-gradient-12);}.cls-23{fill:url(#radial-gradient-13);}.cls-24{fill:url(#radial-gradient-14);}.cls-25{fill:url(#linear-gradient-6);}.cls-26{clip-path:url(#clip-path-2);}.cls-27,.cls-28,.cls-30{opacity:0.3;}.cls-27{fill:url(#linear-gradient-7);}.cls-28{fill:url(#linear-gradient-8);}.cls-29,.cls-36{stroke-width:0.85px;}.cls-29{fill:url(#linear-gradient-9);stroke:url(#linear-gradient-10);}.cls-31{fill:url(#radial-gradient-15);}.cls-32{fill:url(#radial-gradient-16);}.cls-33{fill:url(#radial-gradient-17);}.cls-34{fill:url(#radial-gradient-18);}.cls-35{fill:url(#radial-gradient-19);}.cls-36,.cls-43,.cls-50,.cls-58,.cls-65{stroke-linecap:round;stroke-linejoin:round;}.cls-36{stroke:url(#radial-gradient-20);}.cls-37{fill:url(#radial-gradient-21);}.cls-38{fill:url(#radial-gradient-22);}.cls-39{fill:url(#radial-gradient-23);}.cls-40{fill:url(#radial-gradient-24);}.cls-41{fill:url(#radial-gradient-25);}.cls-42{fill:url(#radial-gradient-26);}.cls-43{stroke-width:0.48px;stroke:url(#radial-gradient-27);}.cls-44{fill:url(#radial-gradient-28);}.cls-45{fill:url(#radial-gradient-29);}.cls-46{fill:url(#radial-gradient-30);}.cls-47{fill:url(#radial-gradient-31);}.cls-48{fill:url(#radial-gradient-32);}.cls-49{fill:url(#radial-gradient-33);}.cls-50{stroke-width:0.25px;stroke:url(#radial-gradient-34);}.cls-51{fill:url(#radial-gradient-35);}.cls-53{fill:url(#radial-gradient-36);}.cls-54{fill:url(#radial-gradient-37);}.cls-55{fill:url(#radial-gradient-38);}.cls-56{fill:url(#radial-gradient-39);}.cls-57{fill:url(#radial-gradient-40);}.cls-58{stroke-width:0.56px;stroke:url(#radial-gradient-41);}.cls-59{fill:url(#radial-gradient-42);}.cls-60{fill:url(#radial-gradient-43);}.cls-61{fill:url(#radial-gradient-44);}.cls-62{fill:url(#radial-gradient-45);}.cls-63{fill:url(#radial-gradient-46);}.cls-64{fill:url(#radial-gradient-47);}.cls-65{stroke-width:0.3px;stroke:url(#radial-gradient-48);}.cls-66{fill:url(#radial-gradient-49);}.cls-67{fill:#fff;}.cls-68{fill:#c7c6c6;}.cls-69{opacity:0.54;}.cls-70{fill:url(#radial-gradient-50);}.cls-71{fill:url(#radial-gradient-51);}</style><linearGradient id="linear-gradient" x1="125.39" y1="496.33" x2="125.39" y2="522.9" gradientTransform="translate(0 -500)" gradientUnits="userSpaceOnUse"><stop offset="0" stop-color="#f6fbff"/><stop offset="0.63" stop-color="#e9f1f6"/><stop offset="1" stop-color="#c5dae1"/></linearGradient><linearGradient id="linear-gradient-2" x1="143.24" y1="519.67" x2="120.94" y2="701.28" gradientTransform="translate(0 -500)" gradientUnits="userSpaceOnUse"><stop offset="0" stop-color="#c0c5c8"/><stop offset="1" stop-color="#b0c2c9"/></linearGradient><linearGradient id="linear-gradient-3" x1="76.95" y1="623.51" x2="171.33" y2="623.51" xlink:href="#linear-gradient"/><clipPath id="clip-path"><path class="cls-1" d="M218.4,218.28V14.16c0,4.93-63.58,8.92-87.38,8.92h-3.6c-4.79-.07-9.59-.25-14.39-.47q-8.49-.39-17-1-8.76-.6-17.51-1.4c-5.3-.49-10.6-1-15.88-1.73C58.74,18,54.9,17,51,17s-7.63,1.67-11.44,2.5l-1,.2a19.8,19.8,0,0,1-3.84.59c-.46,0-.91.09-1.37.12-.22,0-.86-.06-1,.14s.24.62.36.76a4.77,4.77,0,0,0,.76.6c.33.25.67.47,1,.71l3.44,2.44L43.43,29l.17.11V218.28a11.55,11.55,0,0,0,8.1,14.18,11.39,11.39,0,0,0,3,.4H207.27a11.52,11.52,0,0,0,11.54-11.52A11.34,11.34,0,0,0,218.4,218.28Z"/></clipPath><linearGradient id="linear-gradient-4" x1="92.36" y1="621.89" x2="143.54" y2="754.06" gradientTransform="translate(0 -500)" gradientUnits="userSpaceOnUse"><stop offset="0" stop-color="#f5f5f5"/><stop offset="1" stop-color="#c3d1d6"/></linearGradient><linearGradient id="linear-gradient-5" x1="70.92" y1="665.61" x2="185.02" y2="665.61" gradientTransform="translate(0 -500)" gradientUnits="userSpaceOnUse"><stop offset="0" stop-color="#bb1f18"/><stop offset="1" stop-color="#e9493c"/></linearGradient><radialGradient id="radial-gradient" cx="-3160.02" cy="11752.92" r="54.28" gradientTransform="matrix(0.01, -1, 0.16, 0, -1796.08, -3049.17)" gradientUnits="userSpaceOnUse"><stop offset="0" stop-color="#e6f3fc"/><stop offset="1" stop-color="#bacae9" stop-opacity="0"/></radialGradient><radialGradient id="radial-gradient-2" cx="-1751.91" cy="-609.43" r="13.58" gradientTransform="translate(1918.21 174.06) rotate(-17.29)" gradientUnits="userSpaceOnUse"><stop offset="0.1" stop-color="#010101"/><stop offset="0.11" stop-color="#070706"/><stop offset="0.16" stop-color="#221d12"/><stop offset="0.22" stop-color="#392e16"/><stop offset="0.28" stop-color="#4a3a17"/><stop offset="0.37" stop-color="#564318"/><stop offset="0.48" stop-color="#5c4918"/><stop offset="0.8" stop-color="#5f4a17"/><stop offset="1" stop-color="#010101"/></radialGradient><radialGradient id="radial-gradient-3" cx="-1766.87" cy="-561.95" r="0.45" gradientTransform="translate(1918.2 174.06) rotate(-17.29)" gradientUnits="userSpaceOnUse"><stop offset="0" stop-color="#d5e195"/><stop offset="0.06" stop-color="#b1bb79"/><stop offset="0.14" stop-color="#868f5f"/><stop offset="0.22" stop-color="#646946"/><stop offset="0.31" stop-color="#454930"/><stop offset="0.4" stop-color="#2c2f1f"/><stop offset="0.51" stop-color="#191a13"/><stop offset="0.62" stop-color="#0b0c0a"/><stop offset="0.76" stop-color="#020404"/><stop offset="1" stop-color="#010101"/></radialGradient><radialGradient id="radial-gradient-4" cx="-1768.03" cy="-558.26" r="0.45" xlink:href="#radial-gradient-3"/><radialGradient id="radial-gradient-5" cx="-1760.34" cy="-552.32" r="3.4" gradientTransform="matrix(0.95, -0.3, 0.3, 0.95, 1905.61, 175.22)" gradientUnits="userSpaceOnUse"><stop offset="0.05" stop-color="#010101"/><stop offset="0.09" stop-color="#070b08"/><stop offset="0.3" stop-color="#1f341c"/><stop offset="0.48" stop-color="#265325"/><stop offset="0.64" stop-color="#30672c"/><stop offset="0.75" stop-color="#336e2e"/><stop offset="0.79" stop-color="#506f2a"/><stop offset="0.83" stop-color="#717021"/><stop offset="0.86" stop-color="#7f701b"/><stop offset="0.89" stop-color="#7a6d1c"/><stop offset="0.91" stop-color="#71641b"/><stop offset="0.94" stop-color="#5e5419"/><stop offset="0.96" stop-color="#433d18"/><stop offset="0.98" stop-color="#232114"/><stop offset="1" stop-color="#010101"/></radialGradient><radialGradient id="radial-gradient-6" cx="-1755.14" cy="-599.19" r="9.05" gradientTransform="translate(1918.21 174.05) rotate(-17.29)" gradientUnits="userSpaceOnUse"><stop offset="0" stop-color="#1d090a"/><stop offset="0.73" stop-color="#994123"/><stop offset="1" stop-color="#1d090a"/></radialGradient><radialGradient id="radial-gradient-7" cx="-1748.08" cy="-591.2" r="4.53" gradientTransform="matrix(0.95, -0.3, 0.3, 0.95, 1905.61, 175.22)" gradientUnits="userSpaceOnUse"><stop offset="0.15" stop-color="#fff"/><stop offset="0.21" stop-color="#e5d3d3"/><stop offset="0.29" stop-color="#c49c9e"/><stop offset="0.36" stop-color="#ad7477"/><stop offset="0.42" stop-color="#9f5d60"/><stop offset="0.45" stop-color="#9a5457"/><stop offset="0.57" stop-color="#6b3436"/><stop offset="0.69" stop-color="#431719"/><stop offset="0.79" stop-color="#270d0e"/><stop offset="0.85" stop-color="#1d090a"/><stop offset="0.86" stop-color="#210a0a"/><stop offset="0.86" stop-color="#300f0e"/><stop offset="0.87" stop-color="#461410"/><stop offset="0.88" stop-color="#641e11"/><stop offset="0.89" stop-color="#8b2e19"/><stop offset="0.9" stop-color="#b84323"/><stop offset="0.9" stop-color="#d34f29"/><stop offset="0.9" stop-color="#c94928"/><stop offset="0.91" stop-color="#9d371d"/><stop offset="0.93" stop-color="#772615"/><stop offset="0.94" stop-color="#591a10"/><stop offset="0.95" stop-color="#3e130f"/><stop offset="0.97" stop-color="#2b0e0d"/><stop offset="0.98" stop-color="#1f090b"/><stop offset="1" stop-color="#1d090a"/></radialGradient><radialGradient id="radial-gradient-8" cx="-1748.08" cy="-591.2" r="3.77" gradientTransform="matrix(0.95, -0.3, 0.3, 0.95, 1905.61, 175.22)" gradientUnits="userSpaceOnUse"><stop offset="0.15" stop-color="#fff"/><stop offset="0.28" stop-color="#c3c2c2"/><stop offset="0.43" stop-color="#878889"/><stop offset="0.56" stop-color="#585858"/><stop offset="0.69" stop-color="#323232"/><stop offset="0.81" stop-color="#161617"/><stop offset="0.92" stop-color="#050606"/><stop offset="1" stop-color="#010101"/></radialGradient><radialGradient id="radial-gradient-9" cx="-1760.98" cy="-550.27" r="6.79" gradientTransform="matrix(0.95, -0.3, 0.3, 0.95, 1905.61, 175.22)" gradientUnits="userSpaceOnUse"><stop offset="0.64" stop-color="#010101"/><stop offset="0.72" stop-color="#010302"/><stop offset="0.75" stop-color="#060908"/><stop offset="0.77" stop-color="#0c140e"/><stop offset="0.78" stop-color="#132517"/><stop offset="0.8" stop-color="#1b3b1d"/><stop offset="0.8" stop-color="#1c431f"/><stop offset="0.81" stop-color="#212c19"/><stop offset="0.83" stop-color="#2c190f"/><stop offset="0.85" stop-color="#33110d"/><stop offset="0.86" stop-color="#35100f"/><stop offset="0.87" stop-color="#200a0a"/><stop offset="0.89" stop-color="#100606"/><stop offset="0.9" stop-color="#050303"/><stop offset="0.93" stop-color="#020102"/><stop offset="1" stop-color="#010101"/></radialGradient><radialGradient id="radial-gradient-10" cx="-1758.49" cy="-558.17" r="1.93" gradientTransform="matrix(0.95, -0.3, 0.3, 0.95, 1905.61, 175.22)" gradientUnits="userSpaceOnUse"><stop offset="0.1" stop-color="#010101"/><stop offset="0.25" stop-color="#1a130c"/><stop offset="0.43" stop-color="#352413"/><stop offset="0.61" stop-color="#483014"/><stop offset="0.8" stop-color="#533613"/><stop offset="1" stop-color="#573812"/></radialGradient><radialGradient id="radial-gradient-11" cx="-1751.77" cy="-579.51" r="1.08" gradientTransform="matrix(0.95, -0.3, 0.3, 0.95, 1905.61, 175.22)" gradientUnits="userSpaceOnUse"><stop offset="0.1" stop-color="#1a301d"/><stop offset="0.23" stop-color="#142318"/><stop offset="0.48" stop-color="#0a0f0c"/><stop offset="0.73" stop-color="#030404"/><stop offset="1" stop-color="#010101"/></radialGradient><radialGradient id="radial-gradient-12" cx="-1755.87" cy="-566.49" r="0.71" gradientTransform="matrix(0.95, -0.3, 0.3, 0.95, 1905.62, 175.21)" xlink:href="#radial-gradient-10"/><radialGradient id="radial-gradient-13" cx="-1763.57" cy="-572.42" r="1" gradientTransform="translate(1918.2 174.05) rotate(-17.29)" gradientUnits="userSpaceOnUse"><stop offset="0.1" stop-color="#010101"/><stop offset="0.29" stop-color="#151711"/><stop offset="0.52" stop-color="#262a1b"/><stop offset="0.75" stop-color="#313523"/><stop offset="1" stop-color="#333824"/></radialGradient><radialGradient id="radial-gradient-14" cx="-1842.61" cy="-58.8" r="1.86" gradientTransform="matrix(1, 0, 0, -1, 0, 1833.6)" xlink:href="#radial-gradient-11"/><linearGradient id="linear-gradient-6" x1="191.01" y1="728.63" x2="72.91" y2="572.11" xlink:href="#linear-gradient-5"/><clipPath id="clip-path-2"><path class="cls-1" d="M208.3,213V80h0c0,4.75-55.69,8.6-77.27,8.6S53.74,84.7,53.74,80h0V213c.07,5.91,2.77,11.84,8.94,11.84H199.36C205.53,224.86,208.37,218.81,208.3,213Z"/></clipPath><linearGradient id="linear-gradient-7" x1="287.68" y1="675.28" x2="40.64" y2="652.3" xlink:href="#linear-gradient-5"/><linearGradient id="linear-gradient-8" x1="7.4" y1="700.4" x2="241.92" y2="700.4" xlink:href="#linear-gradient-5"/><linearGradient id="linear-gradient-9" x1="268.27" y1="579.96" x2="85.12" y2="579.96" xlink:href="#linear-gradient-5"/><linearGradient id="linear-gradient-10" x1="53.32" y1="579.96" x2="208.73" y2="579.96" gradientTransform="translate(0 -500)" gradientUnits="userSpaceOnUse"><stop offset="0" stop-color="#e84231"/><stop offset="1" stop-color="#e9493c"/></linearGradient><radialGradient id="radial-gradient-15" cx="-1098.17" cy="2733.05" r="14.16" gradientTransform="matrix(0.25, -0.97, 0.96, 0.25, -2248, -1659.14)" gradientUnits="userSpaceOnUse"><stop offset="0" stop-color="#c74135" stop-opacity="0.8"/><stop offset="0.3" stop-color="#cb463a" stop-opacity="0.8"/><stop offset="0.52" stop-color="#d25145" stop-opacity="0.8"/><stop offset="0.72" stop-color="#e16158" stop-opacity="0.8"/><stop offset="0.91" stop-color="#ef7c75" stop-opacity="0.81"/><stop offset="1" stop-color="#f18b87" stop-opacity="0.81"/></radialGradient><radialGradient id="radial-gradient-16" cx="590.42" cy="813.51" r="9.19" gradientTransform="translate(-635.65 -546.09) scale(1.24 0.77)" gradientUnits="userSpaceOnUse"><stop offset="0" stop-color="#ec6a52"/><stop offset="0.38" stop-color="#ec6a52" stop-opacity="0.99"/><stop offset="0.52" stop-color="#eb6a53" stop-opacity="0.96"/><stop offset="0.61" stop-color="#eb6c55" stop-opacity="0.91"/><stop offset="0.69" stop-color="#eb6f57" stop-opacity="0.84"/><stop offset="0.76" stop-color="#e8715b" stop-opacity="0.75"/><stop offset="0.82" stop-color="#e5735f" stop-opacity="0.63"/><stop offset="0.87" stop-color="#e47763" stop-opacity="0.49"/><stop offset="0.92" stop-color="#e17a68" stop-opacity="0.33"/><stop offset="0.97" stop-color="#de7d6d" stop-opacity="0.16"/><stop offset="1" stop-color="#dc8273" stop-opacity="0"/></radialGradient><radialGradient id="radial-gradient-17" cx="-1090.24" cy="2725.55" r="1.16" gradientTransform="matrix(0.25, -0.97, 0.96, 0.25, -2234.93, -1657.08)" gradientUnits="userSpaceOnUse"><stop offset="0" stop-color="#ebc8c1"/><stop offset="0.38" stop-color="#ebc7c0" stop-opacity="0.99"/><stop offset="0.52" stop-color="#eac5bf" stop-opacity="0.96"/><stop offset="0.61" stop-color="#e9c2ba" stop-opacity="0.91"/><stop offset="0.69" stop-color="#eabeb5" stop-opacity="0.84"/><stop offset="0.76" stop-color="#e7b6ae" stop-opacity="0.75"/><stop offset="0.82" stop-color="#e5afa5" stop-opacity="0.63"/><stop offset="0.87" stop-color="#e3a49a" stop-opacity="0.49"/><stop offset="0.92" stop-color="#e19a8d" stop-opacity="0.33"/><stop offset="0.97" stop-color="#de8b7e" stop-opacity="0.16"/><stop offset="1" stop-color="#dc8273" stop-opacity="0"/></radialGradient><radialGradient id="radial-gradient-18" cx="-1088.33" cy="2727.15" r="0.42" gradientTransform="matrix(0.25, -0.97, 0.96, 0.25, -2235.04, -1654.03)" gradientUnits="userSpaceOnUse"><stop offset="0" stop-color="#ebc8c1"/><stop offset="0.22" stop-color="#ebc7c0" stop-opacity="0.99"/><stop offset="0.36" stop-color="#eac5bd" stop-opacity="0.95"/><stop offset="0.48" stop-color="#e8bfb8" stop-opacity="0.89"/><stop offset="0.58" stop-color="#e8bab1" stop-opacity="0.8"/><stop offset="0.68" stop-color="#e6b2a8" stop-opacity="0.69"/><stop offset="0.77" stop-color="#e4a89e" stop-opacity="0.55"/><stop offset="0.85" stop-color="#e39d91" stop-opacity="0.38"/><stop offset="0.93" stop-color="#df8f83" stop-opacity="0.2"/><stop offset="1" stop-color="#dc8273" stop-opacity="0"/></radialGradient><radialGradient id="radial-gradient-19" cx="-1104.71" cy="2743.13" r="0.42" gradientTransform="matrix(0.25, -0.97, 0.96, 0.25, -2262.54, -1657.91)" xlink:href="#radial-gradient-18"/><radialGradient id="radial-gradient-20" cx="91.69" cy="593.76" r="3.7" gradientTransform="translate(0 -500)" xlink:href="#radial-gradient-17"/><radialGradient id="radial-gradient-21" cx="108.1" cy="544.22" r="1.69" gradientTransform="translate(0 -365.18) scale(1 0.85)" gradientUnits="userSpaceOnUse"><stop offset="0" stop-color="#ec6a52"/><stop offset="0.09" stop-color="#ec6b53" stop-opacity="0.97"/><stop offset="0.23" stop-color="#eb6d56" stop-opacity="0.88"/><stop offset="0.4" stop-color="#e8715b" stop-opacity="0.74"/><stop offset="0.59" stop-color="#e57762" stop-opacity="0.54"/><stop offset="0.79" stop-color="#e17b6a" stop-opacity="0.28"/><stop offset="1" stop-color="#dc8273" stop-opacity="0"/></radialGradient><radialGradient id="radial-gradient-22" cx="-1053.95" cy="2714.76" r="8.01" gradientTransform="matrix(0.25, -0.97, 0.96, 0.25, -2197.53, -1630.07)" xlink:href="#radial-gradient-15"/><radialGradient id="radial-gradient-23" cx="627.12" cy="801.02" r="5.19" gradientTransform="translate(-636.66 -551.15) scale(1.24 0.77)" xlink:href="#radial-gradient-16"/><radialGradient id="radial-gradient-24" cx="-1049.47" cy="2710.53" r="0.66" gradientTransform="matrix(0.25, -0.97, 0.96, 0.25, -2190.14, -1628.9)" xlink:href="#radial-gradient-17"/><radialGradient id="radial-gradient-25" cx="-1048.39" cy="2711.43" r="0.24" gradientTransform="matrix(0.25, -0.97, 0.96, 0.25, -2190.2, -1627.18)" xlink:href="#radial-gradient-18"/><radialGradient id="radial-gradient-26" cx="-1057.65" cy="2720.46" r="0.24" gradientTransform="matrix(0.25, -0.97, 0.96, 0.25, -2205.74, -1629.37)" xlink:href="#radial-gradient-18"/><radialGradient id="radial-gradient-27" cx="140.13" cy="573.21" r="2.09" gradientTransform="translate(0 -500)" xlink:href="#radial-gradient-17"/><radialGradient id="radial-gradient-28" cx="149.4" cy="522.42" r="0.95" gradientTransform="translate(0 -368.34) scale(1 0.85)" xlink:href="#radial-gradient-21"/><radialGradient id="radial-gradient-29" cx="-1071.8" cy="2695.78" r="4.26" gradientTransform="matrix(0.25, -0.97, 0.96, 0.25, -2192.72, -1661.56)" xlink:href="#radial-gradient-15"/><radialGradient id="radial-gradient-30" cx="610.5" cy="792.06" r="2.76" gradientTransform="translate(-635.19 -563.34) scale(1.24 0.77)" xlink:href="#radial-gradient-16"/><radialGradient id="radial-gradient-31" cx="-1069.42" cy="2693.53" r="0.35" gradientTransform="matrix(0.25, -0.97, 0.96, 0.25, -2188.79, -1660.93)" xlink:href="#radial-gradient-17"/><radialGradient id="radial-gradient-32" cx="-1068.85" cy="2694.01" r="0.13" gradientTransform="matrix(0.25, -0.97, 0.96, 0.25, -2188.82, -1660.02)" xlink:href="#radial-gradient-18"/><radialGradient id="radial-gradient-33" cx="-1073.77" cy="2698.82" r="0.13" gradientTransform="matrix(0.25, -0.97, 0.96, 0.25, -2197.09, -1661.18)" xlink:href="#radial-gradient-18"/><radialGradient id="radial-gradient-34" cx="124.84" cy="552.86" r="1.11" gradientTransform="translate(0 -500)" xlink:href="#radial-gradient-17"/><radialGradient id="radial-gradient-35" cx="129.77" cy="501.3" r="0.51" gradientTransform="translate(0 -371.41) scale(1 0.85)" xlink:href="#radial-gradient-21"/><radialGradient id="radial-gradient-36" cx="-1026.4" cy="2766.94" r="9.35" gradientTransform="matrix(0.25, -0.97, 0.96, 0.25, -2226.85, -1564.32)" xlink:href="#radial-gradient-15"/><radialGradient id="radial-gradient-37" cx="645.99" cy="860.13" r="6.06" gradientTransform="translate(-632.67 -545.34) scale(1.24 0.77)" xlink:href="#radial-gradient-16"/><radialGradient id="radial-gradient-38" cx="-1021.16" cy="2762" r="0.77" gradientTransform="matrix(0.25, -0.97, 0.96, 0.25, -2218.22, -1562.96)" xlink:href="#radial-gradient-17"/><radialGradient id="radial-gradient-39" cx="-1019.9" cy="2763.05" r="0.28" gradientTransform="matrix(0.25, -0.97, 0.96, 0.25, -2218.29, -1560.95)" xlink:href="#radial-gradient-18"/><radialGradient id="radial-gradient-40" cx="-1030.72" cy="2773.6" r="0.28" gradientTransform="matrix(0.25, -0.97, 0.96, 0.25, -2236.44, -1563.51)" xlink:href="#radial-gradient-18"/><radialGradient id="radial-gradient-41" cx="166.76" cy="625.88" r="2.44" gradientTransform="translate(0 -500)" xlink:href="#radial-gradient-17"/><radialGradient id="radial-gradient-42" cx="177.59" cy="575.36" r="1.11" gradientTransform="translate(0 -360.65) scale(1 0.85)" xlink:href="#radial-gradient-21"/><radialGradient id="radial-gradient-43" cx="-1043.34" cy="2787.38" r="4.97" gradientTransform="matrix(0.25, -0.97, 0.96, 0.25, -2259.03, -1565.39)" xlink:href="#radial-gradient-15"/><radialGradient id="radial-gradient-44" cx="631.27" cy="884.13" r="3.22" gradientTransform="translate(-630.98 -540.87) scale(1.24 0.77)" xlink:href="#radial-gradient-16"/><radialGradient id="radial-gradient-45" cx="-1040.56" cy="2784.75" r="0.41" gradientTransform="matrix(0.25, -0.97, 0.96, 0.25, -2254.44, -1564.67)" xlink:href="#radial-gradient-17"/><radialGradient id="radial-gradient-46" cx="-1039.89" cy="2785.31" r="0.15" gradientTransform="matrix(0.25, -0.97, 0.96, 0.25, -2254.48, -1563.6)" xlink:href="#radial-gradient-18"/><radialGradient id="radial-gradient-47" cx="-1045.64" cy="2790.92" r="0.15" gradientTransform="matrix(0.25, -0.97, 0.96, 0.25, -2264.13, -1564.96)" xlink:href="#radial-gradient-18"/><radialGradient id="radial-gradient-48" cx="152.81" cy="644.71" r="1.3" gradientTransform="translate(0 -500)" xlink:href="#radial-gradient-17"/><radialGradient id="radial-gradient-49" cx="158.57" cy="593.3" r="0.59" gradientTransform="translate(0 -358.05) scale(1 0.85)" xlink:href="#radial-gradient-21"/><radialGradient id="radial-gradient-50" cx="-2062.33" cy="-15655.93" r="64.7" gradientTransform="matrix(0.01, 1, -0.12, 0, -1650.28, 2149.45)" xlink:href="#radial-gradient"/><radialGradient id="radial-gradient-51" cx="200.23" cy="655.37" r="3.83" gradientTransform="translate(0 -500)" xlink:href="#radial-gradient"/></defs><path class="cls-2" d="M218.4,14.16c0,4.93-63.59,8.92-87.38,8.92-4.59,0-9.17-.12-13.76-.28q-9.63-.33-19.26-.92-10.14-.6-20.27-1.47-3.8-.33-7.58-.7t-7.72-.86c-1.25-.16-2.49-.36-3.71-.62s-2.48-.49-3.74-.66a21.81,21.81,0,0,0-7.12,0c-2.34.46-4.58,1.28-6.88,1.84a40.87,40.87,0,0,1-8.6,1.12,8.55,8.55,0,0,1,1.6-1.4,39.83,39.83,0,0,1,4.45-2.53c2.14-1.08,4.26-2.37,6.46-3.41A29.77,29.77,0,0,1,52.32,11c4.45-.82,8.94-1.38,13.42-1.88C71.35,8.43,77,7.93,82.61,7.48q9-.69,18-1.21,8.46-.48,16.9-.78c4.49-.15,9-.27,13.49-.27C154.81,5.25,218.4,9.24,218.4,14.16Z"/><polygon class="cls-3" points="14.32 251.22 2.72 257.65 213.78 257.65 231.72 244.52 231.68 242.03 14.32 251.22"/><path class="cls-4" d="M212.59,216.55l-.87-199.39c-12.06,5.92-64.22,5.92-80.7,5.92h-4c-1.26,0-2.53-.06-3.79-.11-1.43,0-2.86-.1-4.29-.16l-4.69-.21-5-.26L104,22.05c-1.8-.1-3.61-.21-5.41-.33l-5.5-.35L87.61,21l-5.41-.4L77,20.14l-5-.42c-1.56-.13-3.11-.27-4.66-.42l-4.16-.43-2-.2a24.78,24.78,0,0,1-2.82-.59L57.81,18a26.71,26.71,0,0,0-7.35-.7l-1.24.08.22,199.21A9.8,9.8,0,0,0,58.88,229H203.15a9.81,9.81,0,0,0,9.81-9.81A9.67,9.67,0,0,0,212.59,216.55Z"/><path class="cls-5" d="M218.4,218.28V14.16c0,4.93-63.58,8.92-87.38,8.92h-3.6c-4.79-.07-9.59-.25-14.39-.47q-8.49-.39-17-1-8.76-.6-17.51-1.4c-5.3-.49-10.6-1-15.88-1.73C58.74,18,54.9,17,51,17s-7.63,1.67-11.44,2.5l-1,.2a19.8,19.8,0,0,1-3.84.59c-.46,0-.91.09-1.37.12-.22,0-.86-.06-1,.14s.24.62.36.76a4.77,4.77,0,0,0,.76.6c.33.25.67.47,1,.71l3.44,2.44L43.43,29l.17.11V218.28a11.55,11.55,0,0,0,8.1,14.18,11.39,11.39,0,0,0,3,.4H207.27a11.52,11.52,0,0,0,11.54-11.52A11.34,11.34,0,0,0,218.4,218.28Z"/><g class="cls-6"><path class="cls-7" d="M213.64,221.85c0-8.62-36.86-11.59-82.32-11.59S49,213.56,49,222.18s8,6.88,82.32,7.57C201.83,230.4,213.64,230.47,213.64,221.85Z"/><rect class="cls-8" x="16.96" y="77.93" width="225.47" height="175.35"/></g><g class="cls-9"><path class="cls-10" d="M62.77,168.2a4.66,4.66,0,0,1-5.62-3.36,5.15,5.15,0,0,1-.14-1.18L57.66,56A4.66,4.66,0,0,1,67,56l-.7,107.73A4.64,4.64,0,0,1,62.77,168.2Z"/></g><circle class="cls-11" cx="64.34" cy="112.85" r="13.58"/><circle class="cls-12" cx="64.16" cy="162.63" r="0.45"/><circle class="cls-13" cx="64.14" cy="166.5" r="0.45"/><circle class="cls-14" cx="64.16" cy="164.34" r="3.4"/><line class="cls-1" x1="64.3" y1="123.57" x2="64.15" y2="166.49"/><circle class="cls-15" cx="64.3" cy="123.58" r="9.05"/><circle class="cls-16" cx="64.3" cy="123.57" r="4.53"/><circle class="cls-17" cx="64.3" cy="123.57" r="3.77"/><polyline class="cls-18" points="64.3 123.57 66.34 138.3 64.3 123.57 62.27 108.84 64.3 123.57 49.57 125.61 64.3 123.57 79.04 121.54 64.3 123.57 71.9 141.23 64.3 123.57 56.71 105.91 64.3 123.57 46.64 131.17 64.3 123.57 81.97 115.98 64.3 123.57 77.96 135.75 64.3 123.57 50.65 111.39 64.3 123.57 52.12 137.23 64.3 123.57 76.48 109.92 64.3 123.57 65.22 136.32 64.3 123.57 63.39 110.83 64.3 123.57 51.56 124.49 64.3 123.57 77.05 122.66 64.3 123.57 64.64 125.05 64.3 123.57 63.96 122.1 64.3 123.57 62.83 123.91 64.3 123.57 65.78 123.23 64.3 123.57 60.04 142.39 64.3 123.57 68.57 104.75 64.3 123.57 45.48 119.31 64.3 123.57 83.12 127.84 64.3 123.57 61.92 129.84 64.3 123.57 66.69 117.3 64.3 123.57 58.04 121.19 64.3 123.57 70.57 125.96 64.3 123.57 67.69 127.27 64.3 123.57 60.91 119.87 64.3 123.57 60.6 126.96 64.3 123.57 68.01 120.18 64.3 123.57 84.95 132.74 64.3 123.57 43.66 114.4 64.3 123.57 55.13 144.22 64.3 123.57 73.48 102.93 64.3 123.57 73.37 140.05 64.3 123.57 55.24 107.09 64.3 123.57 47.82 132.64 64.3 123.57 80.78 114.51 64.3 123.57 73.98 143.17 64.3 123.57 54.63 103.98 64.3 123.57 44.71 133.24 64.3 123.57 83.9 113.9 64.3 123.57 67.17 126.8 64.3 123.57 61.44 120.34 64.3 123.57 61.07 126.44 64.3 123.57 67.53 120.71 64.3 123.57 78.52 130.08 64.3 123.57 50.09 117.06 64.3 123.57 57.79 137.79 64.3 123.57 70.82 109.36 64.3 123.57 63.48 140.27 64.3 123.57 65.13 106.87 64.3 123.57 47.6 122.74 64.3 123.57 81 124.4 64.3 123.57 69.18 136.35 64.3 123.57 59.43 110.79 64.3 123.57 51.53 128.45 64.3 123.57 77.08 118.7"/><circle class="cls-19" cx="64.15" cy="166.49" r="6.79"/><circle class="cls-20" cx="64.18" cy="158.2" r="1.93"/><circle class="cls-21" cx="64.26" cy="135.83" r="1.08"/><circle class="cls-22" cx="64.21" cy="149.48" r="0.71"/><circle class="cls-23" cx="64.21" cy="151.65" r="1"/><circle class="cls-24" cx="64.18" cy="157.78" r="1.86"/><path class="cls-25" d="M208.3,213V80h0c0,4.75-55.69,8.6-77.27,8.6S53.74,84.7,53.74,80h0V213c.07,5.91,2.77,11.84,8.94,11.84H199.36C205.53,224.86,208.37,218.81,208.3,213Z"/><g class="cls-26"><path class="cls-27" d="M135.65,114.22c-18.68,1.5-37.42,2.26-56.1,3.8-20,1.63-41.8,7.14-57.54,20.19l-.44.38c-8.76,7.43-16,18-15.41,29.46.44,9,5.68,17.24,12.53,23.09s15.2,9.61,23.57,12.92c48.7,19.22,104.27,25.27,153.43,7.27,9.89-3.62,19.53-8.23,27.68-14.89s14.78-15.49,17.52-25.66c2.81-10.48,1.31-21.89-3.26-31.73-4.33-9.32-11.15-16.48-14-26.61-.53-1.88-1.11-4-2.76-5a7.48,7.48,0,0,0-3.74-.85c-21.64-1-42.53,3.5-63.88,5.94C147.41,113.19,141.53,113.74,135.65,114.22Z"/><path class="cls-28" d="M130.78,154.12c-18.42,3.47-37,6.22-55.38,9.72C55.69,167.59,34.59,175.38,20.33,190l-.41.42C12,198.76,5.92,210,7.72,221.37c1.4,8.9,7.48,16.54,14.91,21.63S38.76,251,47.44,253.35c50.46,14,106.36,14.08,153.33-9,9.45-4.65,18.55-10.26,25.95-17.74s13.06-17,14.7-27.37c1.69-10.72-1-21.9-6.6-31.2-5.3-8.81-12.83-15.21-16.72-25-.72-1.82-1.52-3.82-3.27-4.69a7.61,7.61,0,0,0-3.81-.45c-21.62,1.3-41.91,8-62.89,12.68Q139.48,152.48,130.78,154.12Z"/></g><path class="cls-29" d="M208.3,80c0,4.75-55.69,8.6-77.27,8.6S53.74,84.7,53.74,80s55.71-8.59,77.29-8.59S208.3,75.2,208.3,80Z"/><g class="cls-30"><circle class="cls-31" cx="101.39" cy="88.54" r="14.91"/><ellipse class="cls-32" cx="100.35" cy="80.32" rx="9.96" ry="6.01" transform="translate(-5.8 7.84) rotate(-4.35)"/><circle class="cls-33" cx="109.32" cy="81.05" r="1.22"/><circle class="cls-34" cx="111.23" cy="82.66" r="0.44"/><circle class="cls-35" cx="94.84" cy="98.64" r="0.44"/><path class="cls-36" d="M89.53,89.63c-.15,2.88,1.58,7,4.34,8.25"/><circle class="cls-37" cx="108.1" cy="96.65" r="1.36"/></g><g class="cls-30"><circle class="cls-38" cx="145.61" cy="70.26" r="8.43"/><ellipse class="cls-39" cx="145.02" cy="65.61" rx="5.63" ry="3.4" transform="translate(-4.56 11.19) rotate(-4.35)"/><circle class="cls-40" cx="150.09" cy="66.03" r="0.69"/><circle class="cls-41" cx="151.17" cy="66.94" r="0.25"/><circle class="cls-42" cx="141.91" cy="75.97" r="0.25"/><path class="cls-43" d="M138.9,70.88c-.08,1.63.9,4,2.46,4.66"/><circle class="cls-44" cx="149.4" cy="74.85" r="0.77"/></g><g class="cls-30"><circle class="cls-45" cx="127.75" cy="51.29" r="4.48"/><ellipse class="cls-46" cx="128.26" cy="48.45" rx="3.01" ry="1.82" transform="translate(-3.46 10.38) rotate(-4.57)"/><circle class="cls-47" cx="130.14" cy="49.04" r="0.37"/><circle class="cls-48" cx="130.71" cy="49.52" r="0.13"/><circle class="cls-49" cx="125.78" cy="54.32" r="0.13"/><path class="cls-50" d="M124.15,51.62a2.79,2.79,0,0,0,1.3,2.48"/><circle class="cls-51" cx="129.77" cy="53.73" r="0.41"/></g><g class="cls-52"><circle class="cls-53" cx="173.16" cy="122.44" r="9.84"/><ellipse class="cls-54" cx="172.49" cy="117.01" rx="6.58" ry="3.96" transform="translate(-8.38 13.42) rotate(-4.35)"/><circle class="cls-55" cx="178.39" cy="117.5" r="0.81"/><circle class="cls-56" cx="179.65" cy="118.56" r="0.29"/><circle class="cls-57" cx="168.84" cy="129.1" r="0.29"/><path class="cls-58" d="M165.33,123.16c-.1,1.9,1,4.64,2.87,5.44"/><circle class="cls-59" cx="177.59" cy="127.79" r="0.89"/></g><g class="cls-52"><circle class="cls-60" cx="156.21" cy="142.88" r="5.23"/><ellipse class="cls-61" cx="155.87" cy="139.98" rx="3.5" ry="2.11" transform="translate(-10.17 12.23) rotate(-4.35)"/><circle class="cls-62" cx="159" cy="140.25" r="0.43"/><circle class="cls-63" cx="159.67" cy="140.82" r="0.16"/><circle class="cls-64" cx="153.92" cy="146.43" r="0.16"/><path class="cls-65" d="M152.05,143.26a3.26,3.26,0,0,0,1.53,2.9"/><circle class="cls-66" cx="158.57" cy="145.73" r="0.48"/></g><polygon class="cls-67" points="225.06 172.06 29.49 172.06 14.32 251.22 209.88 251.22 225.06 172.06"/><polygon class="cls-68" points="225.06 172.06 231.68 242.03 229.07 244.07 214.08 244.24 212.97 248.79 209.88 251.22 225.06 172.06"/><g class="cls-69"><path class="cls-70" d="M199.15,146.29a4.23,4.23,0,0,1-4.1-3.34V77.86A4.93,4.93,0,0,1,195,77V37.81a4.24,4.24,0,0,1,8.47-.41,2.8,2.8,0,0,1,0,.41h0V76.55l-.09,64.64a4.22,4.22,0,0,1-3.28,5A3.82,3.82,0,0,1,199.15,146.29Z"/></g><circle class="cls-71" cx="200.12" cy="155.35" r="4.23"/></svg>