<svg id="Layer_1" data-name="Layer 1" xmlns="http://www.w3.org/2000/svg" xmlns:xlink="http://www.w3.org/1999/xlink" viewBox="0 0 235.13 262.86"><defs><style>.cls-1,.cls-22,.cls-41,.cls-48,.cls-55,.cls-63,.cls-70{fill:none;}.cls-2{fill:#683d14;fill-opacity:0.51;}.cls-3{fill:url(#linear-gradient);}.cls-4,.cls-8{opacity:0.72;}.cls-13,.cls-14,.cls-15,.cls-18,.cls-19,.cls-20,.cls-22,.cls-23,.cls-30,.cls-32,.cls-33,.cls-34,.cls-4,.cls-7,.cls-8{isolation:isolate;}.cls-4{fill:url(#linear-gradient-2);}.cls-5{clip-path:url(#clip-path);}.cls-6{fill:url(#linear-gradient-3);}.cls-7{opacity:0.42;fill:url(#linear-gradient-4);}.cls-8{fill:url(#linear-gradient-5);}.cls-9{opacity:0.54;}.cls-10{fill:url(#radial-gradient);}.cls-11,.cls-30,.cls-34{opacity:0.8;}.cls-12{fill:url(#radial-gradient-2);}.cls-13,.cls-14,.cls-20,.cls-23{opacity:0.5;}.cls-13{fill:url(#radial-gradient-3);}.cls-14{fill:url(#radial-gradient-4);}.cls-15{opacity:0.25;fill:url(#radial-gradient-5);}.cls-16{fill:url(#radial-gradient-6);}.cls-17{fill:url(#radial-gradient-7);}.cls-18,.cls-57{opacity:0.2;}.cls-18{fill:url(#radial-gradient-8);}.cls-19{opacity:0.15;fill:url(#radial-gradient-9);}.cls-20{fill:url(#radial-gradient-10);}.cls-21{fill:url(#radial-gradient-11);}.cls-22{stroke:#fff;stroke-width:1.69px;opacity:0.03;}.cls-22,.cls-34{stroke-miterlimit:10;}.cls-23{fill:url(#radial-gradient-12);}.cls-24{fill:url(#radial-gradient-13);}.cls-25{fill:url(#radial-gradient-14);}.cls-26{fill:url(#radial-gradient-15);}.cls-27{fill:url(#radial-gradient-16);}.cls-28{fill:url(#radial-gradient-17);}.cls-29{fill:url(#radial-gradient-18);}.cls-30{fill:url(#linear-gradient-6);}.cls-31{clip-path:url(#clip-path-2);}.cls-32,.cls-33,.cls-35{opacity:0.3;}.cls-32{fill:url(#linear-gradient-7);}.cls-33{fill:url(#linear-gradient-8);}.cls-34,.cls-41{stroke-width:0.85px;}.cls-34{fill:url(#linear-gradient-9);stroke:url(#linear-gradient-10);}.cls-36{fill:url(#radial-gradient-19);}.cls-37{fill:url(#radial-gradient-20);}.cls-38{fill:url(#radial-gradient-21);}.cls-39{fill:url(#radial-gradient-22);}.cls-40{fill:url(#radial-gradient-23);}.cls-41,.cls-48,.cls-55,.cls-63,.cls-70{stroke-linecap:round;stroke-linejoin:round;}.cls-41{stroke:url(#radial-gradient-24);}.cls-42{fill:url(#radial-gradient-25);}.cls-43{fill:url(#radial-gradient-26);}.cls-44{fill:url(#radial-gradient-27);}.cls-45{fill:url(#radial-gradient-28);}.cls-46{fill:url(#radial-gradient-29);}.cls-47{fill:url(#radial-gradient-30);}.cls-48{stroke-width:0.48px;stroke:url(#radial-gradient-31);}.cls-49{fill:url(#radial-gradient-32);}.cls-50{fill:url(#radial-gradient-33);}.cls-51{fill:url(#radial-gradient-34);}.cls-52{fill:url(#radial-gradient-35);}.cls-53{fill:url(#radial-gradient-36);}.cls-54{fill:url(#radial-gradient-37);}.cls-55{stroke-width:0.25px;stroke:url(#radial-gradient-38);}.cls-56{fill:url(#radial-gradient-39);}.cls-58{fill:url(#radial-gradient-40);}.cls-59{fill:url(#radial-gradient-41);}.cls-60{fill:url(#radial-gradient-42);}.cls-61{fill:url(#radial-gradient-43);}.cls-62{fill:url(#radial-gradient-44);}.cls-63{stroke-width:0.56px;stroke:url(#radial-gradient-45);}.cls-64{fill:url(#radial-gradient-46);}.cls-65{fill:url(#radial-gradient-47);}.cls-66{fill:url(#radial-gradient-48);}.cls-67{fill:url(#radial-gradient-49);}.cls-68{fill:url(#radial-gradient-50);}.cls-69{fill:url(#radial-gradient-51);}.cls-70{stroke-width:0.3px;stroke:url(#radial-gradient-52);}.cls-71{fill:url(#radial-gradient-53);}.cls-72{fill:#fff;}.cls-73{fill:#c7c6c6;}</style><linearGradient id="linear-gradient" x1="143.38" y1="519.67" x2="121.08" y2="701.28" gradientTransform="translate(0 -500)" gradientUnits="userSpaceOnUse"><stop offset="0" stop-color="#c0c5c8"/><stop offset="1" stop-color="#b0c2c9"/></linearGradient><linearGradient id="linear-gradient-2" x1="77.09" y1="623.51" x2="171.47" y2="623.51" gradientTransform="translate(0 -500)" gradientUnits="userSpaceOnUse"><stop offset="0" stop-color="#f6fbff"/><stop offset="0.63" stop-color="#e9f1f6"/><stop offset="1" stop-color="#c5dae1"/></linearGradient><clipPath id="clip-path"><path class="cls-1" d="M218.54,218.28V14.16c0,4.93-63.58,8.92-87.38,8.92h-3.6c-4.79-.07-9.59-.25-14.39-.47-5.67-.26-11.35-.58-17-1q-8.78-.6-17.52-1.4c-5.3-.49-10.6-1-15.88-1.73C58.88,18,55,17,51.1,17s-7.62,1.67-11.44,2.5l-1,.2a19.92,19.92,0,0,1-3.84.59c-.46,0-.91.09-1.37.12-.22,0-.86-.06-1,.14s.24.62.36.76a4.77,4.77,0,0,0,.76.6c.33.25.67.47,1,.71L38,25.1,43.58,29l.16.11V218.28a11.51,11.51,0,0,0,11.12,14.58H207.41A11.53,11.53,0,0,0,219,221.34,11.75,11.75,0,0,0,218.54,218.28Z"/></clipPath><linearGradient id="linear-gradient-3" x1="92.5" y1="621.89" x2="143.68" y2="754.06" gradientTransform="translate(0 -500)" gradientUnits="userSpaceOnUse"><stop offset="0" stop-color="#f5f5f5"/><stop offset="1" stop-color="#c3d1d6"/></linearGradient><linearGradient id="linear-gradient-4" x1="71.06" y1="665.61" x2="185.16" y2="665.61" gradientTransform="translate(0 -500)" gradientUnits="userSpaceOnUse"><stop offset="0" stop-color="#0f7cbc"/><stop offset="1" stop-color="#43b5e8"/></linearGradient><linearGradient id="linear-gradient-5" x1="125.54" y1="496.33" x2="125.54" y2="522.9" xlink:href="#linear-gradient-2"/><radialGradient id="radial-gradient" cx="-1114.16" cy="-7747.18" r="64.7" gradientTransform="matrix(0.01, 1, -0.12, 0, -711.57, 1201.27)" gradientUnits="userSpaceOnUse"><stop offset="0" stop-color="#e6f3fc"/><stop offset="1" stop-color="#bacae9" stop-opacity="0"/></radialGradient><radialGradient id="radial-gradient-2" cx="-2356.83" cy="6982.51" r="54.29" gradientTransform="matrix(0.01, -1, 0.16, 0, -1038.32, -2247.13)" xlink:href="#radial-gradient"/><radialGradient id="radial-gradient-3" cx="199.35" cy="655.37" r="3.83" gradientTransform="translate(0 -500)" xlink:href="#radial-gradient"/><radialGradient id="radial-gradient-4" cx="199.35" cy="582.19" r="3.83" gradientTransform="translate(0 -500)" xlink:href="#radial-gradient"/><radialGradient id="radial-gradient-5" cx="-1916.08" cy="505.94" r="13.58" gradientTransform="matrix(0.95, -0.3, 0.3, 0.95, 1741.04, -934.28)" gradientUnits="userSpaceOnUse"><stop offset="0.1" stop-color="#010101"/><stop offset="0.11" stop-color="#070706"/><stop offset="0.16" stop-color="#221d12"/><stop offset="0.22" stop-color="#392e16"/><stop offset="0.28" stop-color="#4a3a17"/><stop offset="0.37" stop-color="#564318"/><stop offset="0.48" stop-color="#5c4918"/><stop offset="0.8" stop-color="#5f4a17"/><stop offset="1" stop-color="#010101"/></radialGradient><radialGradient id="radial-gradient-6" cx="-1931.05" cy="553.42" r="0.45" gradientTransform="matrix(0.95, -0.3, 0.3, 0.95, 1741.04, -934.28)" gradientUnits="userSpaceOnUse"><stop offset="0" stop-color="#d5e195"/><stop offset="0.06" stop-color="#b1bb79"/><stop offset="0.14" stop-color="#868f5f"/><stop offset="0.22" stop-color="#646946"/><stop offset="0.31" stop-color="#454930"/><stop offset="0.4" stop-color="#2c2f1f"/><stop offset="0.51" stop-color="#191a13"/><stop offset="0.62" stop-color="#0b0c0a"/><stop offset="0.76" stop-color="#020404"/><stop offset="1" stop-color="#010101"/></radialGradient><radialGradient id="radial-gradient-7" cx="-1937.01" cy="553.92" r="0.45" gradientTransform="translate(1749.15 -938.08) rotate(-17.29)" xlink:href="#radial-gradient-6"/><radialGradient id="radial-gradient-8" cx="-1931.57" cy="555.06" r="3.4" gradientTransform="matrix(0.95, -0.3, 0.3, 0.95, 1741.04, -934.29)" gradientUnits="userSpaceOnUse"><stop offset="0.05" stop-color="#010101"/><stop offset="0.09" stop-color="#070b08"/><stop offset="0.3" stop-color="#1f341c"/><stop offset="0.48" stop-color="#265325"/><stop offset="0.64" stop-color="#30672c"/><stop offset="0.75" stop-color="#336e2e"/><stop offset="0.79" stop-color="#506f2a"/><stop offset="0.83" stop-color="#717021"/><stop offset="0.86" stop-color="#7f701b"/><stop offset="0.89" stop-color="#7a6d1c"/><stop offset="0.91" stop-color="#71641b"/><stop offset="0.94" stop-color="#5e5419"/><stop offset="0.96" stop-color="#433d18"/><stop offset="0.98" stop-color="#232114"/><stop offset="1" stop-color="#010101"/></radialGradient><radialGradient id="radial-gradient-9" cx="-1919.31" cy="516.17" r="9.05" gradientTransform="matrix(0.95, -0.3, 0.3, 0.95, 1741.04, -934.28)" gradientUnits="userSpaceOnUse"><stop offset="0" stop-color="#1d090a"/><stop offset="0.73" stop-color="#994123"/><stop offset="1" stop-color="#1d090a"/></radialGradient><radialGradient id="radial-gradient-10" cx="-1919.31" cy="516.17" r="4.53" gradientTransform="matrix(0.95, -0.3, 0.3, 0.95, 1741.04, -934.28)" gradientUnits="userSpaceOnUse"><stop offset="0.15" stop-color="#fff"/><stop offset="0.21" stop-color="#e5d3d3"/><stop offset="0.29" stop-color="#c49c9e"/><stop offset="0.36" stop-color="#ad7477"/><stop offset="0.42" stop-color="#9f5d60"/><stop offset="0.45" stop-color="#9a5457"/><stop offset="0.57" stop-color="#6b3436"/><stop offset="0.69" stop-color="#431719"/><stop offset="0.79" stop-color="#270d0e"/><stop offset="0.85" stop-color="#1d090a"/><stop offset="0.86" stop-color="#210a0a"/><stop offset="0.86" stop-color="#300f0e"/><stop offset="0.87" stop-color="#461410"/><stop offset="0.88" stop-color="#641e11"/><stop offset="0.89" stop-color="#8b2e19"/><stop offset="0.9" stop-color="#b84323"/><stop offset="0.9" stop-color="#d34f29"/><stop offset="0.9" stop-color="#c94928"/><stop offset="0.91" stop-color="#9d371d"/><stop offset="0.93" stop-color="#772615"/><stop offset="0.94" stop-color="#591a10"/><stop offset="0.95" stop-color="#3e130f"/><stop offset="0.97" stop-color="#2b0e0d"/><stop offset="0.98" stop-color="#1f090b"/><stop offset="1" stop-color="#1d090a"/></radialGradient><radialGradient id="radial-gradient-11" cx="-1919.31" cy="516.17" r="3.77" gradientTransform="matrix(0.95, -0.3, 0.3, 0.95, 1741.04, -934.28)" gradientUnits="userSpaceOnUse"><stop offset="0.15" stop-color="#fff"/><stop offset="0.28" stop-color="#c3c2c2"/><stop offset="0.43" stop-color="#878889"/><stop offset="0.56" stop-color="#585858"/><stop offset="0.69" stop-color="#323232"/><stop offset="0.81" stop-color="#161617"/><stop offset="0.92" stop-color="#050606"/><stop offset="1" stop-color="#010101"/></radialGradient><radialGradient id="radial-gradient-12" cx="-1932.21" cy="557.1" r="6.79" gradientTransform="matrix(0.95, -0.3, 0.3, 0.95, 1741.04, -934.28)" gradientUnits="userSpaceOnUse"><stop offset="0.64" stop-color="#010101"/><stop offset="0.72" stop-color="#010302"/><stop offset="0.75" stop-color="#060908"/><stop offset="0.77" stop-color="#0c140e"/><stop offset="0.78" stop-color="#132517"/><stop offset="0.8" stop-color="#1b3b1d"/><stop offset="0.8" stop-color="#1c431f"/><stop offset="0.81" stop-color="#212c19"/><stop offset="0.83" stop-color="#2c190f"/><stop offset="0.85" stop-color="#33110d"/><stop offset="0.86" stop-color="#35100f"/><stop offset="0.87" stop-color="#200a0a"/><stop offset="0.89" stop-color="#100606"/><stop offset="0.9" stop-color="#050303"/><stop offset="0.93" stop-color="#020102"/><stop offset="1" stop-color="#010101"/></radialGradient><radialGradient id="radial-gradient-13" cx="-1929.72" cy="549.2" r="1.93" gradientTransform="matrix(0.95, -0.3, 0.3, 0.95, 1741.04, -934.28)" gradientUnits="userSpaceOnUse"><stop offset="0.1" stop-color="#010101"/><stop offset="0.25" stop-color="#1a130c"/><stop offset="0.43" stop-color="#352413"/><stop offset="0.61" stop-color="#483014"/><stop offset="0.8" stop-color="#533613"/><stop offset="1" stop-color="#573812"/></radialGradient><radialGradient id="radial-gradient-14" cx="-1922.99" cy="527.86" r="1.08" gradientTransform="matrix(0.95, -0.3, 0.3, 0.95, 1741.04, -934.28)" gradientUnits="userSpaceOnUse"><stop offset="0.1" stop-color="#1a301d"/><stop offset="0.23" stop-color="#142318"/><stop offset="0.48" stop-color="#0a0f0c"/><stop offset="0.73" stop-color="#030404"/><stop offset="1" stop-color="#010101"/></radialGradient><radialGradient id="radial-gradient-15" cx="64.35" cy="1684.11" r="0.71" gradientTransform="matrix(1, 0, 0, -1, 0, 1833.6)" xlink:href="#radial-gradient-13"/><radialGradient id="radial-gradient-16" cx="-1927.75" cy="542.94" r="1" gradientTransform="matrix(0.95, -0.3, 0.3, 0.95, 1741.04, -934.28)" gradientUnits="userSpaceOnUse"><stop offset="0.1" stop-color="#010101"/><stop offset="0.29" stop-color="#151711"/><stop offset="0.52" stop-color="#262a1b"/><stop offset="0.75" stop-color="#313523"/><stop offset="1" stop-color="#333824"/></radialGradient><radialGradient id="radial-gradient-17" cx="-2054.48" cy="1335.45" r="1.86" gradientTransform="matrix(1, 0, 0, -1, 0, 1833.6)" xlink:href="#radial-gradient-14"/><radialGradient id="radial-gradient-18" cx="71.32" cy="520.65" r="7" gradientTransform="translate(0 -500)" gradientUnits="userSpaceOnUse"><stop offset="0" stop-color="#fff"/><stop offset="1" stop-color="#bacae9" stop-opacity="0"/></radialGradient><linearGradient id="linear-gradient-6" x1="191.16" y1="728.62" x2="73.06" y2="572.1" xlink:href="#linear-gradient-4"/><clipPath id="clip-path-2"><path class="cls-1" d="M208.48,213V80h0c0,4.75-55.69,8.6-77.27,8.6S53.88,84.69,53.88,80h0V213c.07,5.91,2.77,11.84,8.94,11.84H199.48C205.67,224.86,208.48,218.81,208.48,213Z"/></clipPath><linearGradient id="linear-gradient-7" x1="287.82" y1="675.28" x2="40.78" y2="652.3" xlink:href="#linear-gradient-4"/><linearGradient id="linear-gradient-8" x1="7.54" y1="700.4" x2="242.06" y2="700.4" xlink:href="#linear-gradient-4"/><linearGradient id="linear-gradient-9" x1="268.41" y1="579.96" x2="85.27" y2="579.96" xlink:href="#linear-gradient-4"/><linearGradient id="linear-gradient-10" x1="53.46" y1="579.96" x2="208.91" y2="579.96" gradientTransform="translate(0 -500)" gradientUnits="userSpaceOnUse"><stop offset="0" stop-color="#4da9df"/><stop offset="1" stop-color="#43b5e8"/></linearGradient><radialGradient id="radial-gradient-19" cx="-387.75" cy="1806.62" r="14.17" gradientTransform="matrix(0.25, -0.97, 0.96, 0.25, -1536.12, -738.44)" gradientUnits="userSpaceOnUse"><stop offset="0" stop-color="#36a0c6" stop-opacity="0.8"/><stop offset="0.3" stop-color="#3ca4cb" stop-opacity="0.8"/><stop offset="0.52" stop-color="#47add3" stop-opacity="0.8"/><stop offset="0.72" stop-color="#5abde1" stop-opacity="0.8"/><stop offset="0.91" stop-color="#7bccee" stop-opacity="0.81"/><stop offset="1" stop-color="#90d3f2" stop-opacity="0.81"/></radialGradient><radialGradient id="radial-gradient-20" cx="-154.86" cy="1114.02" r="9.18" gradientTransform="translate(292.47 -777.9) scale(1.24 0.77)" gradientUnits="userSpaceOnUse"><stop offset="0" stop-color="#5c98d2"/><stop offset="0.38" stop-color="#5c98d2" stop-opacity="0.99"/><stop offset="0.52" stop-color="#5d9ad3" stop-opacity="0.96"/><stop offset="0.61" stop-color="#5f9ad3" stop-opacity="0.91"/><stop offset="0.69" stop-color="#5f9bd4" stop-opacity="0.84"/><stop offset="0.76" stop-color="#619ed5" stop-opacity="0.75"/><stop offset="0.82" stop-color="#63a0d7" stop-opacity="0.63"/><stop offset="0.87" stop-color="#66a3d9" stop-opacity="0.49"/><stop offset="0.92" stop-color="#68a5da" stop-opacity="0.33"/><stop offset="0.97" stop-color="#6ea9dc" stop-opacity="0.16"/><stop offset="1" stop-color="#72abdd" stop-opacity="0"/></radialGradient><radialGradient id="radial-gradient-21" cx="-379.81" cy="1799.14" r="1.16" gradientTransform="matrix(0.25, -0.97, 0.96, 0.25, -1523.05, -736.38)" gradientUnits="userSpaceOnUse"><stop offset="0" stop-color="#c1d5ea"/><stop offset="0.38" stop-color="#c0d6eb" stop-opacity="0.99"/><stop offset="0.52" stop-color="#bed4ea" stop-opacity="0.96"/><stop offset="0.61" stop-color="#bad2ea" stop-opacity="0.91"/><stop offset="0.69" stop-color="#b4cfe9" stop-opacity="0.84"/><stop offset="0.76" stop-color="#adcbe7" stop-opacity="0.75"/><stop offset="0.82" stop-color="#a4c6e5" stop-opacity="0.63"/><stop offset="0.87" stop-color="#99c0e3" stop-opacity="0.49"/><stop offset="0.92" stop-color="#8db9e1" stop-opacity="0.33"/><stop offset="0.97" stop-color="#7eb2df" stop-opacity="0.16"/><stop offset="1" stop-color="#72abdd" stop-opacity="0"/></radialGradient><radialGradient id="radial-gradient-22" cx="-377.91" cy="1800.74" r="0.42" gradientTransform="matrix(0.25, -0.97, 0.96, 0.25, -1523.15, -733.33)" gradientUnits="userSpaceOnUse"><stop offset="0" stop-color="#c1d5ea"/><stop offset="0.22" stop-color="#c0d6eb" stop-opacity="0.99"/><stop offset="0.36" stop-color="#bdd3ea" stop-opacity="0.95"/><stop offset="0.48" stop-color="#b8d1e9" stop-opacity="0.89"/><stop offset="0.58" stop-color="#b1cee8" stop-opacity="0.8"/><stop offset="0.68" stop-color="#a8c9e6" stop-opacity="0.69"/><stop offset="0.77" stop-color="#9dc3e4" stop-opacity="0.55"/><stop offset="0.85" stop-color="#91bce2" stop-opacity="0.38"/><stop offset="0.93" stop-color="#83b4e0" stop-opacity="0.2"/><stop offset="1" stop-color="#72abdd" stop-opacity="0"/></radialGradient><radialGradient id="radial-gradient-23" cx="-394.29" cy="1816.72" r="0.42" gradientTransform="matrix(0.25, -0.97, 0.96, 0.25, -1550.66, -737.21)" xlink:href="#radial-gradient-22"/><radialGradient id="radial-gradient-24" cx="91.84" cy="593.76" r="3.7" gradientTransform="translate(0 -500)" xlink:href="#radial-gradient-21"/><radialGradient id="radial-gradient-25" cx="108.24" cy="544.22" r="1.69" gradientTransform="translate(0 -365.18) scale(1 0.85)" gradientUnits="userSpaceOnUse"><stop offset="0" stop-color="#5c98d2"/><stop offset="0.09" stop-color="#5e99d2" stop-opacity="0.97"/><stop offset="0.23" stop-color="#5e9bd4" stop-opacity="0.88"/><stop offset="0.4" stop-color="#619ed5" stop-opacity="0.74"/><stop offset="0.59" stop-color="#66a1d7" stop-opacity="0.54"/><stop offset="0.79" stop-color="#6ba6db" stop-opacity="0.28"/><stop offset="1" stop-color="#72abdd" stop-opacity="0"/></radialGradient><radialGradient id="radial-gradient-26" cx="-343.53" cy="1788.35" r="8.01" gradientTransform="matrix(0.25, -0.97, 0.96, 0.25, -1485.65, -709.36)" xlink:href="#radial-gradient-19"/><radialGradient id="radial-gradient-27" cx="-118.16" cy="1101.52" r="5.18" gradientTransform="translate(291.48 -782.97) scale(1.24 0.77)" xlink:href="#radial-gradient-20"/><radialGradient id="radial-gradient-28" cx="-339.05" cy="1784.12" r="0.66" gradientTransform="matrix(0.25, -0.97, 0.96, 0.25, -1478.26, -708.2)" xlink:href="#radial-gradient-21"/><radialGradient id="radial-gradient-29" cx="-337.97" cy="1785.02" r="0.24" gradientTransform="matrix(0.25, -0.97, 0.96, 0.25, -1478.32, -706.48)" xlink:href="#radial-gradient-22"/><radialGradient id="radial-gradient-30" cx="-347.23" cy="1794.05" r="0.24" gradientTransform="matrix(0.25, -0.97, 0.96, 0.25, -1493.86, -708.67)" xlink:href="#radial-gradient-22"/><radialGradient id="radial-gradient-31" cx="140.27" cy="573.21" r="2.09" gradientTransform="translate(0 -500)" xlink:href="#radial-gradient-21"/><radialGradient id="radial-gradient-32" cx="149.54" cy="522.42" r="0.95" gradientTransform="translate(0 -368.34) scale(1 0.85)" xlink:href="#radial-gradient-25"/><radialGradient id="radial-gradient-33" cx="-361.38" cy="1769.37" r="4.26" gradientTransform="matrix(0.25, -0.97, 0.96, 0.25, -1480.84, -740.85)" xlink:href="#radial-gradient-19"/><radialGradient id="radial-gradient-34" cx="-131.22" cy="1081.48" r="2.76" gradientTransform="translate(290.15 -784.31) scale(1.24 0.77)" xlink:href="#radial-gradient-20"/><radialGradient id="radial-gradient-35" cx="-359" cy="1767.12" r="0.35" gradientTransform="matrix(0.25, -0.97, 0.96, 0.25, -1476.91, -740.23)" xlink:href="#radial-gradient-21"/><radialGradient id="radial-gradient-36" cx="-358.43" cy="1767.6" r="0.13" gradientTransform="matrix(0.25, -0.97, 0.96, 0.25, -1476.94, -739.32)" xlink:href="#radial-gradient-22"/><radialGradient id="radial-gradient-37" cx="-363.35" cy="1772.41" r="0.13" gradientTransform="matrix(0.25, -0.97, 0.96, 0.25, -1485.21, -740.48)" xlink:href="#radial-gradient-22"/><radialGradient id="radial-gradient-38" cx="124.98" cy="552.86" r="1.11" gradientTransform="translate(0 -500)" xlink:href="#radial-gradient-21"/><radialGradient id="radial-gradient-39" cx="129.91" cy="501.3" r="0.51" gradientTransform="translate(0 -371.41) scale(1 0.85)" xlink:href="#radial-gradient-25"/><radialGradient id="radial-gradient-40" cx="-315.98" cy="1840.53" r="9.35" gradientTransform="matrix(0.25, -0.97, 0.96, 0.25, -1514.97, -643.62)" xlink:href="#radial-gradient-19"/><radialGradient id="radial-gradient-41" cx="-99.29" cy="1160.64" r="6.05" gradientTransform="translate(295.45 -777.15) scale(1.24 0.77)" xlink:href="#radial-gradient-20"/><radialGradient id="radial-gradient-42" cx="-310.74" cy="1835.59" r="0.77" gradientTransform="matrix(0.25, -0.97, 0.96, 0.25, -1506.34, -642.26)" xlink:href="#radial-gradient-21"/><radialGradient id="radial-gradient-43" cx="-309.48" cy="1836.64" r="0.28" gradientTransform="matrix(0.25, -0.97, 0.96, 0.25, -1506.41, -640.24)" xlink:href="#radial-gradient-22"/><radialGradient id="radial-gradient-44" cx="-320.3" cy="1847.19" r="0.28" gradientTransform="matrix(0.25, -0.97, 0.96, 0.25, -1524.56, -642.8)" xlink:href="#radial-gradient-22"/><radialGradient id="radial-gradient-45" cx="166.9" cy="625.88" r="2.44" gradientTransform="translate(0 -500)" xlink:href="#radial-gradient-21"/><radialGradient id="radial-gradient-46" cx="177.73" cy="575.36" r="1.11" gradientTransform="translate(0 -360.65) scale(1 0.85)" xlink:href="#radial-gradient-25"/><radialGradient id="radial-gradient-47" cx="-332.92" cy="1860.97" r="4.97" gradientTransform="matrix(0.25, -0.97, 0.96, 0.25, -1547.15, -644.69)" xlink:href="#radial-gradient-19"/><radialGradient id="radial-gradient-48" cx="-114.01" cy="1184.64" r="3.22" gradientTransform="translate(297.14 -772.68) scale(1.24 0.77)" xlink:href="#radial-gradient-20"/><radialGradient id="radial-gradient-49" cx="-330.14" cy="1858.34" r="0.41" gradientTransform="matrix(0.25, -0.97, 0.96, 0.25, -1542.56, -643.97)" xlink:href="#radial-gradient-21"/><radialGradient id="radial-gradient-50" cx="-329.47" cy="1858.9" r="0.15" gradientTransform="matrix(0.25, -0.97, 0.96, 0.25, -1542.6, -642.9)" xlink:href="#radial-gradient-22"/><radialGradient id="radial-gradient-51" cx="-335.22" cy="1864.51" r="0.15" gradientTransform="matrix(0.25, -0.97, 0.96, 0.25, -1552.25, -644.26)" xlink:href="#radial-gradient-22"/><radialGradient id="radial-gradient-52" cx="152.95" cy="644.71" r="1.3" gradientTransform="translate(0 -500)" xlink:href="#radial-gradient-21"/><radialGradient id="radial-gradient-53" cx="158.71" cy="593.3" r="0.59" gradientTransform="translate(0 -358.05) scale(1 0.85)" xlink:href="#radial-gradient-25"/></defs><polygon class="cls-2" points="14.46 251.22 2.86 257.65 213.92 257.65 231.86 244.52 231.82 242.03 14.46 251.22"/><path class="cls-3" d="M212.73,216.55l-.86-199.39c-12.07,5.92-64.23,5.92-80.71,5.92h-4c-1.26,0-2.53-.06-3.79-.11-1.43,0-2.86-.1-4.28-.16s-3.13-.13-4.69-.21l-5-.26-5.26-.29c-1.8-.1-3.61-.21-5.41-.33l-5.5-.35L87.75,21l-5.4-.4-5.24-.41-5-.42c-1.56-.13-3.11-.27-4.66-.42l-4.23-.42-1.94-.2a26.82,26.82,0,0,1-2.8-.6L58,18a26.82,26.82,0,0,0-7.36-.7l-1.24.08.22,199.22a9.81,9.81,0,0,0,6.76,12.12A9.69,9.69,0,0,0,59,229H203.3a9.79,9.79,0,0,0,9.43-12.49Z"/><path class="cls-4" d="M218.54,218.28V14.16c0,4.93-63.58,8.92-87.38,8.92h-3.6c-4.79-.07-9.59-.25-14.39-.47-5.67-.26-11.35-.58-17-1q-8.78-.6-17.52-1.4c-5.3-.49-10.6-1-15.88-1.73C58.88,18,55,17,51.1,17s-7.62,1.67-11.44,2.5l-1,.2a19.92,19.92,0,0,1-3.84.59c-.46,0-.91.09-1.37.12-.22,0-.86-.06-1,.14s.24.62.36.76a4.77,4.77,0,0,0,.76.6c.33.25.67.47,1,.71L38,25.1,43.58,29l.16.11V218.28a11.51,11.51,0,0,0,11.12,14.58H207.41A11.53,11.53,0,0,0,219,221.34,11.75,11.75,0,0,0,218.54,218.28Z"/><g class="cls-5"><path class="cls-6" d="M213.78,221.85c0-8.62-36.86-11.59-82.32-11.59s-82.32,3.3-82.32,11.92,8,6.88,82.32,7.57C202,230.4,213.78,230.47,213.78,221.85Z"/><rect class="cls-7" x="17.1" y="77.93" width="225.47" height="175.35"/></g><path class="cls-8" d="M218.54,14.16c0,4.93-63.58,8.92-87.38,8.92-4.59,0-9.17-.12-13.75-.28q-9.64-.33-19.27-.92Q88,21.28,77.87,20.41q-3.8-.33-7.58-.7t-7.72-.86c-1.25-.16-2.49-.36-3.71-.62s-2.48-.49-3.74-.66a21.81,21.81,0,0,0-7.12,0c-2.34.46-4.57,1.28-6.88,1.84a40.86,40.86,0,0,1-8.59,1.12,7.39,7.39,0,0,1,1.6-1.4,37.37,37.37,0,0,1,4.44-2.53c2.14-1.08,4.26-2.37,6.46-3.41A29.79,29.79,0,0,1,52.48,11c4.45-.82,8.94-1.38,13.43-1.88,5.61-.64,11.23-1.14,16.86-1.59q9-.69,18-1.21,8.45-.48,16.9-.78c4.49-.15,9-.27,13.49-.27C155,5.25,218.54,9.24,218.54,14.16Z"/><g class="cls-9"><path class="cls-10" d="M198.32,146.29a4.23,4.23,0,0,1-4.14-3.34V77.86a4.14,4.14,0,0,1-.09-.87V37.81a4.23,4.23,0,0,1,8.46,0h0V76.55l-.07,64.64a4.23,4.23,0,0,1-3.27,5,4.28,4.28,0,0,1-.87.09Z"/></g><g class="cls-11"><path class="cls-12" d="M62.91,168.2a4.66,4.66,0,0,1-5.67-3.36h0a5.15,5.15,0,0,1-.14-1.18L57.8,56a4.66,4.66,0,0,1,9.31.06l-.7,107.73A4.65,4.65,0,0,1,62.91,168.2Z"/></g><circle class="cls-13" cx="199.25" cy="155.35" r="4.23"/><circle class="cls-14" cx="199.25" cy="82.17" r="4.23"/><circle class="cls-15" cx="64.48" cy="112.84" r="13.58"/><circle class="cls-16" cx="64.31" cy="162.62" r="0.45"/><circle class="cls-17" cx="64.28" cy="166.5" r="0.45"/><circle class="cls-18" cx="64.3" cy="164.34" r="3.4"/><line class="cls-1" x1="64.44" y1="123.57" x2="64.29" y2="166.49"/><circle class="cls-19" cx="64.44" cy="123.57" r="9.05"/><circle class="cls-20" cx="64.44" cy="123.57" r="4.53"/><circle class="cls-21" cx="64.44" cy="123.57" r="3.77"/><polyline class="cls-22" points="64.44 123.57 66.48 138.3 64.44 123.57 62.41 108.84 64.44 123.57 49.71 125.61 64.44 123.57 79.18 121.54 64.44 123.57 72.04 141.23 64.44 123.57 56.85 105.91 64.44 123.57 46.78 131.17 64.44 123.57 82.11 115.98 64.44 123.57 78.1 135.75 64.44 123.57 50.79 111.39 64.44 123.57 52.26 137.23 64.44 123.57 76.62 109.92 64.44 123.57 65.36 136.32 64.44 123.57 63.53 110.83 64.44 123.57 51.7 124.49 64.44 123.57 77.19 122.66 64.44 123.57 64.79 125.05 64.44 123.57 64.1 122.1 64.44 123.57 62.97 123.91 64.44 123.57 65.92 123.23 64.44 123.57 60.18 142.39 64.44 123.57 68.71 104.75 64.44 123.57 45.62 119.31 64.44 123.57 83.26 127.84 64.44 123.57 62.06 129.84 64.44 123.57 66.83 117.3 64.44 123.57 58.18 121.19 64.44 123.57 70.71 125.96 64.44 123.57 67.83 127.27 64.44 123.57 61.05 119.87 64.44 123.57 60.74 126.96 64.44 123.57 68.15 120.18 64.44 123.57 85.09 132.74 64.44 123.57 43.8 114.4 64.44 123.57 55.27 144.22 64.44 123.57 73.62 102.93 64.44 123.57 73.51 140.05 64.44 123.57 55.38 107.09 64.44 123.57 47.96 132.64 64.44 123.57 80.92 114.51 64.44 123.57 74.12 143.17 64.44 123.57 54.77 103.98 64.44 123.57 44.85 133.24 64.44 123.57 84.04 113.9 64.44 123.57 67.31 126.8 64.44 123.57 61.58 120.34 64.44 123.57 61.21 126.44 64.44 123.57 67.67 120.71 64.44 123.57 78.66 130.08 64.44 123.57 50.23 117.06 64.44 123.57 57.93 137.79 64.44 123.57 70.96 109.36 64.44 123.57 63.62 140.27 64.44 123.57 65.27 106.87 64.44 123.57 47.74 122.74 64.44 123.57 81.15 124.4 64.44 123.57 69.32 136.35 64.44 123.57 59.57 110.79 64.44 123.57 51.67 128.45 64.44 123.57 77.22 118.7"/><circle class="cls-23" cx="64.29" cy="166.49" r="6.79"/><circle class="cls-24" cx="64.32" cy="158.2" r="1.93"/><circle class="cls-25" cx="64.4" cy="135.83" r="1.08"/><circle class="cls-26" cx="64.35" cy="149.48" r="0.71"/><circle class="cls-27" cx="64.35" cy="151.64" r="1"/><circle class="cls-28" cx="64.32" cy="157.78" r="1.86"/><circle class="cls-29" cx="71.32" cy="20.65" r="7"/><path class="cls-30" d="M208.48,213V80h0c0,4.75-55.69,8.6-77.27,8.6S53.88,84.69,53.88,80h0V213c.07,5.91,2.77,11.84,8.94,11.84H199.48C205.67,224.86,208.48,218.81,208.48,213Z"/><g class="cls-31"><path class="cls-32" d="M135.79,114.22c-18.68,1.5-37.42,2.26-56.1,3.8-20,1.63-41.8,7.14-57.54,20.19l-.44.38c-8.76,7.43-16,18-15.41,29.46.44,9,5.68,17.24,12.53,23.09S34,200.75,42.4,204.06c48.7,19.22,104.27,25.27,153.43,7.27,9.89-3.62,19.53-8.23,27.68-14.89S238.3,181,241,170.78c2.81-10.48,1.31-21.89-3.26-31.73-4.33-9.32-11.15-16.48-14-26.61-.53-1.88-1.11-4-2.76-5a7.48,7.48,0,0,0-3.74-.85c-21.64-1-42.53,3.5-63.88,5.94C147.55,113.19,141.67,113.74,135.79,114.22Z"/><path class="cls-33" d="M130.92,154.12c-18.42,3.47-37,6.22-55.38,9.72-19.7,3.75-40.81,11.54-55.07,26.18l-.41.42c-7.92,8.32-14,19.58-12.2,30.93,1.4,8.9,7.48,16.54,14.91,21.63S38.9,251,47.58,253.35c50.46,14,106.36,14.08,153.34-9,9.44-4.65,18.54-10.26,26-17.74s13-17,14.69-27.37c1.69-10.72-1-21.9-6.6-31.2-5.3-8.81-12.83-15.21-16.72-25-.72-1.82-1.52-3.82-3.27-4.69a7.61,7.61,0,0,0-3.81-.45c-21.62,1.3-41.91,8-62.89,12.68C142.48,151.85,136.72,153,130.92,154.12Z"/></g><path class="cls-34" d="M208.48,80c0,4.75-55.69,8.6-77.27,8.6S53.88,84.69,53.88,80s55.71-8.59,77.29-8.59S208.48,75.2,208.48,80Z"/><g class="cls-35"><circle class="cls-36" cx="101.53" cy="88.54" r="14.91"/><ellipse class="cls-37" cx="100.49" cy="80.31" rx="9.96" ry="6.01" transform="translate(-5.8 7.85) rotate(-4.35)"/><circle class="cls-38" cx="109.46" cy="81.05" r="1.22"/><circle class="cls-39" cx="111.37" cy="82.66" r="0.44"/><circle class="cls-40" cx="94.98" cy="98.64" r="0.44"/><path class="cls-41" d="M89.67,89.63c-.15,2.88,1.58,7,4.34,8.25"/><circle class="cls-42" cx="108.24" cy="96.65" r="1.36"/></g><g class="cls-35"><circle class="cls-43" cx="145.75" cy="70.26" r="8.43"/><ellipse class="cls-44" cx="145.16" cy="65.61" rx="5.63" ry="3.4" transform="translate(-4.56 11.2) rotate(-4.35)"/><circle class="cls-45" cx="150.23" cy="66.03" r="0.69"/><circle class="cls-46" cx="151.31" cy="66.94" r="0.25"/><circle class="cls-47" cx="142.05" cy="75.97" r="0.25"/><path class="cls-48" d="M139,70.88c-.08,1.63.9,4,2.46,4.66"/><circle class="cls-49" cx="149.54" cy="74.85" r="0.77"/></g><g class="cls-35"><circle class="cls-50" cx="127.89" cy="51.29" r="4.48"/><ellipse class="cls-51" cx="127.59" cy="48.81" rx="3" ry="1.81" transform="translate(-3.33 9.82) rotate(-4.35)"/><circle class="cls-52" cx="130.28" cy="49.04" r="0.37"/><circle class="cls-53" cx="130.85" cy="49.52" r="0.13"/><circle class="cls-54" cx="125.92" cy="54.32" r="0.13"/><path class="cls-55" d="M124.33,51.62a2.79,2.79,0,0,0,1.3,2.48"/><circle class="cls-56" cx="129.91" cy="53.73" r="0.41"/></g><g class="cls-57"><circle class="cls-58" cx="173.3" cy="122.44" r="9.84"/><ellipse class="cls-59" cx="172.62" cy="117.01" rx="6.58" ry="3.96" transform="translate(-8.38 13.43) rotate(-4.35)"/><circle class="cls-60" cx="178.53" cy="117.5" r="0.81"/><circle class="cls-61" cx="179.79" cy="118.56" r="0.29"/><circle class="cls-62" cx="168.98" cy="129.1" r="0.29"/><path class="cls-63" d="M165.48,123.16c-.1,1.9,1,4.64,2.87,5.44"/><circle class="cls-64" cx="177.73" cy="127.79" r="0.89"/></g><g class="cls-57"><circle class="cls-65" cx="156.35" cy="142.88" r="5.23"/><ellipse class="cls-66" cx="156" cy="139.99" rx="3.5" ry="2.11" transform="translate(-10.17 12.24) rotate(-4.35)"/><circle class="cls-67" cx="159.14" cy="140.25" r="0.43"/><circle class="cls-68" cx="159.81" cy="140.82" r="0.16"/><circle class="cls-69" cx="154.06" cy="146.43" r="0.16"/><path class="cls-70" d="M152.19,143.26a3.23,3.23,0,0,0,1.53,2.9"/><circle class="cls-71" cx="158.71" cy="145.73" r="0.48"/></g><polygon class="cls-72" points="225.2 172.06 29.64 172.06 14.46 251.22 210.02 251.22 225.2 172.06"/><polygon class="cls-73" points="225.2 172.06 231.82 242.03 229.21 244.07 214.22 244.24 213.11 248.79 210.02 251.22 225.2 172.06"/></svg>